G04 #@! TF.GenerationSoftware,KiCad,Pcbnew,(5.1.5)-3*
G04 #@! TF.CreationDate,2020-05-02T01:09:43+02:00*
G04 #@! TF.ProjectId,inkplateclone,696e6b70-6c61-4746-9563-6c6f6e652e6b,rev?*
G04 #@! TF.SameCoordinates,Original*
G04 #@! TF.FileFunction,Legend,Top*
G04 #@! TF.FilePolarity,Positive*
%FSLAX46Y46*%
G04 Gerber Fmt 4.6, Leading zero omitted, Abs format (unit mm)*
G04 Created by KiCad (PCBNEW (5.1.5)-3) date 2020-05-02 01:09:43*
%MOMM*%
%LPD*%
G04 APERTURE LIST*
%ADD10C,0.100000*%
%ADD11C,0.150000*%
%ADD12C,0.120000*%
G04 APERTURE END LIST*
D10*
X127704348Y-70067648D02*
X127704344Y-70067644D01*
X126429748Y-70048563D02*
X126026508Y-70048563D01*
X124874037Y-69247169D02*
X124874037Y-70048562D01*
X128010909Y-68199000D02*
X128359451Y-68199000D01*
X124162953Y-69099610D02*
X124124771Y-69161518D01*
X124124771Y-69161518D02*
X124110804Y-69249835D01*
X124110804Y-69249835D02*
X124110803Y-69250984D01*
X127904061Y-70009138D02*
X127838487Y-70044069D01*
X127838487Y-70044069D02*
X127758126Y-70064269D01*
X127758126Y-70064269D02*
X127704348Y-70067648D01*
X127608934Y-69286605D02*
X127608934Y-69496494D01*
X124084093Y-68958412D02*
X124120826Y-68891131D01*
X124120826Y-68891131D02*
X124162693Y-68832904D01*
X124162693Y-68832904D02*
X124213464Y-68781801D01*
X124213464Y-68781801D02*
X124226563Y-68771421D01*
X127988012Y-69128864D02*
X127943770Y-69072914D01*
X127943770Y-69072914D02*
X127920592Y-69057634D01*
X125566025Y-70048563D02*
X125217483Y-70048563D01*
X125995979Y-68728173D02*
X126364874Y-68728173D01*
X128028722Y-69841227D02*
X127995511Y-69910026D01*
X127995511Y-69910026D02*
X127952029Y-69967340D01*
X127952029Y-69967340D02*
X127904061Y-70009138D01*
X128010912Y-69539751D02*
X128028722Y-69841227D01*
X124226563Y-68771421D02*
X124291161Y-68735138D01*
X124291161Y-68735138D02*
X124370267Y-68713815D01*
X124370267Y-68713815D02*
X124436451Y-68709091D01*
X127988012Y-69650419D02*
X128009409Y-69571699D01*
X128009409Y-69571699D02*
X128010912Y-69539751D01*
X127920592Y-69720379D02*
X127973981Y-69673685D01*
X127973981Y-69673685D02*
X127988012Y-69650419D01*
X127662364Y-69679669D02*
X127718214Y-69723876D01*
X127718214Y-69723876D02*
X127798861Y-69744088D01*
X127798861Y-69744088D02*
X127815011Y-69744549D01*
X125380306Y-69572815D02*
X125995979Y-68728173D01*
X128010909Y-70048563D02*
X128010909Y-68199000D01*
X124525495Y-70048562D02*
X124525487Y-69248442D01*
X127260402Y-69496491D02*
X127260402Y-69285330D01*
X127312552Y-69805599D02*
X127287488Y-69729761D01*
X127287488Y-69729761D02*
X127270650Y-69646405D01*
X127270650Y-69646405D02*
X127261817Y-69554689D01*
X127261817Y-69554689D02*
X127260402Y-69496491D01*
X125693230Y-69366743D02*
X125980714Y-69193744D01*
X124436451Y-68709091D02*
X124529431Y-68716909D01*
X124529431Y-68716909D02*
X124609088Y-68739214D01*
X124609088Y-68739214D02*
X124677253Y-68774786D01*
X124677253Y-68774786D02*
X124732647Y-68820352D01*
X124732647Y-68820352D02*
X124759552Y-68850289D01*
X126026508Y-70048563D02*
X125693230Y-69366743D01*
X124759552Y-68850289D02*
X124800439Y-68910363D01*
X124800439Y-68910363D02*
X124832197Y-68979274D01*
X124832197Y-68979274D02*
X124855047Y-69057295D01*
X124855047Y-69057295D02*
X124868890Y-69143517D01*
X124868890Y-69143517D02*
X124874003Y-69238667D01*
X124874003Y-69238667D02*
X124874037Y-69247169D01*
X125427371Y-69956975D02*
X125380306Y-69572815D01*
X128359451Y-68199000D02*
X128359451Y-70048563D01*
X124874037Y-70048562D02*
X124525495Y-70048562D01*
X125217483Y-70048563D02*
X125217483Y-68199000D01*
X124313055Y-69044910D02*
X124225870Y-69059067D01*
X124225870Y-69059067D02*
X124164419Y-69098123D01*
X124164419Y-69098123D02*
X124162953Y-69099610D01*
X127608934Y-69496494D02*
X127618528Y-69587171D01*
X127618528Y-69587171D02*
X127647500Y-69658943D01*
X127647500Y-69658943D02*
X127662364Y-69679669D01*
X128037622Y-68950777D02*
X128010912Y-69243349D01*
X127312552Y-68973678D02*
X127345224Y-68906280D01*
X127345224Y-68906280D02*
X127386267Y-68847244D01*
X127386267Y-68847244D02*
X127436585Y-68796998D01*
X127436585Y-68796998D02*
X127463926Y-68776510D01*
X127463926Y-70000224D02*
X127408827Y-69954588D01*
X127408827Y-69954588D02*
X127362901Y-69899382D01*
X127362901Y-69899382D02*
X127325983Y-69835760D01*
X127325983Y-69835760D02*
X127312552Y-69805599D01*
X125566025Y-68199000D02*
X125566025Y-70048563D01*
X128010912Y-69243349D02*
X127998623Y-69155505D01*
X127998623Y-69155505D02*
X127988012Y-69128864D01*
X127662364Y-69099614D02*
X127626969Y-69164635D01*
X127626969Y-69164635D02*
X127610360Y-69248530D01*
X127610360Y-69248530D02*
X127608934Y-69286605D01*
X127896425Y-68772690D02*
X127950622Y-68819655D01*
X127950622Y-68819655D02*
X127995552Y-68875607D01*
X127995552Y-68875607D02*
X128032750Y-68940482D01*
X128032750Y-68940482D02*
X128037622Y-68950777D01*
X128359451Y-70048563D02*
X128010909Y-70048563D01*
X124469517Y-69098340D02*
X124407592Y-69059877D01*
X124407592Y-69059877D02*
X124322100Y-69045016D01*
X124322100Y-69045016D02*
X124313055Y-69044910D01*
X127815011Y-69032194D02*
X127730568Y-69047881D01*
X127730568Y-69047881D02*
X127671399Y-69089245D01*
X127671399Y-69089245D02*
X127662364Y-69099614D01*
X127704344Y-70067644D02*
X127612308Y-70059583D01*
X127612308Y-70059583D02*
X127534447Y-70037337D01*
X127534447Y-70037337D02*
X127466580Y-70001987D01*
X127466580Y-70001987D02*
X127463926Y-70000224D01*
X125217483Y-68199000D02*
X125566025Y-68199000D01*
X127704344Y-68709090D02*
X127792691Y-68721153D01*
X127792691Y-68721153D02*
X127863666Y-68751276D01*
X127863666Y-68751276D02*
X127896425Y-68772690D01*
X127463926Y-68776510D02*
X127530141Y-68741133D01*
X127530141Y-68741133D02*
X127607390Y-68718081D01*
X127607390Y-68718081D02*
X127699434Y-68709108D01*
X127699434Y-68709108D02*
X127704344Y-68709090D01*
X125980714Y-69193744D02*
X126429748Y-70048563D01*
X126364874Y-68728173D02*
X125427371Y-69956975D01*
X124110803Y-69250984D02*
X124084093Y-68958412D01*
X127260402Y-69285330D02*
X127264354Y-69189093D01*
X127264354Y-69189093D02*
X127276246Y-69100621D01*
X127276246Y-69100621D02*
X127295995Y-69020358D01*
X127295995Y-69020358D02*
X127312552Y-68973678D01*
X127920592Y-69057634D02*
X127843629Y-69033637D01*
X127843629Y-69033637D02*
X127815011Y-69032194D01*
X127815011Y-69744549D02*
X127900569Y-69729868D01*
X127900569Y-69729868D02*
X127920592Y-69720379D01*
X118495957Y-69200104D02*
X118495957Y-70048563D01*
X117859937Y-69267521D02*
X118190671Y-69267521D01*
X119217213Y-69687298D02*
X119293021Y-69712713D01*
X119293021Y-69712713D02*
X119296083Y-69712738D01*
X124525487Y-69248442D02*
X124511354Y-69162208D01*
X124511354Y-69162208D02*
X124472000Y-69100758D01*
X124472000Y-69100758D02*
X124469517Y-69098340D01*
X123762255Y-70048563D02*
X123762255Y-68728173D01*
X121854179Y-69217913D02*
X122759880Y-69217913D01*
X121561608Y-69712740D02*
X121561608Y-70048563D01*
X124110798Y-70048563D02*
X123762255Y-70048563D01*
X122759880Y-69553734D02*
X121854179Y-69553734D01*
X117389279Y-69659314D02*
X117396764Y-69566483D01*
X117396764Y-69566483D02*
X117418649Y-69487618D01*
X117418649Y-69487618D02*
X117453909Y-69422242D01*
X117453909Y-69422242D02*
X117501553Y-69369528D01*
X117501553Y-69369528D02*
X117506307Y-69365471D01*
X123435338Y-68728173D02*
X123435338Y-70048563D01*
X124110798Y-68728173D02*
X124110798Y-70048563D01*
X118179227Y-69655499D02*
X118205937Y-69847579D01*
X123762255Y-68728173D02*
X124110798Y-68728173D01*
X123086797Y-70048563D02*
X123086797Y-68728173D01*
X120448563Y-69712740D02*
X121561608Y-69712740D01*
X123086797Y-68199000D02*
X123435338Y-68199000D01*
X120448563Y-69298052D02*
X120448563Y-68962230D01*
X117903193Y-69786519D02*
X117999529Y-69781872D01*
X117999529Y-69781872D02*
X118083650Y-69765219D01*
X118083650Y-69765219D02*
X118110537Y-69754719D01*
X117703481Y-69659309D02*
X117728690Y-69734998D01*
X117728690Y-69734998D02*
X117753091Y-69755989D01*
X117994773Y-70043475D02*
X117910727Y-70060921D01*
X117910727Y-70060921D02*
X117817062Y-70067623D01*
X117817062Y-70067623D02*
X117811597Y-70067645D01*
X123086797Y-68547542D02*
X123086797Y-68199000D01*
X123435338Y-68547542D02*
X123086797Y-68547542D01*
X119190500Y-68198996D02*
X119190503Y-69612248D01*
X121421682Y-69298052D02*
X120448563Y-69298052D01*
X117493587Y-69967152D02*
X117448791Y-69911115D01*
X117448791Y-69911115D02*
X117416641Y-69843048D01*
X117416641Y-69843048D02*
X117396799Y-69762472D01*
X117396799Y-69762472D02*
X117389338Y-69669311D01*
X117389338Y-69669311D02*
X117389279Y-69659314D01*
X120322630Y-70048563D02*
X120322630Y-68199000D01*
X117811599Y-70067644D02*
X117716791Y-70061980D01*
X117716791Y-70061980D02*
X117633074Y-70044722D01*
X117633074Y-70044722D02*
X117561822Y-70015936D01*
X117561822Y-70015936D02*
X117502477Y-69975268D01*
X117502477Y-69975268D02*
X117493587Y-69967152D01*
X121854179Y-69553734D02*
X121854179Y-69217913D01*
X120448563Y-68199000D02*
X121561608Y-68199000D01*
X118139787Y-69968425D02*
X118079621Y-70009507D01*
X118079621Y-70009507D02*
X118008966Y-70039136D01*
X118008966Y-70039136D02*
X117994773Y-70043475D01*
X117811597Y-70067645D02*
X117811599Y-70067644D01*
X117861211Y-69533379D02*
X117774056Y-69547316D01*
X117774056Y-69547316D02*
X117742911Y-69565179D01*
X118929728Y-69956971D02*
X118887234Y-69899402D01*
X118887234Y-69899402D02*
X118858234Y-69828350D01*
X118858234Y-69828350D02*
X118843572Y-69742596D01*
X118843572Y-69742596D02*
X118841958Y-69698744D01*
X121421682Y-68962230D02*
X121421682Y-69298052D01*
X123435338Y-70048563D02*
X123086797Y-70048563D01*
X118841958Y-69698744D02*
X118841958Y-68198996D01*
X123086797Y-68728173D02*
X123435338Y-68728173D01*
X120671172Y-70048563D02*
X120322630Y-70048563D01*
X118179215Y-70048563D02*
X118179222Y-69211552D01*
X123435338Y-68199000D02*
X123435338Y-68547542D01*
X122759880Y-69217913D02*
X122759880Y-69553734D01*
X120448563Y-68534821D02*
X120448563Y-68199000D01*
X121561608Y-68534821D02*
X120448563Y-68534821D01*
X121561608Y-68199000D02*
X121561608Y-68534821D01*
X119354593Y-69712738D02*
X119354593Y-70048561D01*
X118208481Y-69533379D02*
X117861211Y-69533379D01*
X119296083Y-69712738D02*
X119354593Y-69712738D01*
X120448563Y-70048563D02*
X120448563Y-69712740D01*
X118205937Y-69847579D02*
X118180262Y-69922488D01*
X118180262Y-69922488D02*
X118139787Y-69968425D01*
X120448563Y-68962230D02*
X121421682Y-68962230D01*
X117506307Y-69365471D02*
X117567332Y-69325375D01*
X117567332Y-69325375D02*
X117638713Y-69296446D01*
X117638713Y-69296446D02*
X117720409Y-69277690D01*
X117720409Y-69277690D02*
X117816401Y-69268398D01*
X117816401Y-69268398D02*
X117859937Y-69267521D01*
X117742911Y-69565179D02*
X117706148Y-69628441D01*
X117706148Y-69628441D02*
X117703481Y-69659309D01*
X119190503Y-69612248D02*
X119216486Y-69686562D01*
X119216486Y-69686562D02*
X119217213Y-69687298D01*
X121561608Y-70048563D02*
X120448563Y-70048563D01*
X119176506Y-70048561D02*
X119084615Y-70039725D01*
X119084615Y-70039725D02*
X119008037Y-70013998D01*
X119008037Y-70013998D02*
X118947179Y-69973660D01*
X118947179Y-69973660D02*
X118929728Y-69956971D01*
X118190671Y-69267521D02*
X118208481Y-69533379D01*
X120671172Y-68199000D02*
X120671172Y-70048563D01*
X120322630Y-68199000D02*
X120671172Y-68199000D01*
X118110537Y-69754719D02*
X118165242Y-69709082D01*
X118165242Y-69709082D02*
X118179227Y-69655499D01*
X117753091Y-69755989D02*
X117828229Y-69781207D01*
X117828229Y-69781207D02*
X117903193Y-69786519D01*
X118841958Y-68198996D02*
X119190500Y-68198996D01*
X118495957Y-70048563D02*
X118179215Y-70048563D01*
X119354593Y-70048561D02*
X119176506Y-70048561D01*
X113976360Y-68781600D02*
X114045491Y-68749769D01*
X114045491Y-68749769D02*
X114122895Y-68726723D01*
X114122895Y-68726723D02*
X114210317Y-68712872D01*
X114210317Y-68712872D02*
X114291829Y-68709090D01*
X115822118Y-68709091D02*
X115915098Y-68716909D01*
X115915098Y-68716909D02*
X115994756Y-68739214D01*
X115994756Y-68739214D02*
X116062921Y-68774786D01*
X116062921Y-68774786D02*
X116118314Y-68820352D01*
X116118314Y-68820352D02*
X116145219Y-68850289D01*
X114522076Y-69295507D02*
X114518276Y-69264977D01*
X114775209Y-69047456D02*
X114800437Y-69122357D01*
X114800437Y-69122357D02*
X114819628Y-69204563D01*
X114819628Y-69204563D02*
X114832396Y-69292204D01*
X114832396Y-69292204D02*
X114839090Y-69387648D01*
X114839090Y-69387648D02*
X114840089Y-69444336D01*
X115911154Y-69248442D02*
X115897022Y-69162208D01*
X115897022Y-69162208D02*
X115857667Y-69100758D01*
X115857667Y-69100758D02*
X115855184Y-69098340D01*
X114578059Y-69668212D02*
X114805756Y-69870468D01*
X114445765Y-69088162D02*
X114388201Y-69045585D01*
X114388201Y-69045585D02*
X114307074Y-69026228D01*
X114307074Y-69026228D02*
X114291847Y-69025832D01*
X115911161Y-70048562D02*
X115911154Y-69248442D01*
X113936931Y-69295507D02*
X114522076Y-69295507D01*
X115612229Y-68771421D02*
X115676832Y-68735138D01*
X115676832Y-68735138D02*
X115755939Y-68713815D01*
X115755939Y-68713815D02*
X115822118Y-68709091D01*
X114453397Y-69739452D02*
X114522305Y-69706957D01*
X114522305Y-69706957D02*
X114578059Y-69668212D01*
X114095951Y-69100882D02*
X114056227Y-69161163D01*
X114056227Y-69161163D02*
X114033076Y-69238629D01*
X114033076Y-69238629D02*
X114027261Y-69313315D01*
X114518276Y-69264977D02*
X114498925Y-69178744D01*
X114498925Y-69178744D02*
X114465158Y-69111961D01*
X114465158Y-69111961D02*
X114445765Y-69088162D01*
X114840089Y-69530836D02*
X113936931Y-69530836D01*
X114840089Y-69444336D02*
X114840089Y-69530836D01*
X117662768Y-68759977D02*
X117738501Y-68735237D01*
X117738501Y-68735237D02*
X117823852Y-68717900D01*
X117823852Y-68717900D02*
X117916381Y-68709693D01*
X117916381Y-68709693D02*
X117950251Y-68709097D01*
X118431087Y-68935517D02*
X118463614Y-69003784D01*
X118463614Y-69003784D02*
X118485351Y-69082100D01*
X118485351Y-69082100D02*
X118495452Y-69173174D01*
X118495452Y-69173174D02*
X118495957Y-69200104D01*
X117950251Y-68709097D02*
X118046629Y-68714048D01*
X118046629Y-68714048D02*
X118132709Y-68728517D01*
X118132709Y-68728517D02*
X118212279Y-68753193D01*
X118212279Y-68753193D02*
X118245367Y-68767607D01*
X115496466Y-70048563D02*
X115147924Y-70048563D01*
X114574243Y-70016755D02*
X114499245Y-70042057D01*
X114499245Y-70042057D02*
X114416204Y-70059947D01*
X114416204Y-70059947D02*
X114323440Y-70067576D01*
X114323440Y-70067576D02*
X114314744Y-70067635D01*
X117147587Y-70054923D02*
X116972045Y-70054923D01*
X115855184Y-69098340D02*
X115793260Y-69059877D01*
X115793260Y-69059877D02*
X115707767Y-69045016D01*
X115707767Y-69045016D02*
X115698722Y-69044910D01*
X117147587Y-69719100D02*
X117147587Y-70054923D01*
X116259703Y-69247169D02*
X116259703Y-70048562D01*
X113936931Y-69530836D02*
X113936931Y-69295507D01*
X115496470Y-69250984D02*
X115469760Y-68958412D01*
X118245367Y-68767607D02*
X118309839Y-68804311D01*
X118309839Y-68804311D02*
X118365100Y-68849758D01*
X118365100Y-68849758D02*
X118411194Y-68904239D01*
X118411194Y-68904239D02*
X118431087Y-68935517D01*
X116637495Y-68344015D02*
X116986037Y-68344015D01*
X114588217Y-68795590D02*
X114643408Y-68841082D01*
X114643408Y-68841082D02*
X114690847Y-68894130D01*
X114690847Y-68894130D02*
X114731415Y-68954902D01*
X114731415Y-68954902D02*
X114764735Y-69021706D01*
X114764735Y-69021706D02*
X114775209Y-69047456D01*
X117454151Y-68899903D02*
X117505093Y-68850166D01*
X117505093Y-68850166D02*
X117566168Y-68806741D01*
X117566168Y-68806741D02*
X117635476Y-68771102D01*
X117635476Y-68771102D02*
X117662768Y-68759977D01*
X117147588Y-69025833D02*
X116501387Y-69025833D01*
X117061087Y-69719100D02*
X117147587Y-69719100D01*
X116637495Y-69705109D02*
X116637495Y-68344015D01*
X114102311Y-69689842D02*
X114161464Y-69731654D01*
X114161464Y-69731654D02*
X114238731Y-69757030D01*
X114238731Y-69757030D02*
X114314744Y-69763622D01*
X115147924Y-70048563D02*
X115147924Y-68728173D01*
X114805756Y-69870468D02*
X114805756Y-69870468D01*
X117670400Y-69112335D02*
X117454151Y-68899903D01*
X115496466Y-68728173D02*
X115496466Y-70048563D01*
X114805756Y-69870468D02*
X114750506Y-69916537D01*
X114750506Y-69916537D02*
X114691141Y-69957367D01*
X114691141Y-69957367D02*
X114626825Y-69993119D01*
X114626825Y-69993119D02*
X114574243Y-70016755D01*
X114314744Y-69763622D02*
X114405613Y-69753302D01*
X114405613Y-69753302D02*
X114453397Y-69739452D01*
X117798877Y-69044915D02*
X117728621Y-69074843D01*
X117728621Y-69074843D02*
X117670400Y-69112335D01*
X117945163Y-69020745D02*
X117854005Y-69030065D01*
X117854005Y-69030065D02*
X117798877Y-69044915D01*
X118118162Y-69070355D02*
X118052744Y-69035696D01*
X118052744Y-69035696D02*
X117966956Y-69021235D01*
X117966956Y-69021235D02*
X117945163Y-69020745D01*
X118179222Y-69211552D02*
X118162614Y-69127440D01*
X118162614Y-69127440D02*
X118118874Y-69070936D01*
X118118874Y-69070936D02*
X118118162Y-69070355D01*
X116501387Y-69025833D02*
X116501387Y-68728173D01*
X115698722Y-69044910D02*
X115611537Y-69059067D01*
X115611537Y-69059067D02*
X115550086Y-69098123D01*
X115550086Y-69098123D02*
X115548620Y-69099610D01*
X114578059Y-69668212D02*
X114578059Y-69668212D01*
X117147588Y-68728173D02*
X117147588Y-69025833D01*
X116501387Y-68728173D02*
X117147588Y-68728173D01*
X117005117Y-69693660D02*
X117061087Y-69719100D01*
X116986037Y-68344015D02*
X116986037Y-69618610D01*
X116717635Y-69967153D02*
X116677331Y-69907327D01*
X116677331Y-69907327D02*
X116651102Y-69833439D01*
X116651102Y-69833439D02*
X116638574Y-69744182D01*
X116638574Y-69744182D02*
X116637495Y-69705109D01*
X114314744Y-70067635D02*
X114314730Y-70067644D01*
X116259703Y-70048562D02*
X115911161Y-70048562D01*
X114291847Y-69025832D02*
X114202405Y-69037166D01*
X114202405Y-69037166D02*
X114133609Y-69068596D01*
X114133609Y-69068596D02*
X114095951Y-69100882D01*
X116986037Y-69618610D02*
X117005117Y-69693660D01*
X116972045Y-70054923D02*
X116879392Y-70047535D01*
X116879392Y-70047535D02*
X116801100Y-70024934D01*
X116801100Y-70024934D02*
X116738511Y-69986968D01*
X116738511Y-69986968D02*
X116717635Y-69967153D01*
X114291829Y-68709090D02*
X114385368Y-68715953D01*
X114385368Y-68715953D02*
X114467629Y-68735420D01*
X114467629Y-68735420D02*
X114538381Y-68765232D01*
X114538381Y-68765232D02*
X114588217Y-68795590D01*
X115469760Y-68958412D02*
X115506493Y-68891131D01*
X115506493Y-68891131D02*
X115548360Y-68832904D01*
X115548360Y-68832904D02*
X115599130Y-68781801D01*
X115599130Y-68781801D02*
X115612229Y-68771421D01*
X116145219Y-68850289D02*
X116186106Y-68910363D01*
X116186106Y-68910363D02*
X116217864Y-68979274D01*
X116217864Y-68979274D02*
X116240713Y-69057295D01*
X116240713Y-69057295D02*
X116254556Y-69143517D01*
X116254556Y-69143517D02*
X116259669Y-69238667D01*
X116259669Y-69238667D02*
X116259703Y-69247169D01*
X115548620Y-69099610D02*
X115510438Y-69161518D01*
X115510438Y-69161518D02*
X115496471Y-69249835D01*
X115496471Y-69249835D02*
X115496470Y-69250984D01*
X115147924Y-68728173D02*
X115496466Y-68728173D01*
X114027261Y-69481225D02*
X114037268Y-69571570D01*
X114037268Y-69571570D02*
X114065923Y-69643331D01*
X114065923Y-69643331D02*
X114102311Y-69689842D01*
X114027261Y-69313315D02*
X114027261Y-69481225D01*
X112065745Y-69044916D02*
X111978560Y-69059073D01*
X111978560Y-69059073D02*
X111917109Y-69098129D01*
X111917109Y-69098129D02*
X111915643Y-69099616D01*
X113987812Y-69998954D02*
X113925529Y-69960909D01*
X113925529Y-69960909D02*
X113870764Y-69915252D01*
X113870764Y-69915252D02*
X113823723Y-69862126D01*
X113823723Y-69862126D02*
X113784263Y-69801326D01*
X113784263Y-69801326D02*
X113781740Y-69796697D01*
X114314730Y-70067644D02*
X114216530Y-70062722D01*
X114216530Y-70062722D02*
X114130278Y-70048890D01*
X114130278Y-70048890D02*
X114051964Y-70026431D01*
X114051964Y-70026431D02*
X113987812Y-69998954D01*
X112841695Y-69044916D02*
X112754779Y-69059354D01*
X112754779Y-69059354D02*
X112693630Y-69098467D01*
X112693630Y-69098467D02*
X112686504Y-69105976D01*
X112633083Y-70048571D02*
X112284540Y-70048571D01*
X112428286Y-68776519D02*
X112483351Y-68821704D01*
X112483351Y-68821704D02*
X112529238Y-68876616D01*
X112529238Y-68876616D02*
X112566453Y-68940793D01*
X112566453Y-68940793D02*
X112580933Y-68973687D01*
X112189141Y-68709099D02*
X112281262Y-68717199D01*
X112281262Y-68717199D02*
X112359226Y-68739706D01*
X112359226Y-68739706D02*
X112425000Y-68774311D01*
X112425000Y-68774311D02*
X112428286Y-68776519D01*
X111983068Y-68772699D02*
X112047398Y-68736323D01*
X112047398Y-68736323D02*
X112125276Y-68714083D01*
X112125276Y-68714083D02*
X112189141Y-68709099D01*
X110424797Y-69057636D02*
X110339567Y-69044916D01*
X110690659Y-68812120D02*
X110487127Y-69095796D01*
X113054127Y-69286603D02*
X113043695Y-69196624D01*
X113043695Y-69196624D02*
X113012223Y-69126282D01*
X113012223Y-69126282D02*
X112998157Y-69108516D01*
X111514945Y-70048563D02*
X111514945Y-68728173D01*
X110118232Y-70048563D02*
X109744249Y-70048563D01*
X112998157Y-69108516D02*
X112940989Y-69064897D01*
X112940989Y-69064897D02*
X112859978Y-69045449D01*
X112859978Y-69045449D02*
X112841695Y-69044916D01*
X111863493Y-69250990D02*
X111836783Y-68958418D01*
X113402673Y-70048569D02*
X113054131Y-70048569D01*
X112952363Y-68709097D02*
X113044847Y-68716971D01*
X113044847Y-68716971D02*
X113123513Y-68738997D01*
X113123513Y-68738997D02*
X113189993Y-68773005D01*
X113189993Y-68773005D02*
X113195325Y-68776517D01*
X112568203Y-68971139D02*
X112604621Y-68907286D01*
X112604621Y-68907286D02*
X112648211Y-68849981D01*
X112648211Y-68849981D02*
X112699098Y-68800730D01*
X112699098Y-68800730D02*
X112729754Y-68777787D01*
X112633074Y-69276431D02*
X112568203Y-68971139D01*
X110839486Y-70048563D02*
X110839486Y-68728173D01*
X110118232Y-68728173D02*
X110118232Y-70048563D01*
X111188028Y-68728173D02*
X111188028Y-70048563D01*
X112227295Y-69108516D02*
X112169711Y-69065741D01*
X112169711Y-69065741D02*
X112089157Y-69045758D01*
X112089157Y-69045758D02*
X112065745Y-69044916D01*
X109744249Y-68728173D02*
X110118232Y-68728173D01*
X111188028Y-68199000D02*
X111188028Y-68547542D01*
X111863487Y-70048563D02*
X111514945Y-70048563D01*
X113349243Y-68973685D02*
X113374917Y-69050227D01*
X113374917Y-69050227D02*
X113392305Y-69135219D01*
X113392305Y-69135219D02*
X113401247Y-69227389D01*
X113401247Y-69227389D02*
X113402673Y-69285337D01*
X112729754Y-68777787D02*
X112794251Y-68741746D01*
X112794251Y-68741746D02*
X112870511Y-68717304D01*
X112870511Y-68717304D02*
X112952363Y-68709097D01*
X109174395Y-69668212D02*
X109402092Y-69870468D01*
X112686504Y-69105976D02*
X112649581Y-69169109D01*
X112649581Y-69169109D02*
X112633676Y-69253443D01*
X112633676Y-69253443D02*
X112633074Y-69276431D01*
X110118232Y-69301869D02*
X110091522Y-68958415D01*
X110091522Y-68958415D02*
X110126549Y-68893279D01*
X110126549Y-68893279D02*
X110168980Y-68835247D01*
X110168980Y-68835247D02*
X110219723Y-68785431D01*
X110219723Y-68785431D02*
X110232719Y-68775240D01*
X110487127Y-69095796D02*
X110425084Y-69057735D01*
X110425084Y-69057735D02*
X110424797Y-69057636D01*
X110839486Y-68728173D02*
X111188028Y-68728173D01*
X108911081Y-70067635D02*
X108911056Y-70067644D01*
X109174395Y-69668212D02*
X109174395Y-69668212D01*
X113195325Y-68776517D02*
X113250732Y-68821408D01*
X113250732Y-68821408D02*
X113297116Y-68876311D01*
X113297116Y-68876311D02*
X113334166Y-68939605D01*
X113334166Y-68939605D02*
X113349243Y-68973685D01*
X110839486Y-68199000D02*
X111188028Y-68199000D01*
X110424799Y-68709090D02*
X110515796Y-68718209D01*
X110515796Y-68718209D02*
X110573629Y-68735800D01*
X110232719Y-68775240D02*
X110296108Y-68737069D01*
X110296108Y-68737069D02*
X110372502Y-68713419D01*
X110372502Y-68713419D02*
X110424799Y-68709090D01*
X113054131Y-70048569D02*
X113054127Y-69286603D01*
X110175472Y-69113606D02*
X110138542Y-69176851D01*
X110138542Y-69176851D02*
X110120201Y-69258861D01*
X110120201Y-69258861D02*
X110118232Y-69301869D01*
X110573629Y-68735800D02*
X110639837Y-68769741D01*
X110639837Y-68769741D02*
X110690659Y-68812120D01*
X113777920Y-68992761D02*
X113815097Y-68929000D01*
X113815097Y-68929000D02*
X113859940Y-68872709D01*
X113859940Y-68872709D02*
X113912069Y-68824519D01*
X113912069Y-68824519D02*
X113972067Y-68784024D01*
X113972067Y-68784024D02*
X113976360Y-68781600D01*
X111514945Y-68728173D02*
X111863487Y-68728173D01*
X111863487Y-68728173D02*
X111863487Y-70048563D01*
X113402673Y-69285337D02*
X113402673Y-70048569D01*
X110339567Y-69044916D02*
X110253381Y-69059077D01*
X110253381Y-69059077D02*
X110190928Y-69097415D01*
X110190928Y-69097415D02*
X110175472Y-69113606D01*
X111188028Y-68547542D02*
X110839486Y-68547542D01*
X112633083Y-69285339D02*
X112633083Y-70048571D01*
X112284540Y-70048571D02*
X112284535Y-69286603D01*
X109402092Y-69870468D02*
X109402092Y-69870468D01*
X112580933Y-68973687D02*
X112605697Y-69049102D01*
X112605697Y-69049102D02*
X112622829Y-69134290D01*
X112622829Y-69134290D02*
X112631624Y-69226036D01*
X112631624Y-69226036D02*
X112633083Y-69285339D01*
X110839486Y-68547542D02*
X110839486Y-68199000D01*
X112284535Y-69286603D02*
X112273987Y-69197077D01*
X112273987Y-69197077D02*
X112242833Y-69127920D01*
X112242833Y-69127920D02*
X112227295Y-69108516D01*
X111188028Y-70048563D02*
X110839486Y-70048563D01*
X111915643Y-69099616D02*
X111877461Y-69161524D01*
X111877461Y-69161524D02*
X111863494Y-69249841D01*
X111863494Y-69249841D02*
X111863493Y-69250990D01*
X109744249Y-70048563D02*
X109744249Y-68728173D01*
X113710500Y-69327310D02*
X113715012Y-69229749D01*
X113715012Y-69229749D02*
X113727999Y-69142542D01*
X113727999Y-69142542D02*
X113749164Y-69063424D01*
X113749164Y-69063424D02*
X113777920Y-68992761D01*
X109402092Y-69870468D02*
X109346842Y-69916537D01*
X109346842Y-69916537D02*
X109287477Y-69957367D01*
X109287477Y-69957367D02*
X109223161Y-69993119D01*
X109223161Y-69993119D02*
X109170579Y-70016755D01*
X109170579Y-70016755D02*
X109095581Y-70042057D01*
X109095581Y-70042057D02*
X109012540Y-70059947D01*
X109012540Y-70059947D02*
X108919777Y-70067576D01*
X108919777Y-70067576D02*
X108911081Y-70067635D01*
X113710500Y-69476140D02*
X113710500Y-69327310D01*
X113781740Y-69796697D02*
X113750230Y-69725638D01*
X113750230Y-69725638D02*
X113727823Y-69647577D01*
X113727823Y-69647577D02*
X113714346Y-69560172D01*
X113714346Y-69560172D02*
X113710500Y-69476140D01*
X111836783Y-68958418D02*
X111872397Y-68893732D01*
X111872397Y-68893732D02*
X111915097Y-68835740D01*
X111915097Y-68835740D02*
X111966365Y-68785541D01*
X111966365Y-68785541D02*
X111983068Y-68772699D01*
X106040038Y-69196288D02*
X106284272Y-68728173D01*
X107273926Y-68728173D02*
X107273926Y-70585368D01*
X107362977Y-69057630D02*
X107310535Y-69105310D01*
X107310535Y-69105310D02*
X107296827Y-69128860D01*
X106925384Y-68728173D02*
X107273926Y-68728173D01*
X107273926Y-70585368D02*
X106925384Y-70585368D01*
X107675903Y-69496490D02*
X107675903Y-69286601D01*
X107675903Y-69286601D02*
X107666375Y-69195278D01*
X107666375Y-69195278D02*
X107637942Y-69123224D01*
X107637942Y-69123224D02*
X107621203Y-69099610D01*
X107256117Y-69841223D02*
X107273927Y-69539747D01*
X109114612Y-69264977D02*
X109095261Y-69178744D01*
X109095261Y-69178744D02*
X109061494Y-69111961D01*
X109061494Y-69111961D02*
X109042102Y-69088162D01*
X109371545Y-69047456D02*
X109396773Y-69122357D01*
X109396773Y-69122357D02*
X109415964Y-69204563D01*
X109415964Y-69204563D02*
X109428732Y-69292204D01*
X109428732Y-69292204D02*
X109435426Y-69387648D01*
X109435426Y-69387648D02*
X109436425Y-69444336D01*
X109184554Y-68795590D02*
X109239745Y-68841082D01*
X109239745Y-68841082D02*
X109287184Y-68894130D01*
X109287184Y-68894130D02*
X109327751Y-68954902D01*
X109327751Y-68954902D02*
X109361071Y-69021706D01*
X109361071Y-69021706D02*
X109371545Y-69047456D01*
X108584138Y-69998954D02*
X108521855Y-69960909D01*
X108521855Y-69960909D02*
X108467090Y-69915252D01*
X108467090Y-69915252D02*
X108420049Y-69862126D01*
X108420049Y-69862126D02*
X108380589Y-69801326D01*
X108380589Y-69801326D02*
X108378066Y-69796697D01*
X107621203Y-69099610D02*
X107566781Y-69053966D01*
X107566781Y-69053966D02*
X107487433Y-69032756D01*
X107487433Y-69032756D02*
X107469829Y-69032190D01*
X107296827Y-69650415D02*
X107341338Y-69705932D01*
X107341338Y-69705932D02*
X107362977Y-69720375D01*
X107469829Y-69744545D02*
X107554716Y-69729134D01*
X107554716Y-69729134D02*
X107614130Y-69687756D01*
X107614130Y-69687756D02*
X107621203Y-69679665D01*
X108378066Y-69796697D02*
X108346560Y-69725638D01*
X108346560Y-69725638D02*
X108324158Y-69647577D01*
X108324158Y-69647577D02*
X108310681Y-69560172D01*
X108310681Y-69560172D02*
X108306836Y-69476140D01*
X108306836Y-69476140D02*
X108306836Y-69327310D01*
X107972281Y-69805604D02*
X107938862Y-69872855D01*
X107938862Y-69872855D02*
X107897146Y-69931157D01*
X107897146Y-69931157D02*
X107846391Y-69980525D01*
X107846391Y-69980525D02*
X107819635Y-70000229D01*
X108024431Y-69496496D02*
X108020360Y-69593323D01*
X108020360Y-69593323D02*
X108008268Y-69681426D01*
X108008268Y-69681426D02*
X107988154Y-69761504D01*
X107988154Y-69761504D02*
X107972281Y-69805604D01*
X107247212Y-68950782D02*
X107282588Y-68885588D01*
X107282588Y-68885588D02*
X107325702Y-68828303D01*
X107325702Y-68828303D02*
X107377444Y-68779926D01*
X107377444Y-68779926D02*
X107387138Y-68772695D01*
X107362977Y-69720375D02*
X107440452Y-69743102D01*
X107440452Y-69743102D02*
X107469829Y-69744545D01*
X108533268Y-69295507D02*
X109118412Y-69295507D01*
X107380778Y-70009134D02*
X107327895Y-69962016D01*
X107327895Y-69962016D02*
X107285565Y-69903712D01*
X107285565Y-69903712D02*
X107256117Y-69841223D01*
X105449807Y-70048563D02*
X105916649Y-69319677D01*
X108623597Y-69313315D02*
X108623597Y-69481225D01*
X109436425Y-69444336D02*
X109436425Y-69530836D01*
X106244838Y-69440522D02*
X106040038Y-69196288D01*
X108888184Y-69025832D02*
X108798742Y-69037166D01*
X108798742Y-69037166D02*
X108729945Y-69068596D01*
X108729945Y-69068596D02*
X108692287Y-69100882D01*
X107469829Y-69032190D02*
X107384631Y-69047177D01*
X107384631Y-69047177D02*
X107362977Y-69057630D01*
X108306836Y-69327310D02*
X108311348Y-69229749D01*
X108311348Y-69229749D02*
X108324303Y-69142704D01*
X108324303Y-69142704D02*
X108345401Y-69063722D01*
X108345401Y-69063722D02*
X108374256Y-68992761D01*
X106688781Y-70048563D02*
X106305894Y-70048563D01*
X106305894Y-70048563D02*
X105980249Y-69502852D01*
X109042102Y-69088162D02*
X108984538Y-69045585D01*
X108984538Y-69045585D02*
X108903411Y-69026228D01*
X108903411Y-69026228D02*
X108888184Y-69025832D01*
X107580490Y-68709095D02*
X107672610Y-68717195D01*
X107672610Y-68717195D02*
X107750574Y-68739702D01*
X107750574Y-68739702D02*
X107816349Y-68774307D01*
X107816349Y-68774307D02*
X107819635Y-68776515D01*
X107273927Y-69539747D02*
X107287007Y-69626913D01*
X107287007Y-69626913D02*
X107296827Y-69650415D01*
X106123994Y-69558822D02*
X105819973Y-70048563D01*
X106171056Y-69261162D02*
X106688781Y-70048563D01*
X108572696Y-68781600D02*
X108641827Y-68749769D01*
X108641827Y-68749769D02*
X108719231Y-68726723D01*
X108719231Y-68726723D02*
X108806653Y-68712872D01*
X108806653Y-68712872D02*
X108888166Y-68709090D01*
X107580490Y-70067649D02*
X107580490Y-70067644D01*
X106668431Y-68728173D02*
X106244838Y-69440522D01*
X107387138Y-68772695D02*
X107450681Y-68735995D01*
X107450681Y-68735995D02*
X107528218Y-68713162D01*
X107528218Y-68713162D02*
X107580490Y-68709095D01*
X109436425Y-69530836D02*
X108533268Y-69530836D01*
X109049734Y-69739452D02*
X109118641Y-69706957D01*
X109118641Y-69706957D02*
X109174395Y-69668212D01*
X108911081Y-69763622D02*
X109001949Y-69753302D01*
X109001949Y-69753302D02*
X109049734Y-69739452D01*
X108698647Y-69689842D02*
X108757801Y-69731654D01*
X108757801Y-69731654D02*
X108835068Y-69757030D01*
X108835068Y-69757030D02*
X108911081Y-69763622D01*
X109118412Y-69295507D02*
X109114612Y-69264977D01*
X108888166Y-68709090D02*
X108981705Y-68715953D01*
X108981705Y-68715953D02*
X109063966Y-68735420D01*
X109063966Y-68735420D02*
X109134718Y-68765232D01*
X109134718Y-68765232D02*
X109184554Y-68795590D01*
X108533268Y-69530836D02*
X108533268Y-69295507D01*
X106925384Y-70585368D02*
X106925384Y-68728173D01*
X108024431Y-69285335D02*
X108024431Y-69496496D01*
X107972281Y-68973683D02*
X107997045Y-69049098D01*
X107997045Y-69049098D02*
X108014177Y-69134286D01*
X108014177Y-69134286D02*
X108022972Y-69226032D01*
X108022972Y-69226032D02*
X108024431Y-69285335D01*
X107819635Y-68776515D02*
X107874700Y-68821700D01*
X107874700Y-68821700D02*
X107920587Y-68876612D01*
X107920587Y-68876612D02*
X107957801Y-68940789D01*
X107957801Y-68940789D02*
X107972281Y-68973683D01*
X107580490Y-70067644D02*
X107490276Y-70057655D01*
X107490276Y-70057655D02*
X107416723Y-70030757D01*
X107416723Y-70030757D02*
X107380778Y-70009134D01*
X105916649Y-69319677D02*
X106123994Y-69558822D01*
X108911056Y-70067644D02*
X108812856Y-70062722D01*
X108812856Y-70062722D02*
X108726604Y-70048890D01*
X108726604Y-70048890D02*
X108648290Y-70026431D01*
X108648290Y-70026431D02*
X108584138Y-69998954D01*
X108623597Y-69481225D02*
X108633604Y-69571570D01*
X108633604Y-69571570D02*
X108662259Y-69643331D01*
X108662259Y-69643331D02*
X108698647Y-69689842D01*
X108692287Y-69100882D02*
X108652563Y-69161163D01*
X108652563Y-69161163D02*
X108629412Y-69238629D01*
X108629412Y-69238629D02*
X108623597Y-69313315D01*
X108374256Y-68992761D02*
X108411433Y-68929000D01*
X108411433Y-68929000D02*
X108456277Y-68872709D01*
X108456277Y-68872709D02*
X108508405Y-68824519D01*
X108508405Y-68824519D02*
X108568403Y-68784024D01*
X108568403Y-68784024D02*
X108572696Y-68781600D01*
X107819635Y-70000229D02*
X107754080Y-70035599D01*
X107754080Y-70035599D02*
X107676288Y-70058843D01*
X107676288Y-70058843D02*
X107580557Y-70067648D01*
X107580557Y-70067648D02*
X107580490Y-70067649D01*
X107273927Y-69243345D02*
X107247212Y-68950782D01*
X107621203Y-69679665D02*
X107657741Y-69615075D01*
X107657741Y-69615075D02*
X107674598Y-69531722D01*
X107674598Y-69531722D02*
X107675903Y-69496490D01*
X106284272Y-68728173D02*
X106668431Y-68728173D01*
X105819973Y-70048563D02*
X105449807Y-70048563D01*
X107296827Y-69128860D02*
X107275661Y-69207754D01*
X107275661Y-69207754D02*
X107273927Y-69243345D01*
X129445781Y-69095796D02*
X129383738Y-69057735D01*
X129383738Y-69057735D02*
X129383451Y-69057636D01*
X133523979Y-68728173D02*
X133523979Y-70048563D01*
X131978433Y-68781600D02*
X132047563Y-68749769D01*
X132047563Y-68749769D02*
X132124967Y-68726723D01*
X132124967Y-68726723D02*
X132212389Y-68712872D01*
X132212389Y-68712872D02*
X132293901Y-68709090D01*
X132524139Y-69295507D02*
X132520339Y-69264977D01*
X133149995Y-68728173D02*
X133523979Y-68728173D01*
X132098015Y-69100882D02*
X132058291Y-69161163D01*
X132058291Y-69161163D02*
X132035140Y-69238629D01*
X132035140Y-69238629D02*
X132029325Y-69313315D01*
X129191375Y-68775240D02*
X129254764Y-68737069D01*
X129254764Y-68737069D02*
X129331158Y-68713419D01*
X129331158Y-68713419D02*
X129383455Y-68709090D01*
X129383455Y-68709090D02*
X129474452Y-68718209D01*
X129474452Y-68718209D02*
X129532284Y-68735800D01*
X130146682Y-68547542D02*
X129798141Y-68547542D01*
X132580122Y-69668212D02*
X132807819Y-69870468D01*
X129076887Y-69301869D02*
X129050177Y-68958415D01*
X132029325Y-69313315D02*
X132029325Y-69481225D01*
X129798141Y-68199000D02*
X130146682Y-68199000D01*
X132447829Y-69088162D02*
X132390265Y-69045585D01*
X132390265Y-69045585D02*
X132309137Y-69026228D01*
X132309137Y-69026228D02*
X132293910Y-69025832D01*
X129076886Y-70048563D02*
X128702903Y-70048563D01*
X132807819Y-69870468D02*
X132752569Y-69916537D01*
X132752569Y-69916537D02*
X132693204Y-69957367D01*
X132693204Y-69957367D02*
X132628888Y-69993119D01*
X132628888Y-69993119D02*
X132576306Y-70016755D01*
X131572652Y-68728173D02*
X131076551Y-70048563D01*
X132580122Y-69668212D02*
X132580122Y-69668212D01*
X132104375Y-69689842D02*
X132163528Y-69731654D01*
X132163528Y-69731654D02*
X132240795Y-69757030D01*
X132240795Y-69757030D02*
X132316807Y-69763622D01*
X132293910Y-69025832D02*
X132204468Y-69037166D01*
X132204468Y-69037166D02*
X132135673Y-69068596D01*
X132135673Y-69068596D02*
X132098015Y-69100882D01*
X132842151Y-69530836D02*
X131938995Y-69530836D01*
X131938995Y-69295507D02*
X132524139Y-69295507D01*
X132293901Y-68709090D02*
X132387440Y-68715953D01*
X132387440Y-68715953D02*
X132469701Y-68735420D01*
X132469701Y-68735420D02*
X132540453Y-68765232D01*
X132540453Y-68765232D02*
X132590289Y-68795590D01*
X131779993Y-68992761D02*
X131817170Y-68929000D01*
X131817170Y-68929000D02*
X131862013Y-68872709D01*
X131862013Y-68872709D02*
X131914142Y-68824519D01*
X131914142Y-68824519D02*
X131974140Y-68784024D01*
X131974140Y-68784024D02*
X131978433Y-68781600D01*
X129134127Y-69113606D02*
X129097197Y-69176851D01*
X129097197Y-69176851D02*
X129078856Y-69258861D01*
X129078856Y-69258861D02*
X129076887Y-69301869D01*
X129383451Y-69057636D02*
X129298221Y-69044916D01*
X128702903Y-70048563D02*
X128702903Y-68728173D01*
X129076886Y-68728173D02*
X129076886Y-70048563D01*
X128702903Y-68728173D02*
X129076886Y-68728173D01*
X130680943Y-68728173D02*
X130953162Y-69556278D01*
X131712573Y-69476140D02*
X131712573Y-69327310D01*
X131076551Y-70048563D02*
X130829773Y-70048563D01*
X130953162Y-69556278D02*
X131225381Y-68728173D01*
X129798141Y-70048563D02*
X129798141Y-68728173D01*
X129532284Y-68735800D02*
X129598492Y-68769741D01*
X129598492Y-68769741D02*
X129649314Y-68812120D01*
X132316802Y-70067644D02*
X132218603Y-70062722D01*
X132218603Y-70062722D02*
X132132351Y-70048890D01*
X132132351Y-70048890D02*
X132054037Y-70026431D01*
X132054037Y-70026431D02*
X131989885Y-69998954D01*
X132807819Y-69870468D02*
X132807819Y-69870468D01*
X132520339Y-69264977D02*
X132500988Y-69178744D01*
X132500988Y-69178744D02*
X132467221Y-69111961D01*
X132467221Y-69111961D02*
X132447829Y-69088162D01*
X131783813Y-69796697D02*
X131752303Y-69725638D01*
X131752303Y-69725638D02*
X131729896Y-69647577D01*
X131729896Y-69647577D02*
X131716419Y-69560172D01*
X131716419Y-69560172D02*
X131712573Y-69476140D01*
X130146682Y-68728173D02*
X130146682Y-70048563D01*
X133892874Y-69095796D02*
X133830831Y-69057735D01*
X133830831Y-69057735D02*
X133830544Y-69057636D01*
X133149995Y-70048563D02*
X133149995Y-68728173D01*
X130146682Y-70048563D02*
X129798141Y-70048563D01*
X133523979Y-70048563D02*
X133149995Y-70048563D01*
X132455461Y-69739452D02*
X132524368Y-69706957D01*
X132524368Y-69706957D02*
X132580122Y-69668212D01*
X129798141Y-68728173D02*
X130146682Y-68728173D01*
X129050177Y-68958415D02*
X129085204Y-68893279D01*
X129085204Y-68893279D02*
X129127635Y-68835247D01*
X129127635Y-68835247D02*
X129178378Y-68785431D01*
X129178378Y-68785431D02*
X129191375Y-68775240D01*
X129298221Y-69044916D02*
X129212036Y-69059077D01*
X129212036Y-69059077D02*
X129149583Y-69097415D01*
X129149583Y-69097415D02*
X129134127Y-69113606D01*
X130829773Y-70048563D02*
X130333673Y-68728173D01*
X132842151Y-69444336D02*
X132842151Y-69530836D01*
X132316807Y-70067635D02*
X132316802Y-70067644D01*
X131712573Y-69327310D02*
X131717085Y-69229749D01*
X131717085Y-69229749D02*
X131730072Y-69142542D01*
X131730072Y-69142542D02*
X131751237Y-69063424D01*
X131751237Y-69063424D02*
X131779993Y-68992761D01*
X131225381Y-68728173D02*
X131572652Y-68728173D01*
X129649314Y-68812120D02*
X129445781Y-69095796D01*
X132316807Y-69763622D02*
X132407676Y-69753302D01*
X132407676Y-69753302D02*
X132455461Y-69739452D01*
X132576306Y-70016755D02*
X132501308Y-70042057D01*
X132501308Y-70042057D02*
X132418267Y-70059947D01*
X132418267Y-70059947D02*
X132325503Y-70067576D01*
X132325503Y-70067576D02*
X132316807Y-70067635D01*
X131938995Y-69530836D02*
X131938995Y-69295507D01*
X130333673Y-68728173D02*
X130680943Y-68728173D01*
X129798141Y-68547542D02*
X129798141Y-68199000D01*
X130146682Y-68199000D02*
X130146682Y-68547542D01*
X132777281Y-69047456D02*
X132802505Y-69122357D01*
X132802505Y-69122357D02*
X132821694Y-69204563D01*
X132821694Y-69204563D02*
X132834460Y-69292204D01*
X132834460Y-69292204D02*
X132841152Y-69387648D01*
X132841152Y-69387648D02*
X132842151Y-69444336D01*
X132029325Y-69481225D02*
X132039332Y-69571570D01*
X132039332Y-69571570D02*
X132067987Y-69643331D01*
X132067987Y-69643331D02*
X132104375Y-69689842D01*
X132590289Y-68795590D02*
X132645480Y-68841082D01*
X132645480Y-68841082D02*
X132692919Y-68894130D01*
X132692919Y-68894130D02*
X132733487Y-68954902D01*
X132733487Y-68954902D02*
X132766807Y-69021706D01*
X132766807Y-69021706D02*
X132777281Y-69047456D01*
X131989885Y-69998954D02*
X131927602Y-69960909D01*
X131927602Y-69960909D02*
X131872837Y-69915252D01*
X131872837Y-69915252D02*
X131825796Y-69862126D01*
X131825796Y-69862126D02*
X131786336Y-69801326D01*
X131786336Y-69801326D02*
X131783813Y-69796697D01*
X117931183Y-72517926D02*
X117931183Y-73358751D01*
X119427103Y-73618312D02*
X120126730Y-73618312D01*
X120075848Y-72684626D02*
X120045310Y-72754737D01*
X120045310Y-72754737D02*
X120009805Y-72819787D01*
X120009805Y-72819787D02*
X119970192Y-72880210D01*
X119970192Y-72880210D02*
X119962636Y-72890699D01*
X120460008Y-73358747D02*
X120460008Y-72517922D01*
X119414387Y-72310621D02*
X119370186Y-72367081D01*
X119370186Y-72367081D02*
X119341067Y-72438166D01*
X119341067Y-72438166D02*
X119329157Y-72498885D01*
X119329157Y-72500185D02*
X119060754Y-72500185D01*
X120719519Y-72517926D02*
X120719519Y-73358751D01*
X120784390Y-72311854D02*
X120745412Y-72372921D01*
X120745412Y-72372921D02*
X120723636Y-72454014D01*
X120723636Y-72454014D02*
X120719519Y-72517926D01*
X119846880Y-72475988D02*
X119834350Y-72388299D01*
X119834350Y-72388299D02*
X119799186Y-72322677D01*
X119799186Y-72322677D02*
X119782010Y-72304261D01*
X117996053Y-73566096D02*
X118053870Y-73608623D01*
X118053870Y-73608623D02*
X118130467Y-73632111D01*
X118130467Y-73632111D02*
X118199582Y-73637326D01*
X120987918Y-72239344D02*
X120896664Y-72248966D01*
X120896664Y-72248966D02*
X120825215Y-72277721D01*
X120825215Y-72277721D02*
X120784390Y-72311854D01*
X120987910Y-73884105D02*
X120987910Y-73884105D01*
X118199582Y-73637326D02*
X118199574Y-73637326D01*
X118467981Y-72517926D02*
X118458952Y-72426174D01*
X118458952Y-72426174D02*
X118432056Y-72352467D01*
X118432056Y-72352467D02*
X118403111Y-72311854D01*
X121191447Y-72311854D02*
X121134211Y-72268556D01*
X121134211Y-72268556D02*
X121057760Y-72244684D01*
X121057760Y-72244684D02*
X120987918Y-72239344D01*
X121256317Y-72517926D02*
X121247288Y-72426174D01*
X121247288Y-72426174D02*
X121220392Y-72352467D01*
X121220392Y-72352467D02*
X121191447Y-72311854D01*
X120593575Y-73745452D02*
X120548392Y-73689918D01*
X120548392Y-73689918D02*
X120512017Y-73625723D01*
X120512017Y-73625723D02*
X120484917Y-73552594D01*
X120484917Y-73552594D02*
X120467402Y-73469442D01*
X120467402Y-73469442D02*
X120460179Y-73376526D01*
X120460179Y-73376526D02*
X120460008Y-73358747D01*
X121256317Y-73358751D02*
X121256317Y-72517926D01*
X119962636Y-72890699D02*
X119427103Y-73618312D01*
X118199582Y-72239344D02*
X118108328Y-72248966D01*
X118108328Y-72248966D02*
X118036878Y-72277721D01*
X118036878Y-72277721D02*
X117996053Y-72311854D01*
X119815080Y-72627318D02*
X119838867Y-72550329D01*
X119838867Y-72550329D02*
X119846880Y-72478488D01*
X119083650Y-73639871D02*
X119728580Y-72779964D01*
X119595015Y-71996421D02*
X119689895Y-72001569D01*
X119689895Y-72001569D02*
X119775144Y-72016797D01*
X119775144Y-72016797D02*
X119850753Y-72041623D01*
X119850753Y-72041623D02*
X119877411Y-72053661D01*
X117996053Y-72311854D02*
X117957076Y-72372921D01*
X117957076Y-72372921D02*
X117935300Y-72454014D01*
X117935300Y-72454014D02*
X117931183Y-72517926D01*
X119060754Y-72498885D02*
X119076896Y-72415017D01*
X119076896Y-72415017D02*
X119100442Y-72337485D01*
X119100442Y-72337485D02*
X119131194Y-72267336D01*
X119131194Y-72267336D02*
X119153614Y-72227938D01*
X120987910Y-73637326D02*
X121078587Y-73627822D01*
X121078587Y-73627822D02*
X121150254Y-73599112D01*
X121150254Y-73599112D02*
X121190167Y-73566096D01*
X120987910Y-71992565D02*
X121084010Y-71997749D01*
X121084010Y-71997749D02*
X121170190Y-72013210D01*
X121170190Y-72013210D02*
X121245267Y-72038224D01*
X121245267Y-72038224D02*
X121311763Y-72073298D01*
X121311763Y-72073298D02*
X121368444Y-72117621D01*
X121368444Y-72117621D02*
X121380974Y-72129946D01*
X120594847Y-72131218D02*
X120648819Y-72084755D01*
X120648819Y-72084755D02*
X120712084Y-72047316D01*
X120712084Y-72047316D02*
X120784578Y-72019397D01*
X120784578Y-72019397D02*
X120866951Y-72001161D01*
X120866951Y-72001161D02*
X120959540Y-71992992D01*
X120959540Y-71992992D02*
X120987910Y-71992565D01*
X120460008Y-72517922D02*
X120465408Y-72422578D01*
X120465408Y-72422578D02*
X120481095Y-72338210D01*
X120481095Y-72338210D02*
X120506761Y-72263099D01*
X120506761Y-72263099D02*
X120541687Y-72197625D01*
X120541687Y-72197625D02*
X120585783Y-72140737D01*
X120585783Y-72140737D02*
X120594847Y-72131218D01*
X120987910Y-73884105D02*
X120891755Y-73878865D01*
X120891755Y-73878865D02*
X120806256Y-73863469D01*
X120806256Y-73863469D02*
X120731176Y-73838460D01*
X120731176Y-73838460D02*
X120665229Y-73803858D01*
X120665229Y-73803858D02*
X120608553Y-73760072D01*
X120608553Y-73760072D02*
X120593575Y-73745452D01*
X120116558Y-72479826D02*
X120107978Y-72571612D01*
X120107978Y-72571612D02*
X120087438Y-72651861D01*
X120087438Y-72651861D02*
X120075848Y-72684626D01*
X119153614Y-72227938D02*
X119195931Y-72169728D01*
X119195931Y-72169728D02*
X119245753Y-72118642D01*
X119245753Y-72118642D02*
X119303210Y-72075567D01*
X119303210Y-72075567D02*
X119336789Y-72056211D01*
X120116558Y-72478526D02*
X120116558Y-72479826D01*
X117931183Y-73358751D02*
X117940066Y-73450020D01*
X117940066Y-73450020D02*
X117966445Y-73523697D01*
X117966445Y-73523697D02*
X117996053Y-73566096D01*
X120055498Y-72217757D02*
X120086867Y-72287298D01*
X120086867Y-72287298D02*
X120107515Y-72367647D01*
X120107515Y-72367647D02*
X120116302Y-72459103D01*
X120116302Y-72459103D02*
X120116558Y-72478526D01*
X119597562Y-72243201D02*
X119509269Y-72255335D01*
X119509269Y-72255335D02*
X119441759Y-72287972D01*
X119441759Y-72287972D02*
X119414387Y-72310621D01*
X119782010Y-72304261D02*
X119720606Y-72264865D01*
X119720606Y-72264865D02*
X119640047Y-72245302D01*
X119640047Y-72245302D02*
X119597562Y-72243201D01*
X119846880Y-72478488D02*
X119846880Y-72475988D01*
X118403111Y-72311854D02*
X118345875Y-72268556D01*
X118345875Y-72268556D02*
X118269424Y-72244684D01*
X118269424Y-72244684D02*
X118199582Y-72239344D01*
X121190167Y-73566096D02*
X121229659Y-73504812D01*
X121229659Y-73504812D02*
X121251594Y-73426326D01*
X121251594Y-73426326D02*
X121256317Y-73358751D01*
X121380974Y-73746725D02*
X121326840Y-73792863D01*
X121326840Y-73792863D02*
X121263552Y-73829933D01*
X121263552Y-73829933D02*
X121189040Y-73858158D01*
X121189040Y-73858158D02*
X121105301Y-73876108D01*
X121105301Y-73876108D02*
X121011597Y-73883808D01*
X121011597Y-73883808D02*
X120987910Y-73884105D01*
X121515812Y-72517922D02*
X121515812Y-73358747D01*
X119083649Y-73865091D02*
X119083650Y-73639871D01*
X120126730Y-73618312D02*
X120126730Y-73865091D01*
X120126730Y-73865091D02*
X119083649Y-73865091D01*
X119060754Y-72500185D02*
X119060754Y-72498885D01*
X119336789Y-72056211D02*
X119406754Y-72025812D01*
X119406754Y-72025812D02*
X119486486Y-72005449D01*
X119486486Y-72005449D02*
X119578551Y-71996610D01*
X119578551Y-71996610D02*
X119595015Y-71996421D01*
X121515812Y-73358747D02*
X121510481Y-73453469D01*
X121510481Y-73453469D02*
X121494766Y-73538446D01*
X121494766Y-73538446D02*
X121469283Y-73613461D01*
X121469283Y-73613461D02*
X121434125Y-73679809D01*
X121434125Y-73679809D02*
X121390158Y-73736975D01*
X121390158Y-73736975D02*
X121380974Y-73746725D01*
X121380974Y-72129946D02*
X121426581Y-72185132D01*
X121426581Y-72185132D02*
X121463034Y-72248679D01*
X121463034Y-72248679D02*
X121490344Y-72321497D01*
X121490344Y-72321497D02*
X121508168Y-72405030D01*
X121508168Y-72405030D02*
X121515588Y-72497793D01*
X121515588Y-72497793D02*
X121515812Y-72517922D01*
X119877411Y-72053661D02*
X119940781Y-72090650D01*
X119940781Y-72090650D02*
X119994921Y-72136729D01*
X119994921Y-72136729D02*
X120039835Y-72192255D01*
X120039835Y-72192255D02*
X120055498Y-72217757D01*
X119329157Y-72498885D02*
X119329157Y-72500185D01*
X119728580Y-72779964D02*
X119769317Y-72720063D01*
X119769317Y-72720063D02*
X119803998Y-72653892D01*
X119803998Y-72653892D02*
X119815080Y-72627318D01*
X115139005Y-72885552D02*
X115139005Y-72885552D01*
X115139005Y-72885552D02*
X115074931Y-72847651D01*
X115074931Y-72847651D02*
X115007586Y-72814772D01*
X115007586Y-72814772D02*
X114943110Y-72790152D01*
X115070240Y-73110790D02*
X115140903Y-73140422D01*
X115140903Y-73140422D02*
X115198546Y-73182862D01*
X115198546Y-73182862D02*
X115234334Y-73221459D01*
X118199574Y-73884105D02*
X118199574Y-73884105D01*
X118592638Y-72129946D02*
X118638245Y-72185132D01*
X118638245Y-72185132D02*
X118674698Y-72248679D01*
X118674698Y-72248679D02*
X118702008Y-72321497D01*
X118702008Y-72321497D02*
X118719832Y-72405030D01*
X118719832Y-72405030D02*
X118727252Y-72497793D01*
X118727252Y-72497793D02*
X118727476Y-72517922D01*
X116940244Y-72779964D02*
X116980981Y-72720063D01*
X116980981Y-72720063D02*
X117015662Y-72653892D01*
X117015662Y-72653892D02*
X117026744Y-72627318D01*
X114943110Y-72790152D02*
X114864023Y-72769122D01*
X114864023Y-72769122D02*
X114774041Y-72758653D01*
X114774041Y-72758653D02*
X114756118Y-72758352D01*
X117174308Y-72890699D02*
X116638775Y-73618312D01*
X114747141Y-73884202D02*
X114747227Y-73884105D01*
X115131373Y-72601887D02*
X115200213Y-72635568D01*
X115200213Y-72635568D02*
X115264727Y-72674638D01*
X115264727Y-72674638D02*
X115295468Y-72696017D01*
X118199574Y-71992565D02*
X118295674Y-71997749D01*
X118295674Y-71997749D02*
X118381853Y-72013210D01*
X118381853Y-72013210D02*
X118456930Y-72038224D01*
X118456930Y-72038224D02*
X118523426Y-72073298D01*
X118523426Y-72073298D02*
X118579597Y-72117140D01*
X118579597Y-72117140D02*
X118592638Y-72129946D01*
X116272416Y-72500185D02*
X116272416Y-72498885D01*
X114834910Y-73073900D02*
X114926725Y-73082452D01*
X114926725Y-73082452D02*
X115013384Y-73096730D01*
X115013384Y-73096730D02*
X115070240Y-73110790D01*
X114827310Y-73072600D02*
X114834910Y-73073900D01*
X114472451Y-72572637D02*
X114548283Y-72547939D01*
X114548283Y-72547939D02*
X114634580Y-72532391D01*
X114634580Y-72532391D02*
X114729344Y-72525861D01*
X114729344Y-72525861D02*
X114756118Y-72525567D01*
X116993674Y-72304261D02*
X116932270Y-72264865D01*
X116932270Y-72264865D02*
X116851711Y-72245302D01*
X116851711Y-72245302D02*
X116809227Y-72243201D01*
X117089074Y-72053661D02*
X117152444Y-72090650D01*
X117152444Y-72090650D02*
X117206584Y-72136729D01*
X117206584Y-72136729D02*
X117251498Y-72192255D01*
X117251498Y-72192255D02*
X117267161Y-72217757D01*
X114557678Y-72804142D02*
X114509853Y-72856585D01*
X114509853Y-72856585D02*
X114491528Y-72938980D01*
X117338403Y-73618312D02*
X117338403Y-73865091D01*
X117267161Y-72217757D02*
X117298530Y-72287298D01*
X117298530Y-72287298D02*
X117319178Y-72367647D01*
X117319178Y-72367647D02*
X117327965Y-72459103D01*
X117327965Y-72459103D02*
X117328221Y-72478526D01*
X116540821Y-72500185D02*
X116272416Y-72500185D01*
X116365277Y-72227938D02*
X116407594Y-72169728D01*
X116407594Y-72169728D02*
X116457416Y-72118642D01*
X116457416Y-72118642D02*
X116514873Y-72075567D01*
X116514873Y-72075567D02*
X116548452Y-72056211D01*
X114819710Y-73072600D02*
X114827310Y-73072600D01*
X116540821Y-72498885D02*
X116540821Y-72500185D01*
X115054977Y-73837132D02*
X114978235Y-73860603D01*
X114978235Y-73860603D02*
X114892983Y-73875762D01*
X114892983Y-73875762D02*
X114800183Y-73883188D01*
X114800183Y-73883188D02*
X114747141Y-73884202D01*
X115295468Y-72696017D02*
X115295468Y-72696017D01*
X116626051Y-72310621D02*
X116581850Y-72367081D01*
X116581850Y-72367081D02*
X116552731Y-72438166D01*
X116552731Y-72438166D02*
X116540821Y-72498885D01*
X115239424Y-73697207D02*
X115193592Y-73752298D01*
X115193592Y-73752298D02*
X115137427Y-73796232D01*
X115137427Y-73796232D02*
X115071551Y-73830481D01*
X115071551Y-73830481D02*
X115054977Y-73837132D01*
X116548452Y-72056211D02*
X116618417Y-72025812D01*
X116618417Y-72025812D02*
X116698149Y-72005449D01*
X116698149Y-72005449D02*
X116790214Y-71996610D01*
X116790214Y-71996610D02*
X116806678Y-71996421D01*
X118467981Y-73358751D02*
X118467981Y-72517926D01*
X118727476Y-73358747D02*
X118722145Y-73453469D01*
X118722145Y-73453469D02*
X118706430Y-73538446D01*
X118706430Y-73538446D02*
X118680947Y-73613461D01*
X118680947Y-73613461D02*
X118645789Y-73679809D01*
X118645789Y-73679809D02*
X118601822Y-73736975D01*
X118601822Y-73736975D02*
X118592638Y-73746725D01*
X117806510Y-72131218D02*
X117860483Y-72084755D01*
X117860483Y-72084755D02*
X117923749Y-72047316D01*
X117923749Y-72047316D02*
X117996243Y-72019397D01*
X117996243Y-72019397D02*
X118078615Y-72001161D01*
X118078615Y-72001161D02*
X118171204Y-71992992D01*
X118171204Y-71992992D02*
X118199574Y-71992565D01*
X118199574Y-73884105D02*
X118103419Y-73878865D01*
X118103419Y-73878865D02*
X118017920Y-73863469D01*
X118017920Y-73863469D02*
X117942840Y-73838460D01*
X117942840Y-73838460D02*
X117876893Y-73803858D01*
X117876893Y-73803858D02*
X117820217Y-73760072D01*
X117820217Y-73760072D02*
X117805238Y-73745452D01*
X116295313Y-73639871D02*
X116940244Y-72779964D01*
X114801900Y-73071300D02*
X114819710Y-73072600D01*
X117805238Y-73745452D02*
X117760055Y-73689918D01*
X117760055Y-73689918D02*
X117723681Y-73625723D01*
X117723681Y-73625723D02*
X117696582Y-73552594D01*
X117696582Y-73552594D02*
X117679067Y-73469442D01*
X117679067Y-73469442D02*
X117671844Y-73376526D01*
X117671844Y-73376526D02*
X117671673Y-73358747D01*
X116638775Y-73618312D02*
X117338403Y-73618312D01*
X114756118Y-72758352D02*
X114662384Y-72765412D01*
X114662384Y-72765412D02*
X114585113Y-72788433D01*
X114585113Y-72788433D02*
X114557678Y-72804142D01*
X117328221Y-72479826D02*
X117319644Y-72571612D01*
X117319644Y-72571612D02*
X117299108Y-72651861D01*
X117299108Y-72651861D02*
X117287521Y-72684626D01*
X114756118Y-72525567D02*
X114852777Y-72529970D01*
X114852777Y-72529970D02*
X114940729Y-72542404D01*
X114940729Y-72542404D02*
X114952014Y-72544647D01*
X117287521Y-72684626D02*
X117256978Y-72754737D01*
X117256978Y-72754737D02*
X117221472Y-72819787D01*
X117221472Y-72819787D02*
X117181863Y-72880210D01*
X117181863Y-72880210D02*
X117174308Y-72890699D01*
X114491528Y-72938980D02*
X114519329Y-73011609D01*
X114519329Y-73011609D02*
X114528418Y-73019120D01*
X114952014Y-72544647D02*
X115031966Y-72564778D01*
X115031966Y-72564778D02*
X115106547Y-72591252D01*
X115106547Y-72591252D02*
X115131373Y-72601887D01*
X118401831Y-73566096D02*
X118441323Y-73504812D01*
X118441323Y-73504812D02*
X118463258Y-73426326D01*
X118463258Y-73426326D02*
X118467981Y-73358751D01*
X118199574Y-73637326D02*
X118290251Y-73627822D01*
X118290251Y-73627822D02*
X118361918Y-73599112D01*
X118361918Y-73599112D02*
X118401831Y-73566096D01*
X115234334Y-73221459D02*
X115271136Y-73284913D01*
X115271136Y-73284913D02*
X115292936Y-73363351D01*
X115292936Y-73363351D02*
X115300470Y-73456338D01*
X115300470Y-73456338D02*
X115300484Y-73460604D01*
X117058544Y-72475988D02*
X117046014Y-72388299D01*
X117046014Y-72388299D02*
X117010850Y-72322677D01*
X117010850Y-72322677D02*
X116993674Y-72304261D01*
X114786640Y-73070000D02*
X114801900Y-73071300D01*
X117338403Y-73865091D02*
X116295320Y-73865091D01*
X118592638Y-73746725D02*
X118538503Y-73792863D01*
X118538503Y-73792863D02*
X118475215Y-73829933D01*
X118475215Y-73829933D02*
X118400704Y-73858158D01*
X118400704Y-73858158D02*
X118316965Y-73876108D01*
X118316965Y-73876108D02*
X118223261Y-73883808D01*
X118223261Y-73883808D02*
X118199574Y-73884105D01*
X117671673Y-73358747D02*
X117671673Y-72517922D01*
X116295320Y-73865091D02*
X116295313Y-73639871D01*
X117026744Y-72627318D02*
X117050531Y-72550329D01*
X117050531Y-72550329D02*
X117058544Y-72478488D01*
X115300484Y-73460604D02*
X115293184Y-73553329D01*
X115293184Y-73553329D02*
X115272109Y-73632369D01*
X115272109Y-73632369D02*
X115239424Y-73697207D01*
X117328221Y-72478526D02*
X117328221Y-72479826D01*
X116809227Y-72243201D02*
X116720933Y-72255335D01*
X116720933Y-72255335D02*
X116653423Y-72287972D01*
X116653423Y-72287972D02*
X116626051Y-72310621D01*
X117058544Y-72478488D02*
X117058544Y-72475988D01*
X116272416Y-72498885D02*
X116288558Y-72415017D01*
X116288558Y-72415017D02*
X116312104Y-72337485D01*
X116312104Y-72337485D02*
X116342856Y-72267336D01*
X116342856Y-72267336D02*
X116365277Y-72227938D01*
X115295468Y-72696017D02*
X115139005Y-72885552D01*
X118727476Y-72517922D02*
X118727476Y-73358747D01*
X117671673Y-72517922D02*
X117677073Y-72422578D01*
X117677073Y-72422578D02*
X117692760Y-72338210D01*
X117692760Y-72338210D02*
X117718425Y-72263099D01*
X117718425Y-72263099D02*
X117753350Y-72197625D01*
X117753350Y-72197625D02*
X117797446Y-72140737D01*
X117797446Y-72140737D02*
X117806510Y-72131218D01*
X116806678Y-71996421D02*
X116901558Y-72001569D01*
X116901558Y-72001569D02*
X116986807Y-72016797D01*
X116986807Y-72016797D02*
X117062416Y-72041623D01*
X117062416Y-72041623D02*
X117089074Y-72053661D01*
X114623818Y-73054740D02*
X114714420Y-73064884D01*
X114714420Y-73064884D02*
X114786640Y-73070000D01*
X114528418Y-73019120D02*
X114598445Y-73049685D01*
X114598445Y-73049685D02*
X114623818Y-73054740D01*
X114689977Y-73300278D02*
X114679797Y-73300278D01*
X114538610Y-73610610D02*
X114614571Y-73634710D01*
X114614571Y-73634710D02*
X114701215Y-73649298D01*
X114701215Y-73649298D02*
X114747227Y-73651320D01*
X114326177Y-73488493D02*
X114385345Y-73530516D01*
X114385345Y-73530516D02*
X114450125Y-73569468D01*
X114450125Y-73569468D02*
X114517560Y-73602092D01*
X114517560Y-73602092D02*
X114538610Y-73610610D01*
X111817692Y-72544635D02*
X111817692Y-72778692D01*
X112173865Y-73865025D02*
X112173865Y-72544635D01*
X111637059Y-73599166D02*
X111693029Y-73624606D01*
X114977468Y-73604250D02*
X115028952Y-73555351D01*
X115028952Y-73555351D02*
X115054184Y-73480282D01*
X115054184Y-73480282D02*
X115055068Y-73460508D01*
X111222373Y-72778692D02*
X111222373Y-72544635D01*
X114711607Y-73302778D02*
X114689977Y-73300278D01*
X111432261Y-73783615D02*
X111393895Y-73720996D01*
X111393895Y-73720996D02*
X111369849Y-73644463D01*
X111369849Y-73644463D02*
X111359196Y-73554878D01*
X111359196Y-73554878D02*
X111358481Y-73521572D01*
X111358481Y-72160477D02*
X111617979Y-72160477D01*
X114733237Y-73302778D02*
X114711607Y-73302778D01*
X112433364Y-73865025D02*
X112173865Y-73865025D01*
X114527162Y-73861205D02*
X114446197Y-73838691D01*
X114446197Y-73838691D02*
X114373539Y-73810388D01*
X114373539Y-73810388D02*
X114336353Y-73792515D01*
X113626544Y-73377825D02*
X113644354Y-73653860D01*
X111817690Y-73624606D02*
X111817690Y-73871385D01*
X114172259Y-73678029D02*
X114172259Y-73678029D01*
X112433364Y-72544635D02*
X112433364Y-73865025D01*
X115013088Y-73365108D02*
X114946291Y-73331765D01*
X114946291Y-73331765D02*
X114908780Y-73323128D01*
X111817690Y-73871385D02*
X111667590Y-73871385D01*
X111222373Y-72544635D02*
X111817692Y-72544635D01*
X115055068Y-73460508D02*
X115031820Y-73383461D01*
X115031820Y-73383461D02*
X115013088Y-73365108D01*
X114326177Y-73488493D02*
X114326177Y-73488493D01*
X113626550Y-73865025D02*
X113626550Y-72544635D01*
X114172259Y-73678029D02*
X114326177Y-73488493D01*
X111667590Y-73871385D02*
X111575215Y-73862703D01*
X111575215Y-73862703D02*
X111500322Y-73836989D01*
X111500322Y-73836989D02*
X111442247Y-73794520D01*
X111442247Y-73794520D02*
X111432261Y-73783615D01*
X113626550Y-72544635D02*
X113884776Y-72544635D01*
X114336353Y-73792515D02*
X114272682Y-73755689D01*
X114272682Y-73755689D02*
X114214038Y-73713636D01*
X114214038Y-73713636D02*
X114172259Y-73678029D01*
X114747227Y-73884105D02*
X114650508Y-73879984D01*
X114650508Y-73879984D02*
X114562167Y-73868248D01*
X114562167Y-73868248D02*
X114527162Y-73861205D01*
X113359416Y-73637325D02*
X113449647Y-73627136D01*
X113449647Y-73627136D02*
X113520478Y-73597902D01*
X113520478Y-73597902D02*
X113556584Y-73569905D01*
X112830242Y-73347300D02*
X112830242Y-72544636D01*
X110929706Y-73697207D02*
X110883874Y-73752298D01*
X110883874Y-73752298D02*
X110827708Y-73796232D01*
X110827708Y-73796232D02*
X110761832Y-73830481D01*
X110761832Y-73830481D02*
X110745258Y-73837132D01*
X113644354Y-73653860D02*
X113609208Y-73719136D01*
X113609208Y-73719136D02*
X113562844Y-73774988D01*
X113562844Y-73774988D02*
X113512061Y-73817956D01*
X113556584Y-73569905D02*
X113598956Y-73511808D01*
X113598956Y-73511808D02*
X113622405Y-73435063D01*
X113622405Y-73435063D02*
X113626544Y-73377825D01*
X110437421Y-73884202D02*
X110437516Y-73884105D01*
X112173865Y-72015462D02*
X112433364Y-72015462D01*
X111817692Y-72778692D02*
X111222373Y-72778692D01*
X111617979Y-72160477D02*
X111617979Y-73524116D01*
X111617979Y-73524116D02*
X111637059Y-73599166D01*
X110745258Y-73837132D02*
X110668516Y-73860603D01*
X110668516Y-73860603D02*
X110583264Y-73875762D01*
X110583264Y-73875762D02*
X110490463Y-73883188D01*
X110490463Y-73883188D02*
X110437421Y-73884202D01*
X110990766Y-73460604D02*
X110983466Y-73553329D01*
X110983466Y-73553329D02*
X110962391Y-73632369D01*
X110962391Y-73632369D02*
X110929706Y-73697207D01*
X113884776Y-72544635D02*
X113884776Y-73865025D01*
X113159704Y-73562275D02*
X113217222Y-73605956D01*
X113217222Y-73605956D02*
X113292222Y-73631488D01*
X113292222Y-73631488D02*
X113359416Y-73637325D01*
X113089740Y-72544636D02*
X113089744Y-73347299D01*
X112830242Y-72544636D02*
X113089740Y-72544636D01*
X112173865Y-72544635D02*
X112433364Y-72544635D01*
X112948543Y-73744181D02*
X112907028Y-73684972D01*
X112907028Y-73684972D02*
X112874290Y-73616713D01*
X112874290Y-73616713D02*
X112850664Y-73540013D01*
X112850664Y-73540013D02*
X112835937Y-73454016D01*
X112835937Y-73454016D02*
X112830299Y-73358725D01*
X112830299Y-73358725D02*
X112830242Y-73347300D01*
X113884776Y-73865025D02*
X113626550Y-73865025D01*
X112173865Y-72274960D02*
X112173865Y-72015462D01*
X111693029Y-73624606D02*
X111817690Y-73624606D01*
X114908780Y-73323128D02*
X114820416Y-73310817D01*
X114820416Y-73310817D02*
X114733237Y-73302778D01*
X111358481Y-73521572D02*
X111358481Y-72160477D01*
X114747227Y-73651320D02*
X114842501Y-73645925D01*
X114842501Y-73645925D02*
X114925114Y-73628111D01*
X114925114Y-73628111D02*
X114977468Y-73604250D01*
X113089744Y-73347299D02*
X113098825Y-73439129D01*
X113098825Y-73439129D02*
X113125221Y-73513167D01*
X113125221Y-73513167D02*
X113159704Y-73562275D01*
X114301995Y-72711290D02*
X114345877Y-72655111D01*
X114345877Y-72655111D02*
X114401684Y-72609375D01*
X114401684Y-72609375D02*
X114467610Y-72574624D01*
X114467610Y-72574624D02*
X114472451Y-72572637D01*
X112433364Y-72015462D02*
X112433364Y-72274960D01*
X113286908Y-73884106D02*
X113193432Y-73877011D01*
X113193432Y-73877011D02*
X113112228Y-73856536D01*
X113112228Y-73856536D02*
X113043370Y-73824377D01*
X113043370Y-73824377D02*
X112985566Y-73782049D01*
X112985566Y-73782049D02*
X112948543Y-73744181D01*
X113512061Y-73817956D02*
X113447844Y-73854066D01*
X113447844Y-73854066D02*
X113370270Y-73876936D01*
X113370270Y-73876936D02*
X113286908Y-73884106D01*
X114244755Y-72944076D02*
X114251905Y-72851023D01*
X114251905Y-72851023D02*
X114272893Y-72770988D01*
X114272893Y-72770988D02*
X114301995Y-72711290D01*
X114303265Y-73159052D02*
X114267375Y-73093005D01*
X114267375Y-73093005D02*
X114248468Y-73010465D01*
X114248468Y-73010465D02*
X114244755Y-72944076D01*
X114452095Y-73262088D02*
X114382470Y-73230281D01*
X114382470Y-73230281D02*
X114325948Y-73184758D01*
X114325948Y-73184758D02*
X114303265Y-73159052D01*
X114669617Y-73298978D02*
X114577914Y-73288888D01*
X114577914Y-73288888D02*
X114493317Y-73273070D01*
X114493317Y-73273070D02*
X114452095Y-73262088D01*
X112433364Y-72274960D02*
X112173865Y-72274960D01*
X114679797Y-73300278D02*
X114669617Y-73298978D01*
X109353731Y-73727641D02*
X109308141Y-73783367D01*
X109308141Y-73783367D02*
X109268501Y-73815411D01*
X109862549Y-73678029D02*
X110016467Y-73488493D01*
X108762225Y-73475771D02*
X108777680Y-73560736D01*
X108777680Y-73560736D02*
X108820515Y-73618478D01*
X108820515Y-73618478D02*
X108828376Y-73624601D01*
X108964482Y-73292599D02*
X108875735Y-73303956D01*
X108875735Y-73303956D02*
X108811836Y-73338389D01*
X110218698Y-73019120D02*
X110288725Y-73049685D01*
X110288725Y-73049685D02*
X110314098Y-73054740D01*
X110437516Y-73651320D02*
X110532790Y-73645925D01*
X110532790Y-73645925D02*
X110615403Y-73628111D01*
X110615403Y-73628111D02*
X110667757Y-73604250D01*
X110703368Y-73365108D02*
X110636570Y-73331765D01*
X110636570Y-73331765D02*
X110599059Y-73323128D01*
X110247958Y-72804142D02*
X110200133Y-72856585D01*
X110200133Y-72856585D02*
X110181808Y-72938980D01*
X109992275Y-72711290D02*
X110036157Y-72655111D01*
X110036157Y-72655111D02*
X110091964Y-72609375D01*
X110091964Y-72609375D02*
X110157889Y-72574624D01*
X110157889Y-72574624D02*
X110162730Y-72572637D01*
X110016467Y-73488493D02*
X110075636Y-73530516D01*
X110075636Y-73530516D02*
X110140416Y-73569468D01*
X110140416Y-73569468D02*
X110207850Y-73602092D01*
X110207850Y-73602092D02*
X110228900Y-73610610D01*
X110217451Y-73861205D02*
X110136110Y-73838565D01*
X110136110Y-73838565D02*
X110063830Y-73810388D01*
X110063830Y-73810388D02*
X110026644Y-73792515D01*
X110446397Y-72758352D02*
X110352664Y-72765412D01*
X110352664Y-72765412D02*
X110275393Y-72788433D01*
X110275393Y-72788433D02*
X110247958Y-72804142D01*
X110633389Y-72790152D02*
X110554303Y-72769122D01*
X110554303Y-72769122D02*
X110464320Y-72758653D01*
X110464320Y-72758653D02*
X110446397Y-72758352D01*
X110142375Y-73262088D02*
X110072750Y-73230281D01*
X110072750Y-73230281D02*
X110016228Y-73184758D01*
X110016228Y-73184758D02*
X109993545Y-73159052D01*
X109253241Y-73641141D02*
X109310398Y-73597891D01*
X109310398Y-73597891D02*
X109327021Y-73541921D01*
X108963209Y-73083982D02*
X109338464Y-73083982D01*
X110162730Y-72572637D02*
X110238563Y-72547939D01*
X110238563Y-72547939D02*
X110324860Y-72532391D01*
X110324860Y-72532391D02*
X110419623Y-72525861D01*
X110419623Y-72525861D02*
X110446397Y-72525567D01*
X110642293Y-72544647D02*
X110722246Y-72564778D01*
X110722246Y-72564778D02*
X110796827Y-72591252D01*
X110796827Y-72591252D02*
X110821653Y-72601887D01*
X110667757Y-73604250D02*
X110719236Y-73555351D01*
X110719236Y-73555351D02*
X110744464Y-73480282D01*
X110744464Y-73480282D02*
X110745348Y-73460508D01*
X110829286Y-72885552D02*
X110765212Y-72847651D01*
X110765212Y-72847651D02*
X110697865Y-72814772D01*
X110697865Y-72814772D02*
X110633389Y-72790152D01*
X110829286Y-72885552D02*
X110829286Y-72885552D01*
X110985748Y-72696017D02*
X110829286Y-72885552D01*
X109935035Y-72944076D02*
X109942185Y-72851023D01*
X109942185Y-72851023D02*
X109963173Y-72770988D01*
X109963173Y-72770988D02*
X109992275Y-72711290D01*
X109327020Y-73865022D02*
X109327016Y-73028014D01*
X109003915Y-73884101D02*
X109003915Y-73884105D01*
X109268501Y-73815411D02*
X109202360Y-73850471D01*
X109202360Y-73850471D02*
X109152745Y-73866291D01*
X109327021Y-73541921D02*
X109353731Y-73727641D01*
X110821653Y-72601887D02*
X110890493Y-72635568D01*
X110890493Y-72635568D02*
X110955007Y-72674638D01*
X110955007Y-72674638D02*
X110985748Y-72696017D01*
X110446397Y-72525567D02*
X110543057Y-72529970D01*
X110543057Y-72529970D02*
X110631008Y-72542404D01*
X110631008Y-72542404D02*
X110642293Y-72544647D01*
X108517990Y-73475776D02*
X108525150Y-73382442D01*
X108525150Y-73382442D02*
X108546198Y-73302932D01*
X108546198Y-73302932D02*
X108580402Y-73236787D01*
X108580402Y-73236787D02*
X108627150Y-73183274D01*
X108627150Y-73183274D02*
X108628659Y-73181932D01*
X110423516Y-73302778D02*
X110401886Y-73302778D01*
X108828376Y-73624601D02*
X108897106Y-73656673D01*
X108897106Y-73656673D02*
X108982794Y-73671203D01*
X108982794Y-73671203D02*
X109031904Y-73672941D01*
X110599059Y-73323128D02*
X110510696Y-73310817D01*
X110510696Y-73310817D02*
X110423516Y-73302778D01*
X110228900Y-73610610D02*
X110304861Y-73634710D01*
X110304861Y-73634710D02*
X110391504Y-73649298D01*
X110391504Y-73649298D02*
X110437516Y-73651320D01*
X108628659Y-73181932D02*
X108688092Y-73140665D01*
X108688092Y-73140665D02*
X108759366Y-73110966D01*
X108759366Y-73110966D02*
X108841370Y-73092441D01*
X108841370Y-73092441D02*
X108933441Y-73084426D01*
X108933441Y-73084426D02*
X108963209Y-73083982D01*
X110359896Y-73298978D02*
X110268193Y-73288888D01*
X110268193Y-73288888D02*
X110183597Y-73273070D01*
X110183597Y-73273070D02*
X110142375Y-73262088D01*
X110745348Y-73460508D02*
X110722100Y-73383461D01*
X110722100Y-73383461D02*
X110703368Y-73365108D01*
X109031904Y-73672941D02*
X109128539Y-73668875D01*
X109128539Y-73668875D02*
X109215410Y-73654203D01*
X109215410Y-73654203D02*
X109253241Y-73641141D01*
X109356274Y-73292599D02*
X108964482Y-73292599D01*
X109862549Y-73678029D02*
X109862549Y-73678029D01*
X109338464Y-73083982D02*
X109356274Y-73292599D01*
X109573798Y-73016563D02*
X109573798Y-73865022D01*
X108638835Y-73783613D02*
X108589729Y-73731407D01*
X108589729Y-73731407D02*
X108552976Y-73667340D01*
X108552976Y-73667340D02*
X108528989Y-73590643D01*
X108528989Y-73590643D02*
X108518446Y-73500735D01*
X108518446Y-73500735D02*
X108517990Y-73475776D01*
X110924616Y-73221459D02*
X110961418Y-73284913D01*
X110961418Y-73284913D02*
X110983218Y-73363351D01*
X110983218Y-73363351D02*
X110990752Y-73456338D01*
X110990752Y-73456338D02*
X110990766Y-73460604D01*
X110760521Y-73110790D02*
X110831184Y-73140422D01*
X110831184Y-73140422D02*
X110888827Y-73182862D01*
X110888827Y-73182862D02*
X110924616Y-73221459D01*
X110314098Y-73054740D02*
X110404701Y-73064884D01*
X110404701Y-73064884D02*
X110476921Y-73070000D01*
X110181808Y-72938980D02*
X110209609Y-73011609D01*
X110209609Y-73011609D02*
X110218698Y-73019120D01*
X109152745Y-73866291D02*
X109066875Y-73881297D01*
X109066875Y-73881297D02*
X109003915Y-73884101D01*
X109993545Y-73159052D02*
X109957654Y-73093005D01*
X109957654Y-73093005D02*
X109938747Y-73010465D01*
X109938747Y-73010465D02*
X109935035Y-72944076D01*
X109573798Y-73865022D02*
X109327020Y-73865022D01*
X110380256Y-73300278D02*
X110370076Y-73300278D01*
X110437516Y-73884105D02*
X110340797Y-73879984D01*
X110340797Y-73879984D02*
X110252456Y-73868248D01*
X110252456Y-73868248D02*
X110217451Y-73861205D01*
X108811836Y-73338389D02*
X108772987Y-73399743D01*
X108772987Y-73399743D02*
X108762225Y-73475771D01*
X109003915Y-73884105D02*
X108907856Y-73879774D01*
X108907856Y-73879774D02*
X108820925Y-73866462D01*
X108820925Y-73866462D02*
X108742390Y-73843155D01*
X108742390Y-73843155D02*
X108674585Y-73809462D01*
X108674585Y-73809462D02*
X108638835Y-73783613D01*
X110026644Y-73792515D02*
X109962973Y-73755689D01*
X109962973Y-73755689D02*
X109904329Y-73713636D01*
X109904329Y-73713636D02*
X109862549Y-73678029D01*
X110370076Y-73300278D02*
X110359896Y-73298978D01*
X110525191Y-73073900D02*
X110617006Y-73082452D01*
X110617006Y-73082452D02*
X110703665Y-73096730D01*
X110703665Y-73096730D02*
X110760521Y-73110790D01*
X110517591Y-73072600D02*
X110525191Y-73073900D01*
X110509991Y-73072600D02*
X110517591Y-73072600D01*
X110985748Y-72696017D02*
X110985748Y-72696017D01*
X110492181Y-73071300D02*
X110509991Y-73072600D01*
X110476921Y-73070000D02*
X110492181Y-73071300D01*
X110401886Y-73302778D02*
X110380256Y-73300278D01*
X110016467Y-73488493D02*
X110016467Y-73488493D01*
X105971342Y-73297684D02*
X105979317Y-73390314D01*
X105979317Y-73390314D02*
X106002539Y-73467256D01*
X106002539Y-73467256D02*
X106040402Y-73529995D01*
X106040402Y-73529995D02*
X106057842Y-73549550D01*
X109512738Y-72751976D02*
X109544356Y-72823126D01*
X109544356Y-72823126D02*
X109564708Y-72903645D01*
X109564708Y-72903645D02*
X109573542Y-72996745D01*
X109573542Y-72996745D02*
X109573798Y-73016563D01*
X109061160Y-72754520D02*
X108969002Y-72762926D01*
X108969002Y-72762926D02*
X108905970Y-72778690D01*
X105971342Y-73129773D02*
X105971342Y-73297684D01*
X109334651Y-72584065D02*
X109397823Y-72621759D01*
X109397823Y-72621759D02*
X109451502Y-72668361D01*
X109451502Y-72668361D02*
X109496927Y-72725648D01*
X109496927Y-72725648D02*
X109512738Y-72751976D01*
X106057842Y-73549550D02*
X106114324Y-73593199D01*
X106114324Y-73593199D02*
X106185423Y-73622639D01*
X106185423Y-73622639D02*
X106272090Y-73636427D01*
X106272090Y-73636427D02*
X106303348Y-73637320D01*
X106051482Y-72856282D02*
X106012515Y-72917465D01*
X106012515Y-72917465D02*
X105986337Y-72991783D01*
X105986337Y-72991783D02*
X105973127Y-73078722D01*
X105973127Y-73078722D02*
X105971342Y-73129773D01*
X109053528Y-72525555D02*
X109148600Y-72530916D01*
X109148600Y-72530916D02*
X109233387Y-72546587D01*
X109233387Y-72546587D02*
X109308246Y-72571861D01*
X109308246Y-72571861D02*
X109334651Y-72584065D01*
X108905970Y-72778690D02*
X108834531Y-72807892D01*
X108834531Y-72807892D02*
X108772404Y-72846110D01*
X107421483Y-72015462D02*
X107421483Y-73865025D01*
X107680982Y-73650052D02*
X107770145Y-73638850D01*
X107770145Y-73638850D02*
X107839122Y-73607529D01*
X107839122Y-73607529D02*
X107879422Y-73572452D01*
X105980252Y-72598061D02*
X106049527Y-72564861D01*
X106049527Y-72564861D02*
X106126470Y-72541613D01*
X106126470Y-72541613D02*
X106213902Y-72528305D01*
X106213902Y-72528305D02*
X106280456Y-72525551D01*
X106768919Y-73686934D02*
X106768919Y-73686934D01*
X107403674Y-73657683D02*
X107421484Y-73381648D01*
X106280456Y-72525551D02*
X106373790Y-72532739D01*
X106373790Y-72532739D02*
X106454158Y-72552717D01*
X106454158Y-72552717D02*
X106523635Y-72583593D01*
X106523635Y-72583593D02*
X106562851Y-72608231D01*
X108780036Y-72576435D02*
X108856164Y-72550567D01*
X108856164Y-72550567D02*
X108939789Y-72533395D01*
X108939789Y-72533395D02*
X109034287Y-72525765D01*
X109034287Y-72525765D02*
X109053528Y-72525555D01*
X107161984Y-73865025D02*
X107161984Y-72015462D01*
X108156723Y-73638603D02*
X108120890Y-73704260D01*
X108120890Y-73704260D02*
X108076108Y-73760524D01*
X108076108Y-73760524D02*
X108022536Y-73806955D01*
X108022536Y-73806955D02*
X108000262Y-73821780D01*
X108210154Y-73063637D02*
X108210154Y-73351120D01*
X106303348Y-73884101D02*
X106303349Y-73884105D01*
X106303348Y-73637320D02*
X106393194Y-73626903D01*
X106393194Y-73626903D02*
X106459810Y-73605520D01*
X106556491Y-73100516D02*
X106544250Y-73010709D01*
X106544250Y-73010709D02*
X106521177Y-72933770D01*
X106521177Y-72933770D02*
X106486366Y-72868376D01*
X106486366Y-72868376D02*
X106472531Y-72849922D01*
X108582868Y-72716361D02*
X108632619Y-72665402D01*
X108632619Y-72665402D02*
X108690393Y-72622297D01*
X108690393Y-72622297D02*
X108755254Y-72587139D01*
X108755254Y-72587139D02*
X108780036Y-72576435D01*
X107551236Y-72589162D02*
X107616701Y-72554394D01*
X107616701Y-72554394D02*
X107694821Y-72531694D01*
X107694821Y-72531694D02*
X107766212Y-72525562D01*
X106803269Y-73309132D02*
X105912833Y-73309132D01*
X107950652Y-73351115D02*
X107950652Y-73064904D01*
X108772404Y-72846110D02*
X108582868Y-72716361D01*
X109257056Y-72827030D02*
X109199861Y-72784137D01*
X109199861Y-72784137D02*
X109124170Y-72759558D01*
X109124170Y-72759558D02*
X109061160Y-72754520D01*
X108210154Y-73351120D02*
X108205379Y-73447154D01*
X108205379Y-73447154D02*
X108191190Y-73534014D01*
X108191190Y-73534014D02*
X108168047Y-73611133D01*
X108168047Y-73611133D02*
X108156723Y-73638603D01*
X107950652Y-73064904D02*
X107942185Y-72972630D01*
X107942185Y-72972630D02*
X107917268Y-72896759D01*
X107917268Y-72896759D02*
X107879422Y-72839751D01*
X106548854Y-73833221D02*
X106474796Y-73859360D01*
X106474796Y-73859360D02*
X106391386Y-73877598D01*
X106391386Y-73877598D02*
X106303348Y-73884101D01*
X107539784Y-73618252D02*
X107614665Y-73644231D01*
X107614665Y-73644231D02*
X107680982Y-73650052D01*
X106459810Y-73605520D02*
X106526461Y-73571644D01*
X106526461Y-73571644D02*
X106584171Y-73529331D01*
X106584171Y-73529331D02*
X106598464Y-73516480D01*
X106556491Y-73100516D02*
X106556491Y-73100516D01*
X108158004Y-72772337D02*
X108185362Y-72852174D01*
X108185362Y-72852174D02*
X108201911Y-72935973D01*
X108201911Y-72935973D02*
X108209634Y-73030168D01*
X108209634Y-73030168D02*
X108210154Y-73063637D01*
X107452014Y-72880461D02*
X107426965Y-72955908D01*
X107426965Y-72955908D02*
X107421484Y-73021659D01*
X107879422Y-72839751D02*
X107824053Y-72793915D01*
X107824053Y-72793915D02*
X107750800Y-72766393D01*
X107750800Y-72766393D02*
X107680982Y-72759611D01*
X107538511Y-73825595D02*
X107482867Y-73780410D01*
X107482867Y-73780410D02*
X107437950Y-73724510D01*
X107437950Y-73724510D02*
X107403842Y-73658104D01*
X107403842Y-73658104D02*
X107403674Y-73657683D01*
X106803269Y-73222632D02*
X106803269Y-73309132D01*
X106562851Y-72608231D02*
X106617462Y-72653786D01*
X106617462Y-72653786D02*
X106664839Y-72707956D01*
X106664839Y-72707956D02*
X106704326Y-72769056D01*
X106704326Y-72769056D02*
X106736696Y-72836765D01*
X106736696Y-72836765D02*
X106740939Y-72847377D01*
X105789445Y-72809221D02*
X105825859Y-72744505D01*
X105825859Y-72744505D02*
X105869662Y-72687721D01*
X105869662Y-72687721D02*
X105921254Y-72638707D01*
X105921254Y-72638707D02*
X105980252Y-72598061D01*
X109327016Y-73028014D02*
X109316838Y-72937561D01*
X109316838Y-72937561D02*
X109287700Y-72866365D01*
X109287700Y-72866365D02*
X109257056Y-72827030D01*
X107421484Y-73021659D02*
X107394774Y-72767249D01*
X107421483Y-73865025D02*
X107161984Y-73865025D01*
X107753484Y-73884110D02*
X107753488Y-73884105D01*
X108000262Y-73821780D02*
X107932337Y-73854477D01*
X107932337Y-73854477D02*
X107852041Y-73875968D01*
X107852041Y-73875968D02*
X107759951Y-73884074D01*
X107759951Y-73884074D02*
X107753484Y-73884110D01*
X107421484Y-73381648D02*
X107431858Y-73472373D01*
X107431858Y-73472373D02*
X107452014Y-73526662D01*
X108005358Y-72589162D02*
X108063649Y-72634026D01*
X108063649Y-72634026D02*
X108110296Y-72687426D01*
X108110296Y-72687426D02*
X108147728Y-72750048D01*
X108147728Y-72750048D02*
X108158004Y-72772337D01*
X105912833Y-73309132D02*
X105912833Y-73100516D01*
X106768919Y-73686934D02*
X106715582Y-73733652D01*
X106715582Y-73733652D02*
X106656941Y-73775798D01*
X106656941Y-73775798D02*
X106593334Y-73812418D01*
X106593334Y-73812418D02*
X106548854Y-73833221D01*
X107394774Y-72767249D02*
X107432555Y-72704591D01*
X107432555Y-72704591D02*
X107478455Y-72648947D01*
X107478455Y-72648947D02*
X107532342Y-72602107D01*
X107532342Y-72602107D02*
X107551236Y-72589162D01*
X107680982Y-72759611D02*
X107591581Y-72770300D01*
X107591581Y-72770300D02*
X107539784Y-72790141D01*
X107452014Y-73526662D02*
X107494274Y-73584549D01*
X107494274Y-73584549D02*
X107539784Y-73618252D01*
X105912833Y-73100516D02*
X106556491Y-73100516D01*
X106598464Y-73516480D02*
X106598464Y-73516480D01*
X106740939Y-72847377D02*
X106766542Y-72923472D01*
X106766542Y-72923472D02*
X106785284Y-73005579D01*
X106785284Y-73005579D02*
X106797405Y-73094309D01*
X106797405Y-73094309D02*
X106802904Y-73189658D01*
X106802904Y-73189658D02*
X106803269Y-73222632D01*
X107539784Y-72790141D02*
X107483343Y-72834294D01*
X107483343Y-72834294D02*
X107452014Y-72880461D01*
X107161984Y-72015462D02*
X107421483Y-72015462D01*
X107766212Y-72525562D02*
X107859071Y-72533333D01*
X107859071Y-72533333D02*
X107939803Y-72555792D01*
X107939803Y-72555792D02*
X108005358Y-72589162D01*
X107753488Y-73884105D02*
X107661506Y-73875085D01*
X107661506Y-73875085D02*
X107585124Y-73850674D01*
X107585124Y-73850674D02*
X107538511Y-73825595D01*
X106598464Y-73516480D02*
X106768919Y-73686934D01*
X106280451Y-72759602D02*
X106190121Y-72770160D01*
X106190121Y-72770160D02*
X106118947Y-72799034D01*
X106118947Y-72799034D02*
X106062920Y-72843512D01*
X106062920Y-72843512D02*
X106051482Y-72856282D01*
X106472531Y-72849922D02*
X106421250Y-72800934D01*
X106421250Y-72800934D02*
X106353185Y-72768978D01*
X106353185Y-72768978D02*
X106280451Y-72759602D01*
X107879422Y-73572452D02*
X107920879Y-73508737D01*
X107920879Y-73508737D02*
X107944248Y-73430818D01*
X107944248Y-73430818D02*
X107950652Y-73351115D01*
X105112711Y-73200984D02*
X105058864Y-73153608D01*
X105058864Y-73153608D02*
X104990712Y-73119712D01*
X104990712Y-73119712D02*
X104982961Y-73117034D01*
X104837985Y-72819302D02*
X104848165Y-72820602D01*
X104235033Y-72245618D02*
X104278018Y-72188425D01*
X104278018Y-72188425D02*
X104329460Y-72138672D01*
X104329460Y-72138672D02*
X104388245Y-72096886D01*
X104388245Y-72096886D02*
X104455018Y-72062151D01*
X104455018Y-72062151D02*
X104460186Y-72059898D01*
X104741304Y-73883904D02*
X104741270Y-73884105D01*
X105420581Y-73345870D02*
X105420581Y-73348370D01*
X104603932Y-72763372D02*
X104682873Y-72785081D01*
X104682873Y-72785081D02*
X104766138Y-72804033D01*
X104766138Y-72804033D02*
X104829085Y-72816802D01*
X104519973Y-72316856D02*
X104468345Y-72365600D01*
X104468345Y-72365600D02*
X104432383Y-72429721D01*
X104432383Y-72429721D02*
X104416057Y-72513737D01*
X104416057Y-72513737D02*
X104415665Y-72530560D01*
X104264251Y-73782345D02*
X104198772Y-73746674D01*
X104198772Y-73746674D02*
X104137823Y-73706971D01*
X104137823Y-73706971D02*
X104080458Y-73663115D01*
X104080458Y-73663115D02*
X104070899Y-73655139D01*
X105024978Y-72279966D02*
X104947383Y-72256129D01*
X104947383Y-72256129D02*
X104860393Y-72242354D01*
X104860393Y-72242354D02*
X104815089Y-72240537D01*
X105236138Y-72395723D02*
X105236138Y-72395723D01*
X105009713Y-72017928D02*
X105088373Y-72039302D01*
X105088373Y-72039302D02*
X105161732Y-72066271D01*
X105161732Y-72066271D02*
X105199249Y-72082798D01*
X104439833Y-72988524D02*
X104371124Y-72956981D01*
X104371124Y-72956981D02*
X104312153Y-72915755D01*
X104312153Y-72915755D02*
X104260799Y-72865609D01*
X104260799Y-72865609D02*
X104241393Y-72842238D01*
X133979378Y-68735800D02*
X134045585Y-68769741D01*
X134045585Y-68769741D02*
X134096406Y-68812120D01*
X134096406Y-68812120D02*
X133892874Y-69095796D01*
X104465235Y-73594081D02*
X104543188Y-73617355D01*
X104543188Y-73617355D02*
X104627744Y-73632811D01*
X104627744Y-73632811D02*
X104722173Y-73639679D01*
X104722173Y-73639679D02*
X104741270Y-73639871D01*
X104232449Y-73456699D02*
X104232449Y-73456699D01*
X133830548Y-68709090D02*
X133921545Y-68718209D01*
X133921545Y-68718209D02*
X133979378Y-68735800D01*
X105791985Y-73614430D02*
X105762388Y-73543940D01*
X105762388Y-73543940D02*
X105741024Y-73465299D01*
X105741024Y-73465299D02*
X105728082Y-73375783D01*
X105728082Y-73375783D02*
X105724565Y-73292601D01*
X105340441Y-73638397D02*
X105296220Y-73694271D01*
X105296220Y-73694271D02*
X105243533Y-73742899D01*
X105243533Y-73742899D02*
X105184150Y-73783525D01*
X105184150Y-73783525D02*
X105117709Y-73817285D01*
X105117709Y-73817285D02*
X105107655Y-73821574D01*
X105155997Y-72907012D02*
X105221835Y-72941376D01*
X105221835Y-72941376D02*
X105278745Y-72985133D01*
X105278745Y-72985133D02*
X105327074Y-73036873D01*
X105327074Y-73036873D02*
X105344261Y-73059658D01*
X104829085Y-72816802D02*
X104837985Y-72819302D01*
X104815089Y-72240537D02*
X104719297Y-72246041D01*
X104719297Y-72246041D02*
X104635421Y-72262630D01*
X104635421Y-72262630D02*
X104563226Y-72290554D01*
X104563226Y-72290554D02*
X104519973Y-72316856D01*
X105163591Y-73354930D02*
X105163591Y-73353630D01*
X105163591Y-73353630D02*
X105150569Y-73266233D01*
X105150569Y-73266233D02*
X105114090Y-73202519D01*
X105114090Y-73202519D02*
X105112711Y-73200984D01*
X104741270Y-73884105D02*
X104644689Y-73880644D01*
X104644689Y-73880644D02*
X104553603Y-73870528D01*
X104553603Y-73870528D02*
X104488132Y-73858665D01*
X105236138Y-72395723D02*
X105176334Y-72354929D01*
X105176334Y-72354929D02*
X105111582Y-72317898D01*
X105111582Y-72317898D02*
X105042297Y-72286488D01*
X105042297Y-72286488D02*
X105024978Y-72279966D01*
X104761661Y-73063554D02*
X104742581Y-73059754D01*
X104862155Y-72823102D02*
X104876145Y-72825602D01*
X104158713Y-72538190D02*
X104165001Y-72443772D01*
X104165001Y-72443772D02*
X104183027Y-72360535D01*
X104183027Y-72360535D02*
X104211358Y-72288025D01*
X104211358Y-72288025D02*
X104235033Y-72245618D01*
X133523980Y-69301869D02*
X133497270Y-68958415D01*
X104232449Y-73456699D02*
X104288757Y-73501188D01*
X104288757Y-73501188D02*
X104349585Y-73540427D01*
X104349585Y-73540427D02*
X104415887Y-73574229D01*
X104415887Y-73574229D02*
X104465235Y-73594081D01*
X104070899Y-73655139D02*
X104232449Y-73456699D01*
X133830544Y-69057636D02*
X133745314Y-69044916D01*
X104469095Y-72681962D02*
X104525183Y-72726602D01*
X104525183Y-72726602D02*
X104593092Y-72759587D01*
X104593092Y-72759587D02*
X104603932Y-72763372D01*
X133497270Y-68958415D02*
X133532297Y-68893279D01*
X133532297Y-68893279D02*
X133574728Y-68835247D01*
X133574728Y-68835247D02*
X133625471Y-68785431D01*
X133625471Y-68785431D02*
X133638468Y-68775240D01*
X104415665Y-72530560D02*
X104415665Y-72531860D01*
X105383696Y-72189651D02*
X105236138Y-72395723D01*
X104241393Y-72842238D02*
X104203656Y-72779951D01*
X104203656Y-72779951D02*
X104177449Y-72705828D01*
X104177449Y-72705828D02*
X104162632Y-72620586D01*
X104162632Y-72620586D02*
X104158713Y-72539490D01*
X104742581Y-73059754D02*
X104657972Y-73044164D01*
X104657972Y-73044164D02*
X104575216Y-73026323D01*
X104575216Y-73026323D02*
X104495350Y-73005701D01*
X104495350Y-73005701D02*
X104439833Y-72988524D01*
X104778161Y-73066154D02*
X104769261Y-73064854D01*
X105052923Y-73566091D02*
X105107344Y-73517958D01*
X105107344Y-73517958D02*
X105145410Y-73455222D01*
X105145410Y-73455222D02*
X105163114Y-73372477D01*
X105163114Y-73372477D02*
X105163591Y-73354930D01*
X133745314Y-69044916D02*
X133659128Y-69059077D01*
X133659128Y-69059077D02*
X133596676Y-69097415D01*
X133596676Y-69097415D02*
X133581220Y-69113606D01*
X133581220Y-69113606D02*
X133544290Y-69176851D01*
X133544290Y-69176851D02*
X133525949Y-69258861D01*
X133525949Y-69258861D02*
X133523980Y-69301869D01*
X105990425Y-73815415D02*
X105928694Y-73776595D01*
X105928694Y-73776595D02*
X105874970Y-73729838D01*
X105874970Y-73729838D02*
X105829162Y-73675233D01*
X105829162Y-73675233D02*
X105791985Y-73614430D01*
X104815089Y-71996298D02*
X104911070Y-72001452D01*
X104911070Y-72001452D02*
X104998375Y-72015434D01*
X104998375Y-72015434D02*
X105009713Y-72017928D01*
X105344261Y-73059658D02*
X105380830Y-73123729D01*
X105380830Y-73123729D02*
X105405577Y-73199823D01*
X105405577Y-73199823D02*
X105418449Y-73287279D01*
X105418449Y-73287279D02*
X105420581Y-73345870D01*
X104848165Y-72820602D02*
X104862155Y-72823102D01*
X104460186Y-72059898D02*
X104534531Y-72033009D01*
X104534531Y-72033009D02*
X104615434Y-72013526D01*
X104615434Y-72013526D02*
X104703928Y-72001257D01*
X104703928Y-72001257D02*
X104799780Y-71996383D01*
X104799780Y-71996383D02*
X104815089Y-71996298D01*
X104415665Y-72531860D02*
X104429547Y-72618545D01*
X104429547Y-72618545D02*
X104467642Y-72680457D01*
X104467642Y-72680457D02*
X104469095Y-72681962D01*
X104769261Y-73064854D02*
X104761661Y-73063554D01*
X104982961Y-73117034D02*
X104905717Y-73093719D01*
X104905717Y-73093719D02*
X104823498Y-73074867D01*
X104823498Y-73074867D02*
X104778161Y-73066154D01*
X104070899Y-73655139D02*
X104070899Y-73655139D01*
X104488132Y-73858665D02*
X104408395Y-73838366D01*
X104408395Y-73838366D02*
X104333488Y-73812661D01*
X104333488Y-73812661D02*
X104264251Y-73782345D01*
X104741270Y-73639871D02*
X104836813Y-73635184D01*
X104836813Y-73635184D02*
X104922555Y-73620731D01*
X104922555Y-73620731D02*
X104998649Y-73595508D01*
X104998649Y-73595508D02*
X105052923Y-73566091D01*
X105383696Y-72189651D02*
X105383696Y-72189651D01*
X105724565Y-73143771D02*
X105728809Y-73047272D01*
X105728809Y-73047272D02*
X105741422Y-72958922D01*
X105741422Y-72958922D02*
X105762014Y-72879140D01*
X105762014Y-72879140D02*
X105789445Y-72809221D01*
X105724565Y-73292601D02*
X105724565Y-73143771D01*
X104158713Y-72539490D02*
X104158713Y-72538190D01*
X106303349Y-73884105D02*
X106207826Y-73879038D01*
X106207826Y-73879038D02*
X106118375Y-73863411D01*
X106118375Y-73863411D02*
X106041503Y-73838974D01*
X106041503Y-73838974D02*
X105990425Y-73815415D01*
X105107655Y-73821574D02*
X105032876Y-73847457D01*
X105032876Y-73847457D02*
X104951586Y-73866341D01*
X104951586Y-73866341D02*
X104862954Y-73878441D01*
X104862954Y-73878441D02*
X104765450Y-73883700D01*
X104765450Y-73883700D02*
X104741304Y-73883904D01*
X104876145Y-72825602D02*
X104959601Y-72844303D01*
X104959601Y-72844303D02*
X105039830Y-72866006D01*
X105039830Y-72866006D02*
X105117283Y-72891733D01*
X105117283Y-72891733D02*
X105155997Y-72907012D01*
X133638468Y-68775240D02*
X133701856Y-68737069D01*
X133701856Y-68737069D02*
X133778251Y-68713419D01*
X133778251Y-68713419D02*
X133830548Y-68709090D01*
X105199249Y-72082798D02*
X105267948Y-72116759D01*
X105267948Y-72116759D02*
X105332320Y-72154795D01*
X105332320Y-72154795D02*
X105383696Y-72189651D01*
X105420581Y-73348370D02*
X105413790Y-73442743D01*
X105413790Y-73442743D02*
X105394690Y-73525065D01*
X105394690Y-73525065D02*
X105365227Y-73596182D01*
X105365227Y-73596182D02*
X105340441Y-73638397D01*
X128485383Y-72774872D02*
X128523375Y-72711343D01*
X128523375Y-72711343D02*
X128568379Y-72655405D01*
X128568379Y-72655405D02*
X128620853Y-72607702D01*
X128620853Y-72607702D02*
X128643117Y-72591697D01*
X132868872Y-72297857D02*
X132605557Y-72459407D01*
X131738017Y-72544635D02*
X131241917Y-73865025D01*
X133559596Y-71818294D02*
X133607335Y-71872217D01*
X133607335Y-71872217D02*
X133652288Y-71927423D01*
X133652288Y-71927423D02*
X133695302Y-71985062D01*
X133695302Y-71985062D02*
X133736145Y-72045083D01*
X133736145Y-72045083D02*
X133774680Y-72107546D01*
X133774680Y-72107546D02*
X133811586Y-72174062D01*
X133811586Y-72174062D02*
X133844839Y-72241239D01*
X133844839Y-72241239D02*
X133875782Y-72311932D01*
X133875782Y-72311932D02*
X133897961Y-72369092D01*
X131046021Y-73865025D02*
X130549921Y-72544635D01*
X130051266Y-72849922D02*
X129999985Y-72800934D01*
X129999985Y-72800934D02*
X129931921Y-72768978D01*
X129931921Y-72768978D02*
X129859187Y-72759602D01*
X133668992Y-73623334D02*
X133694254Y-73546795D01*
X133694254Y-73546795D02*
X133715905Y-73466995D01*
X133715905Y-73466995D02*
X133733995Y-73382716D01*
X133733995Y-73382716D02*
X133747878Y-73296081D01*
X133747878Y-73296081D02*
X133757709Y-73205313D01*
X133757709Y-73205313D02*
X133763299Y-73108055D01*
X133763299Y-73108055D02*
X133764392Y-73040735D01*
X130141587Y-72608231D02*
X130196197Y-72653786D01*
X130196197Y-72653786D02*
X130243574Y-72707956D01*
X130243574Y-72707956D02*
X130283061Y-72769056D01*
X130283061Y-72769056D02*
X130315431Y-72836765D01*
X130315431Y-72836765D02*
X130319674Y-72847377D01*
X133381508Y-71979844D02*
X133559596Y-71818294D01*
X133668992Y-72458135D02*
X133640883Y-72386233D01*
X133640883Y-72386233D02*
X133609349Y-72316750D01*
X133609349Y-72316750D02*
X133574663Y-72250002D01*
X133574663Y-72250002D02*
X133537175Y-72186272D01*
X133537175Y-72186272D02*
X133496524Y-72124664D01*
X133496524Y-72124664D02*
X133453779Y-72066460D01*
X133453779Y-72066460D02*
X133408763Y-72010993D01*
X133408763Y-72010993D02*
X133381508Y-71979844D01*
X133381508Y-74102898D02*
X133427663Y-74048808D01*
X133427663Y-74048808D02*
X133472160Y-73991418D01*
X133472160Y-73991418D02*
X133513792Y-73931946D01*
X133513792Y-73931946D02*
X133553328Y-73868950D01*
X133553328Y-73868950D02*
X133589454Y-73804200D01*
X133589454Y-73804200D02*
X133623135Y-73735596D01*
X133623135Y-73735596D02*
X133653089Y-73665387D01*
X133653089Y-73665387D02*
X133668992Y-73623334D01*
X130177199Y-73516480D02*
X130177199Y-73516480D01*
X130382004Y-73309132D02*
X129491567Y-73309132D01*
X133128370Y-72015462D02*
X133128370Y-73865025D01*
X130347654Y-73686934D02*
X130347654Y-73686934D01*
X128579513Y-72841019D02*
X128538015Y-72899949D01*
X128538015Y-72899949D02*
X128515520Y-72977475D01*
X128515520Y-72977475D02*
X128512093Y-73029282D01*
X132868872Y-72015462D02*
X133128370Y-72015462D01*
X132605557Y-72191006D02*
X132868872Y-72015462D01*
X129859187Y-72759602D02*
X129768857Y-72770160D01*
X129768857Y-72770160D02*
X129697683Y-72799034D01*
X129697683Y-72799034D02*
X129641656Y-72843512D01*
X129641656Y-72843512D02*
X129630218Y-72856282D01*
X130382004Y-73222632D02*
X130382004Y-73309132D01*
X129370729Y-73614430D02*
X129341133Y-73543940D01*
X129341133Y-73543940D02*
X129319769Y-73465299D01*
X129319769Y-73465299D02*
X129306826Y-73375783D01*
X129306826Y-73375783D02*
X129303309Y-73292601D01*
X129550077Y-73297684D02*
X129558052Y-73390314D01*
X129558052Y-73390314D02*
X129581275Y-73467256D01*
X129581275Y-73467256D02*
X129619138Y-73529995D01*
X129619138Y-73529995D02*
X129636578Y-73549550D01*
X129368179Y-72809221D02*
X129404593Y-72744505D01*
X129404593Y-72744505D02*
X129448396Y-72687721D01*
X129448396Y-72687721D02*
X129499989Y-72638707D01*
X129499989Y-72638707D02*
X129558987Y-72598061D01*
X128512093Y-73029282D02*
X128485383Y-72774872D01*
X132605557Y-72459407D02*
X132605557Y-72191006D01*
X129882095Y-73884105D02*
X129786571Y-73879038D01*
X129786571Y-73879038D02*
X129697120Y-73863411D01*
X129697120Y-73863411D02*
X129620248Y-73838974D01*
X129620248Y-73838974D02*
X129569169Y-73815415D01*
X132868872Y-73865025D02*
X132868872Y-72297857D01*
X133128370Y-73865025D02*
X132868872Y-73865025D01*
X129882084Y-73884101D02*
X129882095Y-73884105D01*
X130820868Y-72544635D02*
X131143969Y-73487224D01*
X131241917Y-73865025D02*
X131046021Y-73865025D01*
X129019644Y-72552257D02*
X129088401Y-72583907D01*
X129088401Y-72583907D02*
X129145975Y-72626598D01*
X129145975Y-72626598D02*
X129148121Y-72628577D01*
X129491567Y-73100516D02*
X130135226Y-73100516D01*
X130549921Y-72544635D02*
X130820868Y-72544635D01*
X130127589Y-73833221D02*
X130053531Y-73859360D01*
X130053531Y-73859360D02*
X129970121Y-73877598D01*
X129970121Y-73877598D02*
X129882084Y-73884101D01*
X130347654Y-73686934D02*
X130294317Y-73733652D01*
X130294317Y-73733652D02*
X130235676Y-73775798D01*
X130235676Y-73775798D02*
X130172069Y-73812418D01*
X130172069Y-73812418D02*
X130127589Y-73833221D01*
X130177199Y-73516480D02*
X130347654Y-73686934D01*
X129636578Y-73549550D02*
X129693060Y-73593199D01*
X129693060Y-73593199D02*
X129764159Y-73622639D01*
X129764159Y-73622639D02*
X129850826Y-73636427D01*
X129850826Y-73636427D02*
X129882084Y-73637320D01*
X129550077Y-73129773D02*
X129550077Y-73297684D01*
X129558987Y-72598061D02*
X129628263Y-72564861D01*
X129628263Y-72564861D02*
X129705206Y-72541613D01*
X129705206Y-72541613D02*
X129792638Y-72528305D01*
X129792638Y-72528305D02*
X129859192Y-72525551D01*
X129148121Y-72628577D02*
X128978938Y-72857559D01*
X129630218Y-72856282D02*
X129591251Y-72917465D01*
X129591251Y-72917465D02*
X129565072Y-72991783D01*
X129565072Y-72991783D02*
X129551862Y-73078722D01*
X129551862Y-73078722D02*
X129550077Y-73129773D01*
X129569169Y-73815415D02*
X129507438Y-73776595D01*
X129507438Y-73776595D02*
X129453715Y-73729838D01*
X129453715Y-73729838D02*
X129407906Y-73675233D01*
X129407906Y-73675233D02*
X129370729Y-73614430D01*
X130135226Y-73100516D02*
X130122985Y-73010709D01*
X130122985Y-73010709D02*
X130099912Y-72933770D01*
X130099912Y-72933770D02*
X130065101Y-72868376D01*
X130065101Y-72868376D02*
X130051266Y-72849922D01*
X129303309Y-73143771D02*
X129307553Y-73047272D01*
X129307553Y-73047272D02*
X129320164Y-72958922D01*
X129320164Y-72958922D02*
X129340753Y-72879140D01*
X129340753Y-72879140D02*
X129368179Y-72809221D01*
X128856821Y-72525547D02*
X128949647Y-72533418D01*
X128949647Y-72533418D02*
X129019644Y-72552257D01*
X128771593Y-72772329D02*
X128682344Y-72783123D01*
X128682344Y-72783123D02*
X128612495Y-72814042D01*
X128612495Y-72814042D02*
X128579513Y-72841019D01*
X130319674Y-72847377D02*
X130345276Y-72923472D01*
X130345276Y-72923472D02*
X130364018Y-73005579D01*
X130364018Y-73005579D02*
X130376139Y-73094309D01*
X130376139Y-73094309D02*
X130381639Y-73189658D01*
X130381639Y-73189658D02*
X130382004Y-73222632D01*
X128643117Y-72591697D02*
X128707538Y-72555928D01*
X128707538Y-72555928D02*
X128785341Y-72532065D01*
X128785341Y-72532065D02*
X128856821Y-72525547D01*
X129303309Y-73292601D02*
X129303309Y-73143771D01*
X131143969Y-73487224D02*
X131467070Y-72544635D01*
X131467070Y-72544635D02*
X131738017Y-72544635D01*
X130038546Y-73605520D02*
X130105196Y-73571644D01*
X130105196Y-73571644D02*
X130162906Y-73529331D01*
X130162906Y-73529331D02*
X130177199Y-73516480D01*
X130135226Y-73100516D02*
X130135226Y-73100516D01*
X129882084Y-73637320D02*
X129971930Y-73626903D01*
X129971930Y-73626903D02*
X130038546Y-73605520D01*
X129491567Y-73309132D02*
X129491567Y-73100516D01*
X129859192Y-72525551D02*
X129952525Y-72532739D01*
X129952525Y-72532739D02*
X130032893Y-72552717D01*
X130032893Y-72552717D02*
X130102371Y-72583593D01*
X130102371Y-72583593D02*
X130141587Y-72608231D01*
X128892438Y-72793959D02*
X128811291Y-72774268D01*
X128811291Y-72774268D02*
X128771593Y-72772329D01*
X133559596Y-74263176D02*
X133381508Y-74102898D01*
X133897961Y-73713650D02*
X133869414Y-73785838D01*
X133869414Y-73785838D02*
X133837974Y-73855492D01*
X133837974Y-73855492D02*
X133803609Y-73922945D01*
X133803609Y-73922945D02*
X133765589Y-73989586D01*
X133765589Y-73989586D02*
X133726772Y-74050885D01*
X133726772Y-74050885D02*
X133685255Y-74110447D01*
X133685255Y-74110447D02*
X133641677Y-74167547D01*
X133641677Y-74167547D02*
X133595122Y-74223479D01*
X133595122Y-74223479D02*
X133559596Y-74263176D01*
X134011174Y-73040735D02*
X134009085Y-73139387D01*
X134009085Y-73139387D02*
X134003004Y-73233688D01*
X134003004Y-73233688D02*
X133993109Y-73324454D01*
X133993109Y-73324454D02*
X133979570Y-73411779D01*
X133979570Y-73411779D02*
X133962124Y-73497668D01*
X133962124Y-73497668D02*
X133941898Y-73577721D01*
X133941898Y-73577721D02*
X133918591Y-73654640D01*
X133918591Y-73654640D02*
X133897961Y-73713650D01*
X133764392Y-73040735D02*
X133762031Y-72942052D01*
X133762031Y-72942052D02*
X133754956Y-72846015D01*
X133754956Y-72846015D02*
X133743602Y-72755479D01*
X133743602Y-72755479D02*
X133728450Y-72670484D01*
X133728450Y-72670484D02*
X133709320Y-72588341D01*
X133709320Y-72588341D02*
X133686376Y-72509265D01*
X133686376Y-72509265D02*
X133668992Y-72458135D01*
X133897961Y-72369092D02*
X133923911Y-72444262D01*
X133923911Y-72444262D02*
X133946989Y-72523201D01*
X133946989Y-72523201D02*
X133966670Y-72604769D01*
X133966670Y-72604769D02*
X133982814Y-72688683D01*
X133982814Y-72688683D02*
X133995845Y-72778830D01*
X133995845Y-72778830D02*
X134004899Y-72871213D01*
X134004899Y-72871213D02*
X134009992Y-72966361D01*
X134009992Y-72966361D02*
X134011174Y-73040735D01*
X128512096Y-73865025D02*
X128252597Y-73865025D01*
X128512096Y-72544635D02*
X128512096Y-73865025D01*
X128252597Y-72544635D02*
X128512096Y-72544635D01*
X127734873Y-72458135D02*
X127710004Y-72533337D01*
X127710004Y-72533337D02*
X127688485Y-72612282D01*
X127688485Y-72612282D02*
X127670286Y-72696499D01*
X127670286Y-72696499D02*
X127656329Y-72782782D01*
X127656329Y-72782782D02*
X127646424Y-72872888D01*
X127646424Y-72872888D02*
X127640734Y-72968149D01*
X127640734Y-72968149D02*
X127639472Y-73040735D01*
X127844269Y-74263176D02*
X127796716Y-74209506D01*
X127796716Y-74209506D02*
X127751409Y-74153973D01*
X127751409Y-74153973D02*
X127708232Y-74096275D01*
X127708232Y-74096275D02*
X127667294Y-74036361D01*
X127667294Y-74036361D02*
X127628867Y-73974438D01*
X127628867Y-73974438D02*
X127592877Y-73910195D01*
X127592877Y-73910195D02*
X127557827Y-73840154D01*
X127557827Y-73840154D02*
X127526366Y-73768970D01*
X127526366Y-73768970D02*
X127504630Y-73713650D01*
X123955602Y-72661655D02*
X124015954Y-72704015D01*
X124015954Y-72704015D02*
X124066360Y-72754996D01*
X124066360Y-72754996D02*
X124107624Y-72814449D01*
X124107624Y-72814449D02*
X124128601Y-72855007D01*
X123192371Y-72015457D02*
X124134962Y-72015457D01*
X127392690Y-73040735D02*
X127394751Y-72942099D01*
X127394751Y-72942099D02*
X127400760Y-72847864D01*
X127400760Y-72847864D02*
X127410985Y-72753870D01*
X127410985Y-72753870D02*
X127424629Y-72666127D01*
X127424629Y-72666127D02*
X127441615Y-72582437D01*
X127441615Y-72582437D02*
X127462038Y-72501418D01*
X127462038Y-72501418D02*
X127485814Y-72423022D01*
X127485814Y-72423022D02*
X127504630Y-72369092D01*
X125974353Y-72015462D02*
X126233851Y-72015462D01*
X125438819Y-73078896D02*
X125438819Y-73325674D01*
X123860198Y-72928795D02*
X123807420Y-72881207D01*
X123807420Y-72881207D02*
X123735822Y-72851942D01*
X123735822Y-72851942D02*
X123668118Y-72844835D01*
X123411165Y-73419804D02*
X123432905Y-73498710D01*
X123432905Y-73498710D02*
X123472923Y-73559957D01*
X123472923Y-73559957D02*
X123492575Y-73578810D01*
X121912692Y-73078896D02*
X122767511Y-73078896D01*
X128022356Y-71979844D02*
X127975141Y-72034922D01*
X127975141Y-72034922D02*
X127931372Y-72091201D01*
X127931372Y-72091201D02*
X127890065Y-72150005D01*
X127890065Y-72150005D02*
X127850529Y-72212816D01*
X127850529Y-72212816D02*
X127814339Y-72277540D01*
X127814339Y-72277540D02*
X127780779Y-72345801D01*
X127780779Y-72345801D02*
X127750768Y-72416084D01*
X127750768Y-72416084D02*
X127734873Y-72458135D01*
X123492575Y-73578810D02*
X123555710Y-73615688D01*
X123555710Y-73615688D02*
X123637909Y-73633623D01*
X123637909Y-73633623D02*
X123668118Y-73634780D01*
X123668118Y-72844835D02*
X123583571Y-72860588D01*
X123583571Y-72860588D02*
X123538369Y-72882995D01*
X127844269Y-71818294D02*
X128022356Y-71979844D01*
X123411165Y-73418504D02*
X123411165Y-73419804D01*
X125711037Y-72191006D02*
X125974353Y-72015462D01*
X123428972Y-72989848D02*
X123192371Y-72989848D01*
X123451869Y-72262235D02*
X123451869Y-72678195D01*
X125974353Y-72297857D02*
X125711037Y-72459407D01*
X127734873Y-73623334D02*
X127764040Y-73697771D01*
X127764040Y-73697771D02*
X127795341Y-73766519D01*
X127795341Y-73766519D02*
X127829919Y-73832981D01*
X127829919Y-73832981D02*
X127867550Y-73896956D01*
X127867550Y-73896956D02*
X127907292Y-73957319D01*
X127907292Y-73957319D02*
X127949993Y-74015708D01*
X127949993Y-74015708D02*
X127994734Y-74071138D01*
X127994734Y-74071138D02*
X128022356Y-74102898D01*
X124584001Y-73325674D02*
X124584001Y-73078896D01*
X123928888Y-73161580D02*
X123921222Y-73068834D01*
X123921222Y-73068834D02*
X123898414Y-72991541D01*
X123898414Y-72991541D02*
X123860465Y-72929117D01*
X123860465Y-72929117D02*
X123860198Y-72928795D01*
X127639472Y-73040735D02*
X127641826Y-73139411D01*
X127641826Y-73139411D02*
X127648625Y-73232651D01*
X127648625Y-73232651D02*
X127659608Y-73321686D01*
X127659608Y-73321686D02*
X127674667Y-73407354D01*
X127674667Y-73407354D02*
X127693413Y-73488785D01*
X127693413Y-73488785D02*
X127715972Y-73567452D01*
X127715972Y-73567452D02*
X127734873Y-73623334D01*
X127504630Y-73713650D02*
X127478966Y-73638183D01*
X127478966Y-73638183D02*
X127456125Y-73558905D01*
X127456125Y-73558905D02*
X127436689Y-73477196D01*
X127436689Y-73477196D02*
X127420729Y-73393102D01*
X127420729Y-73393102D02*
X127407900Y-73303310D01*
X127407900Y-73303310D02*
X127399016Y-73212042D01*
X127399016Y-73212042D02*
X127393897Y-73116524D01*
X127393897Y-73116524D02*
X127392690Y-73040735D01*
X125974353Y-73865025D02*
X125974353Y-72297857D01*
X124188391Y-73316762D02*
X124183625Y-73412881D01*
X124183625Y-73412881D02*
X124169733Y-73499101D01*
X124169733Y-73499101D02*
X124146315Y-73578587D01*
X124146315Y-73578587D02*
X124127331Y-73623326D01*
X123668120Y-73884101D02*
X123668123Y-73884105D01*
X124128601Y-72855007D02*
X124156569Y-72927639D01*
X124156569Y-72927639D02*
X124175924Y-73008668D01*
X124175924Y-73008668D02*
X124186425Y-73098295D01*
X124186425Y-73098295D02*
X124188391Y-73161571D01*
X123151666Y-73419804D02*
X123151666Y-73418504D01*
X122767511Y-73078896D02*
X122767511Y-73325674D01*
X123192371Y-72989848D02*
X123192371Y-72015457D01*
X123418801Y-73829405D02*
X123355446Y-73790644D01*
X123355446Y-73790644D02*
X123301337Y-73743983D01*
X123301337Y-73743983D02*
X123254926Y-73689127D01*
X123254926Y-73689127D02*
X123241986Y-73670398D01*
X125438819Y-73325674D02*
X124584001Y-73325674D01*
X123668123Y-73884105D02*
X123574263Y-73877451D01*
X123574263Y-73877451D02*
X123492592Y-73859011D01*
X123492592Y-73859011D02*
X123420939Y-73830465D01*
X123420939Y-73830465D02*
X123418801Y-73829405D01*
X123538369Y-72882995D02*
X123481995Y-72926710D01*
X123481995Y-72926710D02*
X123435288Y-72980857D01*
X123435288Y-72980857D02*
X123428972Y-72989848D01*
X123928888Y-73316771D02*
X123928888Y-73161580D01*
X123668118Y-73634780D02*
X123756371Y-73622287D01*
X123756371Y-73622287D02*
X123823228Y-73588029D01*
X123823228Y-73588029D02*
X123860198Y-73552100D01*
X120784390Y-73566096D02*
X120842207Y-73608623D01*
X120842207Y-73608623D02*
X120918803Y-73632111D01*
X120918803Y-73632111D02*
X120987918Y-73637326D01*
X124188391Y-73161571D02*
X124188391Y-73316762D01*
X120719519Y-73358751D02*
X120728402Y-73450020D01*
X120728402Y-73450020D02*
X120754781Y-73523697D01*
X120754781Y-73523697D02*
X120784390Y-73566096D01*
X121912692Y-73325674D02*
X121912692Y-73078896D01*
X126233851Y-72015462D02*
X126233851Y-73865025D01*
X124584001Y-73078896D02*
X125438819Y-73078896D01*
X123241986Y-73670398D02*
X123206086Y-73605218D01*
X123206086Y-73605218D02*
X123177776Y-73532235D01*
X123177776Y-73532235D02*
X123157414Y-73452370D01*
X123157414Y-73452370D02*
X123151666Y-73419804D01*
X123559994Y-72617135D02*
X123641118Y-72597871D01*
X123641118Y-72597871D02*
X123682110Y-72595505D01*
X124127331Y-73623326D02*
X124090644Y-73687116D01*
X124090644Y-73687116D02*
X124045767Y-73742535D01*
X124045767Y-73742535D02*
X123992506Y-73789563D01*
X123992506Y-73789563D02*
X123949244Y-73817951D01*
X124134962Y-72262235D02*
X123451869Y-72262235D01*
X123451869Y-72678195D02*
X123512120Y-72638266D01*
X123512120Y-72638266D02*
X123559994Y-72617135D01*
X128022356Y-74102898D02*
X127844269Y-74263176D01*
X126233851Y-73865025D02*
X125974353Y-73865025D01*
X122767511Y-73325674D02*
X121912692Y-73325674D01*
X125711037Y-72459407D02*
X125711037Y-72191006D01*
X123860198Y-73552100D02*
X123898056Y-73489326D01*
X123898056Y-73489326D02*
X123920905Y-73412115D01*
X123920905Y-73412115D02*
X123928880Y-73319719D01*
X123928880Y-73319719D02*
X123928888Y-73316771D01*
X123949244Y-73817951D02*
X123880451Y-73849644D01*
X123880451Y-73849644D02*
X123801848Y-73871604D01*
X123801848Y-73871604D02*
X123712876Y-73882815D01*
X123712876Y-73882815D02*
X123668120Y-73884101D01*
X120987918Y-73637326D02*
X120987910Y-73637326D01*
X127504630Y-72369092D02*
X127533086Y-72297484D01*
X127533086Y-72297484D02*
X127564735Y-72227561D01*
X127564735Y-72227561D02*
X127598521Y-72161264D01*
X127598521Y-72161264D02*
X127634991Y-72097099D01*
X127634991Y-72097099D02*
X127674066Y-72035019D01*
X127674066Y-72035019D02*
X127716047Y-71974476D01*
X127716047Y-71974476D02*
X127759738Y-71916973D01*
X127759738Y-71916973D02*
X127805339Y-71861907D01*
X127805339Y-71861907D02*
X127844269Y-71818294D01*
X123682110Y-72595505D02*
X123776261Y-72601761D01*
X123776261Y-72601761D02*
X123859455Y-72619908D01*
X123859455Y-72619908D02*
X123931424Y-72648550D01*
X123931424Y-72648550D02*
X123955602Y-72661655D01*
X124134962Y-72015457D02*
X124134962Y-72262235D01*
X123151666Y-73418504D02*
X123411165Y-73418504D01*
X128978938Y-72857559D02*
X128925283Y-72810668D01*
X128925283Y-72810668D02*
X128892438Y-72793959D01*
X128252597Y-73865025D02*
X128252597Y-72544635D01*
X104394000Y-70048563D02*
X104045459Y-70048563D01*
X104045459Y-68199000D02*
X104394000Y-68199000D01*
X105284437Y-68534821D02*
X104171391Y-68534821D01*
X105284437Y-70048563D02*
X104171391Y-70048563D01*
X104171391Y-68962230D02*
X105144511Y-68962230D01*
X105854316Y-68728173D02*
X106171056Y-69261162D01*
X105470156Y-68728173D02*
X105854316Y-68728173D01*
X105980249Y-69502852D02*
X105470156Y-68728173D01*
X104171391Y-68534821D02*
X104171391Y-68199000D01*
X104045459Y-70048563D02*
X104045459Y-68199000D01*
X105284437Y-68199000D02*
X105284437Y-68534821D01*
X104171391Y-68199000D02*
X105284437Y-68199000D01*
X104171391Y-69298052D02*
X104171391Y-68962230D01*
X105144511Y-69298052D02*
X104171391Y-69298052D01*
X105144511Y-68962230D02*
X105144511Y-69298052D01*
X104171391Y-70048563D02*
X104171391Y-69712740D01*
X104171391Y-69712740D02*
X105284437Y-69712740D01*
X105284437Y-69712740D02*
X105284437Y-70048563D01*
X104394000Y-68199000D02*
X104394000Y-70048563D01*
D11*
X124762071Y-91638380D02*
X124190642Y-91638380D01*
X124476357Y-91638380D02*
X124476357Y-90638380D01*
X124381119Y-90781238D01*
X124285880Y-90876476D01*
X124190642Y-90924095D01*
X125666833Y-90638380D02*
X125190642Y-90638380D01*
X125143023Y-91114571D01*
X125190642Y-91066952D01*
X125285880Y-91019333D01*
X125523976Y-91019333D01*
X125619214Y-91066952D01*
X125666833Y-91114571D01*
X125714452Y-91209809D01*
X125714452Y-91447904D01*
X125666833Y-91543142D01*
X125619214Y-91590761D01*
X125523976Y-91638380D01*
X125285880Y-91638380D01*
X125190642Y-91590761D01*
X125143023Y-91543142D01*
X126190642Y-91590761D02*
X126190642Y-91638380D01*
X126143023Y-91733619D01*
X126095404Y-91781238D01*
X126571595Y-90733619D02*
X126619214Y-90686000D01*
X126714452Y-90638380D01*
X126952547Y-90638380D01*
X127047785Y-90686000D01*
X127095404Y-90733619D01*
X127143023Y-90828857D01*
X127143023Y-90924095D01*
X127095404Y-91066952D01*
X126523976Y-91638380D01*
X127143023Y-91638380D01*
X128000166Y-90971714D02*
X128000166Y-91638380D01*
X127762071Y-90590761D02*
X127523976Y-91305047D01*
X128143023Y-91305047D01*
X128714452Y-90638380D02*
X128809690Y-90638380D01*
X128904928Y-90686000D01*
X128952547Y-90733619D01*
X129000166Y-90828857D01*
X129047785Y-91019333D01*
X129047785Y-91257428D01*
X129000166Y-91447904D01*
X128952547Y-91543142D01*
X128904928Y-91590761D01*
X128809690Y-91638380D01*
X128714452Y-91638380D01*
X128619214Y-91590761D01*
X128571595Y-91543142D01*
X128523976Y-91447904D01*
X128476357Y-91257428D01*
X128476357Y-91019333D01*
X128523976Y-90828857D01*
X128571595Y-90733619D01*
X128619214Y-90686000D01*
X128714452Y-90638380D01*
X130238261Y-91638380D02*
X130238261Y-90971714D01*
X130238261Y-91066952D02*
X130285880Y-91019333D01*
X130381119Y-90971714D01*
X130523976Y-90971714D01*
X130619214Y-91019333D01*
X130666833Y-91114571D01*
X130666833Y-91638380D01*
X130666833Y-91114571D02*
X130714452Y-91019333D01*
X130809690Y-90971714D01*
X130952547Y-90971714D01*
X131047785Y-91019333D01*
X131095404Y-91114571D01*
X131095404Y-91638380D01*
X131571595Y-91638380D02*
X131571595Y-90971714D01*
X131571595Y-91066952D02*
X131619214Y-91019333D01*
X131714452Y-90971714D01*
X131857309Y-90971714D01*
X131952547Y-91019333D01*
X132000166Y-91114571D01*
X132000166Y-91638380D01*
X132000166Y-91114571D02*
X132047785Y-91019333D01*
X132143023Y-90971714D01*
X132285880Y-90971714D01*
X132381119Y-91019333D01*
X132428738Y-91114571D01*
X132428738Y-91638380D01*
D12*
X135953500Y-92456000D02*
X120713500Y-92456000D01*
X135953500Y-92456000D02*
X135953500Y-91869579D01*
X120713500Y-92456000D02*
X120713500Y-91869579D01*
X120713500Y-92456000D02*
X121840004Y-91869579D01*
X120713500Y-92456000D02*
X121840004Y-93042421D01*
X135953500Y-92456000D02*
X134826996Y-91869579D01*
X135953500Y-92456000D02*
X134826996Y-93042421D01*
D11*
X93409809Y-112103000D02*
X93409809Y-111174428D01*
X94019333Y-111674428D01*
X94019333Y-111460142D01*
X94095523Y-111317285D01*
X94171714Y-111245857D01*
X94324095Y-111174428D01*
X94705047Y-111174428D01*
X94857428Y-111245857D01*
X94933619Y-111317285D01*
X95009809Y-111460142D01*
X95009809Y-111888714D01*
X94933619Y-112031571D01*
X94857428Y-112103000D01*
X94857428Y-110531571D02*
X94933619Y-110460142D01*
X95009809Y-110531571D01*
X94933619Y-110603000D01*
X94857428Y-110531571D01*
X95009809Y-110531571D01*
X93409809Y-109960142D02*
X93409809Y-109031571D01*
X94019333Y-109531571D01*
X94019333Y-109317285D01*
X94095523Y-109174428D01*
X94171714Y-109103000D01*
X94324095Y-109031571D01*
X94705047Y-109031571D01*
X94857428Y-109103000D01*
X94933619Y-109174428D01*
X95009809Y-109317285D01*
X95009809Y-109745857D01*
X94933619Y-109888714D01*
X94857428Y-109960142D01*
X93943142Y-108531571D02*
X95009809Y-108174428D01*
X93943142Y-107817285D01*
X96036000Y-111031571D02*
X95959809Y-111174428D01*
X95959809Y-111388714D01*
X96036000Y-111603000D01*
X96188380Y-111745857D01*
X96340761Y-111817285D01*
X96645523Y-111888714D01*
X96874095Y-111888714D01*
X97178857Y-111817285D01*
X97331238Y-111745857D01*
X97483619Y-111603000D01*
X97559809Y-111388714D01*
X97559809Y-111245857D01*
X97483619Y-111031571D01*
X97407428Y-110960142D01*
X96874095Y-110960142D01*
X96874095Y-111245857D01*
X97559809Y-110317285D02*
X95959809Y-110317285D01*
X97559809Y-109460142D01*
X95959809Y-109460142D01*
X97559809Y-108745857D02*
X95959809Y-108745857D01*
X95959809Y-108388714D01*
X96036000Y-108174428D01*
X96188380Y-108031571D01*
X96340761Y-107960142D01*
X96645523Y-107888714D01*
X96874095Y-107888714D01*
X97178857Y-107960142D01*
X97331238Y-108031571D01*
X97483619Y-108174428D01*
X97559809Y-108388714D01*
X97559809Y-108745857D01*
X100033619Y-111531571D02*
X100109809Y-111317285D01*
X100109809Y-110960142D01*
X100033619Y-110817285D01*
X99957428Y-110745857D01*
X99805047Y-110674428D01*
X99652666Y-110674428D01*
X99500285Y-110745857D01*
X99424095Y-110817285D01*
X99347904Y-110960142D01*
X99271714Y-111245857D01*
X99195523Y-111388714D01*
X99119333Y-111460142D01*
X98966952Y-111531571D01*
X98814571Y-111531571D01*
X98662190Y-111460142D01*
X98586000Y-111388714D01*
X98509809Y-111245857D01*
X98509809Y-110888714D01*
X98586000Y-110674428D01*
X100109809Y-110031571D02*
X98509809Y-110031571D01*
X98509809Y-109674428D01*
X98586000Y-109460142D01*
X98738380Y-109317285D01*
X98890761Y-109245857D01*
X99195523Y-109174428D01*
X99424095Y-109174428D01*
X99728857Y-109245857D01*
X99881238Y-109317285D01*
X100033619Y-109460142D01*
X100109809Y-109674428D01*
X100109809Y-110031571D01*
X99652666Y-108603000D02*
X99652666Y-107888714D01*
X100109809Y-108745857D02*
X98509809Y-108245857D01*
X100109809Y-107745857D01*
X102583619Y-111460142D02*
X102659809Y-111245857D01*
X102659809Y-110888714D01*
X102583619Y-110745857D01*
X102507428Y-110674428D01*
X102355047Y-110603000D01*
X102202666Y-110603000D01*
X102050285Y-110674428D01*
X101974095Y-110745857D01*
X101897904Y-110888714D01*
X101821714Y-111174428D01*
X101745523Y-111317285D01*
X101669333Y-111388714D01*
X101516952Y-111460142D01*
X101364571Y-111460142D01*
X101212190Y-111388714D01*
X101136000Y-111317285D01*
X101059809Y-111174428D01*
X101059809Y-110817285D01*
X101136000Y-110603000D01*
X102507428Y-109103000D02*
X102583619Y-109174428D01*
X102659809Y-109388714D01*
X102659809Y-109531571D01*
X102583619Y-109745857D01*
X102431238Y-109888714D01*
X102278857Y-109960142D01*
X101974095Y-110031571D01*
X101745523Y-110031571D01*
X101440761Y-109960142D01*
X101288380Y-109888714D01*
X101136000Y-109745857D01*
X101059809Y-109531571D01*
X101059809Y-109388714D01*
X101136000Y-109174428D01*
X101212190Y-109103000D01*
X102659809Y-107745857D02*
X102659809Y-108460142D01*
X101059809Y-108460142D01*
X104371714Y-112460142D02*
X104371714Y-111960142D01*
X105209809Y-111745857D02*
X105209809Y-112460142D01*
X103609809Y-112460142D01*
X103609809Y-111745857D01*
X105362190Y-111460142D02*
X105362190Y-110317285D01*
X105057428Y-109103000D02*
X105133619Y-109174428D01*
X105209809Y-109388714D01*
X105209809Y-109531571D01*
X105133619Y-109745857D01*
X104981238Y-109888714D01*
X104828857Y-109960142D01*
X104524095Y-110031571D01*
X104295523Y-110031571D01*
X103990761Y-109960142D01*
X103838380Y-109888714D01*
X103686000Y-109745857D01*
X103609809Y-109531571D01*
X103609809Y-109388714D01*
X103686000Y-109174428D01*
X103762190Y-109103000D01*
X105209809Y-107745857D02*
X105209809Y-108460142D01*
X103609809Y-108460142D01*
X106921714Y-112317285D02*
X106921714Y-111817285D01*
X107759809Y-111603000D02*
X107759809Y-112317285D01*
X106159809Y-112317285D01*
X106159809Y-111603000D01*
X107912190Y-111317285D02*
X107912190Y-110174428D01*
X107759809Y-109103000D02*
X107759809Y-109817285D01*
X106159809Y-109817285D01*
X106921714Y-108603000D02*
X106921714Y-108103000D01*
X107759809Y-107888714D02*
X107759809Y-108603000D01*
X106159809Y-108603000D01*
X106159809Y-107888714D01*
X109471714Y-114245857D02*
X109471714Y-113745857D01*
X110309809Y-113531571D02*
X110309809Y-114245857D01*
X108709809Y-114245857D01*
X108709809Y-113531571D01*
X110462190Y-113245857D02*
X110462190Y-112103000D01*
X110233619Y-111817285D02*
X110309809Y-111603000D01*
X110309809Y-111245857D01*
X110233619Y-111103000D01*
X110157428Y-111031571D01*
X110005047Y-110960142D01*
X109852666Y-110960142D01*
X109700285Y-111031571D01*
X109624095Y-111103000D01*
X109547904Y-111245857D01*
X109471714Y-111531571D01*
X109395523Y-111674428D01*
X109319333Y-111745857D01*
X109166952Y-111817285D01*
X109014571Y-111817285D01*
X108862190Y-111745857D01*
X108786000Y-111674428D01*
X108709809Y-111531571D01*
X108709809Y-111174428D01*
X108786000Y-110960142D01*
X110309809Y-110317285D02*
X108709809Y-110317285D01*
X108709809Y-109745857D01*
X108786000Y-109603000D01*
X108862190Y-109531571D01*
X109014571Y-109460142D01*
X109243142Y-109460142D01*
X109395523Y-109531571D01*
X109471714Y-109603000D01*
X109547904Y-109745857D01*
X109547904Y-110317285D01*
X110309809Y-108817285D02*
X108709809Y-108817285D01*
X109471714Y-108817285D02*
X109471714Y-107960142D01*
X110309809Y-107960142D02*
X108709809Y-107960142D01*
X112021714Y-114031571D02*
X112021714Y-113531571D01*
X112859809Y-113317285D02*
X112859809Y-114031571D01*
X111259809Y-114031571D01*
X111259809Y-113317285D01*
X113012190Y-113031571D02*
X113012190Y-111888714D01*
X112707428Y-110674428D02*
X112783619Y-110745857D01*
X112859809Y-110960142D01*
X112859809Y-111103000D01*
X112783619Y-111317285D01*
X112631238Y-111460142D01*
X112478857Y-111531571D01*
X112174095Y-111603000D01*
X111945523Y-111603000D01*
X111640761Y-111531571D01*
X111488380Y-111460142D01*
X111336000Y-111317285D01*
X111259809Y-111103000D01*
X111259809Y-110960142D01*
X111336000Y-110745857D01*
X111412190Y-110674428D01*
X112859809Y-110031571D02*
X111259809Y-110031571D01*
X112859809Y-109174428D02*
X111945523Y-109817285D01*
X111259809Y-109174428D02*
X112174095Y-110031571D01*
X111259809Y-108745857D02*
X112859809Y-108245857D01*
X111259809Y-107745857D01*
X115409809Y-110174428D02*
X113809809Y-110174428D01*
X113809809Y-109817285D01*
X113886000Y-109603000D01*
X114038380Y-109460142D01*
X114190761Y-109388714D01*
X114495523Y-109317285D01*
X114724095Y-109317285D01*
X115028857Y-109388714D01*
X115181238Y-109460142D01*
X115333619Y-109603000D01*
X115409809Y-109817285D01*
X115409809Y-110174428D01*
X113809809Y-108388714D02*
X113809809Y-108245857D01*
X113886000Y-108103000D01*
X113962190Y-108031571D01*
X114114571Y-107960142D01*
X114419333Y-107888714D01*
X114800285Y-107888714D01*
X115105047Y-107960142D01*
X115257428Y-108031571D01*
X115333619Y-108103000D01*
X115409809Y-108245857D01*
X115409809Y-108388714D01*
X115333619Y-108531571D01*
X115257428Y-108603000D01*
X115105047Y-108674428D01*
X114800285Y-108745857D01*
X114419333Y-108745857D01*
X114114571Y-108674428D01*
X113962190Y-108603000D01*
X113886000Y-108531571D01*
X113809809Y-108388714D01*
X117959809Y-110174428D02*
X116359809Y-110174428D01*
X116359809Y-109817285D01*
X116436000Y-109603000D01*
X116588380Y-109460142D01*
X116740761Y-109388714D01*
X117045523Y-109317285D01*
X117274095Y-109317285D01*
X117578857Y-109388714D01*
X117731238Y-109460142D01*
X117883619Y-109603000D01*
X117959809Y-109817285D01*
X117959809Y-110174428D01*
X117959809Y-107888714D02*
X117959809Y-108745857D01*
X117959809Y-108317285D02*
X116359809Y-108317285D01*
X116588380Y-108460142D01*
X116740761Y-108603000D01*
X116816952Y-108745857D01*
X120509809Y-110174428D02*
X118909809Y-110174428D01*
X118909809Y-109817285D01*
X118986000Y-109603000D01*
X119138380Y-109460142D01*
X119290761Y-109388714D01*
X119595523Y-109317285D01*
X119824095Y-109317285D01*
X120128857Y-109388714D01*
X120281238Y-109460142D01*
X120433619Y-109603000D01*
X120509809Y-109817285D01*
X120509809Y-110174428D01*
X119062190Y-108745857D02*
X118986000Y-108674428D01*
X118909809Y-108531571D01*
X118909809Y-108174428D01*
X118986000Y-108031571D01*
X119062190Y-107960142D01*
X119214571Y-107888714D01*
X119366952Y-107888714D01*
X119595523Y-107960142D01*
X120509809Y-108817285D01*
X120509809Y-107888714D01*
X123059809Y-110174428D02*
X121459809Y-110174428D01*
X121459809Y-109817285D01*
X121536000Y-109603000D01*
X121688380Y-109460142D01*
X121840761Y-109388714D01*
X122145523Y-109317285D01*
X122374095Y-109317285D01*
X122678857Y-109388714D01*
X122831238Y-109460142D01*
X122983619Y-109603000D01*
X123059809Y-109817285D01*
X123059809Y-110174428D01*
X121459809Y-108817285D02*
X121459809Y-107888714D01*
X122069333Y-108388714D01*
X122069333Y-108174428D01*
X122145523Y-108031571D01*
X122221714Y-107960142D01*
X122374095Y-107888714D01*
X122755047Y-107888714D01*
X122907428Y-107960142D01*
X122983619Y-108031571D01*
X123059809Y-108174428D01*
X123059809Y-108603000D01*
X122983619Y-108745857D01*
X122907428Y-108817285D01*
X125609809Y-110174428D02*
X124009809Y-110174428D01*
X124009809Y-109817285D01*
X124086000Y-109603000D01*
X124238380Y-109460142D01*
X124390761Y-109388714D01*
X124695523Y-109317285D01*
X124924095Y-109317285D01*
X125228857Y-109388714D01*
X125381238Y-109460142D01*
X125533619Y-109603000D01*
X125609809Y-109817285D01*
X125609809Y-110174428D01*
X124543142Y-108031571D02*
X125609809Y-108031571D01*
X123933619Y-108388714D02*
X125076476Y-108745857D01*
X125076476Y-107817285D01*
X128159809Y-110174428D02*
X126559809Y-110174428D01*
X126559809Y-109817285D01*
X126636000Y-109603000D01*
X126788380Y-109460142D01*
X126940761Y-109388714D01*
X127245523Y-109317285D01*
X127474095Y-109317285D01*
X127778857Y-109388714D01*
X127931238Y-109460142D01*
X128083619Y-109603000D01*
X128159809Y-109817285D01*
X128159809Y-110174428D01*
X126559809Y-107960142D02*
X126559809Y-108674428D01*
X127321714Y-108745857D01*
X127245523Y-108674428D01*
X127169333Y-108531571D01*
X127169333Y-108174428D01*
X127245523Y-108031571D01*
X127321714Y-107960142D01*
X127474095Y-107888714D01*
X127855047Y-107888714D01*
X128007428Y-107960142D01*
X128083619Y-108031571D01*
X128159809Y-108174428D01*
X128159809Y-108531571D01*
X128083619Y-108674428D01*
X128007428Y-108745857D01*
X130709809Y-110174428D02*
X129109809Y-110174428D01*
X129109809Y-109817285D01*
X129186000Y-109603000D01*
X129338380Y-109460142D01*
X129490761Y-109388714D01*
X129795523Y-109317285D01*
X130024095Y-109317285D01*
X130328857Y-109388714D01*
X130481238Y-109460142D01*
X130633619Y-109603000D01*
X130709809Y-109817285D01*
X130709809Y-110174428D01*
X129109809Y-108031571D02*
X129109809Y-108317285D01*
X129186000Y-108460142D01*
X129262190Y-108531571D01*
X129490761Y-108674428D01*
X129795523Y-108745857D01*
X130405047Y-108745857D01*
X130557428Y-108674428D01*
X130633619Y-108603000D01*
X130709809Y-108460142D01*
X130709809Y-108174428D01*
X130633619Y-108031571D01*
X130557428Y-107960142D01*
X130405047Y-107888714D01*
X130024095Y-107888714D01*
X129871714Y-107960142D01*
X129795523Y-108031571D01*
X129719333Y-108174428D01*
X129719333Y-108460142D01*
X129795523Y-108603000D01*
X129871714Y-108674428D01*
X130024095Y-108745857D01*
X133259809Y-110174428D02*
X131659809Y-110174428D01*
X131659809Y-109817285D01*
X131736000Y-109603000D01*
X131888380Y-109460142D01*
X132040761Y-109388714D01*
X132345523Y-109317285D01*
X132574095Y-109317285D01*
X132878857Y-109388714D01*
X133031238Y-109460142D01*
X133183619Y-109603000D01*
X133259809Y-109817285D01*
X133259809Y-110174428D01*
X131659809Y-108817285D02*
X131659809Y-107817285D01*
X133259809Y-108460142D01*
D12*
X92904000Y-106676500D02*
X92904000Y-105346500D01*
X94234000Y-106676500D02*
X92904000Y-106676500D01*
X95504000Y-106676500D02*
X95504000Y-104016500D01*
X95504000Y-104016500D02*
X133664000Y-104016500D01*
X95504000Y-106676500D02*
X133664000Y-106676500D01*
X133664000Y-106676500D02*
X133664000Y-104016500D01*
X86412000Y-79829922D02*
X86412000Y-80347078D01*
X87832000Y-79829922D02*
X87832000Y-80347078D01*
X87035000Y-85290000D02*
X86560000Y-85290000D01*
X93780000Y-92510000D02*
X93780000Y-92035000D01*
X93305000Y-92510000D02*
X93780000Y-92510000D01*
X86560000Y-92510000D02*
X86560000Y-92035000D01*
X87035000Y-92510000D02*
X86560000Y-92510000D01*
X93780000Y-85290000D02*
X93780000Y-85765000D01*
X93305000Y-85290000D02*
X93780000Y-85290000D01*
X65848500Y-83577500D02*
X64033500Y-83577500D01*
X65848500Y-83332500D02*
X65848500Y-83577500D01*
X69708500Y-83332500D02*
X65848500Y-83332500D01*
X73568500Y-83332500D02*
X73568500Y-83577500D01*
X69708500Y-83332500D02*
X73568500Y-83332500D01*
X65848500Y-101452500D02*
X65848500Y-101207500D01*
X69708500Y-101452500D02*
X65848500Y-101452500D01*
X73568500Y-101452500D02*
X73568500Y-101207500D01*
X69708500Y-101452500D02*
X73568500Y-101452500D01*
X80668922Y-100878500D02*
X81186078Y-100878500D01*
X80668922Y-99458500D02*
X81186078Y-99458500D01*
X60271922Y-99198500D02*
X60789078Y-99198500D01*
X60271922Y-97778500D02*
X60789078Y-97778500D01*
X60271922Y-101357500D02*
X60789078Y-101357500D01*
X60271922Y-99937500D02*
X60789078Y-99937500D01*
X80668922Y-97928500D02*
X81186078Y-97928500D01*
X80668922Y-96508500D02*
X81186078Y-96508500D01*
X61860500Y-95239578D02*
X61860500Y-94722422D01*
X60440500Y-95239578D02*
X60440500Y-94722422D01*
X114926500Y-98866000D02*
X113726500Y-98866000D01*
X120726500Y-80556000D02*
X118986500Y-80556000D01*
X120726500Y-100356000D02*
X120726500Y-80556000D01*
X118986500Y-100356000D02*
X120726500Y-100356000D01*
X114926500Y-80556000D02*
X116266500Y-80556000D01*
X114926500Y-82046000D02*
X114926500Y-80556000D01*
X114926500Y-100356000D02*
X116266500Y-100356000D01*
X114926500Y-98866000D02*
X114926500Y-100356000D01*
X110351500Y-96309922D02*
X110351500Y-96827078D01*
X111771500Y-96309922D02*
X111771500Y-96827078D01*
X107811500Y-96309922D02*
X107811500Y-96827078D01*
X109231500Y-96309922D02*
X109231500Y-96827078D01*
X81861922Y-79196000D02*
X82379078Y-79196000D01*
X81861922Y-77776000D02*
X82379078Y-77776000D01*
X101103500Y-87634578D02*
X101103500Y-87117422D01*
X99683500Y-87634578D02*
X99683500Y-87117422D01*
X103326000Y-87649578D02*
X103326000Y-87132422D01*
X101906000Y-87649578D02*
X101906000Y-87132422D01*
X81861922Y-81355000D02*
X82379078Y-81355000D01*
X81861922Y-79935000D02*
X82379078Y-79935000D01*
X103834000Y-83111078D02*
X103834000Y-82593922D01*
X102414000Y-83111078D02*
X102414000Y-82593922D01*
X100128000Y-82593922D02*
X100128000Y-83111078D01*
X101548000Y-82593922D02*
X101548000Y-83111078D01*
X90895000Y-76459000D02*
X95203000Y-76459000D01*
X95203000Y-80767000D02*
X90895000Y-80767000D01*
X89752000Y-95890000D02*
X94060000Y-95890000D01*
X94060000Y-100198000D02*
X89752000Y-100198000D01*
X90385000Y-73557000D02*
X90385000Y-76107000D01*
X88685000Y-73557000D02*
X88685000Y-76107000D01*
X90385000Y-73557000D02*
X88685000Y-73557000D01*
X104281000Y-92573000D02*
X102821000Y-92573000D01*
X104281000Y-89413000D02*
X102121000Y-89413000D01*
X104281000Y-89413000D02*
X104281000Y-90343000D01*
X104281000Y-92573000D02*
X104281000Y-91643000D01*
X96735000Y-99685000D02*
X96735000Y-102235000D01*
X95035000Y-99685000D02*
X95035000Y-102235000D01*
X96735000Y-99685000D02*
X95035000Y-99685000D01*
X103307000Y-78091000D02*
X103307000Y-79551000D01*
X100147000Y-78091000D02*
X100147000Y-80251000D01*
X100147000Y-78091000D02*
X101077000Y-78091000D01*
X103307000Y-78091000D02*
X102377000Y-78091000D01*
X104192000Y-87102422D02*
X104192000Y-87619578D01*
X105612000Y-87102422D02*
X105612000Y-87619578D01*
X93696064Y-73766000D02*
X92491936Y-73766000D01*
X93696064Y-75586000D02*
X92491936Y-75586000D01*
X92832422Y-72719000D02*
X93349578Y-72719000D01*
X92832422Y-71299000D02*
X93349578Y-71299000D01*
X99683500Y-90785422D02*
X99683500Y-91302578D01*
X101103500Y-90785422D02*
X101103500Y-91302578D01*
X101779000Y-94595422D02*
X101779000Y-95112578D01*
X103199000Y-94595422D02*
X103199000Y-95112578D01*
X99516000Y-79047078D02*
X99516000Y-78529922D01*
X98096000Y-79047078D02*
X98096000Y-78529922D01*
X91767922Y-102564000D02*
X92285078Y-102564000D01*
X91767922Y-101144000D02*
X92285078Y-101144000D01*
X95937000Y-78529922D02*
X95937000Y-79047078D01*
X97357000Y-78529922D02*
X97357000Y-79047078D01*
X105358000Y-79077078D02*
X105358000Y-78559922D01*
X103938000Y-79077078D02*
X103938000Y-78559922D01*
X97938000Y-94325064D02*
X97938000Y-93120936D01*
X96118000Y-94325064D02*
X96118000Y-93120936D01*
X88444000Y-79829922D02*
X88444000Y-80347078D01*
X89864000Y-79829922D02*
X89864000Y-80347078D01*
X81958922Y-84022000D02*
X82476078Y-84022000D01*
X81958922Y-82602000D02*
X82476078Y-82602000D01*
X87174000Y-97198922D02*
X87174000Y-97716078D01*
X88594000Y-97198922D02*
X88594000Y-97716078D01*
X84761000Y-97198922D02*
X84761000Y-97716078D01*
X86181000Y-97198922D02*
X86181000Y-97716078D01*
X82260064Y-92435000D02*
X81055936Y-92435000D01*
X82260064Y-94255000D02*
X81055936Y-94255000D01*
X82476078Y-89968000D02*
X81958922Y-89968000D01*
X82476078Y-91388000D02*
X81958922Y-91388000D01*
X82476078Y-87555000D02*
X81958922Y-87555000D01*
X82476078Y-88975000D02*
X81958922Y-88975000D01*
X82506078Y-85015000D02*
X81988922Y-85015000D01*
X82506078Y-86435000D02*
X81988922Y-86435000D01*
D11*
X90916380Y-110059833D02*
X91630666Y-110059833D01*
X91773523Y-110107452D01*
X91868761Y-110202690D01*
X91916380Y-110345547D01*
X91916380Y-110440785D01*
X91011619Y-109631261D02*
X90964000Y-109583642D01*
X90916380Y-109488404D01*
X90916380Y-109250309D01*
X90964000Y-109155071D01*
X91011619Y-109107452D01*
X91106857Y-109059833D01*
X91202095Y-109059833D01*
X91344952Y-109107452D01*
X91916380Y-109678880D01*
X91916380Y-109059833D01*
X85574142Y-80255166D02*
X85621761Y-80302785D01*
X85669380Y-80445642D01*
X85669380Y-80540880D01*
X85621761Y-80683738D01*
X85526523Y-80778976D01*
X85431285Y-80826595D01*
X85240809Y-80874214D01*
X85097952Y-80874214D01*
X84907476Y-80826595D01*
X84812238Y-80778976D01*
X84717000Y-80683738D01*
X84669380Y-80540880D01*
X84669380Y-80445642D01*
X84717000Y-80302785D01*
X84764619Y-80255166D01*
X85097952Y-79683738D02*
X85050333Y-79778976D01*
X85002714Y-79826595D01*
X84907476Y-79874214D01*
X84859857Y-79874214D01*
X84764619Y-79826595D01*
X84717000Y-79778976D01*
X84669380Y-79683738D01*
X84669380Y-79493261D01*
X84717000Y-79398023D01*
X84764619Y-79350404D01*
X84859857Y-79302785D01*
X84907476Y-79302785D01*
X85002714Y-79350404D01*
X85050333Y-79398023D01*
X85097952Y-79493261D01*
X85097952Y-79683738D01*
X85145571Y-79778976D01*
X85193190Y-79826595D01*
X85288428Y-79874214D01*
X85478904Y-79874214D01*
X85574142Y-79826595D01*
X85621761Y-79778976D01*
X85669380Y-79683738D01*
X85669380Y-79493261D01*
X85621761Y-79398023D01*
X85574142Y-79350404D01*
X85478904Y-79302785D01*
X85288428Y-79302785D01*
X85193190Y-79350404D01*
X85145571Y-79398023D01*
X85097952Y-79493261D01*
X89408095Y-83552380D02*
X89408095Y-84361904D01*
X89455714Y-84457142D01*
X89503333Y-84504761D01*
X89598571Y-84552380D01*
X89789047Y-84552380D01*
X89884285Y-84504761D01*
X89931904Y-84457142D01*
X89979523Y-84361904D01*
X89979523Y-83552380D01*
X90979523Y-84552380D02*
X90408095Y-84552380D01*
X90693809Y-84552380D02*
X90693809Y-83552380D01*
X90598571Y-83695238D01*
X90503333Y-83790476D01*
X90408095Y-83838095D01*
X68946595Y-81944880D02*
X68946595Y-82754404D01*
X68994214Y-82849642D01*
X69041833Y-82897261D01*
X69137071Y-82944880D01*
X69327547Y-82944880D01*
X69422785Y-82897261D01*
X69470404Y-82849642D01*
X69518023Y-82754404D01*
X69518023Y-81944880D01*
X69898976Y-81944880D02*
X70518023Y-81944880D01*
X70184690Y-82325833D01*
X70327547Y-82325833D01*
X70422785Y-82373452D01*
X70470404Y-82421071D01*
X70518023Y-82516309D01*
X70518023Y-82754404D01*
X70470404Y-82849642D01*
X70422785Y-82897261D01*
X70327547Y-82944880D01*
X70041833Y-82944880D01*
X69946595Y-82897261D01*
X69898976Y-82849642D01*
X78001833Y-100655380D02*
X77668500Y-100179190D01*
X77430404Y-100655380D02*
X77430404Y-99655380D01*
X77811357Y-99655380D01*
X77906595Y-99703000D01*
X77954214Y-99750619D01*
X78001833Y-99845857D01*
X78001833Y-99988714D01*
X77954214Y-100083952D01*
X77906595Y-100131571D01*
X77811357Y-100179190D01*
X77430404Y-100179190D01*
X78478023Y-100655380D02*
X78668500Y-100655380D01*
X78763738Y-100607761D01*
X78811357Y-100560142D01*
X78906595Y-100417285D01*
X78954214Y-100226809D01*
X78954214Y-99845857D01*
X78906595Y-99750619D01*
X78858976Y-99703000D01*
X78763738Y-99655380D01*
X78573261Y-99655380D01*
X78478023Y-99703000D01*
X78430404Y-99750619D01*
X78382785Y-99845857D01*
X78382785Y-100083952D01*
X78430404Y-100179190D01*
X78478023Y-100226809D01*
X78573261Y-100274428D01*
X78763738Y-100274428D01*
X78858976Y-100226809D01*
X78906595Y-100179190D01*
X78954214Y-100083952D01*
X60729833Y-103322380D02*
X60396500Y-102846190D01*
X60158404Y-103322380D02*
X60158404Y-102322380D01*
X60539357Y-102322380D01*
X60634595Y-102370000D01*
X60682214Y-102417619D01*
X60729833Y-102512857D01*
X60729833Y-102655714D01*
X60682214Y-102750952D01*
X60634595Y-102798571D01*
X60539357Y-102846190D01*
X60158404Y-102846190D01*
X61301261Y-102750952D02*
X61206023Y-102703333D01*
X61158404Y-102655714D01*
X61110785Y-102560476D01*
X61110785Y-102512857D01*
X61158404Y-102417619D01*
X61206023Y-102370000D01*
X61301261Y-102322380D01*
X61491738Y-102322380D01*
X61586976Y-102370000D01*
X61634595Y-102417619D01*
X61682214Y-102512857D01*
X61682214Y-102560476D01*
X61634595Y-102655714D01*
X61586976Y-102703333D01*
X61491738Y-102750952D01*
X61301261Y-102750952D01*
X61206023Y-102798571D01*
X61158404Y-102846190D01*
X61110785Y-102941428D01*
X61110785Y-103131904D01*
X61158404Y-103227142D01*
X61206023Y-103274761D01*
X61301261Y-103322380D01*
X61491738Y-103322380D01*
X61586976Y-103274761D01*
X61634595Y-103227142D01*
X61682214Y-103131904D01*
X61682214Y-102941428D01*
X61634595Y-102846190D01*
X61586976Y-102798571D01*
X61491738Y-102750952D01*
X60729833Y-104719380D02*
X60396500Y-104243190D01*
X60158404Y-104719380D02*
X60158404Y-103719380D01*
X60539357Y-103719380D01*
X60634595Y-103767000D01*
X60682214Y-103814619D01*
X60729833Y-103909857D01*
X60729833Y-104052714D01*
X60682214Y-104147952D01*
X60634595Y-104195571D01*
X60539357Y-104243190D01*
X60158404Y-104243190D01*
X61063166Y-103719380D02*
X61729833Y-103719380D01*
X61301261Y-104719380D01*
X78001833Y-97226380D02*
X77668500Y-96750190D01*
X77430404Y-97226380D02*
X77430404Y-96226380D01*
X77811357Y-96226380D01*
X77906595Y-96274000D01*
X77954214Y-96321619D01*
X78001833Y-96416857D01*
X78001833Y-96559714D01*
X77954214Y-96654952D01*
X77906595Y-96702571D01*
X77811357Y-96750190D01*
X77430404Y-96750190D01*
X78858976Y-96226380D02*
X78668500Y-96226380D01*
X78573261Y-96274000D01*
X78525642Y-96321619D01*
X78430404Y-96464476D01*
X78382785Y-96654952D01*
X78382785Y-97035904D01*
X78430404Y-97131142D01*
X78478023Y-97178761D01*
X78573261Y-97226380D01*
X78763738Y-97226380D01*
X78858976Y-97178761D01*
X78906595Y-97131142D01*
X78954214Y-97035904D01*
X78954214Y-96797809D01*
X78906595Y-96702571D01*
X78858976Y-96654952D01*
X78763738Y-96607333D01*
X78573261Y-96607333D01*
X78478023Y-96654952D01*
X78430404Y-96702571D01*
X78382785Y-96797809D01*
X59666142Y-95829357D02*
X59713761Y-95876976D01*
X59761380Y-96019833D01*
X59761380Y-96115071D01*
X59713761Y-96257928D01*
X59618523Y-96353166D01*
X59523285Y-96400785D01*
X59332809Y-96448404D01*
X59189952Y-96448404D01*
X58999476Y-96400785D01*
X58904238Y-96353166D01*
X58809000Y-96257928D01*
X58761380Y-96115071D01*
X58761380Y-96019833D01*
X58809000Y-95876976D01*
X58856619Y-95829357D01*
X58856619Y-95448404D02*
X58809000Y-95400785D01*
X58761380Y-95305547D01*
X58761380Y-95067452D01*
X58809000Y-94972214D01*
X58856619Y-94924595D01*
X58951857Y-94876976D01*
X59047095Y-94876976D01*
X59189952Y-94924595D01*
X59761380Y-95496023D01*
X59761380Y-94876976D01*
X58856619Y-94496023D02*
X58809000Y-94448404D01*
X58761380Y-94353166D01*
X58761380Y-94115071D01*
X58809000Y-94019833D01*
X58856619Y-93972214D01*
X58951857Y-93924595D01*
X59047095Y-93924595D01*
X59189952Y-93972214D01*
X59761380Y-94543642D01*
X59761380Y-93924595D01*
X111978880Y-91217904D02*
X112788404Y-91217904D01*
X112883642Y-91170285D01*
X112931261Y-91122666D01*
X112978880Y-91027428D01*
X112978880Y-90836952D01*
X112931261Y-90741714D01*
X112883642Y-90694095D01*
X112788404Y-90646476D01*
X111978880Y-90646476D01*
X112074119Y-90217904D02*
X112026500Y-90170285D01*
X111978880Y-90075047D01*
X111978880Y-89836952D01*
X112026500Y-89741714D01*
X112074119Y-89694095D01*
X112169357Y-89646476D01*
X112264595Y-89646476D01*
X112407452Y-89694095D01*
X112978880Y-90265523D01*
X112978880Y-89646476D01*
X111482142Y-100464857D02*
X111529761Y-100512476D01*
X111577380Y-100655333D01*
X111577380Y-100750571D01*
X111529761Y-100893428D01*
X111434523Y-100988666D01*
X111339285Y-101036285D01*
X111148809Y-101083904D01*
X111005952Y-101083904D01*
X110815476Y-101036285D01*
X110720238Y-100988666D01*
X110625000Y-100893428D01*
X110577380Y-100750571D01*
X110577380Y-100655333D01*
X110625000Y-100512476D01*
X110672619Y-100464857D01*
X110672619Y-100083904D02*
X110625000Y-100036285D01*
X110577380Y-99941047D01*
X110577380Y-99702952D01*
X110625000Y-99607714D01*
X110672619Y-99560095D01*
X110767857Y-99512476D01*
X110863095Y-99512476D01*
X111005952Y-99560095D01*
X111577380Y-100131523D01*
X111577380Y-99512476D01*
X111577380Y-98560095D02*
X111577380Y-99131523D01*
X111577380Y-98845809D02*
X110577380Y-98845809D01*
X110720238Y-98941047D01*
X110815476Y-99036285D01*
X110863095Y-99131523D01*
X109005642Y-100591857D02*
X109053261Y-100639476D01*
X109100880Y-100782333D01*
X109100880Y-100877571D01*
X109053261Y-101020428D01*
X108958023Y-101115666D01*
X108862785Y-101163285D01*
X108672309Y-101210904D01*
X108529452Y-101210904D01*
X108338976Y-101163285D01*
X108243738Y-101115666D01*
X108148500Y-101020428D01*
X108100880Y-100877571D01*
X108100880Y-100782333D01*
X108148500Y-100639476D01*
X108196119Y-100591857D01*
X108196119Y-100210904D02*
X108148500Y-100163285D01*
X108100880Y-100068047D01*
X108100880Y-99829952D01*
X108148500Y-99734714D01*
X108196119Y-99687095D01*
X108291357Y-99639476D01*
X108386595Y-99639476D01*
X108529452Y-99687095D01*
X109100880Y-100258523D01*
X109100880Y-99639476D01*
X108100880Y-99020428D02*
X108100880Y-98925190D01*
X108148500Y-98829952D01*
X108196119Y-98782333D01*
X108291357Y-98734714D01*
X108481833Y-98687095D01*
X108719928Y-98687095D01*
X108910404Y-98734714D01*
X109005642Y-98782333D01*
X109053261Y-98829952D01*
X109100880Y-98925190D01*
X109100880Y-99020428D01*
X109053261Y-99115666D01*
X109005642Y-99163285D01*
X108910404Y-99210904D01*
X108719928Y-99258523D01*
X108481833Y-99258523D01*
X108291357Y-99210904D01*
X108196119Y-99163285D01*
X108148500Y-99115666D01*
X108100880Y-99020428D01*
X77390785Y-78001880D02*
X77962214Y-78001880D01*
X77676500Y-79001880D02*
X77676500Y-78001880D01*
X78295547Y-79001880D02*
X78295547Y-78001880D01*
X78295547Y-78478071D02*
X78866976Y-78478071D01*
X78866976Y-79001880D02*
X78866976Y-78001880D01*
X79866976Y-79001880D02*
X79295547Y-79001880D01*
X79581261Y-79001880D02*
X79581261Y-78001880D01*
X79486023Y-78144738D01*
X79390785Y-78239976D01*
X79295547Y-78287595D01*
X107386380Y-87542666D02*
X106910190Y-87876000D01*
X107386380Y-88114095D02*
X106386380Y-88114095D01*
X106386380Y-87733142D01*
X106434000Y-87637904D01*
X106481619Y-87590285D01*
X106576857Y-87542666D01*
X106719714Y-87542666D01*
X106814952Y-87590285D01*
X106862571Y-87637904D01*
X106910190Y-87733142D01*
X106910190Y-88114095D01*
X106386380Y-86637904D02*
X106386380Y-87114095D01*
X106862571Y-87161714D01*
X106814952Y-87114095D01*
X106767333Y-87018857D01*
X106767333Y-86780761D01*
X106814952Y-86685523D01*
X106862571Y-86637904D01*
X106957809Y-86590285D01*
X107195904Y-86590285D01*
X107291142Y-86637904D01*
X107338761Y-86685523D01*
X107386380Y-86780761D01*
X107386380Y-87018857D01*
X107338761Y-87114095D01*
X107291142Y-87161714D01*
X108846880Y-87542666D02*
X108370690Y-87876000D01*
X108846880Y-88114095D02*
X107846880Y-88114095D01*
X107846880Y-87733142D01*
X107894500Y-87637904D01*
X107942119Y-87590285D01*
X108037357Y-87542666D01*
X108180214Y-87542666D01*
X108275452Y-87590285D01*
X108323071Y-87637904D01*
X108370690Y-87733142D01*
X108370690Y-88114095D01*
X108180214Y-86685523D02*
X108846880Y-86685523D01*
X107799261Y-86923619D02*
X108513547Y-87161714D01*
X108513547Y-86542666D01*
X78763833Y-81097380D02*
X78430500Y-80621190D01*
X78192404Y-81097380D02*
X78192404Y-80097380D01*
X78573357Y-80097380D01*
X78668595Y-80145000D01*
X78716214Y-80192619D01*
X78763833Y-80287857D01*
X78763833Y-80430714D01*
X78716214Y-80525952D01*
X78668595Y-80573571D01*
X78573357Y-80621190D01*
X78192404Y-80621190D01*
X79097166Y-80097380D02*
X79716214Y-80097380D01*
X79382880Y-80478333D01*
X79525738Y-80478333D01*
X79620976Y-80525952D01*
X79668595Y-80573571D01*
X79716214Y-80668809D01*
X79716214Y-80906904D01*
X79668595Y-81002142D01*
X79620976Y-81049761D01*
X79525738Y-81097380D01*
X79240023Y-81097380D01*
X79144785Y-81049761D01*
X79097166Y-81002142D01*
X107386380Y-83097666D02*
X106910190Y-83431000D01*
X107386380Y-83669095D02*
X106386380Y-83669095D01*
X106386380Y-83288142D01*
X106434000Y-83192904D01*
X106481619Y-83145285D01*
X106576857Y-83097666D01*
X106719714Y-83097666D01*
X106814952Y-83145285D01*
X106862571Y-83192904D01*
X106910190Y-83288142D01*
X106910190Y-83669095D01*
X106481619Y-82716714D02*
X106434000Y-82669095D01*
X106386380Y-82573857D01*
X106386380Y-82335761D01*
X106434000Y-82240523D01*
X106481619Y-82192904D01*
X106576857Y-82145285D01*
X106672095Y-82145285D01*
X106814952Y-82192904D01*
X107386380Y-82764333D01*
X107386380Y-82145285D01*
X105798880Y-83097666D02*
X105322690Y-83431000D01*
X105798880Y-83669095D02*
X104798880Y-83669095D01*
X104798880Y-83288142D01*
X104846500Y-83192904D01*
X104894119Y-83145285D01*
X104989357Y-83097666D01*
X105132214Y-83097666D01*
X105227452Y-83145285D01*
X105275071Y-83192904D01*
X105322690Y-83288142D01*
X105322690Y-83669095D01*
X105798880Y-82145285D02*
X105798880Y-82716714D01*
X105798880Y-82431000D02*
X104798880Y-82431000D01*
X104941738Y-82526238D01*
X105036976Y-82621476D01*
X105084595Y-82716714D01*
X93749833Y-82176880D02*
X93273642Y-82176880D01*
X93273642Y-81176880D01*
X94035547Y-81272119D02*
X94083166Y-81224500D01*
X94178404Y-81176880D01*
X94416500Y-81176880D01*
X94511738Y-81224500D01*
X94559357Y-81272119D01*
X94606976Y-81367357D01*
X94606976Y-81462595D01*
X94559357Y-81605452D01*
X93987928Y-82176880D01*
X94606976Y-82176880D01*
X94892833Y-98305880D02*
X94416642Y-98305880D01*
X94416642Y-97305880D01*
X95749976Y-98305880D02*
X95178547Y-98305880D01*
X95464261Y-98305880D02*
X95464261Y-97305880D01*
X95369023Y-97448738D01*
X95273785Y-97543976D01*
X95178547Y-97591595D01*
X88336380Y-75668095D02*
X87336380Y-75668095D01*
X87336380Y-75430000D01*
X87384000Y-75287142D01*
X87479238Y-75191904D01*
X87574476Y-75144285D01*
X87764952Y-75096666D01*
X87907809Y-75096666D01*
X88098285Y-75144285D01*
X88193523Y-75191904D01*
X88288761Y-75287142D01*
X88336380Y-75430000D01*
X88336380Y-75668095D01*
X87669714Y-74239523D02*
X88336380Y-74239523D01*
X87288761Y-74477619D02*
X88003047Y-74715714D01*
X88003047Y-74096666D01*
X108973880Y-91733595D02*
X107973880Y-91733595D01*
X107973880Y-91495500D01*
X108021500Y-91352642D01*
X108116738Y-91257404D01*
X108211976Y-91209785D01*
X108402452Y-91162166D01*
X108545309Y-91162166D01*
X108735785Y-91209785D01*
X108831023Y-91257404D01*
X108926261Y-91352642D01*
X108973880Y-91495500D01*
X108973880Y-91733595D01*
X107973880Y-90828833D02*
X107973880Y-90209785D01*
X108354833Y-90543119D01*
X108354833Y-90400261D01*
X108402452Y-90305023D01*
X108450071Y-90257404D01*
X108545309Y-90209785D01*
X108783404Y-90209785D01*
X108878642Y-90257404D01*
X108926261Y-90305023D01*
X108973880Y-90400261D01*
X108973880Y-90685976D01*
X108926261Y-90781214D01*
X108878642Y-90828833D01*
X98187380Y-101923095D02*
X97187380Y-101923095D01*
X97187380Y-101685000D01*
X97235000Y-101542142D01*
X97330238Y-101446904D01*
X97425476Y-101399285D01*
X97615952Y-101351666D01*
X97758809Y-101351666D01*
X97949285Y-101399285D01*
X98044523Y-101446904D01*
X98139761Y-101542142D01*
X98187380Y-101685000D01*
X98187380Y-101923095D01*
X97282619Y-100970714D02*
X97235000Y-100923095D01*
X97187380Y-100827857D01*
X97187380Y-100589761D01*
X97235000Y-100494523D01*
X97282619Y-100446904D01*
X97377857Y-100399285D01*
X97473095Y-100399285D01*
X97615952Y-100446904D01*
X98187380Y-101018333D01*
X98187380Y-100399285D01*
X102179380Y-76747595D02*
X101179380Y-76747595D01*
X101179380Y-76509500D01*
X101227000Y-76366642D01*
X101322238Y-76271404D01*
X101417476Y-76223785D01*
X101607952Y-76176166D01*
X101750809Y-76176166D01*
X101941285Y-76223785D01*
X102036523Y-76271404D01*
X102131761Y-76366642D01*
X102179380Y-76509500D01*
X102179380Y-76747595D01*
X102179380Y-75223785D02*
X102179380Y-75795214D01*
X102179380Y-75509500D02*
X101179380Y-75509500D01*
X101322238Y-75604738D01*
X101417476Y-75699976D01*
X101465095Y-75795214D01*
X110275642Y-88082357D02*
X110323261Y-88129976D01*
X110370880Y-88272833D01*
X110370880Y-88368071D01*
X110323261Y-88510928D01*
X110228023Y-88606166D01*
X110132785Y-88653785D01*
X109942309Y-88701404D01*
X109799452Y-88701404D01*
X109608976Y-88653785D01*
X109513738Y-88606166D01*
X109418500Y-88510928D01*
X109370880Y-88368071D01*
X109370880Y-88272833D01*
X109418500Y-88129976D01*
X109466119Y-88082357D01*
X110370880Y-87129976D02*
X110370880Y-87701404D01*
X110370880Y-87415690D02*
X109370880Y-87415690D01*
X109513738Y-87510928D01*
X109608976Y-87606166D01*
X109656595Y-87701404D01*
X110370880Y-86653785D02*
X110370880Y-86463309D01*
X110323261Y-86368071D01*
X110275642Y-86320452D01*
X110132785Y-86225214D01*
X109942309Y-86177595D01*
X109561357Y-86177595D01*
X109466119Y-86225214D01*
X109418500Y-86272833D01*
X109370880Y-86368071D01*
X109370880Y-86558547D01*
X109418500Y-86653785D01*
X109466119Y-86701404D01*
X109561357Y-86749023D01*
X109799452Y-86749023D01*
X109894690Y-86701404D01*
X109942309Y-86653785D01*
X109989928Y-86558547D01*
X109989928Y-86368071D01*
X109942309Y-86272833D01*
X109894690Y-86225214D01*
X109799452Y-86177595D01*
X96131142Y-75096642D02*
X96083523Y-75144261D01*
X95940666Y-75191880D01*
X95845428Y-75191880D01*
X95702571Y-75144261D01*
X95607333Y-75049023D01*
X95559714Y-74953785D01*
X95512095Y-74763309D01*
X95512095Y-74620452D01*
X95559714Y-74429976D01*
X95607333Y-74334738D01*
X95702571Y-74239500D01*
X95845428Y-74191880D01*
X95940666Y-74191880D01*
X96083523Y-74239500D01*
X96131142Y-74287119D01*
X97083523Y-75191880D02*
X96512095Y-75191880D01*
X96797809Y-75191880D02*
X96797809Y-74191880D01*
X96702571Y-74334738D01*
X96607333Y-74429976D01*
X96512095Y-74477595D01*
X97654952Y-74620452D02*
X97559714Y-74572833D01*
X97512095Y-74525214D01*
X97464476Y-74429976D01*
X97464476Y-74382357D01*
X97512095Y-74287119D01*
X97559714Y-74239500D01*
X97654952Y-74191880D01*
X97845428Y-74191880D01*
X97940666Y-74239500D01*
X97988285Y-74287119D01*
X98035904Y-74382357D01*
X98035904Y-74429976D01*
X97988285Y-74525214D01*
X97940666Y-74572833D01*
X97845428Y-74620452D01*
X97654952Y-74620452D01*
X97559714Y-74668071D01*
X97512095Y-74715690D01*
X97464476Y-74810928D01*
X97464476Y-75001404D01*
X97512095Y-75096642D01*
X97559714Y-75144261D01*
X97654952Y-75191880D01*
X97845428Y-75191880D01*
X97940666Y-75144261D01*
X97988285Y-75096642D01*
X98035904Y-75001404D01*
X98035904Y-74810928D01*
X97988285Y-74715690D01*
X97940666Y-74668071D01*
X97845428Y-74620452D01*
X92448142Y-70716142D02*
X92400523Y-70763761D01*
X92257666Y-70811380D01*
X92162428Y-70811380D01*
X92019571Y-70763761D01*
X91924333Y-70668523D01*
X91876714Y-70573285D01*
X91829095Y-70382809D01*
X91829095Y-70239952D01*
X91876714Y-70049476D01*
X91924333Y-69954238D01*
X92019571Y-69859000D01*
X92162428Y-69811380D01*
X92257666Y-69811380D01*
X92400523Y-69859000D01*
X92448142Y-69906619D01*
X93400523Y-70811380D02*
X92829095Y-70811380D01*
X93114809Y-70811380D02*
X93114809Y-69811380D01*
X93019571Y-69954238D01*
X92924333Y-70049476D01*
X92829095Y-70097095D01*
X93733857Y-69811380D02*
X94400523Y-69811380D01*
X93971952Y-70811380D01*
X106592642Y-91701857D02*
X106640261Y-91749476D01*
X106687880Y-91892333D01*
X106687880Y-91987571D01*
X106640261Y-92130428D01*
X106545023Y-92225666D01*
X106449785Y-92273285D01*
X106259309Y-92320904D01*
X106116452Y-92320904D01*
X105925976Y-92273285D01*
X105830738Y-92225666D01*
X105735500Y-92130428D01*
X105687880Y-91987571D01*
X105687880Y-91892333D01*
X105735500Y-91749476D01*
X105783119Y-91701857D01*
X106687880Y-90749476D02*
X106687880Y-91320904D01*
X106687880Y-91035190D02*
X105687880Y-91035190D01*
X105830738Y-91130428D01*
X105925976Y-91225666D01*
X105973595Y-91320904D01*
X105687880Y-89892333D02*
X105687880Y-90082809D01*
X105735500Y-90178047D01*
X105783119Y-90225666D01*
X105925976Y-90320904D01*
X106116452Y-90368523D01*
X106497404Y-90368523D01*
X106592642Y-90320904D01*
X106640261Y-90273285D01*
X106687880Y-90178047D01*
X106687880Y-89987571D01*
X106640261Y-89892333D01*
X106592642Y-89844714D01*
X106497404Y-89797095D01*
X106259309Y-89797095D01*
X106164071Y-89844714D01*
X106116452Y-89892333D01*
X106068833Y-89987571D01*
X106068833Y-90178047D01*
X106116452Y-90273285D01*
X106164071Y-90320904D01*
X106259309Y-90368523D01*
X105068642Y-95384857D02*
X105116261Y-95432476D01*
X105163880Y-95575333D01*
X105163880Y-95670571D01*
X105116261Y-95813428D01*
X105021023Y-95908666D01*
X104925785Y-95956285D01*
X104735309Y-96003904D01*
X104592452Y-96003904D01*
X104401976Y-95956285D01*
X104306738Y-95908666D01*
X104211500Y-95813428D01*
X104163880Y-95670571D01*
X104163880Y-95575333D01*
X104211500Y-95432476D01*
X104259119Y-95384857D01*
X105163880Y-94432476D02*
X105163880Y-95003904D01*
X105163880Y-94718190D02*
X104163880Y-94718190D01*
X104306738Y-94813428D01*
X104401976Y-94908666D01*
X104449595Y-95003904D01*
X104163880Y-93527714D02*
X104163880Y-94003904D01*
X104640071Y-94051523D01*
X104592452Y-94003904D01*
X104544833Y-93908666D01*
X104544833Y-93670571D01*
X104592452Y-93575333D01*
X104640071Y-93527714D01*
X104735309Y-93480095D01*
X104973404Y-93480095D01*
X105068642Y-93527714D01*
X105116261Y-93575333D01*
X105163880Y-93670571D01*
X105163880Y-93908666D01*
X105116261Y-94003904D01*
X105068642Y-94051523D01*
X97067642Y-82494357D02*
X97115261Y-82541976D01*
X97162880Y-82684833D01*
X97162880Y-82780071D01*
X97115261Y-82922928D01*
X97020023Y-83018166D01*
X96924785Y-83065785D01*
X96734309Y-83113404D01*
X96591452Y-83113404D01*
X96400976Y-83065785D01*
X96305738Y-83018166D01*
X96210500Y-82922928D01*
X96162880Y-82780071D01*
X96162880Y-82684833D01*
X96210500Y-82541976D01*
X96258119Y-82494357D01*
X97162880Y-81541976D02*
X97162880Y-82113404D01*
X97162880Y-81827690D02*
X96162880Y-81827690D01*
X96305738Y-81922928D01*
X96400976Y-82018166D01*
X96448595Y-82113404D01*
X96496214Y-80684833D02*
X97162880Y-80684833D01*
X96115261Y-80922928D02*
X96829547Y-81161023D01*
X96829547Y-80541976D01*
X90035142Y-103925642D02*
X89987523Y-103973261D01*
X89844666Y-104020880D01*
X89749428Y-104020880D01*
X89606571Y-103973261D01*
X89511333Y-103878023D01*
X89463714Y-103782785D01*
X89416095Y-103592309D01*
X89416095Y-103449452D01*
X89463714Y-103258976D01*
X89511333Y-103163738D01*
X89606571Y-103068500D01*
X89749428Y-103020880D01*
X89844666Y-103020880D01*
X89987523Y-103068500D01*
X90035142Y-103116119D01*
X90987523Y-104020880D02*
X90416095Y-104020880D01*
X90701809Y-104020880D02*
X90701809Y-103020880D01*
X90606571Y-103163738D01*
X90511333Y-103258976D01*
X90416095Y-103306595D01*
X91320857Y-103020880D02*
X91939904Y-103020880D01*
X91606571Y-103401833D01*
X91749428Y-103401833D01*
X91844666Y-103449452D01*
X91892285Y-103497071D01*
X91939904Y-103592309D01*
X91939904Y-103830404D01*
X91892285Y-103925642D01*
X91844666Y-103973261D01*
X91749428Y-104020880D01*
X91463714Y-104020880D01*
X91368476Y-103973261D01*
X91320857Y-103925642D01*
X99353642Y-76017357D02*
X99401261Y-76064976D01*
X99448880Y-76207833D01*
X99448880Y-76303071D01*
X99401261Y-76445928D01*
X99306023Y-76541166D01*
X99210785Y-76588785D01*
X99020309Y-76636404D01*
X98877452Y-76636404D01*
X98686976Y-76588785D01*
X98591738Y-76541166D01*
X98496500Y-76445928D01*
X98448880Y-76303071D01*
X98448880Y-76207833D01*
X98496500Y-76064976D01*
X98544119Y-76017357D01*
X99448880Y-75064976D02*
X99448880Y-75636404D01*
X99448880Y-75350690D02*
X98448880Y-75350690D01*
X98591738Y-75445928D01*
X98686976Y-75541166D01*
X98734595Y-75636404D01*
X98544119Y-74684023D02*
X98496500Y-74636404D01*
X98448880Y-74541166D01*
X98448880Y-74303071D01*
X98496500Y-74207833D01*
X98544119Y-74160214D01*
X98639357Y-74112595D01*
X98734595Y-74112595D01*
X98877452Y-74160214D01*
X99448880Y-74731642D01*
X99448880Y-74112595D01*
X106656142Y-79319357D02*
X106703761Y-79366976D01*
X106751380Y-79509833D01*
X106751380Y-79605071D01*
X106703761Y-79747928D01*
X106608523Y-79843166D01*
X106513285Y-79890785D01*
X106322809Y-79938404D01*
X106179952Y-79938404D01*
X105989476Y-79890785D01*
X105894238Y-79843166D01*
X105799000Y-79747928D01*
X105751380Y-79605071D01*
X105751380Y-79509833D01*
X105799000Y-79366976D01*
X105846619Y-79319357D01*
X106751380Y-78366976D02*
X106751380Y-78938404D01*
X106751380Y-78652690D02*
X105751380Y-78652690D01*
X105894238Y-78747928D01*
X105989476Y-78843166D01*
X106037095Y-78938404D01*
X106751380Y-77414595D02*
X106751380Y-77986023D01*
X106751380Y-77700309D02*
X105751380Y-77700309D01*
X105894238Y-77795547D01*
X105989476Y-77890785D01*
X106037095Y-77986023D01*
X95565142Y-94365857D02*
X95612761Y-94413476D01*
X95660380Y-94556333D01*
X95660380Y-94651571D01*
X95612761Y-94794428D01*
X95517523Y-94889666D01*
X95422285Y-94937285D01*
X95231809Y-94984904D01*
X95088952Y-94984904D01*
X94898476Y-94937285D01*
X94803238Y-94889666D01*
X94708000Y-94794428D01*
X94660380Y-94651571D01*
X94660380Y-94556333D01*
X94708000Y-94413476D01*
X94755619Y-94365857D01*
X95660380Y-93413476D02*
X95660380Y-93984904D01*
X95660380Y-93699190D02*
X94660380Y-93699190D01*
X94803238Y-93794428D01*
X94898476Y-93889666D01*
X94946095Y-93984904D01*
X94660380Y-92794428D02*
X94660380Y-92699190D01*
X94708000Y-92603952D01*
X94755619Y-92556333D01*
X94850857Y-92508714D01*
X95041333Y-92461095D01*
X95279428Y-92461095D01*
X95469904Y-92508714D01*
X95565142Y-92556333D01*
X95612761Y-92603952D01*
X95660380Y-92699190D01*
X95660380Y-92794428D01*
X95612761Y-92889666D01*
X95565142Y-92937285D01*
X95469904Y-92984904D01*
X95279428Y-93032523D01*
X95041333Y-93032523D01*
X94850857Y-92984904D01*
X94755619Y-92937285D01*
X94708000Y-92889666D01*
X94660380Y-92794428D01*
X91352642Y-82335666D02*
X91400261Y-82383285D01*
X91447880Y-82526142D01*
X91447880Y-82621380D01*
X91400261Y-82764238D01*
X91305023Y-82859476D01*
X91209785Y-82907095D01*
X91019309Y-82954714D01*
X90876452Y-82954714D01*
X90685976Y-82907095D01*
X90590738Y-82859476D01*
X90495500Y-82764238D01*
X90447880Y-82621380D01*
X90447880Y-82526142D01*
X90495500Y-82383285D01*
X90543119Y-82335666D01*
X91447880Y-81859476D02*
X91447880Y-81669000D01*
X91400261Y-81573761D01*
X91352642Y-81526142D01*
X91209785Y-81430904D01*
X91019309Y-81383285D01*
X90638357Y-81383285D01*
X90543119Y-81430904D01*
X90495500Y-81478523D01*
X90447880Y-81573761D01*
X90447880Y-81764238D01*
X90495500Y-81859476D01*
X90543119Y-81907095D01*
X90638357Y-81954714D01*
X90876452Y-81954714D01*
X90971690Y-81907095D01*
X91019309Y-81859476D01*
X91066928Y-81764238D01*
X91066928Y-81573761D01*
X91019309Y-81478523D01*
X90971690Y-81430904D01*
X90876452Y-81383285D01*
X78954333Y-83605642D02*
X78906714Y-83653261D01*
X78763857Y-83700880D01*
X78668619Y-83700880D01*
X78525761Y-83653261D01*
X78430523Y-83558023D01*
X78382904Y-83462785D01*
X78335285Y-83272309D01*
X78335285Y-83129452D01*
X78382904Y-82938976D01*
X78430523Y-82843738D01*
X78525761Y-82748500D01*
X78668619Y-82700880D01*
X78763857Y-82700880D01*
X78906714Y-82748500D01*
X78954333Y-82796119D01*
X79287666Y-82700880D02*
X79954333Y-82700880D01*
X79525761Y-83700880D01*
X87606142Y-100496666D02*
X87653761Y-100544285D01*
X87701380Y-100687142D01*
X87701380Y-100782380D01*
X87653761Y-100925238D01*
X87558523Y-101020476D01*
X87463285Y-101068095D01*
X87272809Y-101115714D01*
X87129952Y-101115714D01*
X86939476Y-101068095D01*
X86844238Y-101020476D01*
X86749000Y-100925238D01*
X86701380Y-100782380D01*
X86701380Y-100687142D01*
X86749000Y-100544285D01*
X86796619Y-100496666D01*
X86701380Y-99639523D02*
X86701380Y-99830000D01*
X86749000Y-99925238D01*
X86796619Y-99972857D01*
X86939476Y-100068095D01*
X87129952Y-100115714D01*
X87510904Y-100115714D01*
X87606142Y-100068095D01*
X87653761Y-100020476D01*
X87701380Y-99925238D01*
X87701380Y-99734761D01*
X87653761Y-99639523D01*
X87606142Y-99591904D01*
X87510904Y-99544285D01*
X87272809Y-99544285D01*
X87177571Y-99591904D01*
X87129952Y-99639523D01*
X87082333Y-99734761D01*
X87082333Y-99925238D01*
X87129952Y-100020476D01*
X87177571Y-100068095D01*
X87272809Y-100115714D01*
X85828142Y-100560166D02*
X85875761Y-100607785D01*
X85923380Y-100750642D01*
X85923380Y-100845880D01*
X85875761Y-100988738D01*
X85780523Y-101083976D01*
X85685285Y-101131595D01*
X85494809Y-101179214D01*
X85351952Y-101179214D01*
X85161476Y-101131595D01*
X85066238Y-101083976D01*
X84971000Y-100988738D01*
X84923380Y-100845880D01*
X84923380Y-100750642D01*
X84971000Y-100607785D01*
X85018619Y-100560166D01*
X84923380Y-99655404D02*
X84923380Y-100131595D01*
X85399571Y-100179214D01*
X85351952Y-100131595D01*
X85304333Y-100036357D01*
X85304333Y-99798261D01*
X85351952Y-99703023D01*
X85399571Y-99655404D01*
X85494809Y-99607785D01*
X85732904Y-99607785D01*
X85828142Y-99655404D01*
X85875761Y-99703023D01*
X85923380Y-99798261D01*
X85923380Y-100036357D01*
X85875761Y-100131595D01*
X85828142Y-100179214D01*
X78001833Y-93638642D02*
X77954214Y-93686261D01*
X77811357Y-93733880D01*
X77716119Y-93733880D01*
X77573261Y-93686261D01*
X77478023Y-93591023D01*
X77430404Y-93495785D01*
X77382785Y-93305309D01*
X77382785Y-93162452D01*
X77430404Y-92971976D01*
X77478023Y-92876738D01*
X77573261Y-92781500D01*
X77716119Y-92733880D01*
X77811357Y-92733880D01*
X77954214Y-92781500D01*
X78001833Y-92829119D01*
X78858976Y-93067214D02*
X78858976Y-93733880D01*
X78620880Y-92686261D02*
X78382785Y-93400547D01*
X79001833Y-93400547D01*
X79208333Y-91670142D02*
X79160714Y-91717761D01*
X79017857Y-91765380D01*
X78922619Y-91765380D01*
X78779761Y-91717761D01*
X78684523Y-91622523D01*
X78636904Y-91527285D01*
X78589285Y-91336809D01*
X78589285Y-91193952D01*
X78636904Y-91003476D01*
X78684523Y-90908238D01*
X78779761Y-90813000D01*
X78922619Y-90765380D01*
X79017857Y-90765380D01*
X79160714Y-90813000D01*
X79208333Y-90860619D01*
X79541666Y-90765380D02*
X80160714Y-90765380D01*
X79827380Y-91146333D01*
X79970238Y-91146333D01*
X80065476Y-91193952D01*
X80113095Y-91241571D01*
X80160714Y-91336809D01*
X80160714Y-91574904D01*
X80113095Y-91670142D01*
X80065476Y-91717761D01*
X79970238Y-91765380D01*
X79684523Y-91765380D01*
X79589285Y-91717761D01*
X79541666Y-91670142D01*
X79208333Y-88368142D02*
X79160714Y-88415761D01*
X79017857Y-88463380D01*
X78922619Y-88463380D01*
X78779761Y-88415761D01*
X78684523Y-88320523D01*
X78636904Y-88225285D01*
X78589285Y-88034809D01*
X78589285Y-87891952D01*
X78636904Y-87701476D01*
X78684523Y-87606238D01*
X78779761Y-87511000D01*
X78922619Y-87463380D01*
X79017857Y-87463380D01*
X79160714Y-87511000D01*
X79208333Y-87558619D01*
X79589285Y-87558619D02*
X79636904Y-87511000D01*
X79732142Y-87463380D01*
X79970238Y-87463380D01*
X80065476Y-87511000D01*
X80113095Y-87558619D01*
X80160714Y-87653857D01*
X80160714Y-87749095D01*
X80113095Y-87891952D01*
X79541666Y-88463380D01*
X80160714Y-88463380D01*
X79208333Y-86145642D02*
X79160714Y-86193261D01*
X79017857Y-86240880D01*
X78922619Y-86240880D01*
X78779761Y-86193261D01*
X78684523Y-86098023D01*
X78636904Y-86002785D01*
X78589285Y-85812309D01*
X78589285Y-85669452D01*
X78636904Y-85478976D01*
X78684523Y-85383738D01*
X78779761Y-85288500D01*
X78922619Y-85240880D01*
X79017857Y-85240880D01*
X79160714Y-85288500D01*
X79208333Y-85336119D01*
X80160714Y-86240880D02*
X79589285Y-86240880D01*
X79875000Y-86240880D02*
X79875000Y-85240880D01*
X79779761Y-85383738D01*
X79684523Y-85478976D01*
X79589285Y-85526595D01*
M02*
