M48
; DRILL file {KiCad (5.1.5)-3} date 2-5-2020 01:09:40
; FORMAT={-:-/ absolute / inch / decimal}
; #@! TF.CreationDate,2020-05-02T01:09:40+02:00
; #@! TF.GenerationSoftware,Kicad,Pcbnew,(5.1.5)-3
; #@! TF.FileFunction,Plated,1,2,PTH
FMAT,2
INCH
T1C0.0157
T2C0.0394
%
G90
G05
T1
X2.6575Y-3.83
X2.81Y-3.94
X2.9875Y-3.3625
X2.9975Y-2.705
X3.005Y-3.3125
X3.005Y-3.5125
X3.0675Y-3.855
X3.0825Y-3.76
X3.0975Y-3.335
X3.11Y-3.5525
X3.13Y-3.5085
X3.2425Y-3.4276
X3.2725Y-3.8375
X3.2825Y-3.9475
X3.32Y-3.48
X3.3367Y-3.3833
X3.34Y-3.7275
X3.365Y-3.6125
X3.3725Y-2.8775
X3.375Y-3.54
X3.39Y-4.1
X3.4375Y-3.2275
X3.45Y-3.285
X3.4611Y-3.7186
X3.4725Y-3.975
X3.4895Y-3.2875
X3.52Y-3.7455
X3.525Y-3.235
X3.5728Y-3.744
X3.63Y-3.235
X3.6373Y-3.688
X3.685Y-3.69
X3.765Y-4.26
X3.7675Y-3.2325
X3.7725Y-3.36
X3.7725Y-3.5425
X3.845Y-3.2475
X3.8625Y-2.8875
X3.8675Y-4.26
X3.8775Y-3.85
X3.885Y-3.43
X3.9525Y-3.9725
X4.1375Y-3.205
X4.225Y-3.55
X4.3525Y-3.3725
X4.4275Y-3.3425
X4.4425Y-3.72
X4.455Y-3.87
X4.5025Y-3.1825
X4.545Y-3.1575
X4.5575Y-3.83
X4.575Y-3.32
X4.575Y-3.6882
X4.6925Y-3.4175
T2
X3.71Y-4.1475
X3.81Y-4.1475
X3.91Y-4.1475
X4.01Y-4.1475
X4.11Y-4.1475
X4.21Y-4.1475
X4.31Y-4.1475
X4.41Y-4.1475
X4.51Y-4.1475
X4.61Y-4.1475
X4.71Y-4.1475
X4.81Y-4.1475
X4.91Y-4.1475
X5.01Y-4.1475
X5.11Y-4.1475
X5.21Y-4.1475
T0
M30
