G04 #@! TF.GenerationSoftware,KiCad,Pcbnew,(5.1.5)-3*
G04 #@! TF.CreationDate,2020-05-02T01:09:43+02:00*
G04 #@! TF.ProjectId,inkplateclone,696e6b70-6c61-4746-9563-6c6f6e652e6b,rev?*
G04 #@! TF.SameCoordinates,Original*
G04 #@! TF.FileFunction,Soldermask,Top*
G04 #@! TF.FilePolarity,Negative*
%FSLAX46Y46*%
G04 Gerber Fmt 4.6, Leading zero omitted, Abs format (unit mm)*
G04 Created by KiCad (PCBNEW (5.1.5)-3) date 2020-05-02 01:09:43*
%MOMM*%
%LPD*%
G04 APERTURE LIST*
%ADD10C,0.100000*%
G04 APERTURE END LIST*
D10*
G36*
X61716256Y-109706798D02*
G01*
X61822579Y-109727947D01*
X62123042Y-109852403D01*
X62393451Y-110033085D01*
X62623415Y-110263049D01*
X62804097Y-110533458D01*
X62928553Y-110833921D01*
X62992000Y-111152891D01*
X62992000Y-111478109D01*
X62928553Y-111797079D01*
X62804097Y-112097542D01*
X62623415Y-112367951D01*
X62393451Y-112597915D01*
X62123042Y-112778597D01*
X61822579Y-112903053D01*
X61716256Y-112924202D01*
X61503611Y-112966500D01*
X61178389Y-112966500D01*
X60965744Y-112924202D01*
X60859421Y-112903053D01*
X60558958Y-112778597D01*
X60288549Y-112597915D01*
X60058585Y-112367951D01*
X59877903Y-112097542D01*
X59753447Y-111797079D01*
X59690000Y-111478109D01*
X59690000Y-111152891D01*
X59753447Y-110833921D01*
X59877903Y-110533458D01*
X60058585Y-110263049D01*
X60288549Y-110033085D01*
X60558958Y-109852403D01*
X60859421Y-109727947D01*
X60965744Y-109706798D01*
X61178389Y-109664500D01*
X61503611Y-109664500D01*
X61716256Y-109706798D01*
G37*
G36*
X114667512Y-104450427D02*
G01*
X114816812Y-104480124D01*
X114980784Y-104548044D01*
X115128354Y-104646647D01*
X115253853Y-104772146D01*
X115352456Y-104919716D01*
X115420376Y-105083688D01*
X115455000Y-105257759D01*
X115455000Y-105435241D01*
X115420376Y-105609312D01*
X115352456Y-105773284D01*
X115253853Y-105920854D01*
X115128354Y-106046353D01*
X114980784Y-106144956D01*
X114816812Y-106212876D01*
X114667512Y-106242573D01*
X114642742Y-106247500D01*
X114465258Y-106247500D01*
X114440488Y-106242573D01*
X114291188Y-106212876D01*
X114127216Y-106144956D01*
X113979646Y-106046353D01*
X113854147Y-105920854D01*
X113755544Y-105773284D01*
X113687624Y-105609312D01*
X113653000Y-105435241D01*
X113653000Y-105257759D01*
X113687624Y-105083688D01*
X113755544Y-104919716D01*
X113854147Y-104772146D01*
X113979646Y-104646647D01*
X114127216Y-104548044D01*
X114291188Y-104480124D01*
X114440488Y-104450427D01*
X114465258Y-104445500D01*
X114642742Y-104445500D01*
X114667512Y-104450427D01*
G37*
G36*
X95135000Y-106247500D02*
G01*
X93333000Y-106247500D01*
X93333000Y-104445500D01*
X95135000Y-104445500D01*
X95135000Y-106247500D01*
G37*
G36*
X96887512Y-104450427D02*
G01*
X97036812Y-104480124D01*
X97200784Y-104548044D01*
X97348354Y-104646647D01*
X97473853Y-104772146D01*
X97572456Y-104919716D01*
X97640376Y-105083688D01*
X97675000Y-105257759D01*
X97675000Y-105435241D01*
X97640376Y-105609312D01*
X97572456Y-105773284D01*
X97473853Y-105920854D01*
X97348354Y-106046353D01*
X97200784Y-106144956D01*
X97036812Y-106212876D01*
X96887512Y-106242573D01*
X96862742Y-106247500D01*
X96685258Y-106247500D01*
X96660488Y-106242573D01*
X96511188Y-106212876D01*
X96347216Y-106144956D01*
X96199646Y-106046353D01*
X96074147Y-105920854D01*
X95975544Y-105773284D01*
X95907624Y-105609312D01*
X95873000Y-105435241D01*
X95873000Y-105257759D01*
X95907624Y-105083688D01*
X95975544Y-104919716D01*
X96074147Y-104772146D01*
X96199646Y-104646647D01*
X96347216Y-104548044D01*
X96511188Y-104480124D01*
X96660488Y-104450427D01*
X96685258Y-104445500D01*
X96862742Y-104445500D01*
X96887512Y-104450427D01*
G37*
G36*
X99427512Y-104450427D02*
G01*
X99576812Y-104480124D01*
X99740784Y-104548044D01*
X99888354Y-104646647D01*
X100013853Y-104772146D01*
X100112456Y-104919716D01*
X100180376Y-105083688D01*
X100215000Y-105257759D01*
X100215000Y-105435241D01*
X100180376Y-105609312D01*
X100112456Y-105773284D01*
X100013853Y-105920854D01*
X99888354Y-106046353D01*
X99740784Y-106144956D01*
X99576812Y-106212876D01*
X99427512Y-106242573D01*
X99402742Y-106247500D01*
X99225258Y-106247500D01*
X99200488Y-106242573D01*
X99051188Y-106212876D01*
X98887216Y-106144956D01*
X98739646Y-106046353D01*
X98614147Y-105920854D01*
X98515544Y-105773284D01*
X98447624Y-105609312D01*
X98413000Y-105435241D01*
X98413000Y-105257759D01*
X98447624Y-105083688D01*
X98515544Y-104919716D01*
X98614147Y-104772146D01*
X98739646Y-104646647D01*
X98887216Y-104548044D01*
X99051188Y-104480124D01*
X99200488Y-104450427D01*
X99225258Y-104445500D01*
X99402742Y-104445500D01*
X99427512Y-104450427D01*
G37*
G36*
X101967512Y-104450427D02*
G01*
X102116812Y-104480124D01*
X102280784Y-104548044D01*
X102428354Y-104646647D01*
X102553853Y-104772146D01*
X102652456Y-104919716D01*
X102720376Y-105083688D01*
X102755000Y-105257759D01*
X102755000Y-105435241D01*
X102720376Y-105609312D01*
X102652456Y-105773284D01*
X102553853Y-105920854D01*
X102428354Y-106046353D01*
X102280784Y-106144956D01*
X102116812Y-106212876D01*
X101967512Y-106242573D01*
X101942742Y-106247500D01*
X101765258Y-106247500D01*
X101740488Y-106242573D01*
X101591188Y-106212876D01*
X101427216Y-106144956D01*
X101279646Y-106046353D01*
X101154147Y-105920854D01*
X101055544Y-105773284D01*
X100987624Y-105609312D01*
X100953000Y-105435241D01*
X100953000Y-105257759D01*
X100987624Y-105083688D01*
X101055544Y-104919716D01*
X101154147Y-104772146D01*
X101279646Y-104646647D01*
X101427216Y-104548044D01*
X101591188Y-104480124D01*
X101740488Y-104450427D01*
X101765258Y-104445500D01*
X101942742Y-104445500D01*
X101967512Y-104450427D01*
G37*
G36*
X104507512Y-104450427D02*
G01*
X104656812Y-104480124D01*
X104820784Y-104548044D01*
X104968354Y-104646647D01*
X105093853Y-104772146D01*
X105192456Y-104919716D01*
X105260376Y-105083688D01*
X105295000Y-105257759D01*
X105295000Y-105435241D01*
X105260376Y-105609312D01*
X105192456Y-105773284D01*
X105093853Y-105920854D01*
X104968354Y-106046353D01*
X104820784Y-106144956D01*
X104656812Y-106212876D01*
X104507512Y-106242573D01*
X104482742Y-106247500D01*
X104305258Y-106247500D01*
X104280488Y-106242573D01*
X104131188Y-106212876D01*
X103967216Y-106144956D01*
X103819646Y-106046353D01*
X103694147Y-105920854D01*
X103595544Y-105773284D01*
X103527624Y-105609312D01*
X103493000Y-105435241D01*
X103493000Y-105257759D01*
X103527624Y-105083688D01*
X103595544Y-104919716D01*
X103694147Y-104772146D01*
X103819646Y-104646647D01*
X103967216Y-104548044D01*
X104131188Y-104480124D01*
X104280488Y-104450427D01*
X104305258Y-104445500D01*
X104482742Y-104445500D01*
X104507512Y-104450427D01*
G37*
G36*
X107047512Y-104450427D02*
G01*
X107196812Y-104480124D01*
X107360784Y-104548044D01*
X107508354Y-104646647D01*
X107633853Y-104772146D01*
X107732456Y-104919716D01*
X107800376Y-105083688D01*
X107835000Y-105257759D01*
X107835000Y-105435241D01*
X107800376Y-105609312D01*
X107732456Y-105773284D01*
X107633853Y-105920854D01*
X107508354Y-106046353D01*
X107360784Y-106144956D01*
X107196812Y-106212876D01*
X107047512Y-106242573D01*
X107022742Y-106247500D01*
X106845258Y-106247500D01*
X106820488Y-106242573D01*
X106671188Y-106212876D01*
X106507216Y-106144956D01*
X106359646Y-106046353D01*
X106234147Y-105920854D01*
X106135544Y-105773284D01*
X106067624Y-105609312D01*
X106033000Y-105435241D01*
X106033000Y-105257759D01*
X106067624Y-105083688D01*
X106135544Y-104919716D01*
X106234147Y-104772146D01*
X106359646Y-104646647D01*
X106507216Y-104548044D01*
X106671188Y-104480124D01*
X106820488Y-104450427D01*
X106845258Y-104445500D01*
X107022742Y-104445500D01*
X107047512Y-104450427D01*
G37*
G36*
X109587512Y-104450427D02*
G01*
X109736812Y-104480124D01*
X109900784Y-104548044D01*
X110048354Y-104646647D01*
X110173853Y-104772146D01*
X110272456Y-104919716D01*
X110340376Y-105083688D01*
X110375000Y-105257759D01*
X110375000Y-105435241D01*
X110340376Y-105609312D01*
X110272456Y-105773284D01*
X110173853Y-105920854D01*
X110048354Y-106046353D01*
X109900784Y-106144956D01*
X109736812Y-106212876D01*
X109587512Y-106242573D01*
X109562742Y-106247500D01*
X109385258Y-106247500D01*
X109360488Y-106242573D01*
X109211188Y-106212876D01*
X109047216Y-106144956D01*
X108899646Y-106046353D01*
X108774147Y-105920854D01*
X108675544Y-105773284D01*
X108607624Y-105609312D01*
X108573000Y-105435241D01*
X108573000Y-105257759D01*
X108607624Y-105083688D01*
X108675544Y-104919716D01*
X108774147Y-104772146D01*
X108899646Y-104646647D01*
X109047216Y-104548044D01*
X109211188Y-104480124D01*
X109360488Y-104450427D01*
X109385258Y-104445500D01*
X109562742Y-104445500D01*
X109587512Y-104450427D01*
G37*
G36*
X117207512Y-104450427D02*
G01*
X117356812Y-104480124D01*
X117520784Y-104548044D01*
X117668354Y-104646647D01*
X117793853Y-104772146D01*
X117892456Y-104919716D01*
X117960376Y-105083688D01*
X117995000Y-105257759D01*
X117995000Y-105435241D01*
X117960376Y-105609312D01*
X117892456Y-105773284D01*
X117793853Y-105920854D01*
X117668354Y-106046353D01*
X117520784Y-106144956D01*
X117356812Y-106212876D01*
X117207512Y-106242573D01*
X117182742Y-106247500D01*
X117005258Y-106247500D01*
X116980488Y-106242573D01*
X116831188Y-106212876D01*
X116667216Y-106144956D01*
X116519646Y-106046353D01*
X116394147Y-105920854D01*
X116295544Y-105773284D01*
X116227624Y-105609312D01*
X116193000Y-105435241D01*
X116193000Y-105257759D01*
X116227624Y-105083688D01*
X116295544Y-104919716D01*
X116394147Y-104772146D01*
X116519646Y-104646647D01*
X116667216Y-104548044D01*
X116831188Y-104480124D01*
X116980488Y-104450427D01*
X117005258Y-104445500D01*
X117182742Y-104445500D01*
X117207512Y-104450427D01*
G37*
G36*
X112127512Y-104450427D02*
G01*
X112276812Y-104480124D01*
X112440784Y-104548044D01*
X112588354Y-104646647D01*
X112713853Y-104772146D01*
X112812456Y-104919716D01*
X112880376Y-105083688D01*
X112915000Y-105257759D01*
X112915000Y-105435241D01*
X112880376Y-105609312D01*
X112812456Y-105773284D01*
X112713853Y-105920854D01*
X112588354Y-106046353D01*
X112440784Y-106144956D01*
X112276812Y-106212876D01*
X112127512Y-106242573D01*
X112102742Y-106247500D01*
X111925258Y-106247500D01*
X111900488Y-106242573D01*
X111751188Y-106212876D01*
X111587216Y-106144956D01*
X111439646Y-106046353D01*
X111314147Y-105920854D01*
X111215544Y-105773284D01*
X111147624Y-105609312D01*
X111113000Y-105435241D01*
X111113000Y-105257759D01*
X111147624Y-105083688D01*
X111215544Y-104919716D01*
X111314147Y-104772146D01*
X111439646Y-104646647D01*
X111587216Y-104548044D01*
X111751188Y-104480124D01*
X111900488Y-104450427D01*
X111925258Y-104445500D01*
X112102742Y-104445500D01*
X112127512Y-104450427D01*
G37*
G36*
X132447512Y-104450427D02*
G01*
X132596812Y-104480124D01*
X132760784Y-104548044D01*
X132908354Y-104646647D01*
X133033853Y-104772146D01*
X133132456Y-104919716D01*
X133200376Y-105083688D01*
X133235000Y-105257759D01*
X133235000Y-105435241D01*
X133200376Y-105609312D01*
X133132456Y-105773284D01*
X133033853Y-105920854D01*
X132908354Y-106046353D01*
X132760784Y-106144956D01*
X132596812Y-106212876D01*
X132447512Y-106242573D01*
X132422742Y-106247500D01*
X132245258Y-106247500D01*
X132220488Y-106242573D01*
X132071188Y-106212876D01*
X131907216Y-106144956D01*
X131759646Y-106046353D01*
X131634147Y-105920854D01*
X131535544Y-105773284D01*
X131467624Y-105609312D01*
X131433000Y-105435241D01*
X131433000Y-105257759D01*
X131467624Y-105083688D01*
X131535544Y-104919716D01*
X131634147Y-104772146D01*
X131759646Y-104646647D01*
X131907216Y-104548044D01*
X132071188Y-104480124D01*
X132220488Y-104450427D01*
X132245258Y-104445500D01*
X132422742Y-104445500D01*
X132447512Y-104450427D01*
G37*
G36*
X129907512Y-104450427D02*
G01*
X130056812Y-104480124D01*
X130220784Y-104548044D01*
X130368354Y-104646647D01*
X130493853Y-104772146D01*
X130592456Y-104919716D01*
X130660376Y-105083688D01*
X130695000Y-105257759D01*
X130695000Y-105435241D01*
X130660376Y-105609312D01*
X130592456Y-105773284D01*
X130493853Y-105920854D01*
X130368354Y-106046353D01*
X130220784Y-106144956D01*
X130056812Y-106212876D01*
X129907512Y-106242573D01*
X129882742Y-106247500D01*
X129705258Y-106247500D01*
X129680488Y-106242573D01*
X129531188Y-106212876D01*
X129367216Y-106144956D01*
X129219646Y-106046353D01*
X129094147Y-105920854D01*
X128995544Y-105773284D01*
X128927624Y-105609312D01*
X128893000Y-105435241D01*
X128893000Y-105257759D01*
X128927624Y-105083688D01*
X128995544Y-104919716D01*
X129094147Y-104772146D01*
X129219646Y-104646647D01*
X129367216Y-104548044D01*
X129531188Y-104480124D01*
X129680488Y-104450427D01*
X129705258Y-104445500D01*
X129882742Y-104445500D01*
X129907512Y-104450427D01*
G37*
G36*
X127367512Y-104450427D02*
G01*
X127516812Y-104480124D01*
X127680784Y-104548044D01*
X127828354Y-104646647D01*
X127953853Y-104772146D01*
X128052456Y-104919716D01*
X128120376Y-105083688D01*
X128155000Y-105257759D01*
X128155000Y-105435241D01*
X128120376Y-105609312D01*
X128052456Y-105773284D01*
X127953853Y-105920854D01*
X127828354Y-106046353D01*
X127680784Y-106144956D01*
X127516812Y-106212876D01*
X127367512Y-106242573D01*
X127342742Y-106247500D01*
X127165258Y-106247500D01*
X127140488Y-106242573D01*
X126991188Y-106212876D01*
X126827216Y-106144956D01*
X126679646Y-106046353D01*
X126554147Y-105920854D01*
X126455544Y-105773284D01*
X126387624Y-105609312D01*
X126353000Y-105435241D01*
X126353000Y-105257759D01*
X126387624Y-105083688D01*
X126455544Y-104919716D01*
X126554147Y-104772146D01*
X126679646Y-104646647D01*
X126827216Y-104548044D01*
X126991188Y-104480124D01*
X127140488Y-104450427D01*
X127165258Y-104445500D01*
X127342742Y-104445500D01*
X127367512Y-104450427D01*
G37*
G36*
X124827512Y-104450427D02*
G01*
X124976812Y-104480124D01*
X125140784Y-104548044D01*
X125288354Y-104646647D01*
X125413853Y-104772146D01*
X125512456Y-104919716D01*
X125580376Y-105083688D01*
X125615000Y-105257759D01*
X125615000Y-105435241D01*
X125580376Y-105609312D01*
X125512456Y-105773284D01*
X125413853Y-105920854D01*
X125288354Y-106046353D01*
X125140784Y-106144956D01*
X124976812Y-106212876D01*
X124827512Y-106242573D01*
X124802742Y-106247500D01*
X124625258Y-106247500D01*
X124600488Y-106242573D01*
X124451188Y-106212876D01*
X124287216Y-106144956D01*
X124139646Y-106046353D01*
X124014147Y-105920854D01*
X123915544Y-105773284D01*
X123847624Y-105609312D01*
X123813000Y-105435241D01*
X123813000Y-105257759D01*
X123847624Y-105083688D01*
X123915544Y-104919716D01*
X124014147Y-104772146D01*
X124139646Y-104646647D01*
X124287216Y-104548044D01*
X124451188Y-104480124D01*
X124600488Y-104450427D01*
X124625258Y-104445500D01*
X124802742Y-104445500D01*
X124827512Y-104450427D01*
G37*
G36*
X122287512Y-104450427D02*
G01*
X122436812Y-104480124D01*
X122600784Y-104548044D01*
X122748354Y-104646647D01*
X122873853Y-104772146D01*
X122972456Y-104919716D01*
X123040376Y-105083688D01*
X123075000Y-105257759D01*
X123075000Y-105435241D01*
X123040376Y-105609312D01*
X122972456Y-105773284D01*
X122873853Y-105920854D01*
X122748354Y-106046353D01*
X122600784Y-106144956D01*
X122436812Y-106212876D01*
X122287512Y-106242573D01*
X122262742Y-106247500D01*
X122085258Y-106247500D01*
X122060488Y-106242573D01*
X121911188Y-106212876D01*
X121747216Y-106144956D01*
X121599646Y-106046353D01*
X121474147Y-105920854D01*
X121375544Y-105773284D01*
X121307624Y-105609312D01*
X121273000Y-105435241D01*
X121273000Y-105257759D01*
X121307624Y-105083688D01*
X121375544Y-104919716D01*
X121474147Y-104772146D01*
X121599646Y-104646647D01*
X121747216Y-104548044D01*
X121911188Y-104480124D01*
X122060488Y-104450427D01*
X122085258Y-104445500D01*
X122262742Y-104445500D01*
X122287512Y-104450427D01*
G37*
G36*
X119747512Y-104450427D02*
G01*
X119896812Y-104480124D01*
X120060784Y-104548044D01*
X120208354Y-104646647D01*
X120333853Y-104772146D01*
X120432456Y-104919716D01*
X120500376Y-105083688D01*
X120535000Y-105257759D01*
X120535000Y-105435241D01*
X120500376Y-105609312D01*
X120432456Y-105773284D01*
X120333853Y-105920854D01*
X120208354Y-106046353D01*
X120060784Y-106144956D01*
X119896812Y-106212876D01*
X119747512Y-106242573D01*
X119722742Y-106247500D01*
X119545258Y-106247500D01*
X119520488Y-106242573D01*
X119371188Y-106212876D01*
X119207216Y-106144956D01*
X119059646Y-106046353D01*
X118934147Y-105920854D01*
X118835544Y-105773284D01*
X118767624Y-105609312D01*
X118733000Y-105435241D01*
X118733000Y-105257759D01*
X118767624Y-105083688D01*
X118835544Y-104919716D01*
X118934147Y-104772146D01*
X119059646Y-104646647D01*
X119207216Y-104548044D01*
X119371188Y-104480124D01*
X119520488Y-104450427D01*
X119545258Y-104445500D01*
X119722742Y-104445500D01*
X119747512Y-104450427D01*
G37*
G36*
X93335968Y-101107565D02*
G01*
X93374638Y-101119296D01*
X93410277Y-101138346D01*
X93441517Y-101163983D01*
X93467154Y-101195223D01*
X93486204Y-101230862D01*
X93497935Y-101269532D01*
X93502500Y-101315888D01*
X93502500Y-102392112D01*
X93497935Y-102438468D01*
X93486204Y-102477138D01*
X93467154Y-102512777D01*
X93441517Y-102544017D01*
X93410277Y-102569654D01*
X93374638Y-102588704D01*
X93335968Y-102600435D01*
X93289612Y-102605000D01*
X92638388Y-102605000D01*
X92592032Y-102600435D01*
X92553362Y-102588704D01*
X92517723Y-102569654D01*
X92486483Y-102544017D01*
X92460846Y-102512777D01*
X92441796Y-102477138D01*
X92430065Y-102438468D01*
X92425500Y-102392112D01*
X92425500Y-101315888D01*
X92430065Y-101269532D01*
X92441796Y-101230862D01*
X92460846Y-101195223D01*
X92486483Y-101163983D01*
X92517723Y-101138346D01*
X92553362Y-101119296D01*
X92592032Y-101107565D01*
X92638388Y-101103000D01*
X93289612Y-101103000D01*
X93335968Y-101107565D01*
G37*
G36*
X91460968Y-101107565D02*
G01*
X91499638Y-101119296D01*
X91535277Y-101138346D01*
X91566517Y-101163983D01*
X91592154Y-101195223D01*
X91611204Y-101230862D01*
X91622935Y-101269532D01*
X91627500Y-101315888D01*
X91627500Y-102392112D01*
X91622935Y-102438468D01*
X91611204Y-102477138D01*
X91592154Y-102512777D01*
X91566517Y-102544017D01*
X91535277Y-102569654D01*
X91499638Y-102588704D01*
X91460968Y-102600435D01*
X91414612Y-102605000D01*
X90763388Y-102605000D01*
X90717032Y-102600435D01*
X90678362Y-102588704D01*
X90642723Y-102569654D01*
X90611483Y-102544017D01*
X90585846Y-102512777D01*
X90566796Y-102477138D01*
X90555065Y-102438468D01*
X90550500Y-102392112D01*
X90550500Y-101315888D01*
X90555065Y-101269532D01*
X90566796Y-101230862D01*
X90585846Y-101195223D01*
X90611483Y-101163983D01*
X90642723Y-101138346D01*
X90678362Y-101119296D01*
X90717032Y-101107565D01*
X90763388Y-101103000D01*
X91414612Y-101103000D01*
X91460968Y-101107565D01*
G37*
G36*
X96161000Y-102586000D02*
G01*
X95609000Y-102586000D01*
X95609000Y-101884000D01*
X96161000Y-101884000D01*
X96161000Y-102586000D01*
G37*
G36*
X59964968Y-99901065D02*
G01*
X60003638Y-99912796D01*
X60039277Y-99931846D01*
X60070517Y-99957483D01*
X60096154Y-99988723D01*
X60115204Y-100024362D01*
X60126935Y-100063032D01*
X60131500Y-100109388D01*
X60131500Y-101185612D01*
X60126935Y-101231968D01*
X60115204Y-101270638D01*
X60096154Y-101306277D01*
X60070517Y-101337517D01*
X60039277Y-101363154D01*
X60003638Y-101382204D01*
X59964968Y-101393935D01*
X59918612Y-101398500D01*
X59267388Y-101398500D01*
X59221032Y-101393935D01*
X59182362Y-101382204D01*
X59146723Y-101363154D01*
X59115483Y-101337517D01*
X59089846Y-101306277D01*
X59070796Y-101270638D01*
X59059065Y-101231968D01*
X59054500Y-101185612D01*
X59054500Y-100109388D01*
X59059065Y-100063032D01*
X59070796Y-100024362D01*
X59089846Y-99988723D01*
X59115483Y-99957483D01*
X59146723Y-99931846D01*
X59182362Y-99912796D01*
X59221032Y-99901065D01*
X59267388Y-99896500D01*
X59918612Y-99896500D01*
X59964968Y-99901065D01*
G37*
G36*
X61839968Y-99901065D02*
G01*
X61878638Y-99912796D01*
X61914277Y-99931846D01*
X61945517Y-99957483D01*
X61971154Y-99988723D01*
X61990204Y-100024362D01*
X62001935Y-100063032D01*
X62006500Y-100109388D01*
X62006500Y-101185612D01*
X62001935Y-101231968D01*
X61990204Y-101270638D01*
X61971154Y-101306277D01*
X61945517Y-101337517D01*
X61914277Y-101363154D01*
X61878638Y-101382204D01*
X61839968Y-101393935D01*
X61793612Y-101398500D01*
X61142388Y-101398500D01*
X61096032Y-101393935D01*
X61057362Y-101382204D01*
X61021723Y-101363154D01*
X60990483Y-101337517D01*
X60964846Y-101306277D01*
X60945796Y-101270638D01*
X60934065Y-101231968D01*
X60929500Y-101185612D01*
X60929500Y-100109388D01*
X60934065Y-100063032D01*
X60945796Y-100024362D01*
X60964846Y-99988723D01*
X60990483Y-99957483D01*
X61021723Y-99931846D01*
X61057362Y-99912796D01*
X61096032Y-99901065D01*
X61142388Y-99896500D01*
X61793612Y-99896500D01*
X61839968Y-99901065D01*
G37*
G36*
X118777500Y-101307000D02*
G01*
X116475500Y-101307000D01*
X116475500Y-99405000D01*
X118777500Y-99405000D01*
X118777500Y-101307000D01*
G37*
G36*
X75343428Y-100299264D02*
G01*
X75364509Y-100305660D01*
X75383945Y-100316048D01*
X75400976Y-100330024D01*
X75414952Y-100347055D01*
X75425340Y-100366491D01*
X75431736Y-100387572D01*
X75434500Y-100415640D01*
X75434500Y-100879360D01*
X75431736Y-100907428D01*
X75425340Y-100928509D01*
X75414952Y-100947945D01*
X75400976Y-100964976D01*
X75383945Y-100978952D01*
X75364509Y-100989340D01*
X75343428Y-100995736D01*
X75315360Y-100998500D01*
X73401640Y-100998500D01*
X73373572Y-100995736D01*
X73352491Y-100989340D01*
X73333055Y-100978952D01*
X73316024Y-100964976D01*
X73302048Y-100947945D01*
X73291660Y-100928509D01*
X73285264Y-100907428D01*
X73282500Y-100879360D01*
X73282500Y-100415640D01*
X73285264Y-100387572D01*
X73291660Y-100366491D01*
X73302048Y-100347055D01*
X73316024Y-100330024D01*
X73333055Y-100316048D01*
X73352491Y-100305660D01*
X73373572Y-100299264D01*
X73401640Y-100296500D01*
X75315360Y-100296500D01*
X75343428Y-100299264D01*
G37*
G36*
X66043428Y-100299264D02*
G01*
X66064509Y-100305660D01*
X66083945Y-100316048D01*
X66100976Y-100330024D01*
X66114952Y-100347055D01*
X66125340Y-100366491D01*
X66131736Y-100387572D01*
X66134500Y-100415640D01*
X66134500Y-100879360D01*
X66131736Y-100907428D01*
X66125340Y-100928509D01*
X66114952Y-100947945D01*
X66100976Y-100964976D01*
X66083945Y-100978952D01*
X66064509Y-100989340D01*
X66043428Y-100995736D01*
X66015360Y-100998500D01*
X64101640Y-100998500D01*
X64073572Y-100995736D01*
X64052491Y-100989340D01*
X64033055Y-100978952D01*
X64016024Y-100964976D01*
X64002048Y-100947945D01*
X63991660Y-100928509D01*
X63985264Y-100907428D01*
X63982500Y-100879360D01*
X63982500Y-100415640D01*
X63985264Y-100387572D01*
X63991660Y-100366491D01*
X64002048Y-100347055D01*
X64016024Y-100330024D01*
X64033055Y-100316048D01*
X64052491Y-100305660D01*
X64073572Y-100299264D01*
X64101640Y-100296500D01*
X66015360Y-100296500D01*
X66043428Y-100299264D01*
G37*
G36*
X82236968Y-99422065D02*
G01*
X82275638Y-99433796D01*
X82311277Y-99452846D01*
X82342517Y-99478483D01*
X82368154Y-99509723D01*
X82387204Y-99545362D01*
X82398935Y-99584032D01*
X82403500Y-99630388D01*
X82403500Y-100706612D01*
X82398935Y-100752968D01*
X82387204Y-100791638D01*
X82368154Y-100827277D01*
X82342517Y-100858517D01*
X82311277Y-100884154D01*
X82275638Y-100903204D01*
X82236968Y-100914935D01*
X82190612Y-100919500D01*
X81539388Y-100919500D01*
X81493032Y-100914935D01*
X81454362Y-100903204D01*
X81418723Y-100884154D01*
X81387483Y-100858517D01*
X81361846Y-100827277D01*
X81342796Y-100791638D01*
X81331065Y-100752968D01*
X81326500Y-100706612D01*
X81326500Y-99630388D01*
X81331065Y-99584032D01*
X81342796Y-99545362D01*
X81361846Y-99509723D01*
X81387483Y-99478483D01*
X81418723Y-99452846D01*
X81454362Y-99433796D01*
X81493032Y-99422065D01*
X81539388Y-99417500D01*
X82190612Y-99417500D01*
X82236968Y-99422065D01*
G37*
G36*
X80361968Y-99422065D02*
G01*
X80400638Y-99433796D01*
X80436277Y-99452846D01*
X80467517Y-99478483D01*
X80493154Y-99509723D01*
X80512204Y-99545362D01*
X80523935Y-99584032D01*
X80528500Y-99630388D01*
X80528500Y-100706612D01*
X80523935Y-100752968D01*
X80512204Y-100791638D01*
X80493154Y-100827277D01*
X80467517Y-100858517D01*
X80436277Y-100884154D01*
X80400638Y-100903204D01*
X80361968Y-100914935D01*
X80315612Y-100919500D01*
X79664388Y-100919500D01*
X79618032Y-100914935D01*
X79579362Y-100903204D01*
X79543723Y-100884154D01*
X79512483Y-100858517D01*
X79486846Y-100827277D01*
X79467796Y-100791638D01*
X79456065Y-100752968D01*
X79451500Y-100706612D01*
X79451500Y-99630388D01*
X79456065Y-99584032D01*
X79467796Y-99545362D01*
X79486846Y-99509723D01*
X79512483Y-99478483D01*
X79543723Y-99452846D01*
X79579362Y-99433796D01*
X79618032Y-99422065D01*
X79664388Y-99417500D01*
X80315612Y-99417500D01*
X80361968Y-99422065D01*
G37*
G36*
X96161000Y-100486000D02*
G01*
X95609000Y-100486000D01*
X95609000Y-99784000D01*
X96161000Y-99784000D01*
X96161000Y-100486000D01*
G37*
G36*
X93632000Y-99795000D02*
G01*
X92550000Y-99795000D01*
X92550000Y-96293000D01*
X93632000Y-96293000D01*
X93632000Y-99795000D01*
G37*
G36*
X91262000Y-99795000D02*
G01*
X90180000Y-99795000D01*
X90180000Y-96293000D01*
X91262000Y-96293000D01*
X91262000Y-99795000D01*
G37*
G36*
X75343428Y-99029264D02*
G01*
X75364509Y-99035660D01*
X75383945Y-99046048D01*
X75400976Y-99060024D01*
X75414952Y-99077055D01*
X75425340Y-99096491D01*
X75431736Y-99117572D01*
X75434500Y-99145640D01*
X75434500Y-99609360D01*
X75431736Y-99637428D01*
X75425340Y-99658509D01*
X75414952Y-99677945D01*
X75400976Y-99694976D01*
X75383945Y-99708952D01*
X75364509Y-99719340D01*
X75343428Y-99725736D01*
X75315360Y-99728500D01*
X73401640Y-99728500D01*
X73373572Y-99725736D01*
X73352491Y-99719340D01*
X73333055Y-99708952D01*
X73316024Y-99694976D01*
X73302048Y-99677945D01*
X73291660Y-99658509D01*
X73285264Y-99637428D01*
X73282500Y-99609360D01*
X73282500Y-99145640D01*
X73285264Y-99117572D01*
X73291660Y-99096491D01*
X73302048Y-99077055D01*
X73316024Y-99060024D01*
X73333055Y-99046048D01*
X73352491Y-99035660D01*
X73373572Y-99029264D01*
X73401640Y-99026500D01*
X75315360Y-99026500D01*
X75343428Y-99029264D01*
G37*
G36*
X66043428Y-99029264D02*
G01*
X66064509Y-99035660D01*
X66083945Y-99046048D01*
X66100976Y-99060024D01*
X66114952Y-99077055D01*
X66125340Y-99096491D01*
X66131736Y-99117572D01*
X66134500Y-99145640D01*
X66134500Y-99609360D01*
X66131736Y-99637428D01*
X66125340Y-99658509D01*
X66114952Y-99677945D01*
X66100976Y-99694976D01*
X66083945Y-99708952D01*
X66064509Y-99719340D01*
X66043428Y-99725736D01*
X66015360Y-99728500D01*
X64101640Y-99728500D01*
X64073572Y-99725736D01*
X64052491Y-99719340D01*
X64033055Y-99708952D01*
X64016024Y-99694976D01*
X64002048Y-99677945D01*
X63991660Y-99658509D01*
X63985264Y-99637428D01*
X63982500Y-99609360D01*
X63982500Y-99145640D01*
X63985264Y-99117572D01*
X63991660Y-99096491D01*
X64002048Y-99077055D01*
X64016024Y-99060024D01*
X64033055Y-99046048D01*
X64052491Y-99035660D01*
X64073572Y-99029264D01*
X64101640Y-99026500D01*
X66015360Y-99026500D01*
X66043428Y-99029264D01*
G37*
G36*
X61839968Y-97742065D02*
G01*
X61878638Y-97753796D01*
X61914277Y-97772846D01*
X61945517Y-97798483D01*
X61971154Y-97829723D01*
X61990204Y-97865362D01*
X62001935Y-97904032D01*
X62006500Y-97950388D01*
X62006500Y-99026612D01*
X62001935Y-99072968D01*
X61990204Y-99111638D01*
X61971154Y-99147277D01*
X61945517Y-99178517D01*
X61914277Y-99204154D01*
X61878638Y-99223204D01*
X61839968Y-99234935D01*
X61793612Y-99239500D01*
X61142388Y-99239500D01*
X61096032Y-99234935D01*
X61057362Y-99223204D01*
X61021723Y-99204154D01*
X60990483Y-99178517D01*
X60964846Y-99147277D01*
X60945796Y-99111638D01*
X60934065Y-99072968D01*
X60929500Y-99026612D01*
X60929500Y-97950388D01*
X60934065Y-97904032D01*
X60945796Y-97865362D01*
X60964846Y-97829723D01*
X60990483Y-97798483D01*
X61021723Y-97772846D01*
X61057362Y-97753796D01*
X61096032Y-97742065D01*
X61142388Y-97737500D01*
X61793612Y-97737500D01*
X61839968Y-97742065D01*
G37*
G36*
X59964968Y-97742065D02*
G01*
X60003638Y-97753796D01*
X60039277Y-97772846D01*
X60070517Y-97798483D01*
X60096154Y-97829723D01*
X60115204Y-97865362D01*
X60126935Y-97904032D01*
X60131500Y-97950388D01*
X60131500Y-99026612D01*
X60126935Y-99072968D01*
X60115204Y-99111638D01*
X60096154Y-99147277D01*
X60070517Y-99178517D01*
X60039277Y-99204154D01*
X60003638Y-99223204D01*
X59964968Y-99234935D01*
X59918612Y-99239500D01*
X59267388Y-99239500D01*
X59221032Y-99234935D01*
X59182362Y-99223204D01*
X59146723Y-99204154D01*
X59115483Y-99178517D01*
X59089846Y-99147277D01*
X59070796Y-99111638D01*
X59059065Y-99072968D01*
X59054500Y-99026612D01*
X59054500Y-97950388D01*
X59059065Y-97904032D01*
X59070796Y-97865362D01*
X59089846Y-97829723D01*
X59115483Y-97798483D01*
X59146723Y-97772846D01*
X59182362Y-97753796D01*
X59221032Y-97742065D01*
X59267388Y-97737500D01*
X59918612Y-97737500D01*
X59964968Y-97742065D01*
G37*
G36*
X86055468Y-97861065D02*
G01*
X86094138Y-97872796D01*
X86129777Y-97891846D01*
X86161017Y-97917483D01*
X86186654Y-97948723D01*
X86205704Y-97984362D01*
X86217435Y-98023032D01*
X86222000Y-98069388D01*
X86222000Y-98720612D01*
X86217435Y-98766968D01*
X86205704Y-98805638D01*
X86186654Y-98841277D01*
X86161017Y-98872517D01*
X86129777Y-98898154D01*
X86094138Y-98917204D01*
X86055468Y-98928935D01*
X86009112Y-98933500D01*
X84932888Y-98933500D01*
X84886532Y-98928935D01*
X84847862Y-98917204D01*
X84812223Y-98898154D01*
X84780983Y-98872517D01*
X84755346Y-98841277D01*
X84736296Y-98805638D01*
X84724565Y-98766968D01*
X84720000Y-98720612D01*
X84720000Y-98069388D01*
X84724565Y-98023032D01*
X84736296Y-97984362D01*
X84755346Y-97948723D01*
X84780983Y-97917483D01*
X84812223Y-97891846D01*
X84847862Y-97872796D01*
X84886532Y-97861065D01*
X84932888Y-97856500D01*
X86009112Y-97856500D01*
X86055468Y-97861065D01*
G37*
G36*
X88468468Y-97861065D02*
G01*
X88507138Y-97872796D01*
X88542777Y-97891846D01*
X88574017Y-97917483D01*
X88599654Y-97948723D01*
X88618704Y-97984362D01*
X88630435Y-98023032D01*
X88635000Y-98069388D01*
X88635000Y-98720612D01*
X88630435Y-98766968D01*
X88618704Y-98805638D01*
X88599654Y-98841277D01*
X88574017Y-98872517D01*
X88542777Y-98898154D01*
X88507138Y-98917204D01*
X88468468Y-98928935D01*
X88422112Y-98933500D01*
X87345888Y-98933500D01*
X87299532Y-98928935D01*
X87260862Y-98917204D01*
X87225223Y-98898154D01*
X87193983Y-98872517D01*
X87168346Y-98841277D01*
X87149296Y-98805638D01*
X87137565Y-98766968D01*
X87133000Y-98720612D01*
X87133000Y-98069388D01*
X87137565Y-98023032D01*
X87149296Y-97984362D01*
X87168346Y-97948723D01*
X87193983Y-97917483D01*
X87225223Y-97891846D01*
X87260862Y-97872796D01*
X87299532Y-97861065D01*
X87345888Y-97856500D01*
X88422112Y-97856500D01*
X88468468Y-97861065D01*
G37*
G36*
X115077500Y-98657000D02*
G01*
X113675500Y-98657000D01*
X113675500Y-82255000D01*
X115077500Y-82255000D01*
X115077500Y-98657000D01*
G37*
G36*
X66043428Y-97759264D02*
G01*
X66064509Y-97765660D01*
X66083945Y-97776048D01*
X66100976Y-97790024D01*
X66114952Y-97807055D01*
X66125340Y-97826491D01*
X66131736Y-97847572D01*
X66134500Y-97875640D01*
X66134500Y-98339360D01*
X66131736Y-98367428D01*
X66125340Y-98388509D01*
X66114952Y-98407945D01*
X66100976Y-98424976D01*
X66083945Y-98438952D01*
X66064509Y-98449340D01*
X66043428Y-98455736D01*
X66015360Y-98458500D01*
X64101640Y-98458500D01*
X64073572Y-98455736D01*
X64052491Y-98449340D01*
X64033055Y-98438952D01*
X64016024Y-98424976D01*
X64002048Y-98407945D01*
X63991660Y-98388509D01*
X63985264Y-98367428D01*
X63982500Y-98339360D01*
X63982500Y-97875640D01*
X63985264Y-97847572D01*
X63991660Y-97826491D01*
X64002048Y-97807055D01*
X64016024Y-97790024D01*
X64033055Y-97776048D01*
X64052491Y-97765660D01*
X64073572Y-97759264D01*
X64101640Y-97756500D01*
X66015360Y-97756500D01*
X66043428Y-97759264D01*
G37*
G36*
X75343428Y-97759264D02*
G01*
X75364509Y-97765660D01*
X75383945Y-97776048D01*
X75400976Y-97790024D01*
X75414952Y-97807055D01*
X75425340Y-97826491D01*
X75431736Y-97847572D01*
X75434500Y-97875640D01*
X75434500Y-98339360D01*
X75431736Y-98367428D01*
X75425340Y-98388509D01*
X75414952Y-98407945D01*
X75400976Y-98424976D01*
X75383945Y-98438952D01*
X75364509Y-98449340D01*
X75343428Y-98455736D01*
X75315360Y-98458500D01*
X73401640Y-98458500D01*
X73373572Y-98455736D01*
X73352491Y-98449340D01*
X73333055Y-98438952D01*
X73316024Y-98424976D01*
X73302048Y-98407945D01*
X73291660Y-98388509D01*
X73285264Y-98367428D01*
X73282500Y-98339360D01*
X73282500Y-97875640D01*
X73285264Y-97847572D01*
X73291660Y-97826491D01*
X73302048Y-97807055D01*
X73316024Y-97790024D01*
X73333055Y-97776048D01*
X73352491Y-97765660D01*
X73373572Y-97759264D01*
X73401640Y-97756500D01*
X75315360Y-97756500D01*
X75343428Y-97759264D01*
G37*
G36*
X111645968Y-96972065D02*
G01*
X111684638Y-96983796D01*
X111720277Y-97002846D01*
X111751517Y-97028483D01*
X111777154Y-97059723D01*
X111796204Y-97095362D01*
X111807935Y-97134032D01*
X111812500Y-97180388D01*
X111812500Y-97831612D01*
X111807935Y-97877968D01*
X111796204Y-97916638D01*
X111777154Y-97952277D01*
X111751517Y-97983517D01*
X111720277Y-98009154D01*
X111684638Y-98028204D01*
X111645968Y-98039935D01*
X111599612Y-98044500D01*
X110523388Y-98044500D01*
X110477032Y-98039935D01*
X110438362Y-98028204D01*
X110402723Y-98009154D01*
X110371483Y-97983517D01*
X110345846Y-97952277D01*
X110326796Y-97916638D01*
X110315065Y-97877968D01*
X110310500Y-97831612D01*
X110310500Y-97180388D01*
X110315065Y-97134032D01*
X110326796Y-97095362D01*
X110345846Y-97059723D01*
X110371483Y-97028483D01*
X110402723Y-97002846D01*
X110438362Y-96983796D01*
X110477032Y-96972065D01*
X110523388Y-96967500D01*
X111599612Y-96967500D01*
X111645968Y-96972065D01*
G37*
G36*
X109105968Y-96972065D02*
G01*
X109144638Y-96983796D01*
X109180277Y-97002846D01*
X109211517Y-97028483D01*
X109237154Y-97059723D01*
X109256204Y-97095362D01*
X109267935Y-97134032D01*
X109272500Y-97180388D01*
X109272500Y-97831612D01*
X109267935Y-97877968D01*
X109256204Y-97916638D01*
X109237154Y-97952277D01*
X109211517Y-97983517D01*
X109180277Y-98009154D01*
X109144638Y-98028204D01*
X109105968Y-98039935D01*
X109059612Y-98044500D01*
X107983388Y-98044500D01*
X107937032Y-98039935D01*
X107898362Y-98028204D01*
X107862723Y-98009154D01*
X107831483Y-97983517D01*
X107805846Y-97952277D01*
X107786796Y-97916638D01*
X107775065Y-97877968D01*
X107770500Y-97831612D01*
X107770500Y-97180388D01*
X107775065Y-97134032D01*
X107786796Y-97095362D01*
X107805846Y-97059723D01*
X107831483Y-97028483D01*
X107862723Y-97002846D01*
X107898362Y-96983796D01*
X107937032Y-96972065D01*
X107983388Y-96967500D01*
X109059612Y-96967500D01*
X109105968Y-96972065D01*
G37*
G36*
X80361968Y-96472065D02*
G01*
X80400638Y-96483796D01*
X80436277Y-96502846D01*
X80467517Y-96528483D01*
X80493154Y-96559723D01*
X80512204Y-96595362D01*
X80523935Y-96634032D01*
X80528500Y-96680388D01*
X80528500Y-97756612D01*
X80523935Y-97802968D01*
X80512204Y-97841638D01*
X80493154Y-97877277D01*
X80467517Y-97908517D01*
X80436277Y-97934154D01*
X80400638Y-97953204D01*
X80361968Y-97964935D01*
X80315612Y-97969500D01*
X79664388Y-97969500D01*
X79618032Y-97964935D01*
X79579362Y-97953204D01*
X79543723Y-97934154D01*
X79512483Y-97908517D01*
X79486846Y-97877277D01*
X79467796Y-97841638D01*
X79456065Y-97802968D01*
X79451500Y-97756612D01*
X79451500Y-96680388D01*
X79456065Y-96634032D01*
X79467796Y-96595362D01*
X79486846Y-96559723D01*
X79512483Y-96528483D01*
X79543723Y-96502846D01*
X79579362Y-96483796D01*
X79618032Y-96472065D01*
X79664388Y-96467500D01*
X80315612Y-96467500D01*
X80361968Y-96472065D01*
G37*
G36*
X82236968Y-96472065D02*
G01*
X82275638Y-96483796D01*
X82311277Y-96502846D01*
X82342517Y-96528483D01*
X82368154Y-96559723D01*
X82387204Y-96595362D01*
X82398935Y-96634032D01*
X82403500Y-96680388D01*
X82403500Y-97756612D01*
X82398935Y-97802968D01*
X82387204Y-97841638D01*
X82368154Y-97877277D01*
X82342517Y-97908517D01*
X82311277Y-97934154D01*
X82275638Y-97953204D01*
X82236968Y-97964935D01*
X82190612Y-97969500D01*
X81539388Y-97969500D01*
X81493032Y-97964935D01*
X81454362Y-97953204D01*
X81418723Y-97934154D01*
X81387483Y-97908517D01*
X81361846Y-97877277D01*
X81342796Y-97841638D01*
X81331065Y-97802968D01*
X81326500Y-97756612D01*
X81326500Y-96680388D01*
X81331065Y-96634032D01*
X81342796Y-96595362D01*
X81361846Y-96559723D01*
X81387483Y-96528483D01*
X81418723Y-96502846D01*
X81454362Y-96483796D01*
X81493032Y-96472065D01*
X81539388Y-96467500D01*
X82190612Y-96467500D01*
X82236968Y-96472065D01*
G37*
G36*
X66043428Y-96489264D02*
G01*
X66064509Y-96495660D01*
X66083945Y-96506048D01*
X66100976Y-96520024D01*
X66114952Y-96537055D01*
X66125340Y-96556491D01*
X66131736Y-96577572D01*
X66134500Y-96605640D01*
X66134500Y-97069360D01*
X66131736Y-97097428D01*
X66125340Y-97118509D01*
X66114952Y-97137945D01*
X66100976Y-97154976D01*
X66083945Y-97168952D01*
X66064509Y-97179340D01*
X66043428Y-97185736D01*
X66015360Y-97188500D01*
X64101640Y-97188500D01*
X64073572Y-97185736D01*
X64052491Y-97179340D01*
X64033055Y-97168952D01*
X64016024Y-97154976D01*
X64002048Y-97137945D01*
X63991660Y-97118509D01*
X63985264Y-97097428D01*
X63982500Y-97069360D01*
X63982500Y-96605640D01*
X63985264Y-96577572D01*
X63991660Y-96556491D01*
X64002048Y-96537055D01*
X64016024Y-96520024D01*
X64033055Y-96506048D01*
X64052491Y-96495660D01*
X64073572Y-96489264D01*
X64101640Y-96486500D01*
X66015360Y-96486500D01*
X66043428Y-96489264D01*
G37*
G36*
X75343428Y-96489264D02*
G01*
X75364509Y-96495660D01*
X75383945Y-96506048D01*
X75400976Y-96520024D01*
X75414952Y-96537055D01*
X75425340Y-96556491D01*
X75431736Y-96577572D01*
X75434500Y-96605640D01*
X75434500Y-97069360D01*
X75431736Y-97097428D01*
X75425340Y-97118509D01*
X75414952Y-97137945D01*
X75400976Y-97154976D01*
X75383945Y-97168952D01*
X75364509Y-97179340D01*
X75343428Y-97185736D01*
X75315360Y-97188500D01*
X73401640Y-97188500D01*
X73373572Y-97185736D01*
X73352491Y-97179340D01*
X73333055Y-97168952D01*
X73316024Y-97154976D01*
X73302048Y-97137945D01*
X73291660Y-97118509D01*
X73285264Y-97097428D01*
X73282500Y-97069360D01*
X73282500Y-96605640D01*
X73285264Y-96577572D01*
X73291660Y-96556491D01*
X73302048Y-96537055D01*
X73316024Y-96520024D01*
X73333055Y-96506048D01*
X73352491Y-96495660D01*
X73373572Y-96489264D01*
X73401640Y-96486500D01*
X75315360Y-96486500D01*
X75343428Y-96489264D01*
G37*
G36*
X86055468Y-95986065D02*
G01*
X86094138Y-95997796D01*
X86129777Y-96016846D01*
X86161017Y-96042483D01*
X86186654Y-96073723D01*
X86205704Y-96109362D01*
X86217435Y-96148032D01*
X86222000Y-96194388D01*
X86222000Y-96845612D01*
X86217435Y-96891968D01*
X86205704Y-96930638D01*
X86186654Y-96966277D01*
X86161017Y-96997517D01*
X86129777Y-97023154D01*
X86094138Y-97042204D01*
X86055468Y-97053935D01*
X86009112Y-97058500D01*
X84932888Y-97058500D01*
X84886532Y-97053935D01*
X84847862Y-97042204D01*
X84812223Y-97023154D01*
X84780983Y-96997517D01*
X84755346Y-96966277D01*
X84736296Y-96930638D01*
X84724565Y-96891968D01*
X84720000Y-96845612D01*
X84720000Y-96194388D01*
X84724565Y-96148032D01*
X84736296Y-96109362D01*
X84755346Y-96073723D01*
X84780983Y-96042483D01*
X84812223Y-96016846D01*
X84847862Y-95997796D01*
X84886532Y-95986065D01*
X84932888Y-95981500D01*
X86009112Y-95981500D01*
X86055468Y-95986065D01*
G37*
G36*
X88468468Y-95986065D02*
G01*
X88507138Y-95997796D01*
X88542777Y-96016846D01*
X88574017Y-96042483D01*
X88599654Y-96073723D01*
X88618704Y-96109362D01*
X88630435Y-96148032D01*
X88635000Y-96194388D01*
X88635000Y-96845612D01*
X88630435Y-96891968D01*
X88618704Y-96930638D01*
X88599654Y-96966277D01*
X88574017Y-96997517D01*
X88542777Y-97023154D01*
X88507138Y-97042204D01*
X88468468Y-97053935D01*
X88422112Y-97058500D01*
X87345888Y-97058500D01*
X87299532Y-97053935D01*
X87260862Y-97042204D01*
X87225223Y-97023154D01*
X87193983Y-96997517D01*
X87168346Y-96966277D01*
X87149296Y-96930638D01*
X87137565Y-96891968D01*
X87133000Y-96845612D01*
X87133000Y-96194388D01*
X87137565Y-96148032D01*
X87149296Y-96109362D01*
X87168346Y-96073723D01*
X87193983Y-96042483D01*
X87225223Y-96016846D01*
X87260862Y-95997796D01*
X87299532Y-95986065D01*
X87345888Y-95981500D01*
X88422112Y-95981500D01*
X88468468Y-95986065D01*
G37*
G36*
X61734968Y-95384565D02*
G01*
X61773638Y-95396296D01*
X61809277Y-95415346D01*
X61840517Y-95440983D01*
X61866154Y-95472223D01*
X61885204Y-95507862D01*
X61896935Y-95546532D01*
X61901500Y-95592888D01*
X61901500Y-96244112D01*
X61896935Y-96290468D01*
X61885204Y-96329138D01*
X61866154Y-96364777D01*
X61840517Y-96396017D01*
X61809277Y-96421654D01*
X61773638Y-96440704D01*
X61734968Y-96452435D01*
X61688612Y-96457000D01*
X60612388Y-96457000D01*
X60566032Y-96452435D01*
X60527362Y-96440704D01*
X60491723Y-96421654D01*
X60460483Y-96396017D01*
X60434846Y-96364777D01*
X60415796Y-96329138D01*
X60404065Y-96290468D01*
X60399500Y-96244112D01*
X60399500Y-95592888D01*
X60404065Y-95546532D01*
X60415796Y-95507862D01*
X60434846Y-95472223D01*
X60460483Y-95440983D01*
X60491723Y-95415346D01*
X60527362Y-95396296D01*
X60566032Y-95384565D01*
X60612388Y-95380000D01*
X61688612Y-95380000D01*
X61734968Y-95384565D01*
G37*
G36*
X103073468Y-95257565D02*
G01*
X103112138Y-95269296D01*
X103147777Y-95288346D01*
X103179017Y-95313983D01*
X103204654Y-95345223D01*
X103223704Y-95380862D01*
X103235435Y-95419532D01*
X103240000Y-95465888D01*
X103240000Y-96117112D01*
X103235435Y-96163468D01*
X103223704Y-96202138D01*
X103204654Y-96237777D01*
X103179017Y-96269017D01*
X103147777Y-96294654D01*
X103112138Y-96313704D01*
X103073468Y-96325435D01*
X103027112Y-96330000D01*
X101950888Y-96330000D01*
X101904532Y-96325435D01*
X101865862Y-96313704D01*
X101830223Y-96294654D01*
X101798983Y-96269017D01*
X101773346Y-96237777D01*
X101754296Y-96202138D01*
X101742565Y-96163468D01*
X101738000Y-96117112D01*
X101738000Y-95465888D01*
X101742565Y-95419532D01*
X101754296Y-95380862D01*
X101773346Y-95345223D01*
X101798983Y-95313983D01*
X101830223Y-95288346D01*
X101865862Y-95269296D01*
X101904532Y-95257565D01*
X101950888Y-95253000D01*
X103027112Y-95253000D01*
X103073468Y-95257565D01*
G37*
G36*
X111645968Y-95097065D02*
G01*
X111684638Y-95108796D01*
X111720277Y-95127846D01*
X111751517Y-95153483D01*
X111777154Y-95184723D01*
X111796204Y-95220362D01*
X111807935Y-95259032D01*
X111812500Y-95305388D01*
X111812500Y-95956612D01*
X111807935Y-96002968D01*
X111796204Y-96041638D01*
X111777154Y-96077277D01*
X111751517Y-96108517D01*
X111720277Y-96134154D01*
X111684638Y-96153204D01*
X111645968Y-96164935D01*
X111599612Y-96169500D01*
X110523388Y-96169500D01*
X110477032Y-96164935D01*
X110438362Y-96153204D01*
X110402723Y-96134154D01*
X110371483Y-96108517D01*
X110345846Y-96077277D01*
X110326796Y-96041638D01*
X110315065Y-96002968D01*
X110310500Y-95956612D01*
X110310500Y-95305388D01*
X110315065Y-95259032D01*
X110326796Y-95220362D01*
X110345846Y-95184723D01*
X110371483Y-95153483D01*
X110402723Y-95127846D01*
X110438362Y-95108796D01*
X110477032Y-95097065D01*
X110523388Y-95092500D01*
X111599612Y-95092500D01*
X111645968Y-95097065D01*
G37*
G36*
X109105968Y-95097065D02*
G01*
X109144638Y-95108796D01*
X109180277Y-95127846D01*
X109211517Y-95153483D01*
X109237154Y-95184723D01*
X109256204Y-95220362D01*
X109267935Y-95259032D01*
X109272500Y-95305388D01*
X109272500Y-95956612D01*
X109267935Y-96002968D01*
X109256204Y-96041638D01*
X109237154Y-96077277D01*
X109211517Y-96108517D01*
X109180277Y-96134154D01*
X109144638Y-96153204D01*
X109105968Y-96164935D01*
X109059612Y-96169500D01*
X107983388Y-96169500D01*
X107937032Y-96164935D01*
X107898362Y-96153204D01*
X107862723Y-96134154D01*
X107831483Y-96108517D01*
X107805846Y-96077277D01*
X107786796Y-96041638D01*
X107775065Y-96002968D01*
X107770500Y-95956612D01*
X107770500Y-95305388D01*
X107775065Y-95259032D01*
X107786796Y-95220362D01*
X107805846Y-95184723D01*
X107831483Y-95153483D01*
X107862723Y-95127846D01*
X107898362Y-95108796D01*
X107937032Y-95097065D01*
X107983388Y-95092500D01*
X109059612Y-95092500D01*
X109105968Y-95097065D01*
G37*
G36*
X75343428Y-95219264D02*
G01*
X75364509Y-95225660D01*
X75383945Y-95236048D01*
X75400976Y-95250024D01*
X75414952Y-95267055D01*
X75425340Y-95286491D01*
X75431736Y-95307572D01*
X75434500Y-95335640D01*
X75434500Y-95799360D01*
X75431736Y-95827428D01*
X75425340Y-95848509D01*
X75414952Y-95867945D01*
X75400976Y-95884976D01*
X75383945Y-95898952D01*
X75364509Y-95909340D01*
X75343428Y-95915736D01*
X75315360Y-95918500D01*
X73401640Y-95918500D01*
X73373572Y-95915736D01*
X73352491Y-95909340D01*
X73333055Y-95898952D01*
X73316024Y-95884976D01*
X73302048Y-95867945D01*
X73291660Y-95848509D01*
X73285264Y-95827428D01*
X73282500Y-95799360D01*
X73282500Y-95335640D01*
X73285264Y-95307572D01*
X73291660Y-95286491D01*
X73302048Y-95267055D01*
X73316024Y-95250024D01*
X73333055Y-95236048D01*
X73352491Y-95225660D01*
X73373572Y-95219264D01*
X73401640Y-95216500D01*
X75315360Y-95216500D01*
X75343428Y-95219264D01*
G37*
G36*
X66043428Y-95219264D02*
G01*
X66064509Y-95225660D01*
X66083945Y-95236048D01*
X66100976Y-95250024D01*
X66114952Y-95267055D01*
X66125340Y-95286491D01*
X66131736Y-95307572D01*
X66134500Y-95335640D01*
X66134500Y-95799360D01*
X66131736Y-95827428D01*
X66125340Y-95848509D01*
X66114952Y-95867945D01*
X66100976Y-95884976D01*
X66083945Y-95898952D01*
X66064509Y-95909340D01*
X66043428Y-95915736D01*
X66015360Y-95918500D01*
X64101640Y-95918500D01*
X64073572Y-95915736D01*
X64052491Y-95909340D01*
X64033055Y-95898952D01*
X64016024Y-95884976D01*
X64002048Y-95867945D01*
X63991660Y-95848509D01*
X63985264Y-95827428D01*
X63982500Y-95799360D01*
X63982500Y-95335640D01*
X63985264Y-95307572D01*
X63991660Y-95286491D01*
X64002048Y-95267055D01*
X64016024Y-95250024D01*
X64033055Y-95236048D01*
X64052491Y-95225660D01*
X64073572Y-95219264D01*
X64101640Y-95216500D01*
X66015360Y-95216500D01*
X66043428Y-95219264D01*
G37*
G36*
X97796604Y-94451347D02*
G01*
X97833144Y-94462432D01*
X97866821Y-94480433D01*
X97896341Y-94504659D01*
X97920567Y-94534179D01*
X97938568Y-94567856D01*
X97949653Y-94604396D01*
X97954000Y-94648538D01*
X97954000Y-95597462D01*
X97949653Y-95641604D01*
X97938568Y-95678144D01*
X97920567Y-95711821D01*
X97896341Y-95741341D01*
X97866821Y-95765567D01*
X97833144Y-95783568D01*
X97796604Y-95794653D01*
X97752462Y-95799000D01*
X96303538Y-95799000D01*
X96259396Y-95794653D01*
X96222856Y-95783568D01*
X96189179Y-95765567D01*
X96159659Y-95741341D01*
X96135433Y-95711821D01*
X96117432Y-95678144D01*
X96106347Y-95641604D01*
X96102000Y-95597462D01*
X96102000Y-94648538D01*
X96106347Y-94604396D01*
X96117432Y-94567856D01*
X96135433Y-94534179D01*
X96159659Y-94504659D01*
X96189179Y-94480433D01*
X96222856Y-94462432D01*
X96259396Y-94451347D01*
X96303538Y-94447000D01*
X97752462Y-94447000D01*
X97796604Y-94451347D01*
G37*
G36*
X66043428Y-93949264D02*
G01*
X66064509Y-93955660D01*
X66083945Y-93966048D01*
X66100976Y-93980024D01*
X66114952Y-93997055D01*
X66125340Y-94016491D01*
X66131736Y-94037572D01*
X66134500Y-94065640D01*
X66134500Y-94529360D01*
X66131736Y-94557428D01*
X66125340Y-94578509D01*
X66114952Y-94597945D01*
X66100976Y-94614976D01*
X66083945Y-94628952D01*
X66064509Y-94639340D01*
X66043428Y-94645736D01*
X66015360Y-94648500D01*
X64101640Y-94648500D01*
X64073572Y-94645736D01*
X64052491Y-94639340D01*
X64033055Y-94628952D01*
X64016024Y-94614976D01*
X64002048Y-94597945D01*
X63991660Y-94578509D01*
X63985264Y-94557428D01*
X63982500Y-94529360D01*
X63982500Y-94065640D01*
X63985264Y-94037572D01*
X63991660Y-94016491D01*
X64002048Y-93997055D01*
X64016024Y-93980024D01*
X64033055Y-93966048D01*
X64052491Y-93955660D01*
X64073572Y-93949264D01*
X64101640Y-93946500D01*
X66015360Y-93946500D01*
X66043428Y-93949264D01*
G37*
G36*
X75343428Y-93949264D02*
G01*
X75364509Y-93955660D01*
X75383945Y-93966048D01*
X75400976Y-93980024D01*
X75414952Y-93997055D01*
X75425340Y-94016491D01*
X75431736Y-94037572D01*
X75434500Y-94065640D01*
X75434500Y-94529360D01*
X75431736Y-94557428D01*
X75425340Y-94578509D01*
X75414952Y-94597945D01*
X75400976Y-94614976D01*
X75383945Y-94628952D01*
X75364509Y-94639340D01*
X75343428Y-94645736D01*
X75315360Y-94648500D01*
X73401640Y-94648500D01*
X73373572Y-94645736D01*
X73352491Y-94639340D01*
X73333055Y-94628952D01*
X73316024Y-94614976D01*
X73302048Y-94597945D01*
X73291660Y-94578509D01*
X73285264Y-94557428D01*
X73282500Y-94529360D01*
X73282500Y-94065640D01*
X73285264Y-94037572D01*
X73291660Y-94016491D01*
X73302048Y-93997055D01*
X73316024Y-93980024D01*
X73333055Y-93966048D01*
X73352491Y-93955660D01*
X73373572Y-93949264D01*
X73401640Y-93946500D01*
X75315360Y-93946500D01*
X75343428Y-93949264D01*
G37*
G36*
X61734968Y-93509565D02*
G01*
X61773638Y-93521296D01*
X61809277Y-93540346D01*
X61840517Y-93565983D01*
X61866154Y-93597223D01*
X61885204Y-93632862D01*
X61896935Y-93671532D01*
X61901500Y-93717888D01*
X61901500Y-94369112D01*
X61896935Y-94415468D01*
X61885204Y-94454138D01*
X61866154Y-94489777D01*
X61840517Y-94521017D01*
X61809277Y-94546654D01*
X61773638Y-94565704D01*
X61734968Y-94577435D01*
X61688612Y-94582000D01*
X60612388Y-94582000D01*
X60566032Y-94577435D01*
X60527362Y-94565704D01*
X60491723Y-94546654D01*
X60460483Y-94521017D01*
X60434846Y-94489777D01*
X60415796Y-94454138D01*
X60404065Y-94415468D01*
X60399500Y-94369112D01*
X60399500Y-93717888D01*
X60404065Y-93671532D01*
X60415796Y-93632862D01*
X60434846Y-93597223D01*
X60460483Y-93565983D01*
X60491723Y-93540346D01*
X60527362Y-93521296D01*
X60566032Y-93509565D01*
X60612388Y-93505000D01*
X61688612Y-93505000D01*
X61734968Y-93509565D01*
G37*
G36*
X103073468Y-93382565D02*
G01*
X103112138Y-93394296D01*
X103147777Y-93413346D01*
X103179017Y-93438983D01*
X103204654Y-93470223D01*
X103223704Y-93505862D01*
X103235435Y-93544532D01*
X103240000Y-93590888D01*
X103240000Y-94242112D01*
X103235435Y-94288468D01*
X103223704Y-94327138D01*
X103204654Y-94362777D01*
X103179017Y-94394017D01*
X103147777Y-94419654D01*
X103112138Y-94438704D01*
X103073468Y-94450435D01*
X103027112Y-94455000D01*
X101950888Y-94455000D01*
X101904532Y-94450435D01*
X101865862Y-94438704D01*
X101830223Y-94419654D01*
X101798983Y-94394017D01*
X101773346Y-94362777D01*
X101754296Y-94327138D01*
X101742565Y-94288468D01*
X101738000Y-94242112D01*
X101738000Y-93590888D01*
X101742565Y-93544532D01*
X101754296Y-93505862D01*
X101773346Y-93470223D01*
X101798983Y-93438983D01*
X101830223Y-93413346D01*
X101865862Y-93394296D01*
X101904532Y-93382565D01*
X101950888Y-93378000D01*
X103027112Y-93378000D01*
X103073468Y-93382565D01*
G37*
G36*
X83576604Y-92423347D02*
G01*
X83613144Y-92434432D01*
X83646821Y-92452433D01*
X83676341Y-92476659D01*
X83700567Y-92506179D01*
X83718568Y-92539856D01*
X83729653Y-92576396D01*
X83734000Y-92620538D01*
X83734000Y-94069462D01*
X83729653Y-94113604D01*
X83718568Y-94150144D01*
X83700567Y-94183821D01*
X83676341Y-94213341D01*
X83646821Y-94237567D01*
X83613144Y-94255568D01*
X83576604Y-94266653D01*
X83532462Y-94271000D01*
X82583538Y-94271000D01*
X82539396Y-94266653D01*
X82502856Y-94255568D01*
X82469179Y-94237567D01*
X82439659Y-94213341D01*
X82415433Y-94183821D01*
X82397432Y-94150144D01*
X82386347Y-94113604D01*
X82382000Y-94069462D01*
X82382000Y-92620538D01*
X82386347Y-92576396D01*
X82397432Y-92539856D01*
X82415433Y-92506179D01*
X82439659Y-92476659D01*
X82469179Y-92452433D01*
X82502856Y-92434432D01*
X82539396Y-92423347D01*
X82583538Y-92419000D01*
X83532462Y-92419000D01*
X83576604Y-92423347D01*
G37*
G36*
X80776604Y-92423347D02*
G01*
X80813144Y-92434432D01*
X80846821Y-92452433D01*
X80876341Y-92476659D01*
X80900567Y-92506179D01*
X80918568Y-92539856D01*
X80929653Y-92576396D01*
X80934000Y-92620538D01*
X80934000Y-94069462D01*
X80929653Y-94113604D01*
X80918568Y-94150144D01*
X80900567Y-94183821D01*
X80876341Y-94213341D01*
X80846821Y-94237567D01*
X80813144Y-94255568D01*
X80776604Y-94266653D01*
X80732462Y-94271000D01*
X79783538Y-94271000D01*
X79739396Y-94266653D01*
X79702856Y-94255568D01*
X79669179Y-94237567D01*
X79639659Y-94213341D01*
X79615433Y-94183821D01*
X79597432Y-94150144D01*
X79586347Y-94113604D01*
X79582000Y-94069462D01*
X79582000Y-92620538D01*
X79586347Y-92576396D01*
X79597432Y-92539856D01*
X79615433Y-92506179D01*
X79639659Y-92476659D01*
X79669179Y-92452433D01*
X79702856Y-92434432D01*
X79739396Y-92423347D01*
X79783538Y-92419000D01*
X80732462Y-92419000D01*
X80776604Y-92423347D01*
G37*
G36*
X75343428Y-92679264D02*
G01*
X75364509Y-92685660D01*
X75383945Y-92696048D01*
X75400976Y-92710024D01*
X75414952Y-92727055D01*
X75425340Y-92746491D01*
X75431736Y-92767572D01*
X75434500Y-92795640D01*
X75434500Y-93259360D01*
X75431736Y-93287428D01*
X75425340Y-93308509D01*
X75414952Y-93327945D01*
X75400976Y-93344976D01*
X75383945Y-93358952D01*
X75364509Y-93369340D01*
X75343428Y-93375736D01*
X75315360Y-93378500D01*
X73401640Y-93378500D01*
X73373572Y-93375736D01*
X73352491Y-93369340D01*
X73333055Y-93358952D01*
X73316024Y-93344976D01*
X73302048Y-93327945D01*
X73291660Y-93308509D01*
X73285264Y-93287428D01*
X73282500Y-93259360D01*
X73282500Y-92795640D01*
X73285264Y-92767572D01*
X73291660Y-92746491D01*
X73302048Y-92727055D01*
X73316024Y-92710024D01*
X73333055Y-92696048D01*
X73352491Y-92685660D01*
X73373572Y-92679264D01*
X73401640Y-92676500D01*
X75315360Y-92676500D01*
X75343428Y-92679264D01*
G37*
G36*
X66043428Y-92679264D02*
G01*
X66064509Y-92685660D01*
X66083945Y-92696048D01*
X66100976Y-92710024D01*
X66114952Y-92727055D01*
X66125340Y-92746491D01*
X66131736Y-92767572D01*
X66134500Y-92795640D01*
X66134500Y-93259360D01*
X66131736Y-93287428D01*
X66125340Y-93308509D01*
X66114952Y-93327945D01*
X66100976Y-93344976D01*
X66083945Y-93358952D01*
X66064509Y-93369340D01*
X66043428Y-93375736D01*
X66015360Y-93378500D01*
X64101640Y-93378500D01*
X64073572Y-93375736D01*
X64052491Y-93369340D01*
X64033055Y-93358952D01*
X64016024Y-93344976D01*
X64002048Y-93327945D01*
X63991660Y-93308509D01*
X63985264Y-93287428D01*
X63982500Y-93259360D01*
X63982500Y-92795640D01*
X63985264Y-92767572D01*
X63991660Y-92746491D01*
X64002048Y-92727055D01*
X64016024Y-92710024D01*
X64033055Y-92696048D01*
X64052491Y-92685660D01*
X64073572Y-92679264D01*
X64101640Y-92676500D01*
X66015360Y-92676500D01*
X66043428Y-92679264D01*
G37*
G36*
X97796604Y-91651347D02*
G01*
X97833144Y-91662432D01*
X97866821Y-91680433D01*
X97896341Y-91704659D01*
X97920567Y-91734179D01*
X97938568Y-91767856D01*
X97949653Y-91804396D01*
X97954000Y-91848538D01*
X97954000Y-92797462D01*
X97949653Y-92841604D01*
X97938568Y-92878144D01*
X97920567Y-92911821D01*
X97896341Y-92941341D01*
X97866821Y-92965567D01*
X97833144Y-92983568D01*
X97796604Y-92994653D01*
X97752462Y-92999000D01*
X96303538Y-92999000D01*
X96259396Y-92994653D01*
X96222856Y-92983568D01*
X96189179Y-92965567D01*
X96159659Y-92941341D01*
X96135433Y-92911821D01*
X96117432Y-92878144D01*
X96106347Y-92841604D01*
X96102000Y-92797462D01*
X96102000Y-91848538D01*
X96106347Y-91804396D01*
X96117432Y-91767856D01*
X96135433Y-91734179D01*
X96159659Y-91704659D01*
X96189179Y-91680433D01*
X96222856Y-91662432D01*
X96259396Y-91651347D01*
X96303538Y-91647000D01*
X97752462Y-91647000D01*
X97796604Y-91651347D01*
G37*
G36*
X87575355Y-85000083D02*
G01*
X87580029Y-85001501D01*
X87584330Y-85003800D01*
X87590702Y-85009029D01*
X87611076Y-85022643D01*
X87633715Y-85032020D01*
X87657749Y-85036800D01*
X87682253Y-85036800D01*
X87706286Y-85032019D01*
X87728925Y-85022642D01*
X87749298Y-85009029D01*
X87755670Y-85003800D01*
X87759971Y-85001501D01*
X87764645Y-85000083D01*
X87775641Y-84999000D01*
X88064359Y-84999000D01*
X88075355Y-85000083D01*
X88080029Y-85001501D01*
X88084330Y-85003800D01*
X88090702Y-85009029D01*
X88111076Y-85022643D01*
X88133715Y-85032020D01*
X88157749Y-85036800D01*
X88182253Y-85036800D01*
X88206286Y-85032019D01*
X88228925Y-85022642D01*
X88249298Y-85009029D01*
X88255670Y-85003800D01*
X88259971Y-85001501D01*
X88264645Y-85000083D01*
X88275641Y-84999000D01*
X88564359Y-84999000D01*
X88575355Y-85000083D01*
X88580029Y-85001501D01*
X88584330Y-85003800D01*
X88590702Y-85009029D01*
X88611076Y-85022643D01*
X88633715Y-85032020D01*
X88657749Y-85036800D01*
X88682253Y-85036800D01*
X88706286Y-85032019D01*
X88728925Y-85022642D01*
X88749298Y-85009029D01*
X88755670Y-85003800D01*
X88759971Y-85001501D01*
X88764645Y-85000083D01*
X88775641Y-84999000D01*
X89064359Y-84999000D01*
X89075355Y-85000083D01*
X89080029Y-85001501D01*
X89084330Y-85003800D01*
X89090702Y-85009029D01*
X89111076Y-85022643D01*
X89133715Y-85032020D01*
X89157749Y-85036800D01*
X89182253Y-85036800D01*
X89206286Y-85032019D01*
X89228925Y-85022642D01*
X89249298Y-85009029D01*
X89255670Y-85003800D01*
X89259971Y-85001501D01*
X89264645Y-85000083D01*
X89275641Y-84999000D01*
X89564359Y-84999000D01*
X89575355Y-85000083D01*
X89580029Y-85001501D01*
X89584330Y-85003800D01*
X89590702Y-85009029D01*
X89611076Y-85022643D01*
X89633715Y-85032020D01*
X89657749Y-85036800D01*
X89682253Y-85036800D01*
X89706286Y-85032019D01*
X89728925Y-85022642D01*
X89749298Y-85009029D01*
X89755670Y-85003800D01*
X89759971Y-85001501D01*
X89764645Y-85000083D01*
X89775641Y-84999000D01*
X90064359Y-84999000D01*
X90075355Y-85000083D01*
X90080029Y-85001501D01*
X90084330Y-85003800D01*
X90090702Y-85009029D01*
X90111076Y-85022643D01*
X90133715Y-85032020D01*
X90157749Y-85036800D01*
X90182253Y-85036800D01*
X90206286Y-85032019D01*
X90228925Y-85022642D01*
X90249298Y-85009029D01*
X90255670Y-85003800D01*
X90259971Y-85001501D01*
X90264645Y-85000083D01*
X90275641Y-84999000D01*
X90564359Y-84999000D01*
X90575355Y-85000083D01*
X90580029Y-85001501D01*
X90584330Y-85003800D01*
X90590702Y-85009029D01*
X90611076Y-85022643D01*
X90633715Y-85032020D01*
X90657749Y-85036800D01*
X90682253Y-85036800D01*
X90706286Y-85032019D01*
X90728925Y-85022642D01*
X90749298Y-85009029D01*
X90755670Y-85003800D01*
X90759971Y-85001501D01*
X90764645Y-85000083D01*
X90775641Y-84999000D01*
X91064359Y-84999000D01*
X91075355Y-85000083D01*
X91080029Y-85001501D01*
X91084330Y-85003800D01*
X91090702Y-85009029D01*
X91111076Y-85022643D01*
X91133715Y-85032020D01*
X91157749Y-85036800D01*
X91182253Y-85036800D01*
X91206286Y-85032019D01*
X91228925Y-85022642D01*
X91249298Y-85009029D01*
X91255670Y-85003800D01*
X91259971Y-85001501D01*
X91264645Y-85000083D01*
X91275641Y-84999000D01*
X91564359Y-84999000D01*
X91575355Y-85000083D01*
X91580029Y-85001501D01*
X91584330Y-85003800D01*
X91590702Y-85009029D01*
X91611076Y-85022643D01*
X91633715Y-85032020D01*
X91657749Y-85036800D01*
X91682253Y-85036800D01*
X91706286Y-85032019D01*
X91728925Y-85022642D01*
X91749298Y-85009029D01*
X91755670Y-85003800D01*
X91759971Y-85001501D01*
X91764645Y-85000083D01*
X91775641Y-84999000D01*
X92064359Y-84999000D01*
X92075355Y-85000083D01*
X92080029Y-85001501D01*
X92084330Y-85003800D01*
X92090702Y-85009029D01*
X92111076Y-85022643D01*
X92133715Y-85032020D01*
X92157749Y-85036800D01*
X92182253Y-85036800D01*
X92206286Y-85032019D01*
X92228925Y-85022642D01*
X92249298Y-85009029D01*
X92255670Y-85003800D01*
X92259971Y-85001501D01*
X92264645Y-85000083D01*
X92275641Y-84999000D01*
X92564359Y-84999000D01*
X92575355Y-85000083D01*
X92580029Y-85001501D01*
X92584330Y-85003800D01*
X92590702Y-85009029D01*
X92611076Y-85022643D01*
X92633715Y-85032020D01*
X92657749Y-85036800D01*
X92682253Y-85036800D01*
X92706286Y-85032019D01*
X92728925Y-85022642D01*
X92749298Y-85009029D01*
X92755670Y-85003800D01*
X92759971Y-85001501D01*
X92764645Y-85000083D01*
X92775641Y-84999000D01*
X93064359Y-84999000D01*
X93075355Y-85000083D01*
X93080029Y-85001501D01*
X93084331Y-85003800D01*
X93088104Y-85006896D01*
X93091200Y-85010669D01*
X93093499Y-85014971D01*
X93094917Y-85019645D01*
X93096000Y-85030641D01*
X93096000Y-85849001D01*
X93098402Y-85873387D01*
X93105515Y-85896836D01*
X93117066Y-85918447D01*
X93132611Y-85937389D01*
X93151553Y-85952934D01*
X93173164Y-85964485D01*
X93196613Y-85971598D01*
X93220999Y-85974000D01*
X94039359Y-85974000D01*
X94050355Y-85975083D01*
X94055029Y-85976501D01*
X94059331Y-85978800D01*
X94063104Y-85981896D01*
X94066200Y-85985669D01*
X94068499Y-85989971D01*
X94069917Y-85994645D01*
X94071000Y-86005641D01*
X94071000Y-86294359D01*
X94069917Y-86305355D01*
X94068499Y-86310029D01*
X94066200Y-86314330D01*
X94060971Y-86320702D01*
X94047357Y-86341076D01*
X94037980Y-86363715D01*
X94033200Y-86387749D01*
X94033200Y-86412253D01*
X94037981Y-86436286D01*
X94047358Y-86458925D01*
X94060971Y-86479298D01*
X94066200Y-86485670D01*
X94068499Y-86489971D01*
X94069917Y-86494645D01*
X94071000Y-86505641D01*
X94071000Y-86794359D01*
X94069917Y-86805355D01*
X94068499Y-86810029D01*
X94066200Y-86814330D01*
X94060971Y-86820702D01*
X94047357Y-86841076D01*
X94037980Y-86863715D01*
X94033200Y-86887749D01*
X94033200Y-86912253D01*
X94037981Y-86936286D01*
X94047358Y-86958925D01*
X94060971Y-86979298D01*
X94066200Y-86985670D01*
X94068499Y-86989971D01*
X94069917Y-86994645D01*
X94071000Y-87005641D01*
X94071000Y-87294359D01*
X94069917Y-87305355D01*
X94068499Y-87310029D01*
X94066200Y-87314330D01*
X94060971Y-87320702D01*
X94047357Y-87341076D01*
X94037980Y-87363715D01*
X94033200Y-87387749D01*
X94033200Y-87412253D01*
X94037981Y-87436286D01*
X94047358Y-87458925D01*
X94060971Y-87479298D01*
X94066200Y-87485670D01*
X94068499Y-87489971D01*
X94069917Y-87494645D01*
X94071000Y-87505641D01*
X94071000Y-87794359D01*
X94069917Y-87805355D01*
X94068499Y-87810029D01*
X94066200Y-87814330D01*
X94060971Y-87820702D01*
X94047357Y-87841076D01*
X94037980Y-87863715D01*
X94033200Y-87887749D01*
X94033200Y-87912253D01*
X94037981Y-87936286D01*
X94047358Y-87958925D01*
X94060971Y-87979298D01*
X94066200Y-87985670D01*
X94068499Y-87989971D01*
X94069917Y-87994645D01*
X94071000Y-88005641D01*
X94071000Y-88294359D01*
X94069917Y-88305355D01*
X94068499Y-88310029D01*
X94066200Y-88314330D01*
X94060971Y-88320702D01*
X94047357Y-88341076D01*
X94037980Y-88363715D01*
X94033200Y-88387749D01*
X94033200Y-88412253D01*
X94037981Y-88436286D01*
X94047358Y-88458925D01*
X94060971Y-88479298D01*
X94066200Y-88485670D01*
X94068499Y-88489971D01*
X94069917Y-88494645D01*
X94071000Y-88505641D01*
X94071000Y-88794359D01*
X94069917Y-88805355D01*
X94068499Y-88810029D01*
X94066200Y-88814330D01*
X94060971Y-88820702D01*
X94047357Y-88841076D01*
X94037980Y-88863715D01*
X94033200Y-88887749D01*
X94033200Y-88912253D01*
X94037981Y-88936286D01*
X94047358Y-88958925D01*
X94060971Y-88979298D01*
X94066200Y-88985670D01*
X94068499Y-88989971D01*
X94069917Y-88994645D01*
X94071000Y-89005641D01*
X94071000Y-89294359D01*
X94069917Y-89305355D01*
X94068499Y-89310029D01*
X94066200Y-89314330D01*
X94060971Y-89320702D01*
X94047357Y-89341076D01*
X94037980Y-89363715D01*
X94033200Y-89387749D01*
X94033200Y-89412253D01*
X94037981Y-89436286D01*
X94047358Y-89458925D01*
X94060971Y-89479298D01*
X94066200Y-89485670D01*
X94068499Y-89489971D01*
X94069917Y-89494645D01*
X94071000Y-89505641D01*
X94071000Y-89794359D01*
X94069917Y-89805355D01*
X94068499Y-89810029D01*
X94066200Y-89814330D01*
X94060971Y-89820702D01*
X94047357Y-89841076D01*
X94037980Y-89863715D01*
X94033200Y-89887749D01*
X94033200Y-89912253D01*
X94037981Y-89936286D01*
X94047358Y-89958925D01*
X94060971Y-89979298D01*
X94066200Y-89985670D01*
X94068499Y-89989971D01*
X94069917Y-89994645D01*
X94071000Y-90005641D01*
X94071000Y-90294359D01*
X94069917Y-90305355D01*
X94068499Y-90310029D01*
X94066200Y-90314330D01*
X94060971Y-90320702D01*
X94047357Y-90341076D01*
X94037980Y-90363715D01*
X94033200Y-90387749D01*
X94033200Y-90412253D01*
X94037981Y-90436286D01*
X94047358Y-90458925D01*
X94060971Y-90479298D01*
X94066200Y-90485670D01*
X94068499Y-90489971D01*
X94069917Y-90494645D01*
X94071000Y-90505641D01*
X94071000Y-90794359D01*
X94069917Y-90805355D01*
X94068499Y-90810029D01*
X94066200Y-90814330D01*
X94060971Y-90820702D01*
X94047357Y-90841076D01*
X94037980Y-90863715D01*
X94033200Y-90887749D01*
X94033200Y-90912253D01*
X94037981Y-90936286D01*
X94047358Y-90958925D01*
X94060971Y-90979298D01*
X94066200Y-90985670D01*
X94068499Y-90989971D01*
X94069917Y-90994645D01*
X94071000Y-91005641D01*
X94071000Y-91294359D01*
X94069917Y-91305355D01*
X94068499Y-91310029D01*
X94066200Y-91314330D01*
X94060971Y-91320702D01*
X94047357Y-91341076D01*
X94037980Y-91363715D01*
X94033200Y-91387749D01*
X94033200Y-91412253D01*
X94037981Y-91436286D01*
X94047358Y-91458925D01*
X94060971Y-91479298D01*
X94066200Y-91485670D01*
X94068499Y-91489971D01*
X94069917Y-91494645D01*
X94071000Y-91505641D01*
X94071000Y-91794359D01*
X94069917Y-91805355D01*
X94068499Y-91810029D01*
X94066200Y-91814331D01*
X94063104Y-91818104D01*
X94059331Y-91821200D01*
X94055029Y-91823499D01*
X94050355Y-91824917D01*
X94039359Y-91826000D01*
X93220999Y-91826000D01*
X93196613Y-91828402D01*
X93173164Y-91835515D01*
X93151553Y-91847066D01*
X93132611Y-91862611D01*
X93117066Y-91881553D01*
X93105515Y-91903164D01*
X93098402Y-91926613D01*
X93096000Y-91950999D01*
X93096000Y-92769359D01*
X93094917Y-92780355D01*
X93093499Y-92785029D01*
X93091200Y-92789331D01*
X93088104Y-92793104D01*
X93084331Y-92796200D01*
X93080029Y-92798499D01*
X93075355Y-92799917D01*
X93064359Y-92801000D01*
X92775641Y-92801000D01*
X92764645Y-92799917D01*
X92759971Y-92798499D01*
X92755670Y-92796200D01*
X92749298Y-92790971D01*
X92728924Y-92777357D01*
X92706285Y-92767980D01*
X92682251Y-92763200D01*
X92657747Y-92763200D01*
X92633714Y-92767981D01*
X92611075Y-92777358D01*
X92590702Y-92790971D01*
X92584330Y-92796200D01*
X92580029Y-92798499D01*
X92575355Y-92799917D01*
X92564359Y-92801000D01*
X92275641Y-92801000D01*
X92264645Y-92799917D01*
X92259971Y-92798499D01*
X92255670Y-92796200D01*
X92249298Y-92790971D01*
X92228924Y-92777357D01*
X92206285Y-92767980D01*
X92182251Y-92763200D01*
X92157747Y-92763200D01*
X92133714Y-92767981D01*
X92111075Y-92777358D01*
X92090702Y-92790971D01*
X92084330Y-92796200D01*
X92080029Y-92798499D01*
X92075355Y-92799917D01*
X92064359Y-92801000D01*
X91775641Y-92801000D01*
X91764645Y-92799917D01*
X91759971Y-92798499D01*
X91755670Y-92796200D01*
X91749298Y-92790971D01*
X91728924Y-92777357D01*
X91706285Y-92767980D01*
X91682251Y-92763200D01*
X91657747Y-92763200D01*
X91633714Y-92767981D01*
X91611075Y-92777358D01*
X91590702Y-92790971D01*
X91584330Y-92796200D01*
X91580029Y-92798499D01*
X91575355Y-92799917D01*
X91564359Y-92801000D01*
X91275641Y-92801000D01*
X91264645Y-92799917D01*
X91259971Y-92798499D01*
X91255670Y-92796200D01*
X91249298Y-92790971D01*
X91228924Y-92777357D01*
X91206285Y-92767980D01*
X91182251Y-92763200D01*
X91157747Y-92763200D01*
X91133714Y-92767981D01*
X91111075Y-92777358D01*
X91090702Y-92790971D01*
X91084330Y-92796200D01*
X91080029Y-92798499D01*
X91075355Y-92799917D01*
X91064359Y-92801000D01*
X90775641Y-92801000D01*
X90764645Y-92799917D01*
X90759971Y-92798499D01*
X90755670Y-92796200D01*
X90749298Y-92790971D01*
X90728924Y-92777357D01*
X90706285Y-92767980D01*
X90682251Y-92763200D01*
X90657747Y-92763200D01*
X90633714Y-92767981D01*
X90611075Y-92777358D01*
X90590702Y-92790971D01*
X90584330Y-92796200D01*
X90580029Y-92798499D01*
X90575355Y-92799917D01*
X90564359Y-92801000D01*
X90275641Y-92801000D01*
X90264645Y-92799917D01*
X90259971Y-92798499D01*
X90255670Y-92796200D01*
X90249298Y-92790971D01*
X90228924Y-92777357D01*
X90206285Y-92767980D01*
X90182251Y-92763200D01*
X90157747Y-92763200D01*
X90133714Y-92767981D01*
X90111075Y-92777358D01*
X90090702Y-92790971D01*
X90084330Y-92796200D01*
X90080029Y-92798499D01*
X90075355Y-92799917D01*
X90064359Y-92801000D01*
X89775641Y-92801000D01*
X89764645Y-92799917D01*
X89759971Y-92798499D01*
X89755670Y-92796200D01*
X89749298Y-92790971D01*
X89728924Y-92777357D01*
X89706285Y-92767980D01*
X89682251Y-92763200D01*
X89657747Y-92763200D01*
X89633714Y-92767981D01*
X89611075Y-92777358D01*
X89590702Y-92790971D01*
X89584330Y-92796200D01*
X89580029Y-92798499D01*
X89575355Y-92799917D01*
X89564359Y-92801000D01*
X89275641Y-92801000D01*
X89264645Y-92799917D01*
X89259971Y-92798499D01*
X89255670Y-92796200D01*
X89249298Y-92790971D01*
X89228924Y-92777357D01*
X89206285Y-92767980D01*
X89182251Y-92763200D01*
X89157747Y-92763200D01*
X89133714Y-92767981D01*
X89111075Y-92777358D01*
X89090702Y-92790971D01*
X89084330Y-92796200D01*
X89080029Y-92798499D01*
X89075355Y-92799917D01*
X89064359Y-92801000D01*
X88775641Y-92801000D01*
X88764645Y-92799917D01*
X88759971Y-92798499D01*
X88755670Y-92796200D01*
X88749298Y-92790971D01*
X88728924Y-92777357D01*
X88706285Y-92767980D01*
X88682251Y-92763200D01*
X88657747Y-92763200D01*
X88633714Y-92767981D01*
X88611075Y-92777358D01*
X88590702Y-92790971D01*
X88584330Y-92796200D01*
X88580029Y-92798499D01*
X88575355Y-92799917D01*
X88564359Y-92801000D01*
X88275641Y-92801000D01*
X88264645Y-92799917D01*
X88259971Y-92798499D01*
X88255670Y-92796200D01*
X88249298Y-92790971D01*
X88228924Y-92777357D01*
X88206285Y-92767980D01*
X88182251Y-92763200D01*
X88157747Y-92763200D01*
X88133714Y-92767981D01*
X88111075Y-92777358D01*
X88090702Y-92790971D01*
X88084330Y-92796200D01*
X88080029Y-92798499D01*
X88075355Y-92799917D01*
X88064359Y-92801000D01*
X87775641Y-92801000D01*
X87764645Y-92799917D01*
X87759971Y-92798499D01*
X87755670Y-92796200D01*
X87749298Y-92790971D01*
X87728924Y-92777357D01*
X87706285Y-92767980D01*
X87682251Y-92763200D01*
X87657747Y-92763200D01*
X87633714Y-92767981D01*
X87611075Y-92777358D01*
X87590702Y-92790971D01*
X87584330Y-92796200D01*
X87580029Y-92798499D01*
X87575355Y-92799917D01*
X87564359Y-92801000D01*
X87275641Y-92801000D01*
X87264645Y-92799917D01*
X87259971Y-92798499D01*
X87255669Y-92796200D01*
X87251896Y-92793104D01*
X87248800Y-92789331D01*
X87246501Y-92785029D01*
X87245083Y-92780355D01*
X87244000Y-92769359D01*
X87244000Y-91950999D01*
X87241598Y-91926613D01*
X87234485Y-91903164D01*
X87222934Y-91881553D01*
X87207389Y-91862611D01*
X87188447Y-91847066D01*
X87166836Y-91835515D01*
X87143387Y-91828402D01*
X87119001Y-91826000D01*
X86300641Y-91826000D01*
X86289645Y-91824917D01*
X86284971Y-91823499D01*
X86280669Y-91821200D01*
X86276896Y-91818104D01*
X86273800Y-91814331D01*
X86271501Y-91810029D01*
X86270083Y-91805355D01*
X86269000Y-91794359D01*
X86269000Y-91505641D01*
X86270083Y-91494645D01*
X86271501Y-91489971D01*
X86273800Y-91485670D01*
X86279029Y-91479298D01*
X86292643Y-91458924D01*
X86302020Y-91436285D01*
X86306800Y-91412251D01*
X86306800Y-91387747D01*
X86302019Y-91363714D01*
X86292642Y-91341075D01*
X86279029Y-91320702D01*
X86273800Y-91314330D01*
X86271501Y-91310029D01*
X86270083Y-91305355D01*
X86269000Y-91294359D01*
X86269000Y-91005641D01*
X86270083Y-90994645D01*
X86271501Y-90989971D01*
X86273800Y-90985670D01*
X86279029Y-90979298D01*
X86292643Y-90958924D01*
X86302020Y-90936285D01*
X86306800Y-90912251D01*
X86306800Y-90887747D01*
X86302019Y-90863714D01*
X86292642Y-90841075D01*
X86279029Y-90820702D01*
X86273800Y-90814330D01*
X86271501Y-90810029D01*
X86270083Y-90805355D01*
X86269000Y-90794359D01*
X86269000Y-90505641D01*
X86270083Y-90494645D01*
X86271501Y-90489971D01*
X86273800Y-90485670D01*
X86279029Y-90479298D01*
X86292643Y-90458924D01*
X86302020Y-90436285D01*
X86306800Y-90412251D01*
X86306800Y-90387747D01*
X86302019Y-90363714D01*
X86292642Y-90341075D01*
X86279029Y-90320702D01*
X86273800Y-90314330D01*
X86271501Y-90310029D01*
X86270083Y-90305355D01*
X86269000Y-90294359D01*
X86269000Y-90005641D01*
X86270083Y-89994645D01*
X86271501Y-89989971D01*
X86273800Y-89985670D01*
X86279029Y-89979298D01*
X86292643Y-89958924D01*
X86302020Y-89936285D01*
X86306800Y-89912251D01*
X86306800Y-89887747D01*
X86302019Y-89863714D01*
X86292642Y-89841075D01*
X86279029Y-89820702D01*
X86273800Y-89814330D01*
X86271501Y-89810029D01*
X86270083Y-89805355D01*
X86269000Y-89794359D01*
X86269000Y-89505641D01*
X86270083Y-89494645D01*
X86271501Y-89489971D01*
X86273800Y-89485670D01*
X86279029Y-89479298D01*
X86292643Y-89458924D01*
X86302020Y-89436285D01*
X86306800Y-89412251D01*
X86306800Y-89387747D01*
X86302019Y-89363714D01*
X86292642Y-89341075D01*
X86279029Y-89320702D01*
X86273800Y-89314330D01*
X86271501Y-89310029D01*
X86270083Y-89305355D01*
X86269000Y-89294359D01*
X86269000Y-89005641D01*
X86270083Y-88994645D01*
X86271501Y-88989971D01*
X86273800Y-88985670D01*
X86279029Y-88979298D01*
X86292643Y-88958924D01*
X86302020Y-88936285D01*
X86306800Y-88912251D01*
X86306800Y-88887747D01*
X86302019Y-88863714D01*
X86292642Y-88841075D01*
X86279029Y-88820702D01*
X86273800Y-88814330D01*
X86271501Y-88810029D01*
X86270083Y-88805355D01*
X86269000Y-88794359D01*
X86269000Y-88505641D01*
X86270083Y-88494645D01*
X86271501Y-88489971D01*
X86273800Y-88485670D01*
X86279029Y-88479298D01*
X86292643Y-88458924D01*
X86302020Y-88436285D01*
X86306800Y-88412251D01*
X86306800Y-88387747D01*
X86302019Y-88363714D01*
X86292642Y-88341075D01*
X86279029Y-88320702D01*
X86273800Y-88314330D01*
X86271501Y-88310029D01*
X86270083Y-88305355D01*
X86269000Y-88294359D01*
X86269000Y-88005641D01*
X86270083Y-87994645D01*
X86271501Y-87989971D01*
X86273800Y-87985670D01*
X86279029Y-87979298D01*
X86292643Y-87958924D01*
X86302020Y-87936285D01*
X86306800Y-87912251D01*
X86306800Y-87887747D01*
X86302019Y-87863714D01*
X86292642Y-87841075D01*
X86279029Y-87820702D01*
X86273800Y-87814330D01*
X86271501Y-87810029D01*
X86270083Y-87805355D01*
X86269000Y-87794359D01*
X86269000Y-87505641D01*
X86270083Y-87494645D01*
X86271501Y-87489971D01*
X86273800Y-87485670D01*
X86279029Y-87479298D01*
X86292643Y-87458924D01*
X86302020Y-87436285D01*
X86306800Y-87412251D01*
X86306800Y-87387747D01*
X86302019Y-87363714D01*
X86292642Y-87341075D01*
X86279029Y-87320702D01*
X86273800Y-87314330D01*
X86271501Y-87310029D01*
X86270083Y-87305355D01*
X86269000Y-87294359D01*
X86269000Y-87005641D01*
X86270083Y-86994645D01*
X86271501Y-86989971D01*
X86273800Y-86985670D01*
X86279029Y-86979298D01*
X86292643Y-86958924D01*
X86302020Y-86936285D01*
X86306800Y-86912251D01*
X86306800Y-86887747D01*
X86302019Y-86863714D01*
X86292642Y-86841075D01*
X86279029Y-86820702D01*
X86273800Y-86814330D01*
X86271501Y-86810029D01*
X86270083Y-86805355D01*
X86269000Y-86794359D01*
X86269000Y-86505641D01*
X86270083Y-86494645D01*
X86271501Y-86489971D01*
X86273800Y-86485670D01*
X86279029Y-86479298D01*
X86292643Y-86458924D01*
X86302020Y-86436285D01*
X86306800Y-86412251D01*
X86306800Y-86387749D01*
X87133200Y-86387749D01*
X87133200Y-86412253D01*
X87137981Y-86436286D01*
X87147358Y-86458925D01*
X87160971Y-86479298D01*
X87166200Y-86485670D01*
X87168499Y-86489971D01*
X87169917Y-86494645D01*
X87171000Y-86505641D01*
X87171000Y-86794359D01*
X87169917Y-86805355D01*
X87168499Y-86810029D01*
X87166200Y-86814330D01*
X87160971Y-86820702D01*
X87147357Y-86841076D01*
X87137980Y-86863715D01*
X87133200Y-86887749D01*
X87133200Y-86912253D01*
X87137981Y-86936286D01*
X87147358Y-86958925D01*
X87160971Y-86979298D01*
X87166200Y-86985670D01*
X87168499Y-86989971D01*
X87169917Y-86994645D01*
X87171000Y-87005641D01*
X87171000Y-87294359D01*
X87169917Y-87305355D01*
X87168499Y-87310029D01*
X87166200Y-87314330D01*
X87160971Y-87320702D01*
X87147357Y-87341076D01*
X87137980Y-87363715D01*
X87133200Y-87387749D01*
X87133200Y-87412253D01*
X87137981Y-87436286D01*
X87147358Y-87458925D01*
X87160971Y-87479298D01*
X87166200Y-87485670D01*
X87168499Y-87489971D01*
X87169917Y-87494645D01*
X87171000Y-87505641D01*
X87171000Y-87794359D01*
X87169917Y-87805355D01*
X87168499Y-87810029D01*
X87166200Y-87814330D01*
X87160971Y-87820702D01*
X87147357Y-87841076D01*
X87137980Y-87863715D01*
X87133200Y-87887749D01*
X87133200Y-87912253D01*
X87137981Y-87936286D01*
X87147358Y-87958925D01*
X87160971Y-87979298D01*
X87166200Y-87985670D01*
X87168499Y-87989971D01*
X87169917Y-87994645D01*
X87171000Y-88005641D01*
X87171000Y-88294359D01*
X87169917Y-88305355D01*
X87168499Y-88310029D01*
X87166200Y-88314330D01*
X87160971Y-88320702D01*
X87147357Y-88341076D01*
X87137980Y-88363715D01*
X87133200Y-88387749D01*
X87133200Y-88412253D01*
X87137981Y-88436286D01*
X87147358Y-88458925D01*
X87160971Y-88479298D01*
X87166200Y-88485670D01*
X87168499Y-88489971D01*
X87169917Y-88494645D01*
X87171000Y-88505641D01*
X87171000Y-88794359D01*
X87169917Y-88805355D01*
X87168499Y-88810029D01*
X87166200Y-88814330D01*
X87160971Y-88820702D01*
X87147357Y-88841076D01*
X87137980Y-88863715D01*
X87133200Y-88887749D01*
X87133200Y-88912253D01*
X87137981Y-88936286D01*
X87147358Y-88958925D01*
X87160971Y-88979298D01*
X87166200Y-88985670D01*
X87168499Y-88989971D01*
X87169917Y-88994645D01*
X87171000Y-89005641D01*
X87171000Y-89294359D01*
X87169917Y-89305355D01*
X87168499Y-89310029D01*
X87166200Y-89314330D01*
X87160971Y-89320702D01*
X87147357Y-89341076D01*
X87137980Y-89363715D01*
X87133200Y-89387749D01*
X87133200Y-89412253D01*
X87137981Y-89436286D01*
X87147358Y-89458925D01*
X87160971Y-89479298D01*
X87166200Y-89485670D01*
X87168499Y-89489971D01*
X87169917Y-89494645D01*
X87171000Y-89505641D01*
X87171000Y-89794359D01*
X87169917Y-89805355D01*
X87168499Y-89810029D01*
X87166200Y-89814330D01*
X87160971Y-89820702D01*
X87147357Y-89841076D01*
X87137980Y-89863715D01*
X87133200Y-89887749D01*
X87133200Y-89912253D01*
X87137981Y-89936286D01*
X87147358Y-89958925D01*
X87160971Y-89979298D01*
X87166200Y-89985670D01*
X87168499Y-89989971D01*
X87169917Y-89994645D01*
X87171000Y-90005641D01*
X87171000Y-90294359D01*
X87169917Y-90305355D01*
X87168499Y-90310029D01*
X87166200Y-90314330D01*
X87160971Y-90320702D01*
X87147357Y-90341076D01*
X87137980Y-90363715D01*
X87133200Y-90387749D01*
X87133200Y-90412253D01*
X87137981Y-90436286D01*
X87147358Y-90458925D01*
X87160971Y-90479298D01*
X87166200Y-90485670D01*
X87168499Y-90489971D01*
X87169917Y-90494645D01*
X87171000Y-90505641D01*
X87171000Y-90794359D01*
X87169917Y-90805355D01*
X87168499Y-90810029D01*
X87166200Y-90814330D01*
X87160971Y-90820702D01*
X87147357Y-90841076D01*
X87137980Y-90863715D01*
X87133200Y-90887749D01*
X87133200Y-90912253D01*
X87137981Y-90936286D01*
X87147358Y-90958925D01*
X87160971Y-90979298D01*
X87166200Y-90985670D01*
X87168499Y-90989971D01*
X87169917Y-90994645D01*
X87171000Y-91005641D01*
X87171000Y-91294359D01*
X87169917Y-91305355D01*
X87168499Y-91310029D01*
X87166200Y-91314330D01*
X87160971Y-91320702D01*
X87147357Y-91341076D01*
X87137980Y-91363715D01*
X87133200Y-91387749D01*
X87133200Y-91412253D01*
X87137981Y-91436286D01*
X87147358Y-91458925D01*
X87160971Y-91479298D01*
X87166200Y-91485670D01*
X87168499Y-91489971D01*
X87169917Y-91494645D01*
X87171000Y-91505641D01*
X87171000Y-91774001D01*
X87173402Y-91798387D01*
X87180515Y-91821836D01*
X87192066Y-91843447D01*
X87207611Y-91862389D01*
X87226553Y-91877934D01*
X87248164Y-91889485D01*
X87271613Y-91896598D01*
X87295999Y-91899000D01*
X87564359Y-91899000D01*
X87575355Y-91900083D01*
X87580029Y-91901501D01*
X87584330Y-91903800D01*
X87590702Y-91909029D01*
X87611076Y-91922643D01*
X87633715Y-91932020D01*
X87657749Y-91936800D01*
X87682253Y-91936800D01*
X87706286Y-91932019D01*
X87728925Y-91922642D01*
X87749298Y-91909029D01*
X87755670Y-91903800D01*
X87759971Y-91901501D01*
X87764645Y-91900083D01*
X87775641Y-91899000D01*
X88064359Y-91899000D01*
X88075355Y-91900083D01*
X88080029Y-91901501D01*
X88084330Y-91903800D01*
X88090702Y-91909029D01*
X88111076Y-91922643D01*
X88133715Y-91932020D01*
X88157749Y-91936800D01*
X88182253Y-91936800D01*
X88206286Y-91932019D01*
X88228925Y-91922642D01*
X88249298Y-91909029D01*
X88255670Y-91903800D01*
X88259971Y-91901501D01*
X88264645Y-91900083D01*
X88275641Y-91899000D01*
X88564359Y-91899000D01*
X88575355Y-91900083D01*
X88580029Y-91901501D01*
X88584330Y-91903800D01*
X88590702Y-91909029D01*
X88611076Y-91922643D01*
X88633715Y-91932020D01*
X88657749Y-91936800D01*
X88682253Y-91936800D01*
X88706286Y-91932019D01*
X88728925Y-91922642D01*
X88749298Y-91909029D01*
X88755670Y-91903800D01*
X88759971Y-91901501D01*
X88764645Y-91900083D01*
X88775641Y-91899000D01*
X89064359Y-91899000D01*
X89075355Y-91900083D01*
X89080029Y-91901501D01*
X89084330Y-91903800D01*
X89090702Y-91909029D01*
X89111076Y-91922643D01*
X89133715Y-91932020D01*
X89157749Y-91936800D01*
X89182253Y-91936800D01*
X89206286Y-91932019D01*
X89228925Y-91922642D01*
X89249298Y-91909029D01*
X89255670Y-91903800D01*
X89259971Y-91901501D01*
X89264645Y-91900083D01*
X89275641Y-91899000D01*
X89564359Y-91899000D01*
X89575355Y-91900083D01*
X89580029Y-91901501D01*
X89584330Y-91903800D01*
X89590702Y-91909029D01*
X89611076Y-91922643D01*
X89633715Y-91932020D01*
X89657749Y-91936800D01*
X89682253Y-91936800D01*
X89706286Y-91932019D01*
X89728925Y-91922642D01*
X89749298Y-91909029D01*
X89755670Y-91903800D01*
X89759971Y-91901501D01*
X89764645Y-91900083D01*
X89775641Y-91899000D01*
X90064359Y-91899000D01*
X90075355Y-91900083D01*
X90080029Y-91901501D01*
X90084330Y-91903800D01*
X90090702Y-91909029D01*
X90111076Y-91922643D01*
X90133715Y-91932020D01*
X90157749Y-91936800D01*
X90182253Y-91936800D01*
X90206286Y-91932019D01*
X90228925Y-91922642D01*
X90249298Y-91909029D01*
X90255670Y-91903800D01*
X90259971Y-91901501D01*
X90264645Y-91900083D01*
X90275641Y-91899000D01*
X90564359Y-91899000D01*
X90575355Y-91900083D01*
X90580029Y-91901501D01*
X90584330Y-91903800D01*
X90590702Y-91909029D01*
X90611076Y-91922643D01*
X90633715Y-91932020D01*
X90657749Y-91936800D01*
X90682253Y-91936800D01*
X90706286Y-91932019D01*
X90728925Y-91922642D01*
X90749298Y-91909029D01*
X90755670Y-91903800D01*
X90759971Y-91901501D01*
X90764645Y-91900083D01*
X90775641Y-91899000D01*
X91064359Y-91899000D01*
X91075355Y-91900083D01*
X91080029Y-91901501D01*
X91084330Y-91903800D01*
X91090702Y-91909029D01*
X91111076Y-91922643D01*
X91133715Y-91932020D01*
X91157749Y-91936800D01*
X91182253Y-91936800D01*
X91206286Y-91932019D01*
X91228925Y-91922642D01*
X91249298Y-91909029D01*
X91255670Y-91903800D01*
X91259971Y-91901501D01*
X91264645Y-91900083D01*
X91275641Y-91899000D01*
X91564359Y-91899000D01*
X91575355Y-91900083D01*
X91580029Y-91901501D01*
X91584330Y-91903800D01*
X91590702Y-91909029D01*
X91611076Y-91922643D01*
X91633715Y-91932020D01*
X91657749Y-91936800D01*
X91682253Y-91936800D01*
X91706286Y-91932019D01*
X91728925Y-91922642D01*
X91749298Y-91909029D01*
X91755670Y-91903800D01*
X91759971Y-91901501D01*
X91764645Y-91900083D01*
X91775641Y-91899000D01*
X92064359Y-91899000D01*
X92075355Y-91900083D01*
X92080029Y-91901501D01*
X92084330Y-91903800D01*
X92090702Y-91909029D01*
X92111076Y-91922643D01*
X92133715Y-91932020D01*
X92157749Y-91936800D01*
X92182253Y-91936800D01*
X92206286Y-91932019D01*
X92228925Y-91922642D01*
X92249298Y-91909029D01*
X92255670Y-91903800D01*
X92259971Y-91901501D01*
X92264645Y-91900083D01*
X92275641Y-91899000D01*
X92564359Y-91899000D01*
X92575355Y-91900083D01*
X92580029Y-91901501D01*
X92584330Y-91903800D01*
X92590702Y-91909029D01*
X92611076Y-91922643D01*
X92633715Y-91932020D01*
X92657749Y-91936800D01*
X92682253Y-91936800D01*
X92706286Y-91932019D01*
X92728925Y-91922642D01*
X92749298Y-91909029D01*
X92755670Y-91903800D01*
X92759971Y-91901501D01*
X92764645Y-91900083D01*
X92775641Y-91899000D01*
X93044001Y-91899000D01*
X93068387Y-91896598D01*
X93091836Y-91889485D01*
X93113447Y-91877934D01*
X93132389Y-91862389D01*
X93147934Y-91843447D01*
X93159485Y-91821836D01*
X93166598Y-91798387D01*
X93169000Y-91774001D01*
X93169000Y-91505641D01*
X93170083Y-91494645D01*
X93171501Y-91489971D01*
X93173800Y-91485670D01*
X93179029Y-91479298D01*
X93192643Y-91458924D01*
X93202020Y-91436285D01*
X93206800Y-91412251D01*
X93206800Y-91387747D01*
X93202019Y-91363714D01*
X93192642Y-91341075D01*
X93179029Y-91320702D01*
X93173800Y-91314330D01*
X93171501Y-91310029D01*
X93170083Y-91305355D01*
X93169000Y-91294359D01*
X93169000Y-91005641D01*
X93170083Y-90994645D01*
X93171501Y-90989971D01*
X93173800Y-90985670D01*
X93179029Y-90979298D01*
X93192643Y-90958924D01*
X93202020Y-90936285D01*
X93206800Y-90912251D01*
X93206800Y-90887747D01*
X93202019Y-90863714D01*
X93192642Y-90841075D01*
X93179029Y-90820702D01*
X93173800Y-90814330D01*
X93171501Y-90810029D01*
X93170083Y-90805355D01*
X93169000Y-90794359D01*
X93169000Y-90505641D01*
X93170083Y-90494645D01*
X93171501Y-90489971D01*
X93173800Y-90485670D01*
X93179029Y-90479298D01*
X93192643Y-90458924D01*
X93202020Y-90436285D01*
X93206800Y-90412251D01*
X93206800Y-90387747D01*
X93202019Y-90363714D01*
X93192642Y-90341075D01*
X93179029Y-90320702D01*
X93173800Y-90314330D01*
X93171501Y-90310029D01*
X93170083Y-90305355D01*
X93169000Y-90294359D01*
X93169000Y-90005641D01*
X93170083Y-89994645D01*
X93171501Y-89989971D01*
X93173800Y-89985670D01*
X93179029Y-89979298D01*
X93192643Y-89958924D01*
X93202020Y-89936285D01*
X93206800Y-89912251D01*
X93206800Y-89887747D01*
X93202019Y-89863714D01*
X93192642Y-89841075D01*
X93179029Y-89820702D01*
X93173800Y-89814330D01*
X93171501Y-89810029D01*
X93170083Y-89805355D01*
X93169000Y-89794359D01*
X93169000Y-89505641D01*
X93170083Y-89494645D01*
X93171501Y-89489971D01*
X93173800Y-89485670D01*
X93179029Y-89479298D01*
X93192643Y-89458924D01*
X93202020Y-89436285D01*
X93206800Y-89412251D01*
X93206800Y-89387747D01*
X93202019Y-89363714D01*
X93192642Y-89341075D01*
X93179029Y-89320702D01*
X93173800Y-89314330D01*
X93171501Y-89310029D01*
X93170083Y-89305355D01*
X93169000Y-89294359D01*
X93169000Y-89005641D01*
X93170083Y-88994645D01*
X93171501Y-88989971D01*
X93173800Y-88985670D01*
X93179029Y-88979298D01*
X93192643Y-88958924D01*
X93202020Y-88936285D01*
X93206800Y-88912251D01*
X93206800Y-88887747D01*
X93202019Y-88863714D01*
X93192642Y-88841075D01*
X93179029Y-88820702D01*
X93173800Y-88814330D01*
X93171501Y-88810029D01*
X93170083Y-88805355D01*
X93169000Y-88794359D01*
X93169000Y-88505641D01*
X93170083Y-88494645D01*
X93171501Y-88489971D01*
X93173800Y-88485670D01*
X93179029Y-88479298D01*
X93192643Y-88458924D01*
X93202020Y-88436285D01*
X93206800Y-88412251D01*
X93206800Y-88387747D01*
X93202019Y-88363714D01*
X93192642Y-88341075D01*
X93179029Y-88320702D01*
X93173800Y-88314330D01*
X93171501Y-88310029D01*
X93170083Y-88305355D01*
X93169000Y-88294359D01*
X93169000Y-88005641D01*
X93170083Y-87994645D01*
X93171501Y-87989971D01*
X93173800Y-87985670D01*
X93179029Y-87979298D01*
X93192643Y-87958924D01*
X93202020Y-87936285D01*
X93206800Y-87912251D01*
X93206800Y-87887747D01*
X93202019Y-87863714D01*
X93192642Y-87841075D01*
X93179029Y-87820702D01*
X93173800Y-87814330D01*
X93171501Y-87810029D01*
X93170083Y-87805355D01*
X93169000Y-87794359D01*
X93169000Y-87505641D01*
X93170083Y-87494645D01*
X93171501Y-87489971D01*
X93173800Y-87485670D01*
X93179029Y-87479298D01*
X93192643Y-87458924D01*
X93202020Y-87436285D01*
X93206800Y-87412251D01*
X93206800Y-87387747D01*
X93202019Y-87363714D01*
X93192642Y-87341075D01*
X93179029Y-87320702D01*
X93173800Y-87314330D01*
X93171501Y-87310029D01*
X93170083Y-87305355D01*
X93169000Y-87294359D01*
X93169000Y-87005641D01*
X93170083Y-86994645D01*
X93171501Y-86989971D01*
X93173800Y-86985670D01*
X93179029Y-86979298D01*
X93192643Y-86958924D01*
X93202020Y-86936285D01*
X93206800Y-86912251D01*
X93206800Y-86887747D01*
X93202019Y-86863714D01*
X93192642Y-86841075D01*
X93179029Y-86820702D01*
X93173800Y-86814330D01*
X93171501Y-86810029D01*
X93170083Y-86805355D01*
X93169000Y-86794359D01*
X93169000Y-86505641D01*
X93170083Y-86494645D01*
X93171501Y-86489971D01*
X93173800Y-86485670D01*
X93179029Y-86479298D01*
X93192643Y-86458924D01*
X93202020Y-86436285D01*
X93206800Y-86412251D01*
X93206800Y-86387747D01*
X93202019Y-86363714D01*
X93192642Y-86341075D01*
X93179029Y-86320702D01*
X93173800Y-86314330D01*
X93171501Y-86310029D01*
X93170083Y-86305355D01*
X93169000Y-86294359D01*
X93169000Y-86025999D01*
X93166598Y-86001613D01*
X93159485Y-85978164D01*
X93147934Y-85956553D01*
X93132389Y-85937611D01*
X93113447Y-85922066D01*
X93091836Y-85910515D01*
X93068387Y-85903402D01*
X93044001Y-85901000D01*
X92775641Y-85901000D01*
X92764645Y-85899917D01*
X92759971Y-85898499D01*
X92755670Y-85896200D01*
X92749298Y-85890971D01*
X92728924Y-85877357D01*
X92706285Y-85867980D01*
X92682251Y-85863200D01*
X92657747Y-85863200D01*
X92633714Y-85867981D01*
X92611075Y-85877358D01*
X92590702Y-85890971D01*
X92584330Y-85896200D01*
X92580029Y-85898499D01*
X92575355Y-85899917D01*
X92564359Y-85901000D01*
X92275641Y-85901000D01*
X92264645Y-85899917D01*
X92259971Y-85898499D01*
X92255670Y-85896200D01*
X92249298Y-85890971D01*
X92228924Y-85877357D01*
X92206285Y-85867980D01*
X92182251Y-85863200D01*
X92157747Y-85863200D01*
X92133714Y-85867981D01*
X92111075Y-85877358D01*
X92090702Y-85890971D01*
X92084330Y-85896200D01*
X92080029Y-85898499D01*
X92075355Y-85899917D01*
X92064359Y-85901000D01*
X91775641Y-85901000D01*
X91764645Y-85899917D01*
X91759971Y-85898499D01*
X91755670Y-85896200D01*
X91749298Y-85890971D01*
X91728924Y-85877357D01*
X91706285Y-85867980D01*
X91682251Y-85863200D01*
X91657747Y-85863200D01*
X91633714Y-85867981D01*
X91611075Y-85877358D01*
X91590702Y-85890971D01*
X91584330Y-85896200D01*
X91580029Y-85898499D01*
X91575355Y-85899917D01*
X91564359Y-85901000D01*
X91275641Y-85901000D01*
X91264645Y-85899917D01*
X91259971Y-85898499D01*
X91255670Y-85896200D01*
X91249298Y-85890971D01*
X91228924Y-85877357D01*
X91206285Y-85867980D01*
X91182251Y-85863200D01*
X91157747Y-85863200D01*
X91133714Y-85867981D01*
X91111075Y-85877358D01*
X91090702Y-85890971D01*
X91084330Y-85896200D01*
X91080029Y-85898499D01*
X91075355Y-85899917D01*
X91064359Y-85901000D01*
X90775641Y-85901000D01*
X90764645Y-85899917D01*
X90759971Y-85898499D01*
X90755670Y-85896200D01*
X90749298Y-85890971D01*
X90728924Y-85877357D01*
X90706285Y-85867980D01*
X90682251Y-85863200D01*
X90657747Y-85863200D01*
X90633714Y-85867981D01*
X90611075Y-85877358D01*
X90590702Y-85890971D01*
X90584330Y-85896200D01*
X90580029Y-85898499D01*
X90575355Y-85899917D01*
X90564359Y-85901000D01*
X90275641Y-85901000D01*
X90264645Y-85899917D01*
X90259971Y-85898499D01*
X90255670Y-85896200D01*
X90249298Y-85890971D01*
X90228924Y-85877357D01*
X90206285Y-85867980D01*
X90182251Y-85863200D01*
X90157747Y-85863200D01*
X90133714Y-85867981D01*
X90111075Y-85877358D01*
X90090702Y-85890971D01*
X90084330Y-85896200D01*
X90080029Y-85898499D01*
X90075355Y-85899917D01*
X90064359Y-85901000D01*
X89775641Y-85901000D01*
X89764645Y-85899917D01*
X89759971Y-85898499D01*
X89755670Y-85896200D01*
X89749298Y-85890971D01*
X89728924Y-85877357D01*
X89706285Y-85867980D01*
X89682251Y-85863200D01*
X89657747Y-85863200D01*
X89633714Y-85867981D01*
X89611075Y-85877358D01*
X89590702Y-85890971D01*
X89584330Y-85896200D01*
X89580029Y-85898499D01*
X89575355Y-85899917D01*
X89564359Y-85901000D01*
X89275641Y-85901000D01*
X89264645Y-85899917D01*
X89259971Y-85898499D01*
X89255670Y-85896200D01*
X89249298Y-85890971D01*
X89228924Y-85877357D01*
X89206285Y-85867980D01*
X89182251Y-85863200D01*
X89157747Y-85863200D01*
X89133714Y-85867981D01*
X89111075Y-85877358D01*
X89090702Y-85890971D01*
X89084330Y-85896200D01*
X89080029Y-85898499D01*
X89075355Y-85899917D01*
X89064359Y-85901000D01*
X88775641Y-85901000D01*
X88764645Y-85899917D01*
X88759971Y-85898499D01*
X88755670Y-85896200D01*
X88749298Y-85890971D01*
X88728924Y-85877357D01*
X88706285Y-85867980D01*
X88682251Y-85863200D01*
X88657747Y-85863200D01*
X88633714Y-85867981D01*
X88611075Y-85877358D01*
X88590702Y-85890971D01*
X88584330Y-85896200D01*
X88580029Y-85898499D01*
X88575355Y-85899917D01*
X88564359Y-85901000D01*
X88275641Y-85901000D01*
X88264645Y-85899917D01*
X88259971Y-85898499D01*
X88255670Y-85896200D01*
X88249298Y-85890971D01*
X88228924Y-85877357D01*
X88206285Y-85867980D01*
X88182251Y-85863200D01*
X88157747Y-85863200D01*
X88133714Y-85867981D01*
X88111075Y-85877358D01*
X88090702Y-85890971D01*
X88084330Y-85896200D01*
X88080029Y-85898499D01*
X88075355Y-85899917D01*
X88064359Y-85901000D01*
X87775641Y-85901000D01*
X87764645Y-85899917D01*
X87759971Y-85898499D01*
X87755670Y-85896200D01*
X87749298Y-85890971D01*
X87728924Y-85877357D01*
X87706285Y-85867980D01*
X87682251Y-85863200D01*
X87657747Y-85863200D01*
X87633714Y-85867981D01*
X87611075Y-85877358D01*
X87590702Y-85890971D01*
X87584330Y-85896200D01*
X87580029Y-85898499D01*
X87575355Y-85899917D01*
X87564359Y-85901000D01*
X87295999Y-85901000D01*
X87271613Y-85903402D01*
X87248164Y-85910515D01*
X87226553Y-85922066D01*
X87207611Y-85937611D01*
X87192066Y-85956553D01*
X87180515Y-85978164D01*
X87173402Y-86001613D01*
X87171000Y-86025999D01*
X87171000Y-86294359D01*
X87169917Y-86305355D01*
X87168499Y-86310029D01*
X87166200Y-86314330D01*
X87160971Y-86320702D01*
X87147357Y-86341076D01*
X87137980Y-86363715D01*
X87133200Y-86387749D01*
X86306800Y-86387749D01*
X86306800Y-86387747D01*
X86302019Y-86363714D01*
X86292642Y-86341075D01*
X86279029Y-86320702D01*
X86273800Y-86314330D01*
X86271501Y-86310029D01*
X86270083Y-86305355D01*
X86269000Y-86294359D01*
X86269000Y-86005641D01*
X86270083Y-85994645D01*
X86271501Y-85989971D01*
X86273800Y-85985669D01*
X86276896Y-85981896D01*
X86280669Y-85978800D01*
X86284971Y-85976501D01*
X86289645Y-85975083D01*
X86300641Y-85974000D01*
X87119001Y-85974000D01*
X87143387Y-85971598D01*
X87166836Y-85964485D01*
X87188447Y-85952934D01*
X87207389Y-85937389D01*
X87222934Y-85918447D01*
X87234485Y-85896836D01*
X87241598Y-85873387D01*
X87244000Y-85849001D01*
X87244000Y-85030641D01*
X87245083Y-85019645D01*
X87246501Y-85014971D01*
X87248800Y-85010669D01*
X87251896Y-85006896D01*
X87255669Y-85003800D01*
X87259971Y-85001501D01*
X87264645Y-85000083D01*
X87275641Y-84999000D01*
X87564359Y-84999000D01*
X87575355Y-85000083D01*
G37*
G36*
X92756901Y-86202314D02*
G01*
X92783354Y-86210338D01*
X92807731Y-86223368D01*
X92829097Y-86240903D01*
X92846632Y-86262269D01*
X92859662Y-86286646D01*
X92867686Y-86313099D01*
X92871000Y-86346746D01*
X92871000Y-91453254D01*
X92867686Y-91486901D01*
X92859662Y-91513354D01*
X92846632Y-91537731D01*
X92829097Y-91559097D01*
X92807731Y-91576632D01*
X92783354Y-91589662D01*
X92756901Y-91597686D01*
X92723254Y-91601000D01*
X87616746Y-91601000D01*
X87583099Y-91597686D01*
X87556646Y-91589662D01*
X87532269Y-91576632D01*
X87510903Y-91559097D01*
X87493368Y-91537731D01*
X87480338Y-91513354D01*
X87472314Y-91486901D01*
X87469000Y-91453254D01*
X87469000Y-86346746D01*
X87472314Y-86313099D01*
X87480338Y-86286646D01*
X87493368Y-86262269D01*
X87510903Y-86240903D01*
X87532269Y-86223368D01*
X87556646Y-86210338D01*
X87583099Y-86202314D01*
X87616746Y-86199000D01*
X92723254Y-86199000D01*
X92756901Y-86202314D01*
G37*
G36*
X100977968Y-91447565D02*
G01*
X101016638Y-91459296D01*
X101052277Y-91478346D01*
X101083517Y-91503983D01*
X101109154Y-91535223D01*
X101128204Y-91570862D01*
X101139935Y-91609532D01*
X101144500Y-91655888D01*
X101144500Y-92307112D01*
X101139935Y-92353468D01*
X101128204Y-92392138D01*
X101109154Y-92427777D01*
X101083517Y-92459017D01*
X101052277Y-92484654D01*
X101016638Y-92503704D01*
X100977968Y-92515435D01*
X100931612Y-92520000D01*
X99855388Y-92520000D01*
X99809032Y-92515435D01*
X99770362Y-92503704D01*
X99734723Y-92484654D01*
X99703483Y-92459017D01*
X99677846Y-92427777D01*
X99658796Y-92392138D01*
X99647065Y-92353468D01*
X99642500Y-92307112D01*
X99642500Y-91655888D01*
X99647065Y-91609532D01*
X99658796Y-91570862D01*
X99677846Y-91535223D01*
X99703483Y-91503983D01*
X99734723Y-91478346D01*
X99770362Y-91459296D01*
X99809032Y-91447565D01*
X99855388Y-91443000D01*
X100931612Y-91443000D01*
X100977968Y-91447565D01*
G37*
G36*
X103022000Y-92394000D02*
G01*
X102020000Y-92394000D01*
X102020000Y-91492000D01*
X103022000Y-91492000D01*
X103022000Y-92394000D01*
G37*
G36*
X75343428Y-91409264D02*
G01*
X75364509Y-91415660D01*
X75383945Y-91426048D01*
X75400976Y-91440024D01*
X75414952Y-91457055D01*
X75425340Y-91476491D01*
X75431736Y-91497572D01*
X75434500Y-91525640D01*
X75434500Y-91989360D01*
X75431736Y-92017428D01*
X75425340Y-92038509D01*
X75414952Y-92057945D01*
X75400976Y-92074976D01*
X75383945Y-92088952D01*
X75364509Y-92099340D01*
X75343428Y-92105736D01*
X75315360Y-92108500D01*
X73401640Y-92108500D01*
X73373572Y-92105736D01*
X73352491Y-92099340D01*
X73333055Y-92088952D01*
X73316024Y-92074976D01*
X73302048Y-92057945D01*
X73291660Y-92038509D01*
X73285264Y-92017428D01*
X73282500Y-91989360D01*
X73282500Y-91525640D01*
X73285264Y-91497572D01*
X73291660Y-91476491D01*
X73302048Y-91457055D01*
X73316024Y-91440024D01*
X73333055Y-91426048D01*
X73352491Y-91415660D01*
X73373572Y-91409264D01*
X73401640Y-91406500D01*
X75315360Y-91406500D01*
X75343428Y-91409264D01*
G37*
G36*
X66043428Y-91409264D02*
G01*
X66064509Y-91415660D01*
X66083945Y-91426048D01*
X66100976Y-91440024D01*
X66114952Y-91457055D01*
X66125340Y-91476491D01*
X66131736Y-91497572D01*
X66134500Y-91525640D01*
X66134500Y-91989360D01*
X66131736Y-92017428D01*
X66125340Y-92038509D01*
X66114952Y-92057945D01*
X66100976Y-92074976D01*
X66083945Y-92088952D01*
X66064509Y-92099340D01*
X66043428Y-92105736D01*
X66015360Y-92108500D01*
X64101640Y-92108500D01*
X64073572Y-92105736D01*
X64052491Y-92099340D01*
X64033055Y-92088952D01*
X64016024Y-92074976D01*
X64002048Y-92057945D01*
X63991660Y-92038509D01*
X63985264Y-92017428D01*
X63982500Y-91989360D01*
X63982500Y-91525640D01*
X63985264Y-91497572D01*
X63991660Y-91476491D01*
X64002048Y-91457055D01*
X64016024Y-91440024D01*
X64033055Y-91426048D01*
X64052491Y-91415660D01*
X64073572Y-91409264D01*
X64101640Y-91406500D01*
X66015360Y-91406500D01*
X66043428Y-91409264D01*
G37*
G36*
X105022000Y-91444000D02*
G01*
X104020000Y-91444000D01*
X104020000Y-90542000D01*
X105022000Y-90542000D01*
X105022000Y-91444000D01*
G37*
G36*
X83526968Y-89931565D02*
G01*
X83565638Y-89943296D01*
X83601277Y-89962346D01*
X83632517Y-89987983D01*
X83658154Y-90019223D01*
X83677204Y-90054862D01*
X83688935Y-90093532D01*
X83693500Y-90139888D01*
X83693500Y-91216112D01*
X83688935Y-91262468D01*
X83677204Y-91301138D01*
X83658154Y-91336777D01*
X83632517Y-91368017D01*
X83601277Y-91393654D01*
X83565638Y-91412704D01*
X83526968Y-91424435D01*
X83480612Y-91429000D01*
X82829388Y-91429000D01*
X82783032Y-91424435D01*
X82744362Y-91412704D01*
X82708723Y-91393654D01*
X82677483Y-91368017D01*
X82651846Y-91336777D01*
X82632796Y-91301138D01*
X82621065Y-91262468D01*
X82616500Y-91216112D01*
X82616500Y-90139888D01*
X82621065Y-90093532D01*
X82632796Y-90054862D01*
X82651846Y-90019223D01*
X82677483Y-89987983D01*
X82708723Y-89962346D01*
X82744362Y-89943296D01*
X82783032Y-89931565D01*
X82829388Y-89927000D01*
X83480612Y-89927000D01*
X83526968Y-89931565D01*
G37*
G36*
X81651968Y-89931565D02*
G01*
X81690638Y-89943296D01*
X81726277Y-89962346D01*
X81757517Y-89987983D01*
X81783154Y-90019223D01*
X81802204Y-90054862D01*
X81813935Y-90093532D01*
X81818500Y-90139888D01*
X81818500Y-91216112D01*
X81813935Y-91262468D01*
X81802204Y-91301138D01*
X81783154Y-91336777D01*
X81757517Y-91368017D01*
X81726277Y-91393654D01*
X81690638Y-91412704D01*
X81651968Y-91424435D01*
X81605612Y-91429000D01*
X80954388Y-91429000D01*
X80908032Y-91424435D01*
X80869362Y-91412704D01*
X80833723Y-91393654D01*
X80802483Y-91368017D01*
X80776846Y-91336777D01*
X80757796Y-91301138D01*
X80746065Y-91262468D01*
X80741500Y-91216112D01*
X80741500Y-90139888D01*
X80746065Y-90093532D01*
X80757796Y-90054862D01*
X80776846Y-90019223D01*
X80802483Y-89987983D01*
X80833723Y-89962346D01*
X80869362Y-89943296D01*
X80908032Y-89931565D01*
X80954388Y-89927000D01*
X81605612Y-89927000D01*
X81651968Y-89931565D01*
G37*
G36*
X75343428Y-90139264D02*
G01*
X75364509Y-90145660D01*
X75383945Y-90156048D01*
X75400976Y-90170024D01*
X75414952Y-90187055D01*
X75425340Y-90206491D01*
X75431736Y-90227572D01*
X75434500Y-90255640D01*
X75434500Y-90719360D01*
X75431736Y-90747428D01*
X75425340Y-90768509D01*
X75414952Y-90787945D01*
X75400976Y-90804976D01*
X75383945Y-90818952D01*
X75364509Y-90829340D01*
X75343428Y-90835736D01*
X75315360Y-90838500D01*
X73401640Y-90838500D01*
X73373572Y-90835736D01*
X73352491Y-90829340D01*
X73333055Y-90818952D01*
X73316024Y-90804976D01*
X73302048Y-90787945D01*
X73291660Y-90768509D01*
X73285264Y-90747428D01*
X73282500Y-90719360D01*
X73282500Y-90255640D01*
X73285264Y-90227572D01*
X73291660Y-90206491D01*
X73302048Y-90187055D01*
X73316024Y-90170024D01*
X73333055Y-90156048D01*
X73352491Y-90145660D01*
X73373572Y-90139264D01*
X73401640Y-90136500D01*
X75315360Y-90136500D01*
X75343428Y-90139264D01*
G37*
G36*
X66043428Y-90139264D02*
G01*
X66064509Y-90145660D01*
X66083945Y-90156048D01*
X66100976Y-90170024D01*
X66114952Y-90187055D01*
X66125340Y-90206491D01*
X66131736Y-90227572D01*
X66134500Y-90255640D01*
X66134500Y-90719360D01*
X66131736Y-90747428D01*
X66125340Y-90768509D01*
X66114952Y-90787945D01*
X66100976Y-90804976D01*
X66083945Y-90818952D01*
X66064509Y-90829340D01*
X66043428Y-90835736D01*
X66015360Y-90838500D01*
X64101640Y-90838500D01*
X64073572Y-90835736D01*
X64052491Y-90829340D01*
X64033055Y-90818952D01*
X64016024Y-90804976D01*
X64002048Y-90787945D01*
X63991660Y-90768509D01*
X63985264Y-90747428D01*
X63982500Y-90719360D01*
X63982500Y-90255640D01*
X63985264Y-90227572D01*
X63991660Y-90206491D01*
X64002048Y-90187055D01*
X64016024Y-90170024D01*
X64033055Y-90156048D01*
X64052491Y-90145660D01*
X64073572Y-90139264D01*
X64101640Y-90136500D01*
X66015360Y-90136500D01*
X66043428Y-90139264D01*
G37*
G36*
X100977968Y-89572565D02*
G01*
X101016638Y-89584296D01*
X101052277Y-89603346D01*
X101083517Y-89628983D01*
X101109154Y-89660223D01*
X101128204Y-89695862D01*
X101139935Y-89734532D01*
X101144500Y-89780888D01*
X101144500Y-90432112D01*
X101139935Y-90478468D01*
X101128204Y-90517138D01*
X101109154Y-90552777D01*
X101083517Y-90584017D01*
X101052277Y-90609654D01*
X101016638Y-90628704D01*
X100977968Y-90640435D01*
X100931612Y-90645000D01*
X99855388Y-90645000D01*
X99809032Y-90640435D01*
X99770362Y-90628704D01*
X99734723Y-90609654D01*
X99703483Y-90584017D01*
X99677846Y-90552777D01*
X99658796Y-90517138D01*
X99647065Y-90478468D01*
X99642500Y-90432112D01*
X99642500Y-89780888D01*
X99647065Y-89734532D01*
X99658796Y-89695862D01*
X99677846Y-89660223D01*
X99703483Y-89628983D01*
X99734723Y-89603346D01*
X99770362Y-89584296D01*
X99809032Y-89572565D01*
X99855388Y-89568000D01*
X100931612Y-89568000D01*
X100977968Y-89572565D01*
G37*
G36*
X103022000Y-90494000D02*
G01*
X102020000Y-90494000D01*
X102020000Y-89592000D01*
X103022000Y-89592000D01*
X103022000Y-90494000D01*
G37*
G36*
X66043428Y-88869264D02*
G01*
X66064509Y-88875660D01*
X66083945Y-88886048D01*
X66100976Y-88900024D01*
X66114952Y-88917055D01*
X66125340Y-88936491D01*
X66131736Y-88957572D01*
X66134500Y-88985640D01*
X66134500Y-89449360D01*
X66131736Y-89477428D01*
X66125340Y-89498509D01*
X66114952Y-89517945D01*
X66100976Y-89534976D01*
X66083945Y-89548952D01*
X66064509Y-89559340D01*
X66043428Y-89565736D01*
X66015360Y-89568500D01*
X64101640Y-89568500D01*
X64073572Y-89565736D01*
X64052491Y-89559340D01*
X64033055Y-89548952D01*
X64016024Y-89534976D01*
X64002048Y-89517945D01*
X63991660Y-89498509D01*
X63985264Y-89477428D01*
X63982500Y-89449360D01*
X63982500Y-88985640D01*
X63985264Y-88957572D01*
X63991660Y-88936491D01*
X64002048Y-88917055D01*
X64016024Y-88900024D01*
X64033055Y-88886048D01*
X64052491Y-88875660D01*
X64073572Y-88869264D01*
X64101640Y-88866500D01*
X66015360Y-88866500D01*
X66043428Y-88869264D01*
G37*
G36*
X75343428Y-88869264D02*
G01*
X75364509Y-88875660D01*
X75383945Y-88886048D01*
X75400976Y-88900024D01*
X75414952Y-88917055D01*
X75425340Y-88936491D01*
X75431736Y-88957572D01*
X75434500Y-88985640D01*
X75434500Y-89449360D01*
X75431736Y-89477428D01*
X75425340Y-89498509D01*
X75414952Y-89517945D01*
X75400976Y-89534976D01*
X75383945Y-89548952D01*
X75364509Y-89559340D01*
X75343428Y-89565736D01*
X75315360Y-89568500D01*
X73401640Y-89568500D01*
X73373572Y-89565736D01*
X73352491Y-89559340D01*
X73333055Y-89548952D01*
X73316024Y-89534976D01*
X73302048Y-89517945D01*
X73291660Y-89498509D01*
X73285264Y-89477428D01*
X73282500Y-89449360D01*
X73282500Y-88985640D01*
X73285264Y-88957572D01*
X73291660Y-88936491D01*
X73302048Y-88917055D01*
X73316024Y-88900024D01*
X73333055Y-88886048D01*
X73352491Y-88875660D01*
X73373572Y-88869264D01*
X73401640Y-88866500D01*
X75315360Y-88866500D01*
X75343428Y-88869264D01*
G37*
G36*
X83526968Y-87518565D02*
G01*
X83565638Y-87530296D01*
X83601277Y-87549346D01*
X83632517Y-87574983D01*
X83658154Y-87606223D01*
X83677204Y-87641862D01*
X83688935Y-87680532D01*
X83693500Y-87726888D01*
X83693500Y-88803112D01*
X83688935Y-88849468D01*
X83677204Y-88888138D01*
X83658154Y-88923777D01*
X83632517Y-88955017D01*
X83601277Y-88980654D01*
X83565638Y-88999704D01*
X83526968Y-89011435D01*
X83480612Y-89016000D01*
X82829388Y-89016000D01*
X82783032Y-89011435D01*
X82744362Y-88999704D01*
X82708723Y-88980654D01*
X82677483Y-88955017D01*
X82651846Y-88923777D01*
X82632796Y-88888138D01*
X82621065Y-88849468D01*
X82616500Y-88803112D01*
X82616500Y-87726888D01*
X82621065Y-87680532D01*
X82632796Y-87641862D01*
X82651846Y-87606223D01*
X82677483Y-87574983D01*
X82708723Y-87549346D01*
X82744362Y-87530296D01*
X82783032Y-87518565D01*
X82829388Y-87514000D01*
X83480612Y-87514000D01*
X83526968Y-87518565D01*
G37*
G36*
X81651968Y-87518565D02*
G01*
X81690638Y-87530296D01*
X81726277Y-87549346D01*
X81757517Y-87574983D01*
X81783154Y-87606223D01*
X81802204Y-87641862D01*
X81813935Y-87680532D01*
X81818500Y-87726888D01*
X81818500Y-88803112D01*
X81813935Y-88849468D01*
X81802204Y-88888138D01*
X81783154Y-88923777D01*
X81757517Y-88955017D01*
X81726277Y-88980654D01*
X81690638Y-88999704D01*
X81651968Y-89011435D01*
X81605612Y-89016000D01*
X80954388Y-89016000D01*
X80908032Y-89011435D01*
X80869362Y-88999704D01*
X80833723Y-88980654D01*
X80802483Y-88955017D01*
X80776846Y-88923777D01*
X80757796Y-88888138D01*
X80746065Y-88849468D01*
X80741500Y-88803112D01*
X80741500Y-87726888D01*
X80746065Y-87680532D01*
X80757796Y-87641862D01*
X80776846Y-87606223D01*
X80802483Y-87574983D01*
X80833723Y-87549346D01*
X80869362Y-87530296D01*
X80908032Y-87518565D01*
X80954388Y-87514000D01*
X81605612Y-87514000D01*
X81651968Y-87518565D01*
G37*
G36*
X103200468Y-87794565D02*
G01*
X103239138Y-87806296D01*
X103274777Y-87825346D01*
X103306017Y-87850983D01*
X103331654Y-87882223D01*
X103350704Y-87917862D01*
X103362435Y-87956532D01*
X103367000Y-88002888D01*
X103367000Y-88654112D01*
X103362435Y-88700468D01*
X103350704Y-88739138D01*
X103331654Y-88774777D01*
X103306017Y-88806017D01*
X103274777Y-88831654D01*
X103239138Y-88850704D01*
X103200468Y-88862435D01*
X103154112Y-88867000D01*
X102077888Y-88867000D01*
X102031532Y-88862435D01*
X101992862Y-88850704D01*
X101957223Y-88831654D01*
X101925983Y-88806017D01*
X101900346Y-88774777D01*
X101881296Y-88739138D01*
X101869565Y-88700468D01*
X101865000Y-88654112D01*
X101865000Y-88002888D01*
X101869565Y-87956532D01*
X101881296Y-87917862D01*
X101900346Y-87882223D01*
X101925983Y-87850983D01*
X101957223Y-87825346D01*
X101992862Y-87806296D01*
X102031532Y-87794565D01*
X102077888Y-87790000D01*
X103154112Y-87790000D01*
X103200468Y-87794565D01*
G37*
G36*
X100977968Y-87779565D02*
G01*
X101016638Y-87791296D01*
X101052277Y-87810346D01*
X101083517Y-87835983D01*
X101109154Y-87867223D01*
X101128204Y-87902862D01*
X101139935Y-87941532D01*
X101144500Y-87987888D01*
X101144500Y-88639112D01*
X101139935Y-88685468D01*
X101128204Y-88724138D01*
X101109154Y-88759777D01*
X101083517Y-88791017D01*
X101052277Y-88816654D01*
X101016638Y-88835704D01*
X100977968Y-88847435D01*
X100931612Y-88852000D01*
X99855388Y-88852000D01*
X99809032Y-88847435D01*
X99770362Y-88835704D01*
X99734723Y-88816654D01*
X99703483Y-88791017D01*
X99677846Y-88759777D01*
X99658796Y-88724138D01*
X99647065Y-88685468D01*
X99642500Y-88639112D01*
X99642500Y-87987888D01*
X99647065Y-87941532D01*
X99658796Y-87902862D01*
X99677846Y-87867223D01*
X99703483Y-87835983D01*
X99734723Y-87810346D01*
X99770362Y-87791296D01*
X99809032Y-87779565D01*
X99855388Y-87775000D01*
X100931612Y-87775000D01*
X100977968Y-87779565D01*
G37*
G36*
X105486468Y-87764565D02*
G01*
X105525138Y-87776296D01*
X105560777Y-87795346D01*
X105592017Y-87820983D01*
X105617654Y-87852223D01*
X105636704Y-87887862D01*
X105648435Y-87926532D01*
X105653000Y-87972888D01*
X105653000Y-88624112D01*
X105648435Y-88670468D01*
X105636704Y-88709138D01*
X105617654Y-88744777D01*
X105592017Y-88776017D01*
X105560777Y-88801654D01*
X105525138Y-88820704D01*
X105486468Y-88832435D01*
X105440112Y-88837000D01*
X104363888Y-88837000D01*
X104317532Y-88832435D01*
X104278862Y-88820704D01*
X104243223Y-88801654D01*
X104211983Y-88776017D01*
X104186346Y-88744777D01*
X104167296Y-88709138D01*
X104155565Y-88670468D01*
X104151000Y-88624112D01*
X104151000Y-87972888D01*
X104155565Y-87926532D01*
X104167296Y-87887862D01*
X104186346Y-87852223D01*
X104211983Y-87820983D01*
X104243223Y-87795346D01*
X104278862Y-87776296D01*
X104317532Y-87764565D01*
X104363888Y-87760000D01*
X105440112Y-87760000D01*
X105486468Y-87764565D01*
G37*
G36*
X66043428Y-87599264D02*
G01*
X66064509Y-87605660D01*
X66083945Y-87616048D01*
X66100976Y-87630024D01*
X66114952Y-87647055D01*
X66125340Y-87666491D01*
X66131736Y-87687572D01*
X66134500Y-87715640D01*
X66134500Y-88179360D01*
X66131736Y-88207428D01*
X66125340Y-88228509D01*
X66114952Y-88247945D01*
X66100976Y-88264976D01*
X66083945Y-88278952D01*
X66064509Y-88289340D01*
X66043428Y-88295736D01*
X66015360Y-88298500D01*
X64101640Y-88298500D01*
X64073572Y-88295736D01*
X64052491Y-88289340D01*
X64033055Y-88278952D01*
X64016024Y-88264976D01*
X64002048Y-88247945D01*
X63991660Y-88228509D01*
X63985264Y-88207428D01*
X63982500Y-88179360D01*
X63982500Y-87715640D01*
X63985264Y-87687572D01*
X63991660Y-87666491D01*
X64002048Y-87647055D01*
X64016024Y-87630024D01*
X64033055Y-87616048D01*
X64052491Y-87605660D01*
X64073572Y-87599264D01*
X64101640Y-87596500D01*
X66015360Y-87596500D01*
X66043428Y-87599264D01*
G37*
G36*
X75343428Y-87599264D02*
G01*
X75364509Y-87605660D01*
X75383945Y-87616048D01*
X75400976Y-87630024D01*
X75414952Y-87647055D01*
X75425340Y-87666491D01*
X75431736Y-87687572D01*
X75434500Y-87715640D01*
X75434500Y-88179360D01*
X75431736Y-88207428D01*
X75425340Y-88228509D01*
X75414952Y-88247945D01*
X75400976Y-88264976D01*
X75383945Y-88278952D01*
X75364509Y-88289340D01*
X75343428Y-88295736D01*
X75315360Y-88298500D01*
X73401640Y-88298500D01*
X73373572Y-88295736D01*
X73352491Y-88289340D01*
X73333055Y-88278952D01*
X73316024Y-88264976D01*
X73302048Y-88247945D01*
X73291660Y-88228509D01*
X73285264Y-88207428D01*
X73282500Y-88179360D01*
X73282500Y-87715640D01*
X73285264Y-87687572D01*
X73291660Y-87666491D01*
X73302048Y-87647055D01*
X73316024Y-87630024D01*
X73333055Y-87616048D01*
X73352491Y-87605660D01*
X73373572Y-87599264D01*
X73401640Y-87596500D01*
X75315360Y-87596500D01*
X75343428Y-87599264D01*
G37*
G36*
X66043428Y-86329264D02*
G01*
X66064509Y-86335660D01*
X66083945Y-86346048D01*
X66100976Y-86360024D01*
X66114952Y-86377055D01*
X66125340Y-86396491D01*
X66131736Y-86417572D01*
X66134500Y-86445640D01*
X66134500Y-86909360D01*
X66131736Y-86937428D01*
X66125340Y-86958509D01*
X66114952Y-86977945D01*
X66100976Y-86994976D01*
X66083945Y-87008952D01*
X66064509Y-87019340D01*
X66043428Y-87025736D01*
X66015360Y-87028500D01*
X64101640Y-87028500D01*
X64073572Y-87025736D01*
X64052491Y-87019340D01*
X64033055Y-87008952D01*
X64016024Y-86994976D01*
X64002048Y-86977945D01*
X63991660Y-86958509D01*
X63985264Y-86937428D01*
X63982500Y-86909360D01*
X63982500Y-86445640D01*
X63985264Y-86417572D01*
X63991660Y-86396491D01*
X64002048Y-86377055D01*
X64016024Y-86360024D01*
X64033055Y-86346048D01*
X64052491Y-86335660D01*
X64073572Y-86329264D01*
X64101640Y-86326500D01*
X66015360Y-86326500D01*
X66043428Y-86329264D01*
G37*
G36*
X75343428Y-86329264D02*
G01*
X75364509Y-86335660D01*
X75383945Y-86346048D01*
X75400976Y-86360024D01*
X75414952Y-86377055D01*
X75425340Y-86396491D01*
X75431736Y-86417572D01*
X75434500Y-86445640D01*
X75434500Y-86909360D01*
X75431736Y-86937428D01*
X75425340Y-86958509D01*
X75414952Y-86977945D01*
X75400976Y-86994976D01*
X75383945Y-87008952D01*
X75364509Y-87019340D01*
X75343428Y-87025736D01*
X75315360Y-87028500D01*
X73401640Y-87028500D01*
X73373572Y-87025736D01*
X73352491Y-87019340D01*
X73333055Y-87008952D01*
X73316024Y-86994976D01*
X73302048Y-86977945D01*
X73291660Y-86958509D01*
X73285264Y-86937428D01*
X73282500Y-86909360D01*
X73282500Y-86445640D01*
X73285264Y-86417572D01*
X73291660Y-86396491D01*
X73302048Y-86377055D01*
X73316024Y-86360024D01*
X73333055Y-86346048D01*
X73352491Y-86335660D01*
X73373572Y-86329264D01*
X73401640Y-86326500D01*
X75315360Y-86326500D01*
X75343428Y-86329264D01*
G37*
G36*
X103200468Y-85919565D02*
G01*
X103239138Y-85931296D01*
X103274777Y-85950346D01*
X103306017Y-85975983D01*
X103331654Y-86007223D01*
X103350704Y-86042862D01*
X103362435Y-86081532D01*
X103367000Y-86127888D01*
X103367000Y-86779112D01*
X103362435Y-86825468D01*
X103350704Y-86864138D01*
X103331654Y-86899777D01*
X103306017Y-86931017D01*
X103274777Y-86956654D01*
X103239138Y-86975704D01*
X103200468Y-86987435D01*
X103154112Y-86992000D01*
X102077888Y-86992000D01*
X102031532Y-86987435D01*
X101992862Y-86975704D01*
X101957223Y-86956654D01*
X101925983Y-86931017D01*
X101900346Y-86899777D01*
X101881296Y-86864138D01*
X101869565Y-86825468D01*
X101865000Y-86779112D01*
X101865000Y-86127888D01*
X101869565Y-86081532D01*
X101881296Y-86042862D01*
X101900346Y-86007223D01*
X101925983Y-85975983D01*
X101957223Y-85950346D01*
X101992862Y-85931296D01*
X102031532Y-85919565D01*
X102077888Y-85915000D01*
X103154112Y-85915000D01*
X103200468Y-85919565D01*
G37*
G36*
X100977968Y-85904565D02*
G01*
X101016638Y-85916296D01*
X101052277Y-85935346D01*
X101083517Y-85960983D01*
X101109154Y-85992223D01*
X101128204Y-86027862D01*
X101139935Y-86066532D01*
X101144500Y-86112888D01*
X101144500Y-86764112D01*
X101139935Y-86810468D01*
X101128204Y-86849138D01*
X101109154Y-86884777D01*
X101083517Y-86916017D01*
X101052277Y-86941654D01*
X101016638Y-86960704D01*
X100977968Y-86972435D01*
X100931612Y-86977000D01*
X99855388Y-86977000D01*
X99809032Y-86972435D01*
X99770362Y-86960704D01*
X99734723Y-86941654D01*
X99703483Y-86916017D01*
X99677846Y-86884777D01*
X99658796Y-86849138D01*
X99647065Y-86810468D01*
X99642500Y-86764112D01*
X99642500Y-86112888D01*
X99647065Y-86066532D01*
X99658796Y-86027862D01*
X99677846Y-85992223D01*
X99703483Y-85960983D01*
X99734723Y-85935346D01*
X99770362Y-85916296D01*
X99809032Y-85904565D01*
X99855388Y-85900000D01*
X100931612Y-85900000D01*
X100977968Y-85904565D01*
G37*
G36*
X105486468Y-85889565D02*
G01*
X105525138Y-85901296D01*
X105560777Y-85920346D01*
X105592017Y-85945983D01*
X105617654Y-85977223D01*
X105636704Y-86012862D01*
X105648435Y-86051532D01*
X105653000Y-86097888D01*
X105653000Y-86749112D01*
X105648435Y-86795468D01*
X105636704Y-86834138D01*
X105617654Y-86869777D01*
X105592017Y-86901017D01*
X105560777Y-86926654D01*
X105525138Y-86945704D01*
X105486468Y-86957435D01*
X105440112Y-86962000D01*
X104363888Y-86962000D01*
X104317532Y-86957435D01*
X104278862Y-86945704D01*
X104243223Y-86926654D01*
X104211983Y-86901017D01*
X104186346Y-86869777D01*
X104167296Y-86834138D01*
X104155565Y-86795468D01*
X104151000Y-86749112D01*
X104151000Y-86097888D01*
X104155565Y-86051532D01*
X104167296Y-86012862D01*
X104186346Y-85977223D01*
X104211983Y-85945983D01*
X104243223Y-85920346D01*
X104278862Y-85901296D01*
X104317532Y-85889565D01*
X104363888Y-85885000D01*
X105440112Y-85885000D01*
X105486468Y-85889565D01*
G37*
G36*
X81681968Y-84978565D02*
G01*
X81720638Y-84990296D01*
X81756277Y-85009346D01*
X81787517Y-85034983D01*
X81813154Y-85066223D01*
X81832204Y-85101862D01*
X81843935Y-85140532D01*
X81848500Y-85186888D01*
X81848500Y-86263112D01*
X81843935Y-86309468D01*
X81832204Y-86348138D01*
X81813154Y-86383777D01*
X81787517Y-86415017D01*
X81756277Y-86440654D01*
X81720638Y-86459704D01*
X81681968Y-86471435D01*
X81635612Y-86476000D01*
X80984388Y-86476000D01*
X80938032Y-86471435D01*
X80899362Y-86459704D01*
X80863723Y-86440654D01*
X80832483Y-86415017D01*
X80806846Y-86383777D01*
X80787796Y-86348138D01*
X80776065Y-86309468D01*
X80771500Y-86263112D01*
X80771500Y-85186888D01*
X80776065Y-85140532D01*
X80787796Y-85101862D01*
X80806846Y-85066223D01*
X80832483Y-85034983D01*
X80863723Y-85009346D01*
X80899362Y-84990296D01*
X80938032Y-84978565D01*
X80984388Y-84974000D01*
X81635612Y-84974000D01*
X81681968Y-84978565D01*
G37*
G36*
X83556968Y-84978565D02*
G01*
X83595638Y-84990296D01*
X83631277Y-85009346D01*
X83662517Y-85034983D01*
X83688154Y-85066223D01*
X83707204Y-85101862D01*
X83718935Y-85140532D01*
X83723500Y-85186888D01*
X83723500Y-86263112D01*
X83718935Y-86309468D01*
X83707204Y-86348138D01*
X83688154Y-86383777D01*
X83662517Y-86415017D01*
X83631277Y-86440654D01*
X83595638Y-86459704D01*
X83556968Y-86471435D01*
X83510612Y-86476000D01*
X82859388Y-86476000D01*
X82813032Y-86471435D01*
X82774362Y-86459704D01*
X82738723Y-86440654D01*
X82707483Y-86415017D01*
X82681846Y-86383777D01*
X82662796Y-86348138D01*
X82651065Y-86309468D01*
X82646500Y-86263112D01*
X82646500Y-85186888D01*
X82651065Y-85140532D01*
X82662796Y-85101862D01*
X82681846Y-85066223D01*
X82707483Y-85034983D01*
X82738723Y-85009346D01*
X82774362Y-84990296D01*
X82813032Y-84978565D01*
X82859388Y-84974000D01*
X83510612Y-84974000D01*
X83556968Y-84978565D01*
G37*
G36*
X75343428Y-85059264D02*
G01*
X75364509Y-85065660D01*
X75383945Y-85076048D01*
X75400976Y-85090024D01*
X75414952Y-85107055D01*
X75425340Y-85126491D01*
X75431736Y-85147572D01*
X75434500Y-85175640D01*
X75434500Y-85639360D01*
X75431736Y-85667428D01*
X75425340Y-85688509D01*
X75414952Y-85707945D01*
X75400976Y-85724976D01*
X75383945Y-85738952D01*
X75364509Y-85749340D01*
X75343428Y-85755736D01*
X75315360Y-85758500D01*
X73401640Y-85758500D01*
X73373572Y-85755736D01*
X73352491Y-85749340D01*
X73333055Y-85738952D01*
X73316024Y-85724976D01*
X73302048Y-85707945D01*
X73291660Y-85688509D01*
X73285264Y-85667428D01*
X73282500Y-85639360D01*
X73282500Y-85175640D01*
X73285264Y-85147572D01*
X73291660Y-85126491D01*
X73302048Y-85107055D01*
X73316024Y-85090024D01*
X73333055Y-85076048D01*
X73352491Y-85065660D01*
X73373572Y-85059264D01*
X73401640Y-85056500D01*
X75315360Y-85056500D01*
X75343428Y-85059264D01*
G37*
G36*
X66043428Y-85059264D02*
G01*
X66064509Y-85065660D01*
X66083945Y-85076048D01*
X66100976Y-85090024D01*
X66114952Y-85107055D01*
X66125340Y-85126491D01*
X66131736Y-85147572D01*
X66134500Y-85175640D01*
X66134500Y-85639360D01*
X66131736Y-85667428D01*
X66125340Y-85688509D01*
X66114952Y-85707945D01*
X66100976Y-85724976D01*
X66083945Y-85738952D01*
X66064509Y-85749340D01*
X66043428Y-85755736D01*
X66015360Y-85758500D01*
X64101640Y-85758500D01*
X64073572Y-85755736D01*
X64052491Y-85749340D01*
X64033055Y-85738952D01*
X64016024Y-85724976D01*
X64002048Y-85707945D01*
X63991660Y-85688509D01*
X63985264Y-85667428D01*
X63982500Y-85639360D01*
X63982500Y-85175640D01*
X63985264Y-85147572D01*
X63991660Y-85126491D01*
X64002048Y-85107055D01*
X64016024Y-85090024D01*
X64033055Y-85076048D01*
X64052491Y-85065660D01*
X64073572Y-85059264D01*
X64101640Y-85056500D01*
X66015360Y-85056500D01*
X66043428Y-85059264D01*
G37*
G36*
X75343428Y-83789264D02*
G01*
X75364509Y-83795660D01*
X75383945Y-83806048D01*
X75400976Y-83820024D01*
X75414952Y-83837055D01*
X75425340Y-83856491D01*
X75431736Y-83877572D01*
X75434500Y-83905640D01*
X75434500Y-84369360D01*
X75431736Y-84397428D01*
X75425340Y-84418509D01*
X75414952Y-84437945D01*
X75400976Y-84454976D01*
X75383945Y-84468952D01*
X75364509Y-84479340D01*
X75343428Y-84485736D01*
X75315360Y-84488500D01*
X73401640Y-84488500D01*
X73373572Y-84485736D01*
X73352491Y-84479340D01*
X73333055Y-84468952D01*
X73316024Y-84454976D01*
X73302048Y-84437945D01*
X73291660Y-84418509D01*
X73285264Y-84397428D01*
X73282500Y-84369360D01*
X73282500Y-83905640D01*
X73285264Y-83877572D01*
X73291660Y-83856491D01*
X73302048Y-83837055D01*
X73316024Y-83820024D01*
X73333055Y-83806048D01*
X73352491Y-83795660D01*
X73373572Y-83789264D01*
X73401640Y-83786500D01*
X75315360Y-83786500D01*
X75343428Y-83789264D01*
G37*
G36*
X66043428Y-83789264D02*
G01*
X66064509Y-83795660D01*
X66083945Y-83806048D01*
X66100976Y-83820024D01*
X66114952Y-83837055D01*
X66125340Y-83856491D01*
X66131736Y-83877572D01*
X66134500Y-83905640D01*
X66134500Y-84369360D01*
X66131736Y-84397428D01*
X66125340Y-84418509D01*
X66114952Y-84437945D01*
X66100976Y-84454976D01*
X66083945Y-84468952D01*
X66064509Y-84479340D01*
X66043428Y-84485736D01*
X66015360Y-84488500D01*
X64101640Y-84488500D01*
X64073572Y-84485736D01*
X64052491Y-84479340D01*
X64033055Y-84468952D01*
X64016024Y-84454976D01*
X64002048Y-84437945D01*
X63991660Y-84418509D01*
X63985264Y-84397428D01*
X63982500Y-84369360D01*
X63982500Y-83905640D01*
X63985264Y-83877572D01*
X63991660Y-83856491D01*
X64002048Y-83837055D01*
X64016024Y-83820024D01*
X64033055Y-83806048D01*
X64052491Y-83795660D01*
X64073572Y-83789264D01*
X64101640Y-83786500D01*
X66015360Y-83786500D01*
X66043428Y-83789264D01*
G37*
G36*
X103708468Y-83256065D02*
G01*
X103747138Y-83267796D01*
X103782777Y-83286846D01*
X103814017Y-83312483D01*
X103839654Y-83343723D01*
X103858704Y-83379362D01*
X103870435Y-83418032D01*
X103875000Y-83464388D01*
X103875000Y-84115612D01*
X103870435Y-84161968D01*
X103858704Y-84200638D01*
X103839654Y-84236277D01*
X103814017Y-84267517D01*
X103782777Y-84293154D01*
X103747138Y-84312204D01*
X103708468Y-84323935D01*
X103662112Y-84328500D01*
X102585888Y-84328500D01*
X102539532Y-84323935D01*
X102500862Y-84312204D01*
X102465223Y-84293154D01*
X102433983Y-84267517D01*
X102408346Y-84236277D01*
X102389296Y-84200638D01*
X102377565Y-84161968D01*
X102373000Y-84115612D01*
X102373000Y-83464388D01*
X102377565Y-83418032D01*
X102389296Y-83379362D01*
X102408346Y-83343723D01*
X102433983Y-83312483D01*
X102465223Y-83286846D01*
X102500862Y-83267796D01*
X102539532Y-83256065D01*
X102585888Y-83251500D01*
X103662112Y-83251500D01*
X103708468Y-83256065D01*
G37*
G36*
X101422468Y-83256065D02*
G01*
X101461138Y-83267796D01*
X101496777Y-83286846D01*
X101528017Y-83312483D01*
X101553654Y-83343723D01*
X101572704Y-83379362D01*
X101584435Y-83418032D01*
X101589000Y-83464388D01*
X101589000Y-84115612D01*
X101584435Y-84161968D01*
X101572704Y-84200638D01*
X101553654Y-84236277D01*
X101528017Y-84267517D01*
X101496777Y-84293154D01*
X101461138Y-84312204D01*
X101422468Y-84323935D01*
X101376112Y-84328500D01*
X100299888Y-84328500D01*
X100253532Y-84323935D01*
X100214862Y-84312204D01*
X100179223Y-84293154D01*
X100147983Y-84267517D01*
X100122346Y-84236277D01*
X100103296Y-84200638D01*
X100091565Y-84161968D01*
X100087000Y-84115612D01*
X100087000Y-83464388D01*
X100091565Y-83418032D01*
X100103296Y-83379362D01*
X100122346Y-83343723D01*
X100147983Y-83312483D01*
X100179223Y-83286846D01*
X100214862Y-83267796D01*
X100253532Y-83256065D01*
X100299888Y-83251500D01*
X101376112Y-83251500D01*
X101422468Y-83256065D01*
G37*
G36*
X83526968Y-82565565D02*
G01*
X83565638Y-82577296D01*
X83601277Y-82596346D01*
X83632517Y-82621983D01*
X83658154Y-82653223D01*
X83677204Y-82688862D01*
X83688935Y-82727532D01*
X83693500Y-82773888D01*
X83693500Y-83850112D01*
X83688935Y-83896468D01*
X83677204Y-83935138D01*
X83658154Y-83970777D01*
X83632517Y-84002017D01*
X83601277Y-84027654D01*
X83565638Y-84046704D01*
X83526968Y-84058435D01*
X83480612Y-84063000D01*
X82829388Y-84063000D01*
X82783032Y-84058435D01*
X82744362Y-84046704D01*
X82708723Y-84027654D01*
X82677483Y-84002017D01*
X82651846Y-83970777D01*
X82632796Y-83935138D01*
X82621065Y-83896468D01*
X82616500Y-83850112D01*
X82616500Y-82773888D01*
X82621065Y-82727532D01*
X82632796Y-82688862D01*
X82651846Y-82653223D01*
X82677483Y-82621983D01*
X82708723Y-82596346D01*
X82744362Y-82577296D01*
X82783032Y-82565565D01*
X82829388Y-82561000D01*
X83480612Y-82561000D01*
X83526968Y-82565565D01*
G37*
G36*
X81651968Y-82565565D02*
G01*
X81690638Y-82577296D01*
X81726277Y-82596346D01*
X81757517Y-82621983D01*
X81783154Y-82653223D01*
X81802204Y-82688862D01*
X81813935Y-82727532D01*
X81818500Y-82773888D01*
X81818500Y-83850112D01*
X81813935Y-83896468D01*
X81802204Y-83935138D01*
X81783154Y-83970777D01*
X81757517Y-84002017D01*
X81726277Y-84027654D01*
X81690638Y-84046704D01*
X81651968Y-84058435D01*
X81605612Y-84063000D01*
X80954388Y-84063000D01*
X80908032Y-84058435D01*
X80869362Y-84046704D01*
X80833723Y-84027654D01*
X80802483Y-84002017D01*
X80776846Y-83970777D01*
X80757796Y-83935138D01*
X80746065Y-83896468D01*
X80741500Y-83850112D01*
X80741500Y-82773888D01*
X80746065Y-82727532D01*
X80757796Y-82688862D01*
X80776846Y-82653223D01*
X80802483Y-82621983D01*
X80833723Y-82596346D01*
X80869362Y-82577296D01*
X80908032Y-82565565D01*
X80954388Y-82561000D01*
X81605612Y-82561000D01*
X81651968Y-82565565D01*
G37*
G36*
X101422468Y-81381065D02*
G01*
X101461138Y-81392796D01*
X101496777Y-81411846D01*
X101528017Y-81437483D01*
X101553654Y-81468723D01*
X101572704Y-81504362D01*
X101584435Y-81543032D01*
X101589000Y-81589388D01*
X101589000Y-82240612D01*
X101584435Y-82286968D01*
X101572704Y-82325638D01*
X101553654Y-82361277D01*
X101528017Y-82392517D01*
X101496777Y-82418154D01*
X101461138Y-82437204D01*
X101422468Y-82448935D01*
X101376112Y-82453500D01*
X100299888Y-82453500D01*
X100253532Y-82448935D01*
X100214862Y-82437204D01*
X100179223Y-82418154D01*
X100147983Y-82392517D01*
X100122346Y-82361277D01*
X100103296Y-82325638D01*
X100091565Y-82286968D01*
X100087000Y-82240612D01*
X100087000Y-81589388D01*
X100091565Y-81543032D01*
X100103296Y-81504362D01*
X100122346Y-81468723D01*
X100147983Y-81437483D01*
X100179223Y-81411846D01*
X100214862Y-81392796D01*
X100253532Y-81381065D01*
X100299888Y-81376500D01*
X101376112Y-81376500D01*
X101422468Y-81381065D01*
G37*
G36*
X103708468Y-81381065D02*
G01*
X103747138Y-81392796D01*
X103782777Y-81411846D01*
X103814017Y-81437483D01*
X103839654Y-81468723D01*
X103858704Y-81504362D01*
X103870435Y-81543032D01*
X103875000Y-81589388D01*
X103875000Y-82240612D01*
X103870435Y-82286968D01*
X103858704Y-82325638D01*
X103839654Y-82361277D01*
X103814017Y-82392517D01*
X103782777Y-82418154D01*
X103747138Y-82437204D01*
X103708468Y-82448935D01*
X103662112Y-82453500D01*
X102585888Y-82453500D01*
X102539532Y-82448935D01*
X102500862Y-82437204D01*
X102465223Y-82418154D01*
X102433983Y-82392517D01*
X102408346Y-82361277D01*
X102389296Y-82325638D01*
X102377565Y-82286968D01*
X102373000Y-82240612D01*
X102373000Y-81589388D01*
X102377565Y-81543032D01*
X102389296Y-81504362D01*
X102408346Y-81468723D01*
X102433983Y-81437483D01*
X102465223Y-81411846D01*
X102500862Y-81392796D01*
X102539532Y-81381065D01*
X102585888Y-81376500D01*
X103662112Y-81376500D01*
X103708468Y-81381065D01*
G37*
G36*
X89738468Y-80492065D02*
G01*
X89777138Y-80503796D01*
X89812777Y-80522846D01*
X89844017Y-80548483D01*
X89869654Y-80579723D01*
X89888704Y-80615362D01*
X89900435Y-80654032D01*
X89905000Y-80700388D01*
X89905000Y-81351612D01*
X89900435Y-81397968D01*
X89888704Y-81436638D01*
X89869654Y-81472277D01*
X89844017Y-81503517D01*
X89812777Y-81529154D01*
X89777138Y-81548204D01*
X89738468Y-81559935D01*
X89692112Y-81564500D01*
X88615888Y-81564500D01*
X88569532Y-81559935D01*
X88530862Y-81548204D01*
X88495223Y-81529154D01*
X88463983Y-81503517D01*
X88438346Y-81472277D01*
X88419296Y-81436638D01*
X88407565Y-81397968D01*
X88403000Y-81351612D01*
X88403000Y-80700388D01*
X88407565Y-80654032D01*
X88419296Y-80615362D01*
X88438346Y-80579723D01*
X88463983Y-80548483D01*
X88495223Y-80522846D01*
X88530862Y-80503796D01*
X88569532Y-80492065D01*
X88615888Y-80487500D01*
X89692112Y-80487500D01*
X89738468Y-80492065D01*
G37*
G36*
X87706468Y-80492065D02*
G01*
X87745138Y-80503796D01*
X87780777Y-80522846D01*
X87812017Y-80548483D01*
X87837654Y-80579723D01*
X87856704Y-80615362D01*
X87868435Y-80654032D01*
X87873000Y-80700388D01*
X87873000Y-81351612D01*
X87868435Y-81397968D01*
X87856704Y-81436638D01*
X87837654Y-81472277D01*
X87812017Y-81503517D01*
X87780777Y-81529154D01*
X87745138Y-81548204D01*
X87706468Y-81559935D01*
X87660112Y-81564500D01*
X86583888Y-81564500D01*
X86537532Y-81559935D01*
X86498862Y-81548204D01*
X86463223Y-81529154D01*
X86431983Y-81503517D01*
X86406346Y-81472277D01*
X86387296Y-81436638D01*
X86375565Y-81397968D01*
X86371000Y-81351612D01*
X86371000Y-80700388D01*
X86375565Y-80654032D01*
X86387296Y-80615362D01*
X86406346Y-80579723D01*
X86431983Y-80548483D01*
X86463223Y-80522846D01*
X86498862Y-80503796D01*
X86537532Y-80492065D01*
X86583888Y-80487500D01*
X87660112Y-80487500D01*
X87706468Y-80492065D01*
G37*
G36*
X118777500Y-81507000D02*
G01*
X116475500Y-81507000D01*
X116475500Y-79605000D01*
X118777500Y-79605000D01*
X118777500Y-81507000D01*
G37*
G36*
X81554968Y-79898565D02*
G01*
X81593638Y-79910296D01*
X81629277Y-79929346D01*
X81660517Y-79954983D01*
X81686154Y-79986223D01*
X81705204Y-80021862D01*
X81716935Y-80060532D01*
X81721500Y-80106888D01*
X81721500Y-81183112D01*
X81716935Y-81229468D01*
X81705204Y-81268138D01*
X81686154Y-81303777D01*
X81660517Y-81335017D01*
X81629277Y-81360654D01*
X81593638Y-81379704D01*
X81554968Y-81391435D01*
X81508612Y-81396000D01*
X80857388Y-81396000D01*
X80811032Y-81391435D01*
X80772362Y-81379704D01*
X80736723Y-81360654D01*
X80705483Y-81335017D01*
X80679846Y-81303777D01*
X80660796Y-81268138D01*
X80649065Y-81229468D01*
X80644500Y-81183112D01*
X80644500Y-80106888D01*
X80649065Y-80060532D01*
X80660796Y-80021862D01*
X80679846Y-79986223D01*
X80705483Y-79954983D01*
X80736723Y-79929346D01*
X80772362Y-79910296D01*
X80811032Y-79898565D01*
X80857388Y-79894000D01*
X81508612Y-79894000D01*
X81554968Y-79898565D01*
G37*
G36*
X83429968Y-79898565D02*
G01*
X83468638Y-79910296D01*
X83504277Y-79929346D01*
X83535517Y-79954983D01*
X83561154Y-79986223D01*
X83580204Y-80021862D01*
X83591935Y-80060532D01*
X83596500Y-80106888D01*
X83596500Y-81183112D01*
X83591935Y-81229468D01*
X83580204Y-81268138D01*
X83561154Y-81303777D01*
X83535517Y-81335017D01*
X83504277Y-81360654D01*
X83468638Y-81379704D01*
X83429968Y-81391435D01*
X83383612Y-81396000D01*
X82732388Y-81396000D01*
X82686032Y-81391435D01*
X82647362Y-81379704D01*
X82611723Y-81360654D01*
X82580483Y-81335017D01*
X82554846Y-81303777D01*
X82535796Y-81268138D01*
X82524065Y-81229468D01*
X82519500Y-81183112D01*
X82519500Y-80106888D01*
X82524065Y-80060532D01*
X82535796Y-80021862D01*
X82554846Y-79986223D01*
X82580483Y-79954983D01*
X82611723Y-79929346D01*
X82647362Y-79910296D01*
X82686032Y-79898565D01*
X82732388Y-79894000D01*
X83383612Y-79894000D01*
X83429968Y-79898565D01*
G37*
G36*
X92405000Y-80364000D02*
G01*
X91323000Y-80364000D01*
X91323000Y-76862000D01*
X92405000Y-76862000D01*
X92405000Y-80364000D01*
G37*
G36*
X94775000Y-80364000D02*
G01*
X93693000Y-80364000D01*
X93693000Y-76862000D01*
X94775000Y-76862000D01*
X94775000Y-80364000D01*
G37*
G36*
X103128000Y-80352000D02*
G01*
X102226000Y-80352000D01*
X102226000Y-79350000D01*
X103128000Y-79350000D01*
X103128000Y-80352000D01*
G37*
G36*
X101228000Y-80352000D02*
G01*
X100326000Y-80352000D01*
X100326000Y-79350000D01*
X101228000Y-79350000D01*
X101228000Y-80352000D01*
G37*
G36*
X105232468Y-79222065D02*
G01*
X105271138Y-79233796D01*
X105306777Y-79252846D01*
X105338017Y-79278483D01*
X105363654Y-79309723D01*
X105382704Y-79345362D01*
X105394435Y-79384032D01*
X105399000Y-79430388D01*
X105399000Y-80081612D01*
X105394435Y-80127968D01*
X105382704Y-80166638D01*
X105363654Y-80202277D01*
X105338017Y-80233517D01*
X105306777Y-80259154D01*
X105271138Y-80278204D01*
X105232468Y-80289935D01*
X105186112Y-80294500D01*
X104109888Y-80294500D01*
X104063532Y-80289935D01*
X104024862Y-80278204D01*
X103989223Y-80259154D01*
X103957983Y-80233517D01*
X103932346Y-80202277D01*
X103913296Y-80166638D01*
X103901565Y-80127968D01*
X103897000Y-80081612D01*
X103897000Y-79430388D01*
X103901565Y-79384032D01*
X103913296Y-79345362D01*
X103932346Y-79309723D01*
X103957983Y-79278483D01*
X103989223Y-79252846D01*
X104024862Y-79233796D01*
X104063532Y-79222065D01*
X104109888Y-79217500D01*
X105186112Y-79217500D01*
X105232468Y-79222065D01*
G37*
G36*
X97231468Y-79192065D02*
G01*
X97270138Y-79203796D01*
X97305777Y-79222846D01*
X97337017Y-79248483D01*
X97362654Y-79279723D01*
X97381704Y-79315362D01*
X97393435Y-79354032D01*
X97398000Y-79400388D01*
X97398000Y-80051612D01*
X97393435Y-80097968D01*
X97381704Y-80136638D01*
X97362654Y-80172277D01*
X97337017Y-80203517D01*
X97305777Y-80229154D01*
X97270138Y-80248204D01*
X97231468Y-80259935D01*
X97185112Y-80264500D01*
X96108888Y-80264500D01*
X96062532Y-80259935D01*
X96023862Y-80248204D01*
X95988223Y-80229154D01*
X95956983Y-80203517D01*
X95931346Y-80172277D01*
X95912296Y-80136638D01*
X95900565Y-80097968D01*
X95896000Y-80051612D01*
X95896000Y-79400388D01*
X95900565Y-79354032D01*
X95912296Y-79315362D01*
X95931346Y-79279723D01*
X95956983Y-79248483D01*
X95988223Y-79222846D01*
X96023862Y-79203796D01*
X96062532Y-79192065D01*
X96108888Y-79187500D01*
X97185112Y-79187500D01*
X97231468Y-79192065D01*
G37*
G36*
X99390468Y-79192065D02*
G01*
X99429138Y-79203796D01*
X99464777Y-79222846D01*
X99496017Y-79248483D01*
X99521654Y-79279723D01*
X99540704Y-79315362D01*
X99552435Y-79354032D01*
X99557000Y-79400388D01*
X99557000Y-80051612D01*
X99552435Y-80097968D01*
X99540704Y-80136638D01*
X99521654Y-80172277D01*
X99496017Y-80203517D01*
X99464777Y-80229154D01*
X99429138Y-80248204D01*
X99390468Y-80259935D01*
X99344112Y-80264500D01*
X98267888Y-80264500D01*
X98221532Y-80259935D01*
X98182862Y-80248204D01*
X98147223Y-80229154D01*
X98115983Y-80203517D01*
X98090346Y-80172277D01*
X98071296Y-80136638D01*
X98059565Y-80097968D01*
X98055000Y-80051612D01*
X98055000Y-79400388D01*
X98059565Y-79354032D01*
X98071296Y-79315362D01*
X98090346Y-79279723D01*
X98115983Y-79248483D01*
X98147223Y-79222846D01*
X98182862Y-79203796D01*
X98221532Y-79192065D01*
X98267888Y-79187500D01*
X99344112Y-79187500D01*
X99390468Y-79192065D01*
G37*
G36*
X87706468Y-78617065D02*
G01*
X87745138Y-78628796D01*
X87780777Y-78647846D01*
X87812017Y-78673483D01*
X87837654Y-78704723D01*
X87856704Y-78740362D01*
X87868435Y-78779032D01*
X87873000Y-78825388D01*
X87873000Y-79476612D01*
X87868435Y-79522968D01*
X87856704Y-79561638D01*
X87837654Y-79597277D01*
X87812017Y-79628517D01*
X87780777Y-79654154D01*
X87745138Y-79673204D01*
X87706468Y-79684935D01*
X87660112Y-79689500D01*
X86583888Y-79689500D01*
X86537532Y-79684935D01*
X86498862Y-79673204D01*
X86463223Y-79654154D01*
X86431983Y-79628517D01*
X86406346Y-79597277D01*
X86387296Y-79561638D01*
X86375565Y-79522968D01*
X86371000Y-79476612D01*
X86371000Y-78825388D01*
X86375565Y-78779032D01*
X86387296Y-78740362D01*
X86406346Y-78704723D01*
X86431983Y-78673483D01*
X86463223Y-78647846D01*
X86498862Y-78628796D01*
X86537532Y-78617065D01*
X86583888Y-78612500D01*
X87660112Y-78612500D01*
X87706468Y-78617065D01*
G37*
G36*
X89738468Y-78617065D02*
G01*
X89777138Y-78628796D01*
X89812777Y-78647846D01*
X89844017Y-78673483D01*
X89869654Y-78704723D01*
X89888704Y-78740362D01*
X89900435Y-78779032D01*
X89905000Y-78825388D01*
X89905000Y-79476612D01*
X89900435Y-79522968D01*
X89888704Y-79561638D01*
X89869654Y-79597277D01*
X89844017Y-79628517D01*
X89812777Y-79654154D01*
X89777138Y-79673204D01*
X89738468Y-79684935D01*
X89692112Y-79689500D01*
X88615888Y-79689500D01*
X88569532Y-79684935D01*
X88530862Y-79673204D01*
X88495223Y-79654154D01*
X88463983Y-79628517D01*
X88438346Y-79597277D01*
X88419296Y-79561638D01*
X88407565Y-79522968D01*
X88403000Y-79476612D01*
X88403000Y-78825388D01*
X88407565Y-78779032D01*
X88419296Y-78740362D01*
X88438346Y-78704723D01*
X88463983Y-78673483D01*
X88495223Y-78647846D01*
X88530862Y-78628796D01*
X88569532Y-78617065D01*
X88615888Y-78612500D01*
X89692112Y-78612500D01*
X89738468Y-78617065D01*
G37*
G36*
X81554968Y-77739565D02*
G01*
X81593638Y-77751296D01*
X81629277Y-77770346D01*
X81660517Y-77795983D01*
X81686154Y-77827223D01*
X81705204Y-77862862D01*
X81716935Y-77901532D01*
X81721500Y-77947888D01*
X81721500Y-79024112D01*
X81716935Y-79070468D01*
X81705204Y-79109138D01*
X81686154Y-79144777D01*
X81660517Y-79176017D01*
X81629277Y-79201654D01*
X81593638Y-79220704D01*
X81554968Y-79232435D01*
X81508612Y-79237000D01*
X80857388Y-79237000D01*
X80811032Y-79232435D01*
X80772362Y-79220704D01*
X80736723Y-79201654D01*
X80705483Y-79176017D01*
X80679846Y-79144777D01*
X80660796Y-79109138D01*
X80649065Y-79070468D01*
X80644500Y-79024112D01*
X80644500Y-77947888D01*
X80649065Y-77901532D01*
X80660796Y-77862862D01*
X80679846Y-77827223D01*
X80705483Y-77795983D01*
X80736723Y-77770346D01*
X80772362Y-77751296D01*
X80811032Y-77739565D01*
X80857388Y-77735000D01*
X81508612Y-77735000D01*
X81554968Y-77739565D01*
G37*
G36*
X83429968Y-77739565D02*
G01*
X83468638Y-77751296D01*
X83504277Y-77770346D01*
X83535517Y-77795983D01*
X83561154Y-77827223D01*
X83580204Y-77862862D01*
X83591935Y-77901532D01*
X83596500Y-77947888D01*
X83596500Y-79024112D01*
X83591935Y-79070468D01*
X83580204Y-79109138D01*
X83561154Y-79144777D01*
X83535517Y-79176017D01*
X83504277Y-79201654D01*
X83468638Y-79220704D01*
X83429968Y-79232435D01*
X83383612Y-79237000D01*
X82732388Y-79237000D01*
X82686032Y-79232435D01*
X82647362Y-79220704D01*
X82611723Y-79201654D01*
X82580483Y-79176017D01*
X82554846Y-79144777D01*
X82535796Y-79109138D01*
X82524065Y-79070468D01*
X82519500Y-79024112D01*
X82519500Y-77947888D01*
X82524065Y-77901532D01*
X82535796Y-77862862D01*
X82554846Y-77827223D01*
X82580483Y-77795983D01*
X82611723Y-77770346D01*
X82647362Y-77751296D01*
X82686032Y-77739565D01*
X82732388Y-77735000D01*
X83383612Y-77735000D01*
X83429968Y-77739565D01*
G37*
G36*
X105232468Y-77347065D02*
G01*
X105271138Y-77358796D01*
X105306777Y-77377846D01*
X105338017Y-77403483D01*
X105363654Y-77434723D01*
X105382704Y-77470362D01*
X105394435Y-77509032D01*
X105399000Y-77555388D01*
X105399000Y-78206612D01*
X105394435Y-78252968D01*
X105382704Y-78291638D01*
X105363654Y-78327277D01*
X105338017Y-78358517D01*
X105306777Y-78384154D01*
X105271138Y-78403204D01*
X105232468Y-78414935D01*
X105186112Y-78419500D01*
X104109888Y-78419500D01*
X104063532Y-78414935D01*
X104024862Y-78403204D01*
X103989223Y-78384154D01*
X103957983Y-78358517D01*
X103932346Y-78327277D01*
X103913296Y-78291638D01*
X103901565Y-78252968D01*
X103897000Y-78206612D01*
X103897000Y-77555388D01*
X103901565Y-77509032D01*
X103913296Y-77470362D01*
X103932346Y-77434723D01*
X103957983Y-77403483D01*
X103989223Y-77377846D01*
X104024862Y-77358796D01*
X104063532Y-77347065D01*
X104109888Y-77342500D01*
X105186112Y-77342500D01*
X105232468Y-77347065D01*
G37*
G36*
X99390468Y-77317065D02*
G01*
X99429138Y-77328796D01*
X99464777Y-77347846D01*
X99496017Y-77373483D01*
X99521654Y-77404723D01*
X99540704Y-77440362D01*
X99552435Y-77479032D01*
X99557000Y-77525388D01*
X99557000Y-78176612D01*
X99552435Y-78222968D01*
X99540704Y-78261638D01*
X99521654Y-78297277D01*
X99496017Y-78328517D01*
X99464777Y-78354154D01*
X99429138Y-78373204D01*
X99390468Y-78384935D01*
X99344112Y-78389500D01*
X98267888Y-78389500D01*
X98221532Y-78384935D01*
X98182862Y-78373204D01*
X98147223Y-78354154D01*
X98115983Y-78328517D01*
X98090346Y-78297277D01*
X98071296Y-78261638D01*
X98059565Y-78222968D01*
X98055000Y-78176612D01*
X98055000Y-77525388D01*
X98059565Y-77479032D01*
X98071296Y-77440362D01*
X98090346Y-77404723D01*
X98115983Y-77373483D01*
X98147223Y-77347846D01*
X98182862Y-77328796D01*
X98221532Y-77317065D01*
X98267888Y-77312500D01*
X99344112Y-77312500D01*
X99390468Y-77317065D01*
G37*
G36*
X97231468Y-77317065D02*
G01*
X97270138Y-77328796D01*
X97305777Y-77347846D01*
X97337017Y-77373483D01*
X97362654Y-77404723D01*
X97381704Y-77440362D01*
X97393435Y-77479032D01*
X97398000Y-77525388D01*
X97398000Y-78176612D01*
X97393435Y-78222968D01*
X97381704Y-78261638D01*
X97362654Y-78297277D01*
X97337017Y-78328517D01*
X97305777Y-78354154D01*
X97270138Y-78373204D01*
X97231468Y-78384935D01*
X97185112Y-78389500D01*
X96108888Y-78389500D01*
X96062532Y-78384935D01*
X96023862Y-78373204D01*
X95988223Y-78354154D01*
X95956983Y-78328517D01*
X95931346Y-78297277D01*
X95912296Y-78261638D01*
X95900565Y-78222968D01*
X95896000Y-78176612D01*
X95896000Y-77525388D01*
X95900565Y-77479032D01*
X95912296Y-77440362D01*
X95931346Y-77404723D01*
X95956983Y-77373483D01*
X95988223Y-77347846D01*
X96023862Y-77328796D01*
X96062532Y-77317065D01*
X96108888Y-77312500D01*
X97185112Y-77312500D01*
X97231468Y-77317065D01*
G37*
G36*
X102178000Y-78352000D02*
G01*
X101276000Y-78352000D01*
X101276000Y-77350000D01*
X102178000Y-77350000D01*
X102178000Y-78352000D01*
G37*
G36*
X89811000Y-76458000D02*
G01*
X89259000Y-76458000D01*
X89259000Y-75756000D01*
X89811000Y-75756000D01*
X89811000Y-76458000D01*
G37*
G36*
X95012604Y-73754347D02*
G01*
X95049144Y-73765432D01*
X95082821Y-73783433D01*
X95112341Y-73807659D01*
X95136567Y-73837179D01*
X95154568Y-73870856D01*
X95165653Y-73907396D01*
X95170000Y-73951538D01*
X95170000Y-75400462D01*
X95165653Y-75444604D01*
X95154568Y-75481144D01*
X95136567Y-75514821D01*
X95112341Y-75544341D01*
X95082821Y-75568567D01*
X95049144Y-75586568D01*
X95012604Y-75597653D01*
X94968462Y-75602000D01*
X94019538Y-75602000D01*
X93975396Y-75597653D01*
X93938856Y-75586568D01*
X93905179Y-75568567D01*
X93875659Y-75544341D01*
X93851433Y-75514821D01*
X93833432Y-75481144D01*
X93822347Y-75444604D01*
X93818000Y-75400462D01*
X93818000Y-73951538D01*
X93822347Y-73907396D01*
X93833432Y-73870856D01*
X93851433Y-73837179D01*
X93875659Y-73807659D01*
X93905179Y-73783433D01*
X93938856Y-73765432D01*
X93975396Y-73754347D01*
X94019538Y-73750000D01*
X94968462Y-73750000D01*
X95012604Y-73754347D01*
G37*
G36*
X92212604Y-73754347D02*
G01*
X92249144Y-73765432D01*
X92282821Y-73783433D01*
X92312341Y-73807659D01*
X92336567Y-73837179D01*
X92354568Y-73870856D01*
X92365653Y-73907396D01*
X92370000Y-73951538D01*
X92370000Y-75400462D01*
X92365653Y-75444604D01*
X92354568Y-75481144D01*
X92336567Y-75514821D01*
X92312341Y-75544341D01*
X92282821Y-75568567D01*
X92249144Y-75586568D01*
X92212604Y-75597653D01*
X92168462Y-75602000D01*
X91219538Y-75602000D01*
X91175396Y-75597653D01*
X91138856Y-75586568D01*
X91105179Y-75568567D01*
X91075659Y-75544341D01*
X91051433Y-75514821D01*
X91033432Y-75481144D01*
X91022347Y-75444604D01*
X91018000Y-75400462D01*
X91018000Y-73951538D01*
X91022347Y-73907396D01*
X91033432Y-73870856D01*
X91051433Y-73837179D01*
X91075659Y-73807659D01*
X91105179Y-73783433D01*
X91138856Y-73765432D01*
X91175396Y-73754347D01*
X91219538Y-73750000D01*
X92168462Y-73750000D01*
X92212604Y-73754347D01*
G37*
G36*
X89811000Y-74358000D02*
G01*
X89259000Y-74358000D01*
X89259000Y-73656000D01*
X89811000Y-73656000D01*
X89811000Y-74358000D01*
G37*
G36*
X94400468Y-71262565D02*
G01*
X94439138Y-71274296D01*
X94474777Y-71293346D01*
X94506017Y-71318983D01*
X94531654Y-71350223D01*
X94550704Y-71385862D01*
X94562435Y-71424532D01*
X94567000Y-71470888D01*
X94567000Y-72547112D01*
X94562435Y-72593468D01*
X94550704Y-72632138D01*
X94531654Y-72667777D01*
X94506017Y-72699017D01*
X94474777Y-72724654D01*
X94439138Y-72743704D01*
X94400468Y-72755435D01*
X94354112Y-72760000D01*
X93702888Y-72760000D01*
X93656532Y-72755435D01*
X93617862Y-72743704D01*
X93582223Y-72724654D01*
X93550983Y-72699017D01*
X93525346Y-72667777D01*
X93506296Y-72632138D01*
X93494565Y-72593468D01*
X93490000Y-72547112D01*
X93490000Y-71470888D01*
X93494565Y-71424532D01*
X93506296Y-71385862D01*
X93525346Y-71350223D01*
X93550983Y-71318983D01*
X93582223Y-71293346D01*
X93617862Y-71274296D01*
X93656532Y-71262565D01*
X93702888Y-71258000D01*
X94354112Y-71258000D01*
X94400468Y-71262565D01*
G37*
G36*
X92525468Y-71262565D02*
G01*
X92564138Y-71274296D01*
X92599777Y-71293346D01*
X92631017Y-71318983D01*
X92656654Y-71350223D01*
X92675704Y-71385862D01*
X92687435Y-71424532D01*
X92692000Y-71470888D01*
X92692000Y-72547112D01*
X92687435Y-72593468D01*
X92675704Y-72632138D01*
X92656654Y-72667777D01*
X92631017Y-72699017D01*
X92599777Y-72724654D01*
X92564138Y-72743704D01*
X92525468Y-72755435D01*
X92479112Y-72760000D01*
X91827888Y-72760000D01*
X91781532Y-72755435D01*
X91742862Y-72743704D01*
X91707223Y-72724654D01*
X91675983Y-72699017D01*
X91650346Y-72667777D01*
X91631296Y-72632138D01*
X91619565Y-72593468D01*
X91615000Y-72547112D01*
X91615000Y-71470888D01*
X91619565Y-71424532D01*
X91631296Y-71385862D01*
X91650346Y-71350223D01*
X91675983Y-71318983D01*
X91707223Y-71293346D01*
X91742862Y-71274296D01*
X91781532Y-71262565D01*
X91827888Y-71258000D01*
X92479112Y-71258000D01*
X92525468Y-71262565D01*
G37*
G36*
X61589256Y-67796798D02*
G01*
X61695579Y-67817947D01*
X61996042Y-67942403D01*
X62266451Y-68123085D01*
X62496415Y-68353049D01*
X62677097Y-68623458D01*
X62801553Y-68923921D01*
X62865000Y-69242891D01*
X62865000Y-69568109D01*
X62801553Y-69887079D01*
X62677097Y-70187542D01*
X62496415Y-70457951D01*
X62266451Y-70687915D01*
X61996042Y-70868597D01*
X61695579Y-70993053D01*
X61589256Y-71014202D01*
X61376611Y-71056500D01*
X61051389Y-71056500D01*
X60838744Y-71014202D01*
X60732421Y-70993053D01*
X60431958Y-70868597D01*
X60161549Y-70687915D01*
X59931585Y-70457951D01*
X59750903Y-70187542D01*
X59626447Y-69887079D01*
X59563000Y-69568109D01*
X59563000Y-69242891D01*
X59626447Y-68923921D01*
X59750903Y-68623458D01*
X59931585Y-68353049D01*
X60161549Y-68123085D01*
X60431958Y-67942403D01*
X60732421Y-67817947D01*
X60838744Y-67796798D01*
X61051389Y-67754500D01*
X61376611Y-67754500D01*
X61589256Y-67796798D01*
G37*
M02*
